**ABCDEFGHIJKLMNOPQRSTUVWXYZabcdefghijklmnopqrstuvwxyz**************************
**PARASOLID !"#$%&'()*+,-./:;<=>?@[\]^_`{|}~0123456789**************************
**PART1;
MC=unknown;
MC_MODEL=unknown;
MC_ID=unknown;
OS=unknown;
OS_RELEASE=unknown;
FRU=Parasolid 37.0.209;
APPL=Onshape;
SITE=unknown;
USER=unknown;
FORMAT=text;
GUISE=transmit;
KEY=BTGapi::writeModels_.xmt;
FILE=BTGapi::writeModels_.xmt;
DATE=2025-03-16T16:43:44 (UTC);
**PART2;
SCH=SCH_3700209_36001;
USFLD_SIZE=0;
**PART3;
**END_OF_HEADER*****************************************************************
T51 : TRANSMIT FILE created by modeller version 370020923 SCH_3700209_36001_1300
6231 0 12 36 CCCI7 lattice222 0 CCCI4 mesh1006 0 I8 polyline1008 0 CCCCCCCDI5 ow
ner1040 0 CCCI16 boundary_lattice222 0 CCCI13 boundary_mesh1006 0 I17 boundary_p
olyline1008 0 CCCA16 index_map_offset0 0 1 dA9 index_map82 0 A17 node_id_index_m
ap82 0 A20 schema_embedding_map82 0 A5 child12 0 A14 lowest_node_id0 0 1 dA16 me
sh_offset_data206 0 Z1 181 2 3 0 0 0 0 0 0 0 1e3 1e-8 0 4 5 1 0 1 2 6 0 7 8 9 0
 0 10 11 12 0 0 0 0 0 0 0 81 255 1 2 181 13 1 14 0 0 0 15 70 11 CI9 list_type0 0
 1 uI10 notransmit0 0 1 lCCCDCCDI12 finger_index0 0 1 dI12 finger_block1012 0 CZ
3 0 4 T1 0 0 3 20 1 16 16 13 255 6 137 0 1 0 17 0 0 18 0 50 255 7 132 0 17 19 0
 0 +.039 .01 .002 -1 0 0 0 0 1 30 255 8 136 0 11 20 0 0 +.039 -551091059616309e-
33 .002 0 0 -1 29 255 9 113 0 21 22 0 .039 .02 0 19 9 CCCCCCI5 frame230 0 CA5 ow
ner12 0 Z10 48 0 1 18 0 23 0 V0 16 255 11 120 0 ?24 0 25 8 0 0 1 18 255 12 42 0
 26 0 27 28 ?1 17 255 26 0 29 30 31 12 32 33 0 34 -18 27 37 0 35 12 36 37 ?1 29
 28 44 0 12 37 38 .039 .02 .002 29 37 39 0 27 39 28 .057 .02 .002 29 38 116 0 40
 28 41 .039 -551091059616309e-33 0 18 40 104 0 24 42 0 38 ?1 29 41 115 0 42 38 2
2 .057 0 0 18 42 100 0 43 44 40 41 ?1 29 22 114 0 44 41 9 .057 .02 0 18 44 96 0
 45 21 42 22 ?1 17 45 0 29 31 30 44 46 47 0 48 +18 21 92 0 32 49 44 9 ?1 17 32 0
 50 51 34 21 26 33 0 52 +18 49 27 0 53 36 21 54 ?1 17 53 0 50 34 51 49 24 11 0 5
5 -18 36 32 0 56 27 49 39 ?1 29 54 29 0 49 0 39 .039 -551091059616309e-33 .002 2
9 39 34 0 36 54 37 .057 0 .002 17 56 0 57 35 58 36 55 59 0 60 +15 255 57 6 0 58
 61 0 17 35 0 57 62 56 27 63 64 0 46 +17 58 0 57 56 62 49 34 65 0 0 -17 55 0 66
 24 60 49 56 59 0 58 -16 59 12 0 ?56 64 65 67 0 0 1 17 60 0 66 55 43 36 68 25 0
 63 -15 66 125 0 43 69 0 17 43 0 66 60 24 42 70 71 0 68 +17 68 0 72 48 63 42 60
 25 0 73 +16 25 119 0 ?68 11 47 20 0 0 1 17 63 0 72 68 46 36 35 64 0 0 -15 72 12
3 0 48 74 0 17 46 0 72 63 48 27 45 47 0 30 -16 64 17 0 ?35 75 59 76 0 0 1 16 75
 22 0 ?30 33 64 77 0 0 1 30 76 19 0 64 67 77 0 +.057 .01 .002 0 1 0 30 67 14 0 5
9 78 76 0 +.048 -551091059616309e-33 .002 1 0 0 30 77 24 0 75 76 79 0 +.048 .02
 .002 1 0 0 30 79 112 0 80 77 81 0 +.039 .01 0 0 1 0 16 80 88 0 ?52 71 0 79 0 0
 1 30 81 111 0 71 79 82 0 +.048 -551091059616309e-33 0 1 0 0 16 71 84 0 ?43 83 8
0 81 0 0 1 30 82 110 0 83 81 84 0 +.057 .01 0 0 1 0 16 83 80 0 ?48 85 71 82 0 0
 1 30 84 109 0 85 82 86 0 +.048 .02 0 1 0 0 16 85 76 0 ?87 65 83 84 0 0 1 30 86
 133 0 33 84 88 0 +.039 .02 .002 0 0 -1 16 33 117 0 ?32 47 75 86 0 0 1 30 88 134
 0 47 86 20 0 +.057 .02 .002 0 0 -1 16 47 118 0 ?45 25 33 88 0 0 1 30 20 135 0 2
5 88 8 0 +.057 0 .002 0 0 -1 17 87 0 89 73 52 44 31 85 0 0 +16 65 7 0 ?34 59 85
 78 0 0 1 17 34 0 50 32 53 12 58 65 0 62 +30 78 9 0 65 0 67 0 +.039 .01 .002 0 1
 0 15 50 127 0 51 17 0 17 62 0 57 58 35 12 30 75 0 0 -17 30 0 29 45 26 27 62 75
 0 0 +15 29 121 0 31 90 0 17 31 0 29 26 45 21 87 85 0 0 -14 255 90 122 0 ?61 74
 29 6 91 +0 0 61 74 23 14 61 1 0 ?92 90 57 6 93 +0 0 92 90 23 14 74 124 0 ?90 69
 72 6 94 -0 0 90 69 23 50 91 129 0 90 95 94 0 +.048 .02 .002 0 1 0 0 0 1 13 23 4
9 0 0 0 0 0 0 10 17 14 17 128 0 ?69 0 50 6 7 +0 0 69 0 23 14 69 126 0 ?74 17 66
 6 19 -0 0 74 17 23 50 19 131 0 69 94 7 0 +.048 -551091059616309e-33 .002 0 1 0
 0 0 1 50 94 130 0 74 91 19 0 +.057 .01 .002 -1 0 0 0 0 1 50 95 108 0 92 93 91 0
 +.0115 -693889390390723e-32 0 0 0 1 1 0 0 14 92 68 0 ?0 61 89 6 95 -0 0 0 61 23
 50 93 3 0 61 0 95 0 +.0115 -693889390390723e-32 .002 0 0 1 1 0 0 15 89 75 0 52
 92 0 17 52 0 89 87 70 21 51 80 0 31 +17 70 0 89 52 73 40 43 71 0 51 -17 51 0 50
 53 32 40 52 80 0 0 -17 73 0 89 70 87 42 48 83 0 0 -17 48 0 72 46 68 44 73 83 0
 87 +17 24 0 66 43 55 40 53 11 0 70 +19 18 138 0 1 0 10 6 0 S0 74 4 CI16 index_m
ap_offset0 0 1 dCCZ20 16 3 0 0 96 14 2 0 0 0 0 0 0 0 0 0 0 0 0 0 0 0 0 0 81 1 96
 179 97 1 0 14 0 0 98 81 1 14 180 99 1 96 2 0 0 100 80 7 CCCCCDI12 legal_owners0
 17 1 lCZ1 99 13 101 8038 0 0 0 0 0 0 0 0 0 TTTTTTTTTTTTTFTFT10 98 255 6 100 80
 97 114 116 32 50 79 255 14 101 SDL/TYSA_UNAME80 1 97 102 103 8040 0 0 0 0 3 5 0
 0 0 TTTFFFFFFFFFFFFFF2 83 255 3 98 .647058823529412 .647058823529412 .647058823
529412 79 17 103 SDL/TYSA_COLOUR_280 1 13 104 105 8017 0 0 0 0 0 0 0 0 0 TTTTTTT
TTTTTTFTFT3 84 255 6 15 Part 279 13 105 SDL/TYSA_NAME1 0 
