**ABCDEFGHIJKLMNOPQRSTUVWXYZabcdefghijklmnopqrstuvwxyz**************************
**PARASOLID !"#$%&'()*+,-./:;<=>?@[\]^_`{|}~0123456789**************************
**PART1;
MC=unknown;
MC_MODEL=unknown;
MC_ID=unknown;
OS=unknown;
OS_RELEASE=unknown;
FRU=Parasolid 37.0.209;
APPL=Onshape;
SITE=unknown;
USER=unknown;
FORMAT=text;
GUISE=transmit;
KEY=BTGapi::writeModels_.xmt;
FILE=BTGapi::writeModels_.xmt;
DATE=2025-03-16T16:43:44 (UTC);
**PART2;
SCH=SCH_3700209_36001;
USFLD_SIZE=0;
**PART3;
**END_OF_HEADER*****************************************************************
T51 : TRANSMIT FILE created by modeller version 370020923 SCH_3700209_36001_1300
6231 0 12 36 CCCI7 lattice222 0 CCCI4 mesh1006 0 I8 polyline1008 0 CCCCCCCDI5 ow
ner1040 0 CCCI16 boundary_lattice222 0 CCCI13 boundary_mesh1006 0 I17 boundary_p
olyline1008 0 CCCA16 index_map_offset0 0 1 dA9 index_map82 0 A17 node_id_index_m
ap82 0 A20 schema_embedding_map82 0 A5 child12 0 A14 lowest_node_id0 0 1 dA16 me
sh_offset_data206 0 Z1 2187 2 3 0 0 0 0 0 0 0 1e3 1e-8 0 4 5 1 0 1 2 6 0 7 8 9 0
 0 10 11 12 0 0 0 0 0 0 0 81 255 1 2 2187 13 1 14 0 0 0 15 70 11 CI9 list_type0
 0 1 uI10 notransmit0 0 1 lCCCDCCDI12 finger_index0 0 1 dI12 finger_block1012 0
 CZ3 0 4 T1 0 0 3 20 1 16 16 13 255 6 1500 0 1 0 17 0 0 18 0 50 255 7 1448 0 17
 19 0 0 +-.0841280046128546 -.002 .02755317359591655 -.939692620785908 0 .342020
1433256695 .3420201433256695 0 .939692620785908 30 255 8 1499 0 11 20 0 0 +-.084
8953266607346 -.002 .02544497359591655 0 1 0 29 255 9 1194 0 21 22 0 -.083360682
5649746 0 .0296613735959165 19 9 CCCCCCI5 frame230 0 CA5 owner12 0 Z10 518 0 1 1
8 0 23 0 V0 16 255 11 1295 0 ?24 0 25 8 0 0 1 18 255 12 512 0 26 0 27 28 ?1 17 2
55 26 0 29 30 31 12 32 33 0 34 -18 27 507 0 35 12 36 37 ?1 29 28 514 0 12 37 38
 -.0833606825649746 -.002 .0296613735959165 29 37 509 0 27 39 28 -.0818540749511
436 -.002 .0296613735959165 29 38 1244 0 40 28 41 -.0848953266607346 0 .02544497
359591655 18 40 1138 0 24 42 43 38 ?1 29 41 1243 0 42 38 44 -.0869423411553836 0
 .02544497359591655 18 42 1134 0 45 46 40 41 ?1 29 44 1242 0 46 41 47 -.08847698
52511436 0 .0296613735959165 18 46 1130 0 48 49 42 44 ?1 29 47 1241 0 49 44 50 -
.0899835928649746 0 .0296613735959165 18 49 1126 0 51 52 46 47 ?1 29 50 1240 0 5
2 47 53 -.0915182369607346 0 .02544497359591655 18 52 1122 0 54 55 49 50 ?1 29 5
3 1239 0 55 50 56 -.0935652514553836 0 .02544497359591655 18 55 1118 0 57 58 52
 53 ?1 29 56 1238 0 58 53 59 -.0950998955511436 0 .0296613735959165 18 58 1114 0
 60 61 55 56 ?1 29 59 1234 0 61 56 62 -.01866622366073455 0 .01909497359591655 1
8 61 1098 0 63 64 58 59 ?1 29 62 1233 0 64 59 65 -.01866622366073455 0 .02544497
359591655 18 64 1094 0 66 67 61 62 ?1 29 65 1232 0 67 62 68 -.0207132381553836 0
 .02544497359591655 18 67 1090 0 69 70 64 65 ?1 29 68 1231 0 70 65 71 -.02224788
22511436 0 .0296613735959165 18 70 1086 0 72 73 67 68 ?1 29 71 1230 0 73 68 74 -
.0237544898649746 0 .0296613735959165 18 73 1082 0 75 76 70 71 ?1 29 74 1229 0 7
6 71 77 -.0252891339607346 0 .02544497359591655 18 76 1078 0 78 79 73 74 ?1 29 7
7 1228 0 79 74 80 -.0273361484553836 0 .02544497359591655 18 79 1074 0 81 82 76
 77 ?1 29 80 1227 0 82 77 83 -.0288707925511436 0 .0296613735959165 18 82 1070 0
 84 85 79 80 ?1 29 83 1226 0 85 80 86 -.03037740016497455 0 .0296613735959165 18
 85 1066 0 87 88 82 83 ?1 29 86 1225 0 88 83 89 -.0319120442607346 0 .0254449735
9591655 18 88 1062 0 90 91 85 86 ?1 29 89 1224 0 91 86 92 -.0339590587553836 0 .
02544497359591655 18 91 1058 0 93 94 88 89 ?1 29 92 1223 0 94 89 95 -.0354937028
511436 0 .0296613735959165 18 94 1054 0 96 97 91 92 ?1 29 95 1222 0 97 92 98 -.0
370003104649746 0 .02966137359591655 18 97 1050 0 99 100 94 95 ?1 29 98 1221 0 1
00 95 101 -.0385349545607346 0 .02544497359591655 18 100 1046 0 102 103 97 98 ?1
 29 101 1220 0 103 98 104 -.0405819690553836 0 .02544497359591655 18 103 1042 0
 105 106 100 101 ?1 29 104 1219 0 106 101 107 -.04211661315114365 0 .02966137359
59165 18 106 1038 0 108 109 103 104 ?1 29 107 1218 0 109 104 110 -.0436232207649
746 0 .0296613735959165 18 109 1034 0 111 112 106 107 ?1 29 110 1217 0 112 107 1
13 -.0451578648607346 0 .02544497359591655 18 112 1030 0 114 115 109 110 ?1 29 1
13 1216 0 115 110 116 -.0472048793553836 0 .02544497359591655 18 115 1026 0 117
 118 112 113 ?1 29 116 1215 0 118 113 119 -.0487395234511436 0 .0296613735959165
 18 118 1022 0 120 121 115 116 ?1 29 119 1214 0 121 116 122 -.0502461310649746 0
 .0296613735959165 18 121 1018 0 123 124 118 119 ?1 29 122 1213 0 124 119 125 -.
0517807751607346 0 .02544497359591655 18 124 1014 0 126 127 121 122 ?1 29 125 12
12 0 127 122 128 -.0538277896553836 0 .02544497359591655 18 127 1010 0 129 130 1
24 125 ?1 29 128 1211 0 130 125 131 -.0553624337511436 0 .0296613735959165 18 13
0 1006 0 132 133 127 128 ?1 29 131 1210 0 133 128 134 -.0568690413649746 0 .0296
613735959165 18 133 1002 0 135 136 130 131 ?1 29 134 1209 0 136 131 137 -.058403
6854607346 0 .02544497359591655 18 136 998 0 138 139 133 134 ?1 29 137 1208 0 13
9 134 140 -.0604506999553836 0 .02544497359591655 18 139 994 0 141 142 136 137 ?
1 29 140 1207 0 142 137 143 -.0619853440511436 0 .0296613735959165 18 142 990 0
 144 145 139 140 ?1 29 143 1206 0 145 140 146 -.0634919516649746 0 .029661373595
9165 18 145 986 0 147 148 142 143 ?1 29 146 1205 0 148 143 149 -.065026595760734
6 0 .02544497359591655 18 148 982 0 150 151 145 146 ?1 29 149 1204 0 151 146 152
 -.0670736102553836 0 .02544497359591655 18 151 978 0 153 154 148 149 ?1 29 152
 1203 0 154 149 155 -.0686082543511436 0 .0296613735959165 18 154 974 0 156 157
 151 152 ?1 29 155 1202 0 157 152 158 -.0701148619649746 0 .0296613735959165 18
 157 970 0 159 160 154 155 ?1 29 158 1201 0 160 155 161 -.0716495060607346 0 .02
544497359591655 18 160 966 0 162 163 157 158 ?1 29 161 1200 0 163 158 164 -.0736
965205553836 0 .02544497359591655 18 163 962 0 165 166 160 161 ?1 29 164 1199 0
 166 161 167 -.0752311646511436 0 .0296613735959165 18 166 958 0 168 169 163 164
 ?1 29 167 1198 0 169 164 170 -.0767377722649746 0 .0296613735959165 18 169 954
 0 171 172 166 167 ?1 29 170 1197 0 172 167 173 -.0782724163607346 0 .0254449735
9591655 18 172 950 0 174 175 169 170 ?1 29 173 1196 0 175 170 22 -.0803194308553
836 0 .02544497359591655 18 175 946 0 176 177 172 173 ?1 29 22 1195 0 177 173 9
 -.0818540749511436 0 .0296613735959165 18 177 942 0 178 21 175 22 ?1 17 178 0 2
9 31 30 177 35 179 0 180 +18 21 938 0 32 181 177 9 ?1 17 32 0 182 183 34 21 26 3
3 0 184 +18 181 262 0 185 186 21 187 ?1 17 185 0 182 34 183 181 24 11 0 188 -18
 186 267 0 189 190 181 191 ?1 29 187 264 0 181 192 191 -.0848953266607346 -.002
 .02544497359591655 29 192 2130 0 193 194 187 -.1431411472607346 0 .029661373595
9165 29 191 269 0 186 187 195 -.0869423411553836 -.002 .02544497359591655 29 195
 274 0 190 191 196 -.0884769852511436 -.002 .0296613735959165 18 190 272 0 197 1
98 186 195 ?1 29 196 279 0 198 195 199 -.0899835928649746 -.002 .029661373595916
5 18 198 277 0 200 201 190 196 ?1 29 199 284 0 201 196 202 -.0915182369607346 -.
002 .02544497359591655 18 201 282 0 203 204 198 199 ?1 29 202 289 0 204 199 205
 -.0935652514553836 -.002 .02544497359591655 18 204 287 0 206 207 201 202 ?1 29
 205 294 0 207 202 208 -.0950998955511436 -.002 .0296613735959165 18 207 292 0 2
09 210 204 205 ?1 29 208 314 0 210 205 211 -.01866622366073455 -.002 .0190949735
9591655 18 210 312 0 212 213 207 208 ?1 29 211 319 0 213 208 214 -.0186662236607
3455 -.002 .02544497359591655 18 213 317 0 215 216 210 211 ?1 29 214 324 0 216 2
11 217 -.0207132381553836 -.002 .02544497359591655 18 216 322 0 218 219 213 214
 ?1 29 217 329 0 219 214 220 -.0222478822511436 -.002 .0296613735959165 18 219 3
27 0 221 222 216 217 ?1 29 220 334 0 222 217 223 -.0237544898649746 -.002 .02966
13735959165 18 222 332 0 224 225 219 220 ?1 29 223 339 0 225 220 226 -.025289133
9607346 -.002 .02544497359591655 18 225 337 0 227 228 222 223 ?1 29 226 344 0 22
8 223 229 -.0273361484553836 -.002 .02544497359591655 18 228 342 0 230 231 225 2
26 ?1 29 229 349 0 231 226 232 -.0288707925511436 -.002 .0296613735959165 18 231
 347 0 233 234 228 229 ?1 29 232 354 0 234 229 235 -.03037740016497455 -.002 .02
96613735959165 18 234 352 0 236 237 231 232 ?1 29 235 359 0 237 232 238 -.031912
0442607346 -.002 .02544497359591655 18 237 357 0 239 240 234 235 ?1 29 238 364 0
 240 235 241 -.0339590587553836 -.002 .02544497359591655 18 240 362 0 242 243 23
7 238 ?1 29 241 369 0 243 238 244 -.0354937028511436 -.002 .0296613735959165 18
 243 367 0 245 246 240 241 ?1 29 244 374 0 246 241 247 -.0370003104649746 -.002
 .02966137359591655 18 246 372 0 248 249 243 244 ?1 29 247 379 0 249 244 250 -.0
385349545607346 -.002 .02544497359591655 18 249 377 0 251 252 246 247 ?1 29 250
 384 0 252 247 253 -.0405819690553836 -.002 .02544497359591655 18 252 382 0 254
 255 249 250 ?1 29 253 389 0 255 250 256 -.04211661315114365 -.002 .029661373595
9165 18 255 387 0 257 258 252 253 ?1 29 256 394 0 258 253 259 -.0436232207649746
 -.002 .0296613735959165 18 258 392 0 260 261 255 256 ?1 29 259 399 0 261 256 26
2 -.0451578648607346 -.002 .02544497359591655 18 261 397 0 263 264 258 259 ?1 29
 262 404 0 264 259 265 -.0472048793553836 -.002 .02544497359591655 18 264 402 0
 266 267 261 262 ?1 29 265 409 0 267 262 268 -.0487395234511436 -.002 .029661373
5959165 18 267 407 0 269 270 264 265 ?1 29 268 414 0 270 265 271 -.0502461310649
746 -.002 .0296613735959165 18 270 412 0 272 273 267 268 ?1 29 271 419 0 273 268
 274 -.0517807751607346 -.002 .02544497359591655 18 273 417 0 275 276 270 271 ?1
 29 274 424 0 276 271 277 -.0538277896553836 -.002 .02544497359591655 18 276 422
 0 278 279 273 274 ?1 29 277 429 0 279 274 280 -.0553624337511436 -.002 .0296613
735959165 18 279 427 0 281 282 276 277 ?1 29 280 434 0 282 277 283 -.05686904136
49746 -.002 .0296613735959165 18 282 432 0 284 285 279 280 ?1 29 283 439 0 285 2
80 286 -.0584036854607346 -.002 .02544497359591655 18 285 437 0 287 288 282 283
 ?1 29 286 444 0 288 283 289 -.0604506999553836 -.002 .02544497359591655 18 288
 442 0 290 291 285 286 ?1 29 289 449 0 291 286 292 -.0619853440511436 -.002 .029
6613735959165 18 291 447 0 293 294 288 289 ?1 29 292 454 0 294 289 295 -.0634919
516649746 -.002 .0296613735959165 18 294 452 0 296 297 291 292 ?1 29 295 459 0 2
97 292 298 -.0650265957607346 -.002 .02544497359591655 18 297 457 0 299 300 294
 295 ?1 29 298 464 0 300 295 301 -.0670736102553836 -.002 .02544497359591655 18
 300 462 0 302 303 297 298 ?1 29 301 469 0 303 298 304 -.0686082543511436 -.002
 .0296613735959165 18 303 467 0 305 306 300 301 ?1 29 304 474 0 306 301 307 -.07
01148619649746 -.002 .0296613735959165 18 306 472 0 308 309 303 304 ?1 29 307 47
9 0 309 304 310 -.0716495060607346 -.002 .02544497359591655 18 309 477 0 311 312
 306 307 ?1 29 310 484 0 312 307 313 -.0736965205553836 -.002 .02544497359591655
 18 312 482 0 314 315 309 310 ?1 29 313 489 0 315 310 316 -.0752311646511436 -.0
02 .0296613735959165 18 315 487 0 317 318 312 313 ?1 29 316 494 0 318 313 319 -.
0767377722649746 -.002 .0296613735959165 18 318 492 0 320 321 315 316 ?1 29 319
 499 0 321 316 39 -.0782724163607346 -.002 .02544497359591655 18 321 497 0 322 3
6 318 319 ?1 29 39 504 0 36 319 37 -.0803194308553836 -.002 .02544497359591655 1
8 36 502 0 323 27 321 39 ?1 17 323 0 324 325 326 36 327 328 0 329 +15 255 324 21
64 0 330 331 0 17 325 0 324 332 323 27 333 334 0 30 -17 326 0 324 323 335 321 33
6 337 0 0 -17 327 0 338 174 329 321 323 328 0 326 -16 328 247 0 ?323 334 337 339
 0 0 1 17 329 0 338 327 340 36 176 341 0 333 -15 338 1300 0 340 342 0 17 340 0 3
38 329 174 175 343 344 0 345 +17 176 0 346 180 333 175 329 341 0 340 +16 341 124
7 0 ?176 347 179 348 0 0 1 17 333 0 346 176 35 36 325 334 0 0 +15 346 1298 0 180
 349 0 17 35 0 346 333 180 27 178 179 0 325 -16 334 252 0 ?333 350 328 351 0 0 1
 16 350 257 0 ?30 33 334 352 0 0 1 30 351 254 0 334 339 352 0 +-.081086752903263
6 -.002 .02755317359591655 .3420201433256665 0 -.939692620785909 30 339 249 0 32
8 353 351 0 +-.0792959236080591 -.002 .02544497359591655 -1 0 0 30 352 259 0 350
 351 354 0 +-.0826073787580591 -.002 .0296613735959165 1 0 0 30 354 1193 0 355 3
52 356 0 +-.0841280046128546 0 .02755317359591655 .3420201433256695 0 .939692620
785908 16 355 934 0 ?184 357 358 354 0 0 1 30 356 1192 0 357 354 359 0 +-.085918
8339080591 0 .02544497359591655 -1 0 0 16 357 930 0 ?360 361 355 356 0 0 1 30 35
9 1191 0 361 356 362 0 +-.0877096632032636 0 .02755317359591655 .342020143325669
5 0 -.939692620785908 16 361 926 0 ?363 364 357 359 0 0 1 30 362 1190 0 364 359
 365 0 +-.0892302890580591 0 .0296613735959165 1 0 0 16 364 922 0 ?366 367 361 3
62 0 0 1 30 365 1189 0 367 362 368 0 +-.0907509149128546 0 .02755317359591655 .3
420201433256695 0 .939692620785908 16 367 918 0 ?369 370 364 365 0 0 1 30 368 11
88 0 370 365 371 0 +-.0925417442080591 0 .02544497359591655 -1 0 0 16 370 914 0
 ?372 373 367 368 0 0 1 30 371 1187 0 373 368 374 0 +-.0943325735032636 0 .02755
317359591655 .3420201433256695 0 -.939692620785908 16 373 910 0 ?375 376 370 371
 0 0 1 30 374 1186 0 376 371 377 0 +-.0958531993580591 0 .0296613735959165 1 0 0
 16 376 906 0 ?378 379 373 374 0 0 1 30 377 1183 0 379 374 380 0 +-.058403685460
7346 0 .01909497359591655 1 0 0 16 379 894 0 ?63 381 376 377 0 0 1 30 380 1182 0
 381 377 382 0 +-.01866622366073455 0 .02226997359591655 0 0 1 16 381 890 0 ?66
 383 379 380 0 0 1 30 382 1181 0 383 380 384 0 +-.0196897309080591 0 .0254449735
9591655 -1 0 0 16 383 886 0 ?385 386 381 382 0 0 1 30 384 1180 0 386 382 387 0 +
-.0214805602032636 0 .02755317359591655 .3420201433256665 0 -.939692620785909 16
 386 882 0 ?388 389 383 384 0 0 1 30 387 1179 0 389 384 390 0 +-.023001186058059
1 0 .0296613735959165 1 0 0 16 389 878 0 ?391 392 386 387 0 0 1 30 390 1178 0 39
2 387 393 0 +-.0245218119128546 0 .02755317359591655 .3420201433256665 0 .939692
620785909 16 392 874 0 ?394 395 389 390 0 0 1 30 393 1177 0 395 390 396 0 +-.026
3126412080591 0 .02544497359591655 -1 0 0 16 395 870 0 ?397 398 392 393 0 0 1 30
 396 1176 0 398 393 399 0 +-.0281034705032636 0 .02755317359591655 .342020143325
6715 0 -.939692620785908 16 398 866 0 ?400 401 395 396 0 0 1 30 399 1175 0 401 3
96 402 0 +-.0296240963580591 0 .0296613735959165 1 0 0 16 401 862 0 ?403 404 398
 399 0 0 1 30 402 1174 0 404 399 405 0 +-.03114472221285455 0 .02755317359591655
 .3420201433256705 0 .939692620785908 16 404 858 0 ?406 407 401 402 0 0 1 30 405
 1173 0 407 402 408 0 +-.0329355515080591 0 .02544497359591655 -1 0 0 16 407 854
 0 ?409 410 404 405 0 0 1 30 408 1172 0 410 405 411 0 +-.0347263808032636 0 .027
55317359591655 .3420201433256665 0 -.939692620785909 16 410 850 0 ?412 413 407 4
08 0 0 1 30 411 1171 0 413 408 414 0 +-.0362470066580591 0 .02966137359591655 1
 0 -2993666696049055e-29 16 413 846 0 ?415 416 410 411 0 0 1 30 414 1170 0 416 4
11 417 0 +-.0377676325128546 0 .02755317359591655 .3420201433256635 0 .939692620
78591 16 416 842 0 ?418 419 413 414 0 0 1 30 417 1169 0 419 414 420 0 +-.0395584
618080591 0 .02544497359591655 -1 0 0 16 419 838 0 ?421 422 416 417 0 0 1 30 420
 1168 0 422 417 423 0 +-.0413492911032636 0 .02755317359591655 .3420201433256705
 0 -.939692620785908 16 422 834 0 ?424 425 419 420 0 0 1 30 423 1167 0 425 420 4
26 0 +-.0428699169580591 0 .0296613735959165 1 0 0 16 425 830 0 ?427 428 422 423
 0 0 1 30 426 1166 0 428 423 429 0 +-.0443905428128546 0 .02755317359591655 .342
0201433256665 0 .939692620785909 16 428 826 0 ?430 431 425 426 0 0 1 30 429 1165
 0 431 426 432 0 +-.0461813721080591 0 .02544497359591655 -1 0 0 16 431 822 0 ?4
33 434 428 429 0 0 1 30 432 1164 0 434 429 435 0 +-.0479722014032636 0 .02755317
359591655 .342020143325672 0 -.939692620785907 16 434 818 0 ?436 437 431 432 0 0
 1 30 435 1163 0 437 432 438 0 +-.0494928272580591 0 .0296613735959165 1 0 0 16
 437 814 0 ?439 440 434 435 0 0 1 30 438 1162 0 440 435 441 0 +-.051013453112854
6 0 .02755317359591655 .3420201433256665 0 .939692620785909 16 440 810 0 ?442 44
3 437 438 0 0 1 30 441 1161 0 443 438 444 0 +-.0528042824080591 0 .0254449735959
1655 -1 0 0 16 443 806 0 ?445 446 440 441 0 0 1 30 444 1160 0 446 441 447 0 +-.0
545951117032636 0 .02755317359591655 .3420201433256735 0 -.939692620785907 16 44
6 802 0 ?448 449 443 444 0 0 1 30 447 1159 0 449 444 450 0 +-.0561157375580591 0
 .0296613735959165 1 0 0 16 449 798 0 ?451 452 446 447 0 0 1 30 450 1158 0 452 4
47 453 0 +-.0576363634128546 0 .02755317359591655 .342020143325668 0 .9396926207
85909 16 452 794 0 ?454 455 449 450 0 0 1 30 453 1157 0 455 450 456 0 +-.0594271
927080591 0 .02544497359591655 -1 0 0 16 455 790 0 ?457 458 452 453 0 0 1 30 456
 1156 0 458 453 459 0 +-.0612180220032636 0 .02755317359591655 .3420201433256665
 0 -.939692620785909 16 458 786 0 ?460 461 455 456 0 0 1 30 459 1155 0 461 456 4
62 0 +-.0627386478580591 0 .0296613735959165 1 0 0 16 461 782 0 ?463 464 458 459
 0 0 1 30 462 1154 0 464 459 465 0 +-.0642592737128546 0 .02755317359591655 .342
0201433256695 0 .939692620785908 16 464 778 0 ?466 467 461 462 0 0 1 30 465 1153
 0 467 462 468 0 +-.0660501030080591 0 .02544497359591655 -1 0 0 16 467 774 0 ?4
69 470 464 465 0 0 1 30 468 1152 0 470 465 471 0 +-.0678409323032636 0 .02755317
359591655 .342020143325672 0 -.939692620785907 16 470 770 0 ?472 473 467 468 0 0
 1 30 471 1151 0 473 468 474 0 +-.0693615581580591 0 .0296613735959165 1 0 0 16
 473 766 0 ?475 476 470 471 0 0 1 30 474 1150 0 476 471 477 0 +-.070882184012854
6 0 .02755317359591655 .3420201433256745 0 .939692620785906 16 476 762 0 ?478 47
9 473 474 0 0 1 30 477 1149 0 479 474 480 0 +-.0726730133080591 0 .0254449735959
1655 -1 0 0 16 479 758 0 ?481 482 476 477 0 0 1 30 480 1148 0 482 477 483 0 +-.0
744638426032636 0 .02755317359591655 .342020143325672 0 -.939692620785907 16 482
 754 0 ?484 485 479 480 0 0 1 30 483 1147 0 485 480 486 0 +-.0759844684580591 0
 .0296613735959165 1 0 0 16 485 750 0 ?487 488 482 483 0 0 1 30 486 1146 0 488 4
83 489 0 +-.0775050943128546 0 .02755317359591655 .3420201433256665 0 .939692620
785909 16 488 746 0 ?490 344 485 486 0 0 1 30 489 1145 0 344 486 491 0 +-.079295
9236080591 0 .02544497359591655 -1 0 0 16 344 742 0 ?340 492 488 489 0 0 1 30 49
1 1144 0 492 489 493 0 +-.0810867529032636 0 .02755317359591655 .342020143325666
5 0 -.939692620785909 16 492 738 0 ?345 494 344 491 0 0 1 30 493 1143 0 494 491
 495 0 +-.0826073787580591 0 .0296613735959165 1 0 0 16 494 734 0 ?496 497 492 4
93 0 0 1 30 495 1449 0 33 493 498 0 +-.0833606825649746 -.002 .0296613735959165
 0 1 0 16 33 1245 0 ?32 179 350 495 0 0 1 30 498 1450 0 179 495 348 0 +-.0818540
749511436 -.002 .0296613735959165 0 1 0 16 179 1246 0 ?178 341 33 498 0 0 1 30 3
48 1451 0 341 498 499 0 +-.0803194308553836 -.002 .02544497359591655 0 1 0 30 49
9 1452 0 347 348 500 0 +-.0782724163607346 -.002 .02544497359591655 0 1 0 16 347
 1248 0 ?174 501 341 499 0 0 1 30 500 1453 0 501 499 502 0 +-.0767377722649746 -
.002 .0296613735959165 0 1 0 16 501 1249 0 ?171 503 347 500 0 0 1 30 502 1454 0
 503 500 504 0 +-.0752311646511436 -.002 .0296613735959165 0 1 0 16 503 1250 0 ?
168 505 501 502 0 0 1 30 504 1455 0 505 502 506 0 +-.0736965205553836 -.002 .025
44497359591655 0 1 0 16 505 1251 0 ?165 507 503 504 0 0 1 30 506 1456 0 507 504
 508 0 +-.0716495060607346 -.002 .02544497359591655 0 1 0 16 507 1252 0 ?162 509
 505 506 0 0 1 30 508 1457 0 509 506 510 0 +-.0701148619649746 -.002 .0296613735
959165 0 1 0 16 509 1253 0 ?159 511 507 508 0 0 1 30 510 1458 0 511 508 512 0 +-
.0686082543511436 -.002 .0296613735959165 0 1 0 16 511 1254 0 ?156 513 509 510 0
 0 1 30 512 1459 0 513 510 514 0 +-.0670736102553836 -.002 .02544497359591655 0
 1 0 16 513 1255 0 ?153 515 511 512 0 0 1 30 514 1460 0 515 512 516 0 +-.0650265
957607346 -.002 .02544497359591655 0 1 0 16 515 1256 0 ?150 517 513 514 0 0 1 30
 516 1461 0 517 514 518 0 +-.0634919516649746 -.002 .0296613735959165 0 1 0 16 5
17 1257 0 ?147 519 515 516 0 0 1 30 518 1462 0 519 516 520 0 +-.0619853440511436
 -.002 .0296613735959165 0 1 0 16 519 1258 0 ?144 521 517 518 0 0 1 30 520 1463
 0 521 518 522 0 +-.0604506999553836 -.002 .02544497359591655 0 1 0 16 521 1259
 0 ?141 523 519 520 0 0 1 30 522 1464 0 523 520 524 0 +-.0584036854607346 -.002
 .02544497359591655 0 1 0 16 523 1260 0 ?138 525 521 522 0 0 1 30 524 1465 0 525
 522 526 0 +-.0568690413649746 -.002 .0296613735959165 0 1 0 16 525 1261 0 ?135
 527 523 524 0 0 1 30 526 1466 0 527 524 528 0 +-.0553624337511436 -.002 .029661
3735959165 0 1 0 16 527 1262 0 ?132 529 525 526 0 0 1 30 528 1467 0 529 526 530
 0 +-.0538277896553836 -.002 .02544497359591655 0 1 0 16 529 1263 0 ?129 531 527
 528 0 0 1 30 530 1468 0 531 528 532 0 +-.0517807751607346 -.002 .02544497359591
655 0 1 0 16 531 1264 0 ?126 533 529 530 0 0 1 30 532 1469 0 533 530 534 0 +-.05
02461310649746 -.002 .0296613735959165 0 1 0 16 533 1265 0 ?123 535 531 532 0 0
 1 30 534 1470 0 535 532 536 0 +-.0487395234511436 -.002 .0296613735959165 0 1 0
 16 535 1266 0 ?120 537 533 534 0 0 1 30 536 1471 0 537 534 538 0 +-.04720487935
53836 -.002 .02544497359591655 0 1 0 16 537 1267 0 ?117 539 535 536 0 0 1 30 538
 1472 0 539 536 540 0 +-.0451578648607346 -.002 .02544497359591655 0 1 0 16 539
 1268 0 ?114 541 537 538 0 0 1 30 540 1473 0 541 538 542 0 +-.0436232207649746 -
.002 .0296613735959165 0 1 0 16 541 1269 0 ?111 543 539 540 0 0 1 30 542 1474 0
 543 540 544 0 +-.04211661315114365 -.002 .0296613735959165 0 1 0 16 543 1270 0
 ?108 545 541 542 0 0 1 30 544 1475 0 545 542 546 0 +-.0405819690553836 -.002 .0
2544497359591655 0 1 0 16 545 1271 0 ?105 547 543 544 0 0 1 30 546 1476 0 547 54
4 548 0 +-.0385349545607346 -.002 .02544497359591655 0 1 0 16 547 1272 0 ?102 54
9 545 546 0 0 1 30 548 1477 0 549 546 550 0 +-.0370003104649746 -.002 .029661373
59591655 0 1 0 16 549 1273 0 ?99 551 547 548 0 0 1 30 550 1478 0 551 548 552 0 +
-.0354937028511436 -.002 .0296613735959165 0 1 0 16 551 1274 0 ?96 553 549 550 0
 0 1 30 552 1479 0 553 550 554 0 +-.0339590587553836 -.002 .02544497359591655 0
 1 0 16 553 1275 0 ?93 555 551 552 0 0 1 30 554 1480 0 555 552 556 0 +-.03191204
42607346 -.002 .02544497359591655 0 1 0 16 555 1276 0 ?90 557 553 554 0 0 1 30 5
56 1481 0 557 554 558 0 +-.03037740016497455 -.002 .0296613735959165 0 1 0 16 55
7 1277 0 ?87 559 555 556 0 0 1 30 558 1482 0 559 556 560 0 +-.0288707925511436 -
.002 .0296613735959165 0 1 0 16 559 1278 0 ?84 561 557 558 0 0 1 30 560 1483 0 5
61 558 562 0 +-.0273361484553836 -.002 .02544497359591655 0 1 0 16 561 1279 0 ?8
1 563 559 560 0 0 1 30 562 1484 0 563 560 564 0 +-.0252891339607346 -.002 .02544
497359591655 0 1 0 16 563 1280 0 ?78 565 561 562 0 0 1 30 564 1485 0 565 562 566
 0 +-.0237544898649746 -.002 .0296613735959165 0 1 0 16 565 1281 0 ?75 567 563 5
64 0 0 1 30 566 1486 0 567 564 568 0 +-.0222478822511436 -.002 .0296613735959165
 0 1 0 16 567 1282 0 ?72 569 565 566 0 0 1 30 568 1487 0 569 566 570 0 +-.020713
2381553836 -.002 .02544497359591655 0 1 0 16 569 1283 0 ?69 571 567 568 0 0 1 30
 570 1488 0 571 568 572 0 +-.01866622366073455 -.002 .02544497359591655 0 1 0 16
 571 1284 0 ?573 574 569 570 0 0 1 30 572 1489 0 574 570 575 0 +-.01866622366073
455 -.002 .01909497359591655 0 1 0 16 574 1285 0 ?576 577 571 572 0 0 1 30 575 1
493 0 577 572 578 0 +-.0950998955511436 -.002 .0296613735959165 0 1 0 16 577 128
9 0 ?60 579 574 575 0 0 1 30 578 1494 0 579 575 580 0 +-.0935652514553836 -.002
 .02544497359591655 0 1 0 16 579 1290 0 ?57 581 577 578 0 0 1 30 580 1495 0 581
 578 582 0 +-.0915182369607346 -.002 .02544497359591655 0 1 0 16 581 1291 0 ?54
 583 579 580 0 0 1 30 582 1496 0 583 580 584 0 +-.0899835928649746 -.002 .029661
3735959165 0 1 0 16 583 1292 0 ?51 585 581 582 0 0 1 30 584 1497 0 585 582 20 0
 +-.0884769852511436 -.002 .0296613735959165 0 1 0 16 585 1293 0 ?48 25 583 584
 0 0 1 30 20 1498 0 25 584 8 0 +-.0869423411553836 -.002 .02544497359591655 0 1
 0 16 25 1294 0 ?45 11 585 20 0 0 1 17 45 0 586 587 588 42 589 25 0 360 +15 586
 1392 0 587 590 0 17 587 0 586 197 45 46 363 361 0 366 -17 588 0 586 45 197 186
 591 592 0 0 +17 589 0 593 188 360 186 45 25 0 588 -17 360 0 593 589 24 42 594 3
57 0 363 +15 593 1394 0 360 595 0 17 24 0 593 360 188 40 185 11 0 594 +17 594 0
 596 184 363 40 360 357 0 183 -17 363 0 596 594 366 42 587 361 0 0 +15 596 2165
 0 597 598 0 17 366 0 596 363 369 46 599 364 0 0 +17 369 0 596 366 600 49 601 36
7 0 0 +17 599 0 602 200 48 49 366 364 0 369 -15 602 1390 0 599 603 0 17 200 0 60
2 604 599 198 51 583 0 605 -17 48 0 602 599 604 46 197 585 0 587 +17 604 0 602 4
8 200 190 605 606 0 0 +17 197 0 586 588 587 190 48 585 0 591 -17 591 0 324 605 1
89 190 588 592 0 604 -17 605 0 324 607 591 198 604 606 0 608 -17 189 0 324 591 6
09 186 188 610 0 589 +16 592 17 0 ?588 606 610 611 0 0 1 16 606 22 0 ?604 612 59
2 613 0 0 1 16 610 12 0 ?189 592 497 614 0 0 1 30 611 19 0 592 614 613 0 +-.0877
096632032636 -.002 .02755317359591655 .3420201433256695 0 -.939692620785908 30 6
14 14 0 610 615 611 0 +-.0859188339080591 -.002 .02544497359591655 -1 0 0 30 613
 24 0 606 611 616 0 +-.0892302890580591 -.002 .0296613735959165 1 0 0 30 616 29
 0 612 613 617 0 +-.0907509149128546 -.002 .02755317359591655 .3420201433256695
 0 .939692620785908 16 612 27 0 ?608 618 606 616 0 0 1 30 617 34 0 618 616 619 0
 +-.0925417442080591 -.002 .02544497359591655 -1 0 0 16 618 32 0 ?206 620 612 61
7 0 0 1 30 619 39 0 620 617 621 0 +-.0943325735032636 -.002 .02755317359591655 .
3420201433256695 0 -.939692620785908 16 620 37 0 ?622 623 618 619 0 0 1 30 621 4
4 0 623 619 624 0 +-.0958531993580591 -.002 .0296613735959165 1 0 0 16 623 42 0
 ?625 626 620 621 0 0 1 30 624 59 0 626 621 627 0 +-.0584036854607346 -.002 .019
09497359591655 1 0 0 16 626 57 0 ?212 628 623 624 0 0 1 30 627 64 0 628 624 629
 0 +-.01866622366073455 -.002 .02226997359591655 0 0 1 16 628 62 0 ?215 630 626
 627 0 0 1 30 629 69 0 630 627 631 0 +-.0196897309080591 -.002 .0254449735959165
5 -1 0 0 16 630 67 0 ?218 632 628 629 0 0 1 30 631 74 0 632 629 633 0 +-.0214805
602032636 -.002 .02755317359591655 .3420201433256665 0 -.939692620785909 16 632
 72 0 ?634 635 630 631 0 0 1 30 633 79 0 635 631 636 0 +-.0230011860580591 -.002
 .0296613735959165 1 0 0 16 635 77 0 ?637 638 632 633 0 0 1 30 636 84 0 638 633
 639 0 +-.0245218119128546 -.002 .02755317359591655 .3420201433256665 0 .9396926
20785909 16 638 82 0 ?640 641 635 636 0 0 1 30 639 89 0 641 636 642 0 +-.0263126
412080591 -.002 .02544497359591655 -1 0 0 16 641 87 0 ?230 643 638 639 0 0 1 30
 642 94 0 643 639 644 0 +-.0281034705032636 -.002 .02755317359591655 .3420201433
256715 0 -.939692620785908 16 643 92 0 ?645 646 641 642 0 0 1 30 644 99 0 646 64
2 647 0 +-.0296240963580591 -.002 .0296613735959165 1 0 0 16 646 97 0 ?648 649 6
43 644 0 0 1 30 647 104 0 649 644 650 0 +-.03114472221285455 -.002 .027553173595
91655 .3420201433256705 0 .939692620785908 16 649 102 0 ?651 652 646 647 0 0 1 3
0 650 109 0 652 647 653 0 +-.0329355515080591 -.002 .02544497359591655 -1 0 0 16
 652 107 0 ?242 654 649 650 0 0 1 30 653 114 0 654 650 655 0 +-.0347263808032636
 -.002 .02755317359591655 .3420201433256665 0 -.939692620785909 16 654 112 0 ?65
6 657 652 653 0 0 1 30 655 119 0 657 653 658 0 +-.0362470066580591 -.002 .029661
37359591655 1 0 -2993666696049055e-29 16 657 117 0 ?659 660 654 655 0 0 1 30 658
 124 0 660 655 661 0 +-.0377676325128546 -.002 .02755317359591655 .3420201433256
635 0 .93969262078591 16 660 122 0 ?662 663 657 658 0 0 1 30 661 129 0 663 658 6
64 0 +-.0395584618080591 -.002 .02544497359591655 -1 0 0 16 663 127 0 ?254 665 6
60 661 0 0 1 30 664 134 0 665 661 666 0 +-.0413492911032636 -.002 .0275531735959
1655 .3420201433256705 0 -.939692620785908 16 665 132 0 ?667 668 663 664 0 0 1 3
0 666 139 0 668 664 669 0 +-.0428699169580591 -.002 .0296613735959165 1 0 0 16 6
68 137 0 ?670 671 665 666 0 0 1 30 669 144 0 671 666 672 0 +-.0443905428128546 -
.002 .02755317359591655 .3420201433256665 0 .939692620785909 16 671 142 0 ?673 6
74 668 669 0 0 1 30 672 149 0 674 669 675 0 +-.0461813721080591 -.002 .025444973
59591655 -1 0 0 16 674 147 0 ?266 676 671 672 0 0 1 30 675 154 0 676 672 677 0 +
-.0479722014032636 -.002 .02755317359591655 .342020143325672 0 -.939692620785907
 16 676 152 0 ?678 679 674 675 0 0 1 30 677 159 0 679 675 680 0 +-.0494928272580
591 -.002 .0296613735959165 1 0 0 16 679 157 0 ?681 682 676 677 0 0 1 30 680 164
 0 682 677 683 0 +-.0510134531128546 -.002 .02755317359591655 .3420201433256665
 0 .939692620785909 16 682 162 0 ?684 685 679 680 0 0 1 30 683 169 0 685 680 686
 0 +-.0528042824080591 -.002 .02544497359591655 -1 0 0 16 685 167 0 ?278 687 682
 683 0 0 1 30 686 174 0 687 683 688 0 +-.0545951117032636 -.002 .027553173595916
55 .3420201433256735 0 -.939692620785907 16 687 172 0 ?689 690 685 686 0 0 1 30
 688 179 0 690 686 691 0 +-.0561157375580591 -.002 .0296613735959165 1 0 0 16 69
0 177 0 ?692 693 687 688 0 0 1 30 691 184 0 693 688 694 0 +-.0576363634128546 -.
002 .02755317359591655 .342020143325668 0 .939692620785909 16 693 182 0 ?695 696
 690 691 0 0 1 30 694 189 0 696 691 697 0 +-.0594271927080591 -.002 .02544497359
591655 -1 0 0 16 696 187 0 ?290 698 693 694 0 0 1 30 697 194 0 698 694 699 0 +-.
0612180220032636 -.002 .02755317359591655 .3420201433256665 0 -.939692620785909
 16 698 192 0 ?700 701 696 697 0 0 1 30 699 199 0 701 697 702 0 +-.0627386478580
591 -.002 .0296613735959165 1 0 0 16 701 197 0 ?703 704 698 699 0 0 1 30 702 204
 0 704 699 705 0 +-.0642592737128546 -.002 .02755317359591655 .3420201433256695
 0 .939692620785908 16 704 202 0 ?706 707 701 702 0 0 1 30 705 209 0 707 702 708
 0 +-.0660501030080591 -.002 .02544497359591655 -1 0 0 16 707 207 0 ?302 709 704
 705 0 0 1 30 708 214 0 709 705 710 0 +-.0678409323032636 -.002 .027553173595916
55 .342020143325672 0 -.939692620785907 16 709 212 0 ?711 712 707 708 0 0 1 30 7
10 219 0 712 708 713 0 +-.0693615581580591 -.002 .0296613735959165 1 0 0 16 712
 217 0 ?714 715 709 710 0 0 1 30 713 224 0 715 710 716 0 +-.0708821840128546 -.0
02 .02755317359591655 .3420201433256745 0 .939692620785906 16 715 222 0 ?717 718
 712 713 0 0 1 30 716 229 0 718 713 719 0 +-.0726730133080591 -.002 .02544497359
591655 -1 0 0 16 718 227 0 ?314 720 715 716 0 0 1 30 719 234 0 720 716 721 0 +-.
0744638426032636 -.002 .02755317359591655 .342020143325672 0 -.939692620785907 1
6 720 232 0 ?722 723 718 719 0 0 1 30 721 239 0 723 719 353 0 +-.075984468458059
1 -.002 .0296613735959165 1 0 0 16 723 237 0 ?724 337 720 721 0 0 1 30 353 244 0
 337 721 339 0 +-.0775050943128546 -.002 .02755317359591655 .3420201433256665 0
 .939692620785909 16 337 242 0 ?336 328 723 353 0 0 1 17 336 0 725 171 322 318 3
26 337 0 0 +15 725 1302 0 726 727 0 17 171 0 725 726 336 169 320 501 0 728 +17 3
22 0 725 336 726 321 174 347 0 327 -17 726 0 725 322 171 172 490 488 0 0 -17 174
 0 338 340 327 172 322 347 0 343 +17 343 0 596 490 345 172 340 344 0 726 -17 490
 0 596 487 343 169 726 488 0 0 +17 345 0 596 343 496 175 180 492 0 0 +17 496 0 5
96 345 184 177 31 494 0 0 +17 180 0 346 35 176 177 345 492 0 496 -17 184 0 596 4
96 594 21 183 355 0 31 +17 31 0 29 26 178 21 496 494 0 0 -15 29 1296 0 31 729 0
 14 255 729 1297 0 ?331 349 29 6 730 +0 0 331 349 23 14 331 1 0 ?598 729 324 6 7
31 +0 0 598 729 23 14 349 1299 0 ?729 342 346 6 732 +0 0 729 342 23 50 730 1398
 0 729 733 732 0 +-.0826073787580591 -.002 .0296613735959165 0 0 1 1 0 0 13 23 5
19 0 0 0 0 0 0 10 17 14 17 1397 0 ?595 0 182 6 7 +0 0 595 0 23 14 595 1395 0 ?59
0 17 593 6 19 -0 0 590 17 23 15 182 1396 0 183 17 0 17 183 0 182 185 32 40 184 3
55 0 0 -14 590 1393 0 ?603 595 586 6 734 +0 0 603 595 23 50 19 1447 0 595 734 7
 0 +-.0859188339080591 -.002 .02544497359591655 0 0 -1 -1 0 0 50 734 1446 0 590
 735 19 0 +-.0877096632032636 -.002 .02755317359591655 .939692620785908 0 .34202
01433256695 .3420201433256695 0 -.939692620785908 50 735 1445 0 603 736 734 0 +-
.0892302890580591 -.002 .0296613735959165 0 0 1 1 0 0 14 603 1391 0 ?737 590 602
 6 735 +0 0 737 590 23 50 736 1444 0 737 738 735 0 +-.0907509149128546 -.002 .02
755317359591655 -.939692620785908 0 .3420201433256695 .3420201433256695 0 .93969
2620785908 14 737 1389 0 ?739 603 740 6 736 +0 0 739 603 23 50 738 1443 0 739 74
1 736 0 +-.0925417442080591 -.002 .02544497359591655 0 0 -1 -1 0 0 14 739 1387 0
 ?742 737 743 6 738 -0 0 742 737 23 50 741 1442 0 742 744 738 0 +-.0943325735032
636 -.002 .02755317359591655 .939692620785908 0 .3420201433256695 .3420201433256
695 0 -.939692620785908 14 742 1385 0 ?745 739 746 6 741 +0 0 745 739 23 50 744
 1441 0 745 747 741 0 +-.0958531993580591 -.002 .0296613735959165 0 0 1 1 0 0 14
 745 1383 0 ?748 742 749 6 744 +0 0 748 742 23 50 747 1438 0 748 750 744 0 +-.05
84036854607346 -.002 .01909497359591655 0 0 1 1 0 0 14 748 1377 0 ?751 745 752 6
 747 -0 0 751 745 23 50 750 1437 0 751 753 747 0 +-.01866622366073455 -.002 .022
26997359591655 -1 0 0 0 0 1 14 751 1375 0 ?754 748 755 6 750 -0 0 754 748 23 50
 753 1436 0 754 756 750 0 +-.0196897309080591 -.002 .02544497359591655 0 0 -1 -1
 0 0 14 754 1373 0 ?757 751 758 6 753 -0 0 757 751 23 50 756 1435 0 757 759 753
 0 +-.0214805602032636 -.002 .02755317359591655 .939692620785909 0 .342020143325
6665 .3420201433256665 0 -.939692620785909 14 757 1371 0 ?760 754 761 6 756 +0 0
 760 754 23 50 759 1434 0 760 762 756 0 +-.0230011860580591 -.002 .0296613735959
165 0 0 1 1 0 0 14 760 1369 0 ?763 757 764 6 759 +0 0 763 757 23 50 762 1433 0 7
63 765 759 0 +-.0245218119128546 -.002 .02755317359591655 -.939692620785909 0 .3
420201433256665 .3420201433256665 0 .939692620785909 14 763 1367 0 ?766 760 767
 6 762 +0 0 766 760 23 50 765 1432 0 766 768 762 0 +-.0263126412080591 -.002 .02
544497359591655 0 0 -1 -1 0 0 14 766 1365 0 ?769 763 770 6 765 -0 0 769 763 23 5
0 768 1431 0 769 771 765 0 +-.0281034705032636 -.002 .02755317359591655 .9396926
20785907 0 .3420201433256715 .3420201433256715 0 -.939692620785908 14 769 1363 0
 ?772 766 773 6 768 +0 0 772 766 23 50 771 1430 0 772 774 768 0 +-.0296240963580
591 -.002 .0296613735959165 0 0 1 1 0 0 14 772 1361 0 ?775 769 776 6 771 +0 0 77
5 769 23 50 774 1429 0 775 777 771 0 +-.03114472221285455 -.002 .027553173595916
55 -.939692620785908 0 .3420201433256705 .3420201433256705 0 .939692620785908 14
 775 1359 0 ?778 772 779 6 774 +0 0 778 772 23 50 777 1428 0 778 780 774 0 +-.03
29355515080591 -.002 .02544497359591655 0 0 -1 -1 0 0 14 778 1357 0 ?781 775 782
 6 777 -0 0 781 775 23 50 780 1427 0 781 783 777 0 +-.0347263808032636 -.002 .02
755317359591655 .939692620785909 0 .3420201433256665 .3420201433256665 0 -.93969
2620785909 14 781 1355 0 ?784 778 785 6 780 +0 0 784 778 23 50 783 1426 0 784 78
6 780 0 +-.0362470066580591 -.002 .02966137359591655 2993666696049055e-29 0 1 1
 0 -2993666696049055e-29 14 784 1353 0 ?787 781 788 6 783 +0 0 787 781 23 50 786
 1425 0 787 789 783 0 +-.0377676325128546 -.002 .02755317359591655 -.93969262078
591 0 .3420201433256635 .3420201433256635 0 .93969262078591 14 787 1351 0 ?790 7
84 791 6 786 +0 0 790 784 23 50 789 1424 0 790 792 786 0 +-.0395584618080591 -.0
02 .02544497359591655 0 0 -1 -1 0 0 14 790 1349 0 ?793 787 794 6 789 -0 0 793 78
7 23 50 792 1423 0 793 795 789 0 +-.0413492911032636 -.002 .02755317359591655 .9
39692620785908 0 .3420201433256705 .3420201433256705 0 -.939692620785908 14 793
 1347 0 ?796 790 797 6 792 +0 0 796 790 23 50 795 1422 0 796 798 792 0 +-.042869
9169580591 -.002 .0296613735959165 0 0 1 1 0 0 14 796 1345 0 ?799 793 800 6 795
 +0 0 799 793 23 50 798 1421 0 799 801 795 0 +-.0443905428128546 -.002 .02755317
359591655 -.939692620785909 0 .3420201433256665 .3420201433256665 0 .93969262078
5909 14 799 1343 0 ?802 796 803 6 798 +0 0 802 796 23 50 801 1420 0 802 804 798
 0 +-.0461813721080591 -.002 .02544497359591655 0 0 -1 -1 0 0 14 802 1341 0 ?805
 799 806 6 801 -0 0 805 799 23 50 804 1419 0 805 807 801 0 +-.0479722014032636 -
.002 .02755317359591655 .939692620785907 0 .342020143325672 .342020143325672 0 -
.939692620785907 14 805 1339 0 ?808 802 809 6 804 +0 0 808 802 23 50 807 1418 0
 808 810 804 0 +-.0494928272580591 -.002 .0296613735959165 0 0 1 1 0 0 14 808 13
37 0 ?811 805 812 6 807 +0 0 811 805 23 50 810 1417 0 811 813 807 0 +-.051013453
1128546 -.002 .02755317359591655 -.939692620785909 0 .3420201433256665 .34202014
33256665 0 .939692620785909 14 811 1335 0 ?814 808 815 6 810 +0 0 814 808 23 50
 813 1416 0 814 816 810 0 +-.0528042824080591 -.002 .02544497359591655 0 0 -1 -1
 0 0 14 814 1333 0 ?817 811 818 6 813 -0 0 817 811 23 50 816 1415 0 817 819 813
 0 +-.0545951117032636 -.002 .02755317359591655 .939692620785907 0 .342020143325
6735 .3420201433256735 0 -.939692620785907 14 817 1331 0 ?820 814 821 6 816 +0 0
 820 814 23 50 819 1414 0 820 822 816 0 +-.0561157375580591 -.002 .0296613735959
165 0 0 1 1 0 0 14 820 1329 0 ?823 817 824 6 819 +0 0 823 817 23 50 822 1413 0 8
23 825 819 0 +-.0576363634128546 -.002 .02755317359591655 -.939692620785909 0 .3
42020143325668 .342020143325668 0 .939692620785909 14 823 1327 0 ?826 820 827 6
 822 +0 0 826 820 23 50 825 1412 0 826 828 822 0 +-.0594271927080591 -.002 .0254
4497359591655 0 0 -1 -1 0 0 14 826 1325 0 ?829 823 830 6 825 -0 0 829 823 23 50
 828 1411 0 829 831 825 0 +-.0612180220032636 -.002 .02755317359591655 .93969262
0785909 0 .3420201433256665 .3420201433256665 0 -.939692620785909 14 829 1323 0
 ?832 826 833 6 828 +0 0 832 826 23 50 831 1410 0 832 834 828 0 +-.0627386478580
591 -.002 .0296613735959165 0 0 1 1 0 0 14 832 1321 0 ?835 829 836 6 831 +0 0 83
5 829 23 50 834 1409 0 835 837 831 0 +-.0642592737128546 -.002 .0275531735959165
5 -.939692620785908 0 .3420201433256695 .3420201433256695 0 .939692620785908 14
 835 1319 0 ?838 832 839 6 834 +0 0 838 832 23 50 837 1408 0 838 840 834 0 +-.06
60501030080591 -.002 .02544497359591655 0 0 -1 -1 0 0 14 838 1317 0 ?841 835 842
 6 837 -0 0 841 835 23 50 840 1407 0 841 843 837 0 +-.0678409323032636 -.002 .02
755317359591655 .939692620785907 0 .342020143325672 .342020143325672 0 -.9396926
20785907 14 841 1315 0 ?844 838 845 6 840 +0 0 844 838 23 50 843 1406 0 844 846
 840 0 +-.0693615581580591 -.002 .0296613735959165 0 0 1 1 0 0 14 844 1313 0 ?84
7 841 848 6 843 +0 0 847 841 23 50 846 1405 0 847 849 843 0 +-.0708821840128546
 -.002 .02755317359591655 -.939692620785906 0 .342020143325675 .342020143325675
 0 .939692620785906 14 847 1311 0 ?850 844 851 6 846 +0 0 850 844 23 50 849 1404
 0 850 852 846 0 +-.0726730133080591 -.002 .02544497359591655 0 0 -1 -1 0 0 14 8
50 1309 0 ?853 847 854 6 849 -0 0 853 847 23 50 852 1403 0 853 855 849 0 +-.0744
638426032636 -.002 .02755317359591655 .939692620785907 0 .342020143325672 .34202
0143325672 0 -.939692620785907 14 853 1307 0 ?856 850 857 6 852 +0 0 856 850 23
 50 855 1402 0 856 858 852 0 +-.0759844684580591 -.002 .0296613735959165 0 0 1 1
 0 0 14 856 1305 0 ?727 853 859 6 855 +0 0 727 853 23 50 858 1401 0 727 860 855
 0 +-.0775050943128546 -.002 .02755317359591655 -.939692620785909 0 .34202014332
56665 .3420201433256665 0 .939692620785909 14 727 1303 0 ?342 856 725 6 858 +0 0
 342 856 23 50 860 1400 0 342 732 858 0 +-.0792959236080591 -.002 .0254449735959
1655 0 0 -1 -1 0 0 14 342 1301 0 ?349 727 338 6 860 -0 0 349 727 23 50 732 1399
 0 349 730 860 0 +-.0810867529032636 -.002 .02755317359591655 .939692620785909 0
 .3420201433256665 .3420201433256665 0 -.939692620785909 15 859 1304 0 728 856 0
 17 728 0 859 320 168 169 487 485 0 490 -17 320 0 859 724 728 318 171 501 0 335
 -17 168 0 859 728 724 166 317 503 0 861 +17 487 0 596 484 490 166 728 485 0 0 +
17 484 0 596 862 487 163 861 482 0 0 +17 862 0 596 478 484 160 481 479 0 863 -17
 861 0 857 317 165 166 484 482 0 487 -15 857 1306 0 861 853 0 17 317 0 857 722 8
61 315 168 503 0 864 -17 165 0 857 861 722 163 865 505 0 481 +17 722 0 857 165 3
17 312 864 720 0 0 +17 865 0 854 866 481 312 165 505 0 722 -17 481 0 854 865 162
 163 862 479 0 484 +15 854 1308 0 481 850 0 17 162 0 854 481 866 160 311 507 0 8
62 +17 866 0 854 162 865 309 314 718 0 867 -17 311 0 851 717 863 309 162 507 0 8
66 -15 851 1310 0 863 847 0 17 717 0 851 159 311 306 867 715 0 0 +17 863 0 851 3
11 159 160 478 476 0 0 -17 159 0 851 863 717 157 308 509 0 868 +17 478 0 596 475
 862 157 863 476 0 0 +17 475 0 596 472 478 154 868 473 0 0 +17 472 0 596 869 475
 151 870 470 0 0 +17 868 0 848 308 156 157 475 473 0 478 -15 848 1312 0 868 844
 0 17 308 0 848 714 868 306 159 509 0 871 -17 156 0 848 868 714 154 305 511 0 87
0 +17 714 0 848 156 308 303 871 712 0 0 +17 305 0 845 711 870 303 156 511 0 872
 -17 870 0 845 305 153 154 472 470 0 475 -15 845 1314 0 870 841 0 17 153 0 845 8
70 711 151 873 513 0 469 +17 711 0 845 153 305 300 872 709 0 0 +17 873 0 842 874
 469 300 153 513 0 711 -17 469 0 842 873 150 151 869 467 0 472 +15 842 1316 0 46
9 838 0 17 150 0 842 469 874 148 299 515 0 869 +17 869 0 596 466 472 148 469 467
 0 875 -17 466 0 596 463 869 145 875 464 0 0 +17 875 0 839 299 147 148 466 464 0
 0 -15 839 1318 0 875 835 0 17 299 0 839 706 875 297 150 515 0 874 -17 147 0 839
 875 706 145 296 517 0 876 +17 706 0 839 147 299 294 877 704 0 0 +17 296 0 836 7
03 876 294 147 517 0 878 -17 876 0 836 296 144 145 463 461 0 466 -15 836 1320 0
 876 832 0 17 144 0 836 876 703 142 293 519 0 879 +17 463 0 596 460 466 142 876
 461 0 0 +17 460 0 596 880 463 139 879 458 0 0 +17 880 0 596 454 460 136 457 455
 0 881 -17 879 0 833 293 141 142 460 458 0 463 -15 833 1322 0 879 829 0 17 293 0
 833 700 879 291 144 519 0 882 -17 141 0 833 879 700 139 883 521 0 457 +17 700 0
 833 141 293 288 882 698 0 0 +17 883 0 830 884 457 288 141 521 0 700 -17 457 0 8
30 883 138 139 880 455 0 460 +15 830 1324 0 457 826 0 17 138 0 830 457 884 136 2
87 523 0 880 +17 884 0 830 138 883 285 290 696 0 885 -17 287 0 827 695 881 285 1
38 523 0 884 -15 827 1326 0 881 823 0 17 695 0 827 135 287 282 885 693 0 0 +17 8
81 0 827 287 135 136 454 452 0 0 -17 135 0 827 881 695 133 284 525 0 886 +17 454
 0 596 451 880 133 881 452 0 0 +17 451 0 596 448 454 130 886 449 0 0 +17 448 0 5
96 887 451 127 888 446 0 0 +17 886 0 824 284 132 133 451 449 0 454 -15 824 1328
 0 886 820 0 17 284 0 824 692 886 282 135 525 0 889 -17 132 0 824 886 692 130 28
1 527 0 888 +17 692 0 824 132 284 279 889 690 0 0 +17 281 0 821 689 888 279 132
 527 0 890 -17 888 0 821 281 129 130 448 446 0 451 -15 821 1330 0 888 817 0 17 1
29 0 821 888 689 127 891 529 0 445 +17 689 0 821 129 281 276 890 687 0 0 +17 891
 0 818 892 445 276 129 529 0 689 -17 445 0 818 891 126 127 887 443 0 448 +15 818
 1332 0 445 814 0 17 126 0 818 445 892 124 275 531 0 887 +17 887 0 596 442 448 1
24 445 443 0 893 -17 442 0 596 439 887 121 893 440 0 0 +17 893 0 815 275 123 124
 442 440 0 0 -15 815 1334 0 893 811 0 17 275 0 815 684 893 273 126 531 0 892 -17
 123 0 815 893 684 121 272 533 0 894 +17 684 0 815 123 275 270 895 682 0 0 +17 2
72 0 812 681 894 270 123 533 0 896 -17 894 0 812 272 120 121 439 437 0 442 -15 8
12 1336 0 894 808 0 17 120 0 812 894 681 118 269 535 0 897 +17 439 0 596 436 442
 118 894 437 0 0 +17 436 0 596 898 439 115 897 434 0 0 +17 898 0 596 430 436 112
 433 431 0 899 -17 897 0 809 269 117 118 436 434 0 439 -15 809 1338 0 897 805 0
 17 269 0 809 678 897 267 120 535 0 900 -17 117 0 809 897 678 115 901 537 0 433
 +17 678 0 809 117 269 264 900 676 0 0 +17 901 0 806 902 433 264 117 537 0 678 -
17 433 0 806 901 114 115 898 431 0 436 +15 806 1340 0 433 802 0 17 114 0 806 433
 902 112 263 539 0 898 +17 902 0 806 114 901 261 266 674 0 903 -17 263 0 803 673
 899 261 114 539 0 902 -15 803 1342 0 899 799 0 17 673 0 803 111 263 258 903 671
 0 0 +17 899 0 803 263 111 112 430 428 0 0 -17 111 0 803 899 673 109 260 541 0 9
04 +17 430 0 596 427 898 109 899 428 0 0 +17 427 0 596 424 430 106 904 425 0 0 +
17 424 0 596 905 427 103 906 422 0 0 +17 904 0 800 260 108 109 427 425 0 430 -15
 800 1344 0 904 796 0 17 260 0 800 670 904 258 111 541 0 907 -17 108 0 800 904 6
70 106 257 543 0 906 +17 670 0 800 108 260 255 907 668 0 0 +17 257 0 797 667 906
 255 108 543 0 908 -17 906 0 797 257 105 106 424 422 0 427 -15 797 1346 0 906 79
3 0 17 105 0 797 906 667 103 909 545 0 421 +17 667 0 797 105 257 252 908 665 0 0
 +17 909 0 794 910 421 252 105 545 0 667 -17 421 0 794 909 102 103 905 419 0 424
 +15 794 1348 0 421 790 0 17 102 0 794 421 910 100 251 547 0 905 +17 905 0 596 4
18 424 100 421 419 0 911 -17 418 0 596 415 905 97 911 416 0 0 +17 911 0 791 251
 99 100 418 416 0 0 -15 791 1350 0 911 787 0 17 251 0 791 662 911 249 102 547 0
 910 -17 99 0 791 911 662 97 248 549 0 912 +17 662 0 791 99 251 246 913 660 0 0
 +17 248 0 788 659 912 246 99 549 0 914 -17 912 0 788 248 96 97 415 413 0 418 -1
5 788 1352 0 912 784 0 17 96 0 788 912 659 94 245 551 0 915 +17 415 0 596 412 41
8 94 912 413 0 0 +17 412 0 596 916 415 91 915 410 0 0 +17 916 0 596 406 412 88 4
09 407 0 917 -17 915 0 785 245 93 94 412 410 0 415 -15 785 1354 0 915 781 0 17 2
45 0 785 656 915 243 96 551 0 918 -17 93 0 785 915 656 91 919 553 0 409 +17 656
 0 785 93 245 240 918 654 0 0 +17 919 0 782 920 409 240 93 553 0 656 -17 409 0 7
82 919 90 91 916 407 0 412 +15 782 1356 0 409 778 0 17 90 0 782 409 920 88 239 5
55 0 916 +17 920 0 782 90 919 237 242 652 0 921 -17 239 0 779 651 917 237 90 555
 0 920 -15 779 1358 0 917 775 0 17 651 0 779 87 239 234 921 649 0 0 +17 917 0 77
9 239 87 88 406 404 0 0 -17 87 0 779 917 651 85 236 557 0 922 +17 406 0 596 403
 916 85 917 404 0 0 +17 403 0 596 400 406 82 922 401 0 0 +17 400 0 596 923 403 7
9 924 398 0 0 +17 922 0 776 236 84 85 403 401 0 406 -15 776 1360 0 922 772 0 17
 236 0 776 648 922 234 87 557 0 925 -17 84 0 776 922 648 82 233 559 0 924 +17 64
8 0 776 84 236 231 925 646 0 0 +17 233 0 773 645 924 231 84 559 0 926 -17 924 0
 773 233 81 82 400 398 0 403 -15 773 1362 0 924 769 0 17 81 0 773 924 645 79 927
 561 0 397 +17 645 0 773 81 233 228 926 643 0 0 +17 927 0 770 928 397 228 81 561
 0 645 -17 397 0 770 927 78 79 923 395 0 400 +15 770 1364 0 397 766 0 17 78 0 77
0 397 928 76 227 563 0 923 +17 923 0 596 394 400 76 397 395 0 929 -17 394 0 596
 391 923 73 929 392 0 0 +17 929 0 767 227 75 76 394 392 0 0 -15 767 1366 0 929 7
63 0 17 227 0 767 640 929 225 78 563 0 928 -17 75 0 767 929 640 73 224 565 0 930
 +17 640 0 767 75 227 222 931 638 0 0 +17 224 0 764 637 930 222 75 565 0 932 -17
 930 0 764 224 72 73 391 389 0 394 -15 764 1368 0 930 760 0 17 72 0 764 930 637
 70 221 567 0 933 +17 391 0 596 388 394 70 930 389 0 0 +17 388 0 596 934 391 67
 933 386 0 0 +17 934 0 596 935 388 64 385 383 0 0 -17 933 0 761 221 69 70 388 38
6 0 391 -15 761 1370 0 933 757 0 17 221 0 761 634 933 219 72 567 0 936 -17 69 0
 761 933 634 67 937 569 0 385 +17 634 0 761 69 221 216 936 632 0 0 +17 937 0 758
 938 385 216 69 569 0 634 -17 385 0 758 937 573 67 934 383 0 388 +15 758 1372 0
 385 754 0 17 573 0 758 385 938 64 939 571 0 934 +17 938 0 758 573 937 213 218 6
30 0 0 -17 939 0 755 940 66 213 573 571 0 938 -15 755 1374 0 66 751 0 17 940 0 7
55 576 939 210 215 628 0 0 -17 66 0 755 939 576 64 935 381 0 573 +17 576 0 755 6
6 940 61 941 574 0 935 +17 935 0 596 942 934 61 66 381 0 0 -17 942 0 596 597 935
 943 63 379 0 944 -17 597 0 596 378 942 193 945 946 0 0 +18 943 2063 0 942 193 0
 194 ?1 17 63 0 752 941 944 61 942 379 0 576 +17 944 0 752 63 947 943 948 358 0
 945 +15 752 1376 0 63 748 0 17 947 0 752 944 941 949 212 626 0 948 -17 948 0 95
0 951 945 949 944 358 0 952 -16 358 2007 0 ?944 355 953 954 0 0 1 17 945 0 950 9
48 955 943 597 946 0 0 -15 950 2080 0 945 956 0 17 955 0 950 945 951 193 957 953
 0 597 +16 946 2038 0 ?597 958 0 959 0 0 1 16 958 1998 0 ?951 953 946 960 0 0 1
 30 959 2123 0 946 960 961 0 +-.1431411472607346 0 .0222699735959165 0 0 1 30 96
0 2128 0 958 0 959 0 +-.1431411472607346 -.002 .0222699735959165 0 0 1 30 961 21
17 0 953 959 954 0 +-.1431411472607346 -.002 .0296613735959165 0 1 0 16 953 2001
 0 ?955 358 958 961 0 0 1 30 954 2114 0 358 961 615 0 +-.1431411472607346 -.002
 .01909497359591655 0 1 0 30 615 9 0 497 954 614 0 +-.0841280046128546 -.002 .02
755317359591655 .3420201433256695 0 .939692620785908 16 497 7 0 ?34 610 494 615
 0 0 1 17 34 0 182 32 185 12 609 497 0 332 +17 609 0 324 189 332 181 34 497 0 0
 -17 332 0 324 609 325 12 30 350 0 0 -17 30 0 29 178 26 27 332 350 0 0 +17 951 0
 950 955 948 43 952 958 0 0 +18 43 2073 0 330 40 949 962 ?1 17 952 0 324 212 330
 949 951 958 0 0 -17 212 0 324 215 952 210 947 626 0 941 +17 330 0 324 952 963 4
3 625 623 0 957 -18 949 2057 0 947 43 193 964 ?1 18 193 2059 0 965 949 943 192 ?
1 29 964 2138 0 949 0 962 -.1431411472607346 -.002 .01909497359591655 29 962 213
5 0 43 964 194 -.1431411472607346 -.002 .0296613735959165 29 194 2133 0 943 962
 192 -.1431411472607346 0 .01909497359591655 17 965 0 749 957 60 193 378 376 0 9
55 -15 749 1382 0 965 745 0 17 957 0 749 625 965 43 955 953 0 951 -17 60 0 749 9
65 625 58 209 577 0 966 +17 378 0 596 375 597 58 965 376 0 0 +17 375 0 596 600 3
78 55 966 373 0 0 +17 600 0 596 369 375 52 372 370 0 601 -17 966 0 746 209 57 58
 375 373 0 378 -15 746 1384 0 966 742 0 17 209 0 746 622 966 207 60 577 0 963 -1
7 57 0 746 966 622 55 967 579 0 372 +17 622 0 746 57 209 204 963 620 0 0 +17 967
 0 743 968 372 204 57 579 0 622 -17 372 0 743 967 54 55 600 370 0 375 +15 743 13
86 0 372 739 0 17 54 0 743 372 968 52 203 581 0 600 +17 968 0 743 54 967 201 206
 618 0 607 -17 203 0 740 608 601 201 54 581 0 968 -15 740 1388 0 601 737 0 17 60
8 0 740 51 203 198 607 612 0 0 +17 601 0 740 203 51 52 369 367 0 0 -17 51 0 740
 601 608 49 200 583 0 599 +17 607 0 324 206 605 201 608 612 0 0 -17 206 0 324 96
3 607 204 968 618 0 967 +17 963 0 324 330 206 207 622 620 0 625 -17 625 0 749 60
 957 207 330 623 0 0 +17 215 0 324 218 212 213 940 628 0 939 +17 941 0 752 947 6
3 210 576 574 0 940 -17 218 0 324 936 215 216 938 630 0 937 +17 936 0 324 932 21
8 219 634 632 0 637 -17 932 0 324 931 936 222 637 635 0 640 -17 637 0 764 72 224
 219 932 635 0 0 +17 931 0 324 230 932 225 640 638 0 0 -17 230 0 324 926 931 228
 928 641 0 927 +17 926 0 324 925 230 231 645 643 0 648 -17 928 0 770 78 927 225
 230 641 0 931 -17 925 0 324 921 926 234 648 646 0 651 -17 921 0 324 242 925 237
 651 649 0 0 -17 242 0 324 918 921 240 920 652 0 919 +17 918 0 324 914 242 243 6
56 654 0 659 -17 914 0 324 913 918 246 659 657 0 662 -17 659 0 788 96 248 243 91
4 657 0 0 +17 913 0 324 254 914 249 662 660 0 0 -17 254 0 324 908 913 252 910 66
3 0 909 +17 908 0 324 907 254 255 667 665 0 670 -17 910 0 794 102 909 249 254 66
3 0 913 -17 907 0 324 903 908 258 670 668 0 673 -17 903 0 324 266 907 261 673 67
1 0 0 -17 266 0 324 900 903 264 902 674 0 901 +17 900 0 324 896 266 267 678 676
 0 681 -17 896 0 324 895 900 270 681 679 0 684 -17 681 0 812 120 272 267 896 679
 0 0 +17 895 0 324 278 896 273 684 682 0 0 -17 278 0 324 890 895 276 892 685 0 8
91 +17 890 0 324 889 278 279 689 687 0 692 -17 892 0 818 126 891 273 278 685 0 8
95 -17 889 0 324 885 890 282 692 690 0 695 -17 885 0 324 290 889 285 695 693 0 0
 -17 290 0 324 882 885 288 884 696 0 883 +17 882 0 324 878 290 291 700 698 0 703
 -17 878 0 324 877 882 294 703 701 0 706 -17 703 0 836 144 296 291 878 701 0 0 +
17 877 0 324 302 878 297 706 704 0 0 -17 302 0 324 872 877 300 874 707 0 873 +17
 872 0 324 871 302 303 711 709 0 714 -17 874 0 842 150 873 297 302 707 0 877 -17
 871 0 324 867 872 306 714 712 0 717 -17 867 0 324 314 871 309 717 715 0 0 -17 3
14 0 324 864 867 312 866 718 0 865 +17 864 0 324 335 314 315 722 720 0 724 -17 3
35 0 324 326 864 318 724 723 0 336 -17 724 0 859 168 320 315 335 723 0 0 +14 956
 2077 0 ?0 598 950 6 969 +0 0 0 598 23 14 598 679 0 ?956 331 596 6 733 -0 0 956
 331 23 50 969 2107 0 956 0 731 0 +-.1431411472607346 -.002 .0222699735959165 -1
 0 0 0 0 1 50 731 3 0 331 969 733 0 +-.0584036854607346 -.002 .02437817359591655
 0 -1 0 1 0 0 50 733 1142 0 598 731 730 0 +-.0584036854607346 0 .024378173595916
55 0 -1 0 1 0 0 17 188 0 593 24 589 181 189 610 0 609 -19 18 1501 0 1 0 10 6 0 S
0 74 4 CI16 index_map_offset0 0 1 dCCZ20 16 3 0 0 970 14 2 0 0 0 0 0 0 0 0 0 0 0
 0 0 0 0 0 0 81 1 970 2185 971 1 0 14 0 0 972 81 1 14 2186 973 1 970 2 0 0 974 8
0 7 CCCCCDI12 legal_owners0 17 1 lCZ1 973 13 975 8038 0 0 0 0 0 0 0 0 0 TTTTTTTT
TTTTTFTFT10 98 255 6 974 80 97 114 116 32 49 79 255 14 975 SDL/TYSA_UNAME80 1 97
1 976 977 8040 0 0 0 0 3 5 0 0 0 TTTFFFFFFFFFFFFFF2 83 255 3 972 .61568627450980
4 .811764705882353 .929411764705882 79 17 977 SDL/TYSA_COLOUR_280 1 13 978 979 8
017 0 0 0 0 0 0 0 0 0 TTTTTTTTTTTTTFTFT3 84 255 6 15 Part 179 13 979 SDL/TYSA_NA
ME1 0 
