**ABCDEFGHIJKLMNOPQRSTUVWXYZabcdefghijklmnopqrstuvwxyz**************************
**PARASOLID !"#$%&'()*+,-./:;<=>?@[\]^_`{|}~0123456789**************************
**PART1;
MC=unknown;
MC_MODEL=unknown;
MC_ID=unknown;
OS=unknown;
OS_RELEASE=unknown;
FRU=Parasolid 37.0.209;
APPL=Onshape;
SITE=unknown;
USER=unknown;
FORMAT=text;
GUISE=transmit;
KEY=BTGapi::writeModels_.xmt;
FILE=BTGapi::writeModels_.xmt;
DATE=2025-03-16T16:43:44 (UTC);
**PART2;
SCH=SCH_3700209_36001;
USFLD_SIZE=0;
**PART3;
**END_OF_HEADER*****************************************************************
T51 : TRANSMIT FILE created by modeller version 370020923 SCH_3700209_36001_1300
6231 0 12 36 CCCI7 lattice222 0 CCCI4 mesh1006 0 I8 polyline1008 0 CCCCCCCDI5 ow
ner1040 0 CCCI16 boundary_lattice222 0 CCCI13 boundary_mesh1006 0 I17 boundary_p
olyline1008 0 CCCA16 index_map_offset0 0 1 dA9 index_map82 0 A17 node_id_index_m
ap82 0 A20 schema_embedding_map82 0 A5 child12 0 A14 lowest_node_id0 0 1 dA16 me
sh_offset_data206 0 Z1 174 2 3 0 0 0 0 0 0 0 1e3 1e-8 0 4 5 1 0 1 2 6 0 7 8 9 0
 0 10 11 12 0 0 0 0 0 0 0 81 255 1 2 174 13 1 14 0 0 0 15 70 11 CI9 list_type0 0
 1 uI10 notransmit0 0 1 lCCCDCCDI12 finger_index0 0 1 dI12 finger_block1012 0 CZ
3 0 4 T1 0 0 3 20 1 16 16 13 255 6 130 0 1 0 17 0 0 18 0 50 255 7 125 0 19 20 0
 0 +.008 .01 .002 0 1 0 0 0 1 30 255 8 129 0 21 22 0 0 +0 .01 .002 0 0 -1 29 255
 9 106 0 23 24 0 0 0 0 19 9 CCCCCCI5 frame230 0 CA5 owner12 0 Z10 1 0 1 18 0 25
 0 V0 16 255 11 110 0 ?26 0 27 28 0 0 1 18 255 12 20 0 29 0 30 31 ?1 17 255 29 0
 32 33 34 12 26 11 0 35 -18 30 23 0 36 12 37 38 ?1 29 31 39 0 12 38 39 0 0 .002
 29 38 38 0 30 40 31 .016 0 .002 29 39 109 0 41 31 42 0 .01 0 18 41 97 0 43 44 0
 39 ?1 29 42 108 0 44 39 24 .016 .01 0 18 44 93 0 45 46 41 42 ?1 29 24 107 0 46
 42 9 .016 0 0 18 46 89 0 47 23 44 24 ?1 17 47 0 48 49 26 46 50 51 0 52 +18 23 8
5 0 26 53 46 9 ?1 17 26 0 48 47 35 23 29 11 0 50 +18 53 29 0 54 37 23 55 ?1 17 5
4 0 56 57 58 53 43 21 0 59 -18 37 26 0 60 30 53 40 ?1 29 55 36 0 53 0 40 0 .01 .
002 29 40 37 0 37 55 38 .016 .01 .002 17 60 0 61 59 36 37 62 63 0 64 +15 255 61
 7 0 65 66 0 17 59 0 61 65 60 53 57 67 0 33 -17 36 0 61 60 65 30 35 68 0 49 +17
 62 0 69 52 64 30 60 63 0 0 -16 63 14 0 ?60 68 67 70 0 0 1 17 64 0 69 62 71 37 4
5 72 0 57 -15 69 118 0 71 73 0 17 71 0 69 64 52 44 74 75 0 76 +17 45 0 56 58 57
 44 64 72 0 71 +16 72 112 0 ?45 27 21 22 0 0 1 17 57 0 56 45 54 37 59 67 0 0 +15
 56 120 0 58 19 0 16 67 17 0 ?57 63 77 78 0 0 1 16 77 69 0 ?79 67 51 80 0 0 1 30
 78 32 0 67 0 70 0 +.008 .01 .002 1 0 0 30 70 33 0 63 78 81 0 +.016 .005 .002 0
 1 0 30 81 34 0 68 70 82 0 +.008 0 .002 1 0 0 16 68 11 0 ?36 83 63 81 0 0 1 30 8
2 35 0 83 81 84 0 +0 .005 .002 0 1 0 16 83 8 0 ?33 21 68 82 0 0 1 30 84 105 0 85
 82 86 0 +.008 .01 0 1 0 0 16 85 81 0 ?76 75 0 84 0 0 1 30 86 104 0 75 84 87 0 +
.016 .005 0 0 1 0 16 75 77 0 ?71 51 85 86 0 0 1 30 87 103 0 51 86 80 0 +.008 0 0
 1 0 0 16 51 73 0 ?47 77 75 87 0 0 1 30 80 102 0 77 87 28 0 +0 .005 0 0 1 0 30 2
8 126 0 11 80 88 0 +0 0 .002 0 0 -1 30 88 127 0 27 28 22 0 +.016 0 .002 0 0 -1 1
6 27 111 0 ?52 11 72 88 0 0 1 30 22 128 0 72 88 8 0 +.016 .01 .002 0 0 -1 17 52
 0 69 71 62 46 49 27 0 74 +17 49 0 48 35 47 30 52 27 0 62 -17 74 0 89 50 76 46 7
1 75 0 0 -15 89 68 0 79 90 0 17 50 0 89 79 74 23 47 51 0 34 -17 76 0 89 74 79 44
 58 85 0 0 +17 79 0 89 76 50 41 34 77 0 0 +17 58 0 56 54 45 41 76 85 0 79 -17 34
 0 32 29 43 23 79 77 0 0 -15 32 114 0 34 17 0 17 43 0 32 34 33 41 54 21 0 58 +17
 33 0 32 43 29 53 65 83 0 0 +16 21 113 0 ?43 72 83 8 0 0 1 17 65 0 61 36 59 12 3
3 83 0 0 -14 255 17 115 0 ?91 0 32 6 92 +0 0 91 0 25 14 91 117 0 ?73 17 48 6 93
 -0 0 73 17 25 50 92 122 0 17 94 93 0 +0 .005 .002 -1 0 0 0 0 1 13 25 3 0 0 0 0
 0 0 10 17 50 94 101 0 90 95 92 0 +.0185 .0175 0 0 0 1 1 0 0 50 93 123 0 91 92 2
0 0 +.008 0 .002 0 1 0 0 0 1 50 20 124 0 73 93 7 0 +.016 .005 .002 -1 0 0 0 0 1
 14 73 119 0 ?19 91 69 6 20 -0 0 19 91 25 14 19 121 0 ?66 73 56 6 7 +0 0 66 73 2
5 14 66 4 0 ?90 19 61 6 95 +0 0 90 19 25 14 90 61 0 ?0 66 89 6 94 -0 0 0 66 25 5
0 95 42 0 66 0 94 0 +.0185 .0175 .002 0 0 1 1 0 0 15 48 116 0 47 91 0 17 35 0 48
 26 49 12 36 68 0 65 -19 18 131 0 1 0 10 6 0 S0 74 4 CI16 index_map_offset0 0 1
 dCCZ20 16 3 0 0 96 14 2 0 0 0 0 0 0 0 0 0 0 0 0 0 0 0 0 0 81 1 96 172 97 1 0 14
 0 0 98 81 1 14 173 99 1 96 2 0 0 100 80 7 CCCCCDI12 legal_owners0 17 1 lCZ1 99
 13 101 8038 0 0 0 0 0 0 0 0 0 TTTTTTTTTTTTTFTFT10 98 255 6 100 80 97 114 116 32
 49 79 255 14 101 SDL/TYSA_UNAME80 1 97 102 103 8040 0 0 0 0 3 5 0 0 0 TTTFFFFFF
FFFFFFFF2 83 255 3 98 .976470588235294 .976470588235294 .976470588235294 79 17 1
03 SDL/TYSA_COLOUR_280 1 13 104 105 8017 0 0 0 0 0 0 0 0 0 TTTTTTTTTTTTTFTFT3 84
 255 6 15 Part 179 13 105 SDL/TYSA_NAME1 0 
