**ABCDEFGHIJKLMNOPQRSTUVWXYZabcdefghijklmnopqrstuvwxyz**************************
**PARASOLID !"#$%&'()*+,-./:;<=>?@[\]^_`{|}~0123456789**************************
**PART1;
MC=unknown;
MC_MODEL=unknown;
MC_ID=unknown;
OS=unknown;
OS_RELEASE=unknown;
FRU=Parasolid 37.0.209;
APPL=Onshape;
SITE=unknown;
USER=unknown;
FORMAT=text;
GUISE=transmit;
KEY=BTGapi::writeModels_.xmt;
FILE=BTGapi::writeModels_.xmt;
DATE=2025-03-16T16:43:44 (UTC);
**PART2;
SCH=SCH_3700209_36001;
USFLD_SIZE=0;
**PART3;
**END_OF_HEADER*****************************************************************
T51 : TRANSMIT FILE created by modeller version 370020923 SCH_3700209_36001_1300
6231 0 12 36 CCCI7 lattice222 0 CCCI4 mesh1006 0 I8 polyline1008 0 CCCCCCCDI5 ow
ner1040 0 CCCI16 boundary_lattice222 0 CCCI13 boundary_mesh1006 0 I17 boundary_p
olyline1008 0 CCCA16 index_map_offset0 0 1 dA9 index_map82 0 A17 node_id_index_m
ap82 0 A20 schema_embedding_map82 0 A5 child12 0 A14 lowest_node_id0 0 1 dA16 me
sh_offset_data206 0 Z1 488 2 3 0 0 0 0 0 0 0 1e3 1e-8 0 4 5 1 0 1 2 6 0 7 8 9 0
 0 10 11 12 0 0 0 0 0 0 0 81 255 1 2 488 13 1 14 0 0 0 15 70 11 CI9 list_type0 0
 1 uI10 notransmit0 0 1 lCCCDCCDI12 finger_index0 0 1 dI12 finger_block1012 0 CZ
3 0 4 T1 0 0 6 20 1 16 16 13 255 6 64 0 1 0 17 0 0 18 0 50 255 7 227 0 17 19 0 0
 +-.0104 -.00515 .00525 0 -1 0 0 0 -1 30 255 8 189 0 1 20 0 21 +-.0104 -.00515 .
0061 1 0 0 29 255 9 218 0 22 23 0 -.01125 -.00515 -.00525 19 9 CCCCCCI5 frame230
 0 CA5 owner12 0 Z10 1 0 1 18 0 24 0 V0 16 255 11 58 25 ?26 0 27 28 0 0 1 18 255
 12 53 29 30 0 22 23 5e-7 1 81 1 29 382 31 12 0 0 0 32 33 17 255 30 0 34 35 36 1
2 26 11 0 37 -18 22 51 32 38 12 39 9 5e-7 1 29 23 220 0 12 40 9 -.01125 .00515 -
.00525 29 40 179 0 41 42 23 -.01125 -.00515 .00525 18 41 6 43 44 45 0 40 5e-7 1
 29 42 184 0 46 47 40 -.01125 .00515 .00525 18 46 11 48 26 49 50 42 5e-7 1 29 47
 212 0 51 52 42 -.0104 -.00515 -.0061 18 51 44 53 54 39 55 47 5e-7 1 29 52 214 0
 39 56 47 -.0104 .00515 -.0061 18 39 46 57 58 22 51 52 5e-7 1 29 56 206 0 59 60
 52 .0104 -.00515 -.0061 18 59 37 61 62 55 63 56 5e-7 1 29 60 208 0 55 64 56 .01
04 .00515 -.0061 18 55 39 65 66 51 59 60 5e-7 1 29 64 200 0 67 68 60 .01125 -.00
515 -.00525 18 67 30 69 70 63 71 64 5e-7 1 29 68 202 0 63 72 64 .01125 .00515 -.
00525 18 63 32 73 74 59 67 68 5e-7 1 29 72 194 0 75 76 68 .01125 -.00515 .00525
 18 75 23 77 78 71 79 72 5e-7 1 29 76 196 0 71 80 72 .01125 .00515 .00525 18 71
 25 81 82 67 75 76 5e-7 1 29 80 188 0 49 83 76 .0104 -.00515 .0061 18 49 16 84 8
5 79 46 80 5e-7 1 29 83 190 0 79 86 80 .0104 .00515 .0061 18 79 18 87 88 75 49 8
3 5e-7 1 29 86 180 0 45 89 83 -.0104 -.00515 .0061 18 45 7 90 91 50 41 86 5e-7 1
 29 89 182 0 50 0 86 -.0104 .00515 .0061 18 50 9 92 93 46 45 89 5e-7 1 81 1 92 3
95 31 50 0 0 48 90 94 17 93 0 95 96 97 50 98 99 0 100 -15 255 95 14 0 101 102 0
 17 96 0 95 101 93 45 103 104 0 105 +17 97 0 95 93 101 79 106 107 0 0 -17 98 0 1
08 109 100 79 93 99 0 97 +16 99 19 110 ?98 111 107 112 0 0 1 17 100 0 108 98 26
 50 113 114 0 103 +15 108 60 0 100 115 0 17 26 0 108 100 37 46 30 11 0 36 +17 11
3 0 116 117 103 46 100 114 0 0 -16 114 10 118 ?100 119 104 120 0 0 1 17 103 0 11
6 113 105 50 96 104 0 0 -15 116 4 0 105 121 0 17 105 0 116 103 117 45 122 123 0
 0 +16 104 8 124 ?96 114 123 125 0 0 1 81 1 124 420 31 104 0 0 118 126 127 16 12
3 5 126 ?105 104 0 128 0 0 1 133 255 125 287 0 104 0 129 0 +129 -.0104 .00515 .0
061 -.0104 -.00515 .0061 0 .0103 30 129 183 0 1 125 130 131 +-.0104 .00515 .0061
 0 -1 0 133 130 291 0 107 129 132 0 +132 .0104 .00515 .0061 .0104 -.00515 .0061
 0 .0103 141 255 131 125 131 131 129 16 107 17 133 ?106 99 134 130 0 0 1 30 132
 191 0 1 130 135 136 +.0104 .00515 .0061 0 -1 0 133 135 295 0 137 132 138 0 +138
 .01125 .00515 .00525 .01125 -.00515 .00525 0 .0103 141 136 130 136 136 132 16 1
37 24 139 ?140 141 111 135 0 0 1 30 138 197 0 1 135 142 143 +.01125 .00515 .0052
5 0 -1 0 133 142 299 0 144 138 145 0 +145 .01125 .00515 -.00525 .01125 -.00515 -
.00525 0 .0103 141 143 135 143 143 138 16 144 31 146 ?147 148 149 142 0 0 1 30 1
45 203 0 1 142 150 151 +.01125 .00515 -.00525 0 -1 0 133 150 303 0 152 145 153 0
 +153 .0104 .00515 -.0061 .0104 -.00515 -.0061 0 .0103 141 151 142 151 151 145 1
6 152 38 154 ?155 156 157 150 0 0 1 30 153 209 0 1 150 158 159 +.0104 .00515 -.0
061 0 -1 0 133 158 307 0 160 153 161 0 +161 -.0104 .00515 -.0061 -.0104 -.00515
 -.0061 0 .0103 141 159 150 159 159 153 16 160 45 162 ?163 164 165 158 0 0 1 30
 161 215 0 1 158 166 167 +-.0104 .00515 -.0061 0 -1 0 133 166 311 0 119 161 168
 0 +168 -.01125 .00515 .00525 -.01125 -.00515 .00525 0 .0103 141 167 158 167 167
 161 16 119 12 169 ?117 134 114 166 0 0 1 30 168 186 0 1 166 170 171 +-.01125 .0
0515 .00525 0 -1 0 133 170 313 0 172 168 173 0 +173 -.01125 .00515 -.00525 -.011
25 -.00515 -.00525 0 .0103 141 171 166 171 171 168 16 172 52 174 ?35 175 176 170
 0 0 1 30 173 221 0 1 170 120 177 +-.01125 .00515 -.00525 0 -1 0 133 120 317 0 1
14 173 178 0 +178 -.01125 .00515 .00525 -.0104 .00515 .0061 1.570796326794895 3.
141592653589795 141 177 170 177 177 173 31 255 178 185 0 1 120 112 179 +-.0104 .
00515 .00525 0 1 0 0 0 -1 85e-5 133 112 319 0 99 178 180 0 +180 -.0104 .00515 .0
061 .0104 .00515 .0061 0 .0208 141 179 120 179 179 178 30 180 192 0 1 112 181 18
2 +-.0104 .00515 .0061 1 0 0 133 181 321 0 141 180 183 0 +183 .0104 .00515 .0061
 .01125 .00515 .00525 0 1.570796326794895 141 182 112 182 182 180 16 141 26 184
 ?109 149 137 181 0 0 1 31 183 198 0 1 181 185 186 +.0104 .00515 .00525 0 1 0 0
 0 1 85e-5 133 185 323 0 148 183 187 0 +187 .01125 .00515 .00525 .01125 .00515 -
.00525 0 .0105 141 186 181 186 186 183 16 148 33 188 ?189 157 144 185 0 0 1 30 1
87 204 0 1 185 190 191 +.01125 .00515 .00525 0 0 -1 133 190 325 0 156 187 192 0
 +192 .01125 .00515 -.00525 .0104 .00515 -.0061 4.71238898038469 6.2831853071795
9 141 191 185 191 191 187 16 156 40 193 ?194 165 152 190 0 0 1 31 192 210 0 1 19
0 195 196 +.0104 .00515 -.00525 0 1 0 0 0 -1 85e-5 133 195 327 0 164 192 197 0 +
197 .0104 .00515 -.0061 -.0104 .00515 -.0061 -.0208 0 141 196 190 196 196 192 16
 164 47 198 ?199 176 160 195 0 0 1 30 197 216 0 1 195 200 201 +-.0104 .00515 -.0
061 -1 0 0 133 200 329 0 175 197 202 0 +202 -.0104 .00515 -.0061 -.01125 .00515
 -.00525 0 1.570796326794895 141 201 195 201 201 197 16 175 54 203 ?37 27 172 20
0 0 0 1 31 202 222 0 1 200 28 204 +-.0104 .00515 -.00525 0 1 0 0 0 -1 85e-5 133
 28 331 0 11 202 205 0 +205 -.01125 .00515 -.00525 -.01125 .00515 .00525 -.0105
 0 141 204 200 204 204 202 30 205 225 0 1 28 128 206 +-.01125 .00515 .00525 0 0
 1 133 128 335 0 123 205 207 0 +207 -.01125 -.00515 .00525 -.0104 -.00515 .0061
 1.570796326794895 3.141592653589795 141 206 28 206 206 205 31 207 181 0 1 128 2
08 209 +-.0104 -.00515 .00525 0 1 0 0 0 -1 85e-5 133 208 337 0 27 207 210 0 +210
 -.01125 -.00515 -.00525 -.01125 -.00515 .00525 -.0105 0 141 209 128 209 209 207
 16 27 57 211 ?44 11 175 208 0 0 1 30 210 224 0 1 208 212 213 +-.01125 -.00515 .
00525 0 0 1 133 212 339 0 176 210 214 0 +214 -.0104 -.00515 -.0061 -.01125 -.005
15 -.00525 0 1.570796326794895 141 213 208 213 213 210 16 176 50 215 ?216 172 16
4 212 0 0 1 31 214 219 0 1 212 217 218 +-.0104 -.00515 -.00525 0 1 0 0 0 -1 85e-
5 133 217 341 0 165 214 219 0 +219 .0104 -.00515 -.0061 -.0104 -.00515 -.0061 -.
0208 0 141 218 212 218 218 214 16 165 43 220 ?221 160 156 217 0 0 1 30 219 213 0
 1 217 222 223 +-.0104 -.00515 -.0061 -1 0 0 133 222 343 0 157 219 224 0 +224 .0
1125 -.00515 -.00525 .0104 -.00515 -.0061 4.71238898038469 6.28318530717959 141
 223 217 223 223 219 16 157 36 225 ?226 152 148 222 0 0 1 31 224 207 0 1 222 227
 228 +.0104 -.00515 -.00525 0 1 0 0 0 -1 85e-5 133 227 345 0 149 224 229 0 +229
 .01125 -.00515 .00525 .01125 -.00515 -.00525 0 .0105 141 228 222 228 228 224 16
 149 29 230 ?231 144 141 227 0 0 1 30 229 201 0 1 227 232 233 +.01125 -.00515 .0
0525 0 0 -1 133 232 347 0 111 229 234 0 +234 .0104 -.00515 .0061 .01125 -.00515
 .00525 0 1.570796326794895 141 233 227 233 233 229 16 111 22 235 ?236 137 99 23
2 0 0 1 31 234 195 0 1 232 20 237 +.0104 -.00515 .00525 0 1 0 0 0 1 85e-5 133 20
 349 0 134 234 8 0 +8 -.0104 -.00515 .0061 .0104 -.00515 .0061 0 .0208 141 237 2
32 237 237 234 16 134 15 238 ?101 107 119 20 0 0 1 81 1 238 417 31 134 0 0 133 1
69 239 17 101 0 95 97 96 49 91 134 0 0 +17 91 0 240 122 85 45 101 134 0 96 -15 2
40 62 0 122 17 0 17 122 0 240 38 91 41 105 123 0 0 -17 85 0 240 91 78 49 236 111
 0 106 -17 78 0 240 85 70 75 231 149 0 140 -17 236 0 241 242 106 75 85 111 0 0 +
17 106 0 241 236 88 49 97 107 0 101 +15 241 21 0 236 243 0 17 88 0 241 106 242 7
9 109 141 0 98 -17 242 0 241 88 236 71 140 137 0 0 -17 109 0 108 189 98 71 88 14
1 0 242 +17 189 0 108 194 109 63 82 148 0 244 +17 194 0 108 199 189 55 74 156 0
 245 +17 82 0 246 140 244 71 189 148 0 109 -17 244 0 246 82 231 63 147 144 0 0 -
15 246 28 0 231 247 0 17 231 0 246 244 140 67 78 149 0 0 +17 147 0 248 226 74 67
 244 144 0 231 +15 248 35 0 226 249 0 17 226 0 248 245 147 59 70 157 0 0 +17 74
 0 248 147 245 63 194 156 0 189 -17 245 0 248 74 226 55 155 152 0 0 -17 155 0 25
0 221 66 59 245 152 0 226 +15 250 42 0 221 251 0 17 221 0 250 252 155 51 62 165
 0 0 +17 66 0 250 155 252 55 199 164 0 194 -17 252 0 250 66 221 39 163 160 0 0 -
17 199 0 108 37 194 39 66 164 0 252 +17 37 0 108 26 199 12 58 175 0 253 +17 58 0
 254 163 253 39 37 175 0 199 -17 253 0 254 58 216 12 35 172 0 0 -15 254 49 0 216
 255 0 17 216 0 254 253 163 22 54 176 0 0 +17 35 0 34 44 30 22 253 172 0 216 +15
 34 56 0 44 256 0 17 44 0 34 36 35 41 38 27 0 117 +17 36 0 34 30 44 46 117 119 0
 113 -17 38 0 240 54 122 22 44 27 0 35 -17 117 0 116 105 113 41 36 119 0 122 +17
 54 0 240 62 38 51 216 176 0 163 -17 62 0 240 70 54 59 221 165 0 155 -17 163 0 2
54 216 58 51 252 160 0 221 +17 70 0 240 78 62 67 226 157 0 147 -14 255 256 55 25
7 ?255 115 34 6 258 -0 0 255 115 24 81 1 257 424 31 256 0 0 259 260 261 14 255 4
8 260 ?251 256 254 6 262 +0 0 251 256 24 14 115 59 259 ?256 17 108 6 19 -0 0 256
 17 24 50 258 223 0 256 262 19 0 +-.01125 .00515 .00525 1 0 0 0 0 -1 13 24 2 0 0
 0 0 0 0 10 17 14 17 61 263 ?115 0 240 6 7 +0 0 115 0 24 81 1 263 422 31 17 0 0
 126 259 264 80 7 CCCCCDI12 legal_owners0 17 1 lCZ1 31 265 266 9000 0 0 0 0 3 5
 0 0 0 FFTFTFTTFFFFFFFFF2 81 1 126 421 31 123 0 0 124 263 267 81 1 259 423 31 11
5 0 0 263 257 268 83 255 1 264 6703 83 1 268 6704 83 1 267 6702 79 255 13 266 BT
I/importTag51 255 262 217 0 255 269 258 0 +-.0104 .00515 -.00525 0 -1 0 85e-5 0
 0 -1 50 19 226 0 115 258 7 0 +-.0104 .00515 .00525 0 -1 0 0 0 -1 50 269 211 0 2
51 270 262 0 +-.0104 .00515 -.0061 0 0 1 1 0 0 14 251 41 271 ?249 255 250 6 269
 -0 0 249 255 24 51 270 205 0 249 272 269 0 +.0104 .00515 -.00525 0 -1 0 85e-5 0
 0 -1 14 249 34 273 ?247 251 248 6 270 +0 0 247 251 24 50 272 199 0 247 274 270
 0 +.01125 .00515 .00525 -1 0 0 0 0 1 14 247 27 275 ?243 249 246 6 272 -0 0 243
 249 24 51 274 193 0 243 276 272 0 +.0104 .00515 .00525 0 -1 0 85e-5 0 0 -1 14 2
43 20 277 ?102 247 241 6 274 +0 0 102 247 24 50 276 187 0 102 278 274 0 +-.0104
 .00515 .0061 0 0 -1 -1 0 0 14 102 13 279 ?121 243 95 6 276 -0 0 121 243 24 51 2
78 178 0 121 0 276 0 +-.0104 .00515 .00525 0 -1 0 85e-5 0 0 -1 14 121 3 280 ?0 1
02 116 6 278 +0 0 0 102 24 81 1 280 431 31 121 0 0 279 281 282 81 1 279 430 31 1
02 0 0 277 280 283 81 1 281 432 31 1 284 285 280 0 286 83 1 282 6712 81 1 284 38
0 287 1 0 281 0 0 288 81 1 285 433 289 1 281 290 0 0 291 83 1 286 6713 80 1 289
 31 292 9000 0 0 0 0 3 5 0 0 0 FFTFTFTTFFFFFFFFF2 81 1 290 486 293 1 285 14 0 0
 294 83 1 291 6713 80 1 293 295 296 8040 0 0 0 0 3 5 0 0 0 TTTFFFFFFFFFFFFFF2 81
 1 14 487 297 1 290 2 0 0 298 83 3 294 0 0 1 80 1 297 13 299 8038 0 0 0 0 0 0 0
 0 0 TTTTTTTTTTTTTFTFT10 98 255 40 298 83 71 57 48 32 45 32 77 105 99 114 111 32
 83 101 114 118 111 32 57 103 32 45 32 84 111 119 101 114 32 80 114 111 46 49 95
 80 101 8225 97 79 14 299 SDL/TYSA_UNAME79 17 296 SDL/TYSA_COLOUR_279 18 292 BTI
/importMaxCount80 1 287 300 301 9000 0 0 0 0 3 5 0 0 0 TTTFFFFFFFFFFFFFF1 82 255
 1 288 17 79 23 301 ONSHAPE_ORIGINALBODY_ID81 1 277 429 31 243 0 0 275 279 302 8
3 1 283 6711 81 1 275 428 31 247 0 0 273 277 303 83 1 302 6710 81 1 273 427 31 2
49 0 0 271 275 304 83 1 303 6709 81 1 271 426 31 251 0 0 260 273 305 83 1 304 67
08 81 1 260 425 31 255 0 0 257 271 306 83 1 305 6707 83 1 306 6706 83 1 261 6705
 17 140 0 246 231 82 75 242 137 0 236 +81 1 133 416 31 107 0 0 110 238 307 81 1
 169 418 31 119 0 0 238 118 308 83 1 239 6698 81 1 118 419 31 114 0 0 169 124 30
9 83 1 308 6699 83 1 309 67e2 81 1 110 415 31 99 0 0 235 133 310 83 1 307 6697 8
1 1 235 414 31 111 0 0 139 110 311 83 1 310 6696 81 1 139 413 31 137 0 0 184 235
 312 83 1 311 6695 81 1 184 412 31 141 0 0 230 139 313 83 1 312 6694 81 1 230 41
1 31 149 0 0 146 184 314 83 1 313 6693 81 1 146 410 31 144 0 0 188 230 315 83 1
 314 6692 81 1 188 409 31 148 0 0 225 146 316 83 1 315 6691 81 1 225 408 31 157
 0 0 154 188 317 83 1 316 6690 81 1 154 407 31 152 0 0 193 225 318 83 1 317 6689
 81 1 193 406 31 156 0 0 220 154 319 83 1 318 6688 81 1 220 405 31 165 0 0 162 1
93 320 83 1 319 6687 81 1 162 404 31 160 0 0 198 220 321 83 1 320 6686 81 1 198
 403 31 164 0 0 215 162 322 83 1 321 6685 81 1 215 402 31 176 0 0 174 198 323 83
 1 322 6684 81 1 174 401 31 172 0 0 203 215 324 83 1 323 6683 81 1 203 400 31 17
5 0 0 211 174 325 83 1 324 6682 81 1 211 399 31 27 0 0 25 203 326 83 1 325 6681
 81 1 25 398 31 11 0 0 43 211 327 83 1 326 6680 81 1 43 397 31 41 0 0 90 25 328
 83 1 327 6679 81 1 90 396 31 45 0 0 92 43 329 83 1 328 6678 83 1 329 6677 83 1
 127 6701 81 1 48 394 31 46 0 0 84 92 330 83 1 94 6676 81 1 84 393 31 49 0 0 87
 48 331 83 1 330 6675 81 1 87 392 31 79 0 0 77 84 332 83 1 331 6674 81 1 77 391
 31 75 0 0 81 87 333 83 1 332 6673 81 1 81 390 31 71 0 0 69 77 334 83 1 333 6672
 81 1 69 389 31 67 0 0 73 81 335 83 1 334 6671 81 1 73 388 31 63 0 0 61 69 336 8
3 1 335 6670 81 1 61 387 31 59 0 0 65 73 337 83 1 336 6669 81 1 65 386 31 55 0 0
 53 61 338 83 1 337 6668 81 1 53 385 31 51 0 0 57 65 339 83 1 338 6667 81 1 57 3
84 31 39 0 0 32 53 340 83 1 339 6666 81 1 32 383 31 22 0 0 29 57 341 83 1 340 66
65 83 1 341 6664 83 1 33 6663 19 18 63 0 1 0 10 6 0 S0 141 21 20 21 21 8 74 4 CI
16 index_map_offset0 0 1 dCCZ20 16 6 0 0 284 281 285 290 14 2 0 0 0 0 0 0 0 0 0
 0 0 0 0 0 80 1 13 342 343 8017 0 0 0 0 0 0 0 0 0 TTTTTTTTTTTTTFTFT3 84 255 40 1
5 SG90 - Micro Servo 9g - Tower Pro.1_Pe‡a79 13 343 SDL/TYSA_NAME1 0 
