**ABCDEFGHIJKLMNOPQRSTUVWXYZabcdefghijklmnopqrstuvwxyz**************************
**PARASOLID !"#$%&'()*+,-./:;<=>?@[\]^_`{|}~0123456789**************************
**PART1;
MC=unknown;
MC_MODEL=unknown;
MC_ID=unknown;
OS=unknown;
OS_RELEASE=unknown;
FRU=Parasolid 37.0.209;
APPL=Onshape;
SITE=unknown;
USER=unknown;
FORMAT=text;
GUISE=transmit;
KEY=BTGapi::writeModels_.xmt;
FILE=BTGapi::writeModels_.xmt;
DATE=2025-03-16T16:43:44 (UTC);
**PART2;
SCH=SCH_3700209_36001;
USFLD_SIZE=0;
**PART3;
**END_OF_HEADER*****************************************************************
T51 : TRANSMIT FILE created by modeller version 370020923 SCH_3700209_36001_1300
6231 0 12 36 CCCI7 lattice222 0 CCCI4 mesh1006 0 I8 polyline1008 0 CCCCCCCDI5 ow
ner1040 0 CCCI16 boundary_lattice222 0 CCCI13 boundary_mesh1006 0 I17 boundary_p
olyline1008 0 CCCA16 index_map_offset0 0 1 dA9 index_map82 0 A17 node_id_index_m
ap82 0 A20 schema_embedding_map82 0 A5 child12 0 A14 lowest_node_id0 0 1 dA16 me
sh_offset_data206 0 Z1 6141 2 3 0 0 0 0 0 0 0 1e3 1e-8 0 4 5 1 0 1 2 6 0 7 8 9 0
 0 10 11 12 0 0 0 0 0 0 0 81 255 1 2 6141 13 1 14 0 0 0 15 70 11 CI9 list_type0
 0 1 uI10 notransmit0 0 1 lCCCDCCDI12 finger_index0 0 1 dI12 finger_block1012 0
 CZ3 0 4 T1 0 0 3 20 1 16 16 13 255 6 5661 0 1 0 17 0 0 18 0 50 255 7 5608 0 17
 19 0 0 +-.09 .20355 .002 -1 0 0 0 0 1 30 255 8 5660 0 11 20 0 0 +-.09 .19955 .0
02 0 0 -1 29 255 9 5349 0 21 22 0 .09 .20755 0 19 9 CCCCCCI5 frame230 0 CA5 owne
r12 0 Z10 1410 0 1 18 0 23 0 V0 16 255 11 5452 0 ?24 0 25 8 0 0 1 18 255 12 1404
 0 26 0 27 28 ?1 17 255 26 0 29 30 31 12 32 33 0 34 +18 27 1399 0 31 12 35 36 ?1
 29 28 1406 0 12 36 37 .09 .20755 .002 29 36 1401 0 27 38 28 .09 .19955 .002 29
 37 5400 0 39 28 40 -.09 .19955 0 18 39 5292 0 24 41 0 37 ?1 29 40 5399 0 41 37
 42 -.078 .19955 0 18 41 5288 0 43 44 39 40 ?1 29 42 5398 0 44 40 45 -.09 .20755
 0 18 44 5284 0 46 47 41 42 ?1 29 45 5397 0 47 42 48 -.078 .18355 0 18 47 5280 0
 49 50 44 45 ?1 29 48 5396 0 50 45 51 -.078 .19155 0 18 50 5276 0 52 53 47 48 ?1
 29 51 5395 0 53 48 54 -.09 .19155 0 18 53 5272 0 55 56 50 51 ?1 29 54 5394 0 56
 51 57 -.09 .18355 0 18 56 5268 0 58 59 53 54 ?1 29 57 5393 0 59 54 60 -.078 .17
555 0 18 59 5264 0 61 62 56 57 ?1 29 60 5392 0 62 57 63 -.09 .17555 0 18 62 5260
 0 64 65 59 60 ?1 29 63 5391 0 65 60 66 -.09 .16755 0 18 65 5256 0 67 68 62 63 ?
1 29 66 5390 0 68 63 69 -.07 .16755 0 18 68 5252 0 70 71 65 66 ?1 29 69 5389 0 7
1 66 72 -.07 .20755 0 18 71 5248 0 73 74 68 69 ?1 29 72 5388 0 74 69 75 -.05 .20
755 0 18 74 5244 0 76 77 71 72 ?1 29 75 5387 0 77 72 78 -.05 .16755 0 18 77 5240
 0 79 80 74 75 ?1 29 78 5386 0 80 75 81 -.05 .15755 0 18 80 5236 0 82 83 77 78 ?
1 29 81 5385 0 83 78 84 -.07 .15755 0 18 83 5232 0 85 86 80 81 ?1 29 84 5384 0 8
6 81 87 -.05 .21755 0 18 86 5228 0 88 89 83 84 ?1 29 87 5383 0 89 84 90 -.07 .21
755 0 18 89 5224 0 91 92 86 87 ?1 29 90 5382 0 92 87 93 -.03 .20755 0 18 92 5220
 0 94 95 89 90 ?1 29 93 5381 0 95 90 96 -.03 .16755 0 18 95 5216 0 97 98 92 93 ?
1 29 96 5380 0 98 93 99 -.01 .20755 0 18 98 5212 0 100 101 95 96 ?1 29 99 5379 0
 101 96 102 -.01 .21755 0 18 101 5208 0 103 104 98 99 ?1 29 102 5378 0 104 99 10
5 -.03 .21755 0 18 104 5204 0 106 107 101 102 ?1 29 105 5377 0 107 102 108 -.03
 .15755 0 18 107 5200 0 109 110 104 105 ?1 29 108 5376 0 110 105 111 -.01 .15755
 0 18 110 5196 0 112 113 107 108 ?1 29 111 5375 0 113 108 114 -.01 .16755 0 18 1
13 5192 0 115 116 110 111 ?1 29 114 5374 0 116 111 117 .01 .20755 0 18 116 5188
 0 118 119 113 114 ?1 29 117 5373 0 119 114 120 .01 .16755 0 18 119 5184 0 121 1
22 116 117 ?1 29 120 5372 0 122 117 123 .03 .20755 0 18 122 5180 0 124 125 119 1
20 ?1 29 123 5371 0 125 120 126 .03 .21755 0 18 125 5176 0 127 128 122 123 ?1 29
 126 5370 0 128 123 129 .01 .21755 0 18 128 5172 0 130 131 125 126 ?1 29 129 536
9 0 131 126 132 .01 .15755 0 18 131 5168 0 133 134 128 129 ?1 29 132 5368 0 134
 129 135 .03 .15755 0 18 134 5164 0 136 137 131 132 ?1 29 135 5367 0 137 132 138
 .03 .16755 0 18 137 5160 0 139 140 134 135 ?1 29 138 5366 0 140 135 141 .05 .16
755 0 18 140 5156 0 142 143 137 138 ?1 29 141 5365 0 143 138 144 .05 .20755 0 18
 143 5152 0 145 146 140 141 ?1 29 144 5364 0 146 141 147 .07 .16755 0 18 146 514
8 0 148 149 143 144 ?1 29 147 5363 0 149 144 150 .07 .20755 0 18 149 5144 0 151
 152 146 147 ?1 29 150 5362 0 152 147 153 .078 .17555 0 18 152 5140 0 154 155 14
9 150 ?1 29 153 5361 0 155 150 156 .078 .18355 0 18 155 5136 0 157 158 152 153 ?
1 29 156 5360 0 158 153 159 .078 .19155 0 18 158 5132 0 160 161 155 156 ?1 29 15
9 5359 0 161 156 162 .078 .19955 0 18 161 5128 0 163 164 158 159 ?1 29 162 5358
 0 164 159 165 .07 .21755 0 18 164 5124 0 166 167 161 162 ?1 29 165 5357 0 167 1
62 168 .05 .21755 0 18 167 5120 0 169 170 164 165 ?1 29 168 5356 0 170 165 171 .
05 .15755 0 18 170 5116 0 172 173 167 168 ?1 29 171 5355 0 173 168 174 .07 .1575
5 0 18 173 5112 0 175 176 170 171 ?1 29 174 5354 0 176 171 177 .09 .16755 0 18 1
76 5108 0 178 179 173 174 ?1 29 177 5353 0 179 174 180 .09 .17555 0 18 179 5104
 0 181 182 176 177 ?1 29 180 5352 0 182 177 183 .09 .18355 0 18 182 5100 0 184 1
85 179 180 ?1 29 183 5351 0 185 180 22 .09 .19155 0 18 185 5096 0 186 187 182 18
3 ?1 29 22 5350 0 187 183 9 .09 .19955 0 18 187 5092 0 188 21 185 22 ?1 17 188 0
 189 190 191 187 192 193 0 194 +18 21 5088 0 195 196 187 9 ?1 17 195 0 197 198 1
99 21 34 200 0 201 +18 196 969 0 202 203 21 204 ?1 17 202 0 205 206 207 196 24 1
1 0 208 -18 203 974 0 209 210 196 211 ?1 29 204 971 0 196 0 211 -.09 .19955 .002
 29 211 976 0 203 204 212 -.078 .19955 .002 29 212 986 0 210 211 213 -.09 .20755
 .002 18 210 984 0 214 215 203 212 ?1 29 213 991 0 215 212 216 -.078 .18355 .002
 18 215 989 0 217 218 210 213 ?1 29 216 996 0 218 213 219 -.078 .19155 .002 18 2
18 994 0 220 221 215 216 ?1 29 219 1001 0 221 216 222 -.09 .19155 .002 18 221 99
9 0 223 224 218 219 ?1 29 222 1006 0 224 219 225 -.09 .18355 .002 18 224 1004 0
 226 227 221 222 ?1 29 225 1016 0 227 222 228 -.078 .17555 .002 18 227 1014 0 22
9 230 224 225 ?1 29 228 1021 0 230 225 231 -.09 .17555 .002 18 230 1019 0 232 23
3 227 228 ?1 29 231 1026 0 233 228 234 -.09 .16755 .002 18 233 1024 0 235 236 23
0 231 ?1 29 234 1031 0 236 231 237 -.07 .16755 .002 18 236 1029 0 238 239 233 23
4 ?1 29 237 1056 0 239 234 240 -.07 .20755 .002 18 239 1054 0 241 242 236 237 ?1
 29 240 1066 0 242 237 243 -.05 .20755 .002 18 242 1064 0 244 245 239 240 ?1 29
 243 1081 0 245 240 246 -.05 .16755 .002 18 245 1079 0 247 248 242 243 ?1 29 246
 1091 0 248 243 249 -.05 .15755 .002 18 248 1089 0 250 251 245 246 ?1 29 249 109
6 0 251 246 252 -.07 .15755 .002 18 251 1094 0 253 254 248 249 ?1 29 252 1101 0
 254 249 255 -.05 .21755 .002 18 254 1099 0 256 257 251 252 ?1 29 255 1106 0 257
 252 258 -.07 .21755 .002 18 257 1104 0 259 260 254 255 ?1 29 258 1116 0 260 255
 261 -.03 .20755 .002 18 260 1114 0 262 263 257 258 ?1 29 261 1136 0 263 258 264
 -.03 .16755 .002 18 263 1134 0 265 266 260 261 ?1 29 264 1161 0 266 261 267 -.0
1 .20755 .002 18 266 1159 0 268 269 263 264 ?1 29 267 1166 0 269 264 270 -.01 .2
1755 .002 18 269 1164 0 271 272 266 267 ?1 29 270 1171 0 272 267 273 -.03 .21755
 .002 18 272 1169 0 274 275 269 270 ?1 29 273 1176 0 275 270 276 -.03 .15755 .00
2 18 275 1174 0 277 278 272 273 ?1 29 276 1181 0 278 273 279 -.01 .15755 .002 18
 278 1179 0 280 281 275 276 ?1 29 279 1186 0 281 276 282 -.01 .16755 .002 18 281
 1184 0 283 284 278 279 ?1 29 282 1196 0 284 279 285 .01 .20755 .002 18 284 1194
 0 286 287 281 282 ?1 29 285 1216 0 287 282 288 .01 .16755 .002 18 287 1214 0 28
9 290 284 285 ?1 29 288 1221 0 290 285 291 .03 .20755 .002 18 290 1219 0 292 293
 287 288 ?1 29 291 1226 0 293 288 294 .03 .21755 .002 18 293 1224 0 295 296 290
 291 ?1 29 294 1231 0 296 291 297 .01 .21755 .002 18 296 1229 0 298 299 293 294
 ?1 29 297 1256 0 299 294 300 .01 .15755 .002 18 299 1254 0 301 302 296 297 ?1 2
9 300 1261 0 302 297 303 .03 .15755 .002 18 302 1259 0 304 305 299 300 ?1 29 303
 1266 0 305 300 306 .03 .16755 .002 18 305 1264 0 307 308 302 303 ?1 29 306 1271
 0 308 303 309 .05 .16755 .002 18 308 1269 0 310 311 305 306 ?1 29 309 1296 0 31
1 306 312 .05 .20755 .002 18 311 1294 0 313 314 308 309 ?1 29 312 1301 0 314 309
 315 .07 .16755 .002 18 314 1299 0 316 317 311 312 ?1 29 315 1326 0 317 312 318
 .07 .20755 .002 18 317 1324 0 319 320 314 315 ?1 29 318 1336 0 320 315 321 .078
 .17555 .002 18 320 1334 0 322 323 317 318 ?1 29 321 1341 0 323 318 324 .078 .18
355 .002 18 323 1339 0 325 326 320 321 ?1 29 324 1346 0 326 321 327 .078 .19155
 .002 18 326 1344 0 328 329 323 324 ?1 29 327 1351 0 329 324 330 .078 .19955 .00
2 18 329 1349 0 331 332 326 327 ?1 29 330 1361 0 332 327 333 .07 .21755 .002 18
 332 1359 0 334 335 329 330 ?1 29 333 1366 0 335 330 336 .05 .21755 .002 18 335
 1364 0 337 338 332 333 ?1 29 336 1371 0 338 333 339 .05 .15755 .002 18 338 1369
 0 340 341 335 336 ?1 29 339 1376 0 341 336 342 .07 .15755 .002 18 341 1374 0 34
3 344 338 339 ?1 29 342 1381 0 344 339 345 .09 .16755 .002 18 344 1379 0 346 347
 341 342 ?1 29 345 1386 0 347 342 348 .09 .17555 .002 18 347 1384 0 349 350 344
 345 ?1 29 348 1391 0 350 345 38 .09 .18355 .002 18 350 1389 0 351 35 347 348 ?1
 29 38 1396 0 35 348 36 .09 .19155 .002 18 35 1394 0 352 27 350 38 ?1 17 352 0 2
9 353 351 35 354 355 0 356 +15 255 29 6 0 357 358 0 17 353 0 29 331 352 326 359
 360 0 0 -17 351 0 29 352 325 350 361 362 0 363 +17 354 0 364 365 356 350 352 35
5 0 0 -16 355 944 0 ?352 360 362 366 0 0 1 17 356 0 364 354 367 35 186 368 0 359
 -15 364 5459 0 367 369 0 17 367 0 364 356 365 185 370 371 0 372 +17 186 0 373 3
74 359 185 356 368 0 367 +16 368 5403 0 ?186 375 376 377 0 0 1 17 359 0 373 186
 328 35 353 360 0 0 +15 373 5457 0 374 378 0 17 328 0 373 359 374 326 160 376 0
 379 -16 360 949 0 ?359 380 355 381 0 0 1 16 380 959 0 ?31 33 360 382 0 0 1 30 3
81 951 0 360 366 382 0 +.084 .19155 .002 1 0 0 30 366 946 0 355 383 381 0 +.09 .
18755 .002 0 1 0 30 382 961 0 380 381 384 0 +.084 .19955 .002 1 0 0 30 384 966 0
 33 382 385 0 +.09 .20355 .002 0 1 0 16 33 964 0 ?26 386 380 384 0 0 1 30 385 53
48 0 387 384 388 0 +-.09 .20355 0 0 1 0 16 387 5084 0 ?389 390 0 385 0 0 1 30 38
8 5347 0 390 385 391 0 +-.084 .19955 0 1 0 0 16 390 5080 0 ?392 393 387 388 0 0
 1 30 391 5346 0 393 388 394 0 +-.084 .20755 0 1 0 0 16 393 5074 0 ?395 396 390
 391 0 0 1 30 394 5345 0 396 391 397 0 +-.084 .18355 0 1 0 0 16 396 5070 0 ?398
 399 393 394 0 0 1 30 397 5344 0 399 394 400 0 +-.084 .19155 0 1 0 0 16 399 5066
 0 ?401 402 396 397 0 0 1 30 400 5343 0 402 397 403 0 +-.09 .18755 0 0 1 0 16 40
2 5062 0 ?404 405 399 400 0 0 1 30 403 5342 0 405 400 406 0 +-.084 .16755 0 -1 0
 0 16 405 5056 0 ?407 408 402 403 0 0 1 30 406 5341 0 408 403 409 0 +-.084 .1755
5 0 1 0 0 16 408 5052 0 ?410 411 405 406 0 0 1 30 409 5340 0 411 406 412 0 +-.09
 .17155 0 0 1 0 16 411 5048 0 ?413 414 408 409 0 0 1 30 412 5339 0 414 409 415 0
 +-.078 .17955 0 0 1 0 16 414 5044 0 ?416 417 411 412 0 0 1 30 415 5338 0 417 41
2 418 0 +-.078 .19555 0 0 1 0 16 417 5040 0 ?419 420 414 415 0 0 1 30 418 5337 0
 420 415 421 0 +-.06 .15755 0 1 0 0 16 420 5036 0 ?82 422 417 418 0 0 1 30 421 5
336 0 422 418 423 0 +-.05 .16255 0 0 1 0 16 422 5032 0 ?79 424 420 421 0 0 1 30
 423 5335 0 424 421 425 0 +-.07 .16255 0 0 -1 0 16 424 5028 0 ?85 426 422 423 0
 0 1 30 425 5334 0 426 423 427 0 +-.05 .21255 0 0 1 0 16 426 5024 0 ?88 428 424
 425 0 0 1 30 427 5333 0 428 425 429 0 +-.06 .21755 0 -1 0 0 16 428 5020 0 ?91 4
30 426 427 0 0 1 30 429 5332 0 430 427 431 0 +-.07 .21255 0 0 -1 0 16 430 5016 0
 ?432 433 428 429 0 0 1 30 431 5331 0 433 429 434 0 +-.04 .20755 0 1 0 0 16 433
 5012 0 ?435 436 430 431 0 0 1 30 434 5330 0 436 431 437 0 +-.04 .16755 0 1 0 0
 16 436 5008 0 ?438 439 433 434 0 0 1 30 437 5329 0 439 434 440 0 +-.03 .21255 0
 0 -1 0 16 439 5004 0 ?441 442 436 437 0 0 1 30 440 5328 0 442 437 443 0 +-.01 .
21255 0 34694469519536e-29 1 0 16 442 5000 0 ?444 445 439 440 0 0 1 30 443 5327
 0 445 440 446 0 +-.02 .21755 0 1 0 0 16 445 4996 0 ?447 448 442 443 0 0 1 30 44
6 5326 0 448 443 449 0 +-.03 .16255 0 0 1 0 16 448 4992 0 ?450 451 445 446 0 0 1
 30 449 5325 0 451 446 452 0 +-.02 .15755 0 1 0 0 16 451 4988 0 ?112 453 448 449
 0 0 1 30 452 5324 0 453 449 454 0 +-.01 .16255 0 0 1 0 16 453 4984 0 ?115 455 4
51 452 0 0 1 30 454 5323 0 455 452 456 0 +-711236625150491e-31 .20755 0 1 0 0 16
 455 4980 0 ?457 458 453 454 0 0 1 30 456 5322 0 458 454 459 0 +-711236625150491
e-31 .16755 0 1 0 0 16 458 4976 0 ?460 461 455 456 0 0 1 30 459 5321 0 461 456 4
62 0 +.01 .21255 0 0 -1 0 16 461 4972 0 ?463 464 458 459 0 0 1 30 462 5320 0 464
 459 465 0 +.03 .21255 0 0 1 0 16 464 4968 0 ?466 467 461 462 0 0 1 30 465 5319
 0 467 462 468 0 +.02 .21755 0 1 0 0 16 467 4964 0 ?469 470 464 465 0 0 1 30 468
 5318 0 470 465 471 0 +.01 .16255 0 0 1 0 16 470 4960 0 ?472 473 467 468 0 0 1 3
0 471 5317 0 473 468 474 0 +.02 .15755 0 1 0 0 16 473 4956 0 ?136 475 470 471 0
 0 1 30 474 5316 0 475 471 476 0 +.03 .16255 0 0 1 0 16 475 4952 0 ?139 477 473
 474 0 0 1 30 476 5315 0 477 474 478 0 +.04 .16755 0 1 0 0 16 477 4948 0 ?479 48
0 475 476 0 0 1 30 478 5314 0 480 476 481 0 +.04 .20755 0 1 0 0 16 480 4944 0 ?4
82 483 477 478 0 0 1 30 481 5313 0 483 478 484 0 +.074 .16755 0 1 0 0 16 483 493
8 0 ?178 485 480 481 0 0 1 30 484 5312 0 485 481 486 0 +.078 .17955 0 0 1 0 16 4
85 4934 0 ?157 487 483 484 0 0 1 30 486 5311 0 487 484 488 0 +.078 .19555 0 0 1
 0 16 487 4930 0 ?163 489 485 486 0 0 1 30 488 5310 0 489 486 490 0 +.074 .20755
 0 1 0 0 16 489 4924 0 ?491 492 487 488 0 0 1 30 490 5309 0 492 488 493 0 +.05 .
21255 0 0 -1 0 16 492 4920 0 ?494 495 489 490 0 0 1 30 493 5308 0 495 490 496 0
 +.07 .21255 0 0 1 0 16 495 4916 0 ?166 497 492 493 0 0 1 30 496 5307 0 497 493
 498 0 +.06 .21755 0 -1 0 0 16 497 4912 0 ?169 499 495 496 0 0 1 30 498 5306 0 4
99 496 500 0 +.05 .16255 0 0 1 0 16 499 4908 0 ?501 502 497 498 0 0 1 30 500 530
5 0 502 498 503 0 +.06 .15755 0 1 0 0 16 502 4904 0 ?175 504 499 500 0 0 1 30 50
3 5304 0 504 500 505 0 +.07 .16255 0 0 1 0 16 504 4900 0 ?148 506 502 503 0 0 1
 30 505 5303 0 506 503 507 0 +.09 .17155 0 0 1 0 16 506 4896 0 ?508 509 504 505
 0 0 1 30 507 5302 0 509 505 510 0 +.084 .17555 0 1 0 0 16 509 4892 0 ?511 512 5
06 507 0 0 1 30 510 5301 0 512 507 513 0 +.084 .18355 0 1 0 0 16 512 4888 0 ?184
 371 509 510 0 0 1 30 513 5300 0 371 510 514 0 +.09 .18755 0 0 1 0 16 371 4884 0
 ?367 515 512 513 0 0 1 30 514 5299 0 515 513 516 0 +.084 .19155 0 1 0 0 16 515
 4880 0 ?372 193 371 514 0 0 1 30 516 5298 0 193 514 517 0 +.084 .19955 0 1 0 0
 16 193 4876 0 ?188 518 515 516 0 0 1 30 517 5297 0 518 516 519 0 +.09 .20355 0
 0 1 0 16 518 4872 0 ?201 520 193 517 0 0 1 30 519 5609 0 200 517 521 0 +.09 .20
755 .002 0 0 -1 16 200 5401 0 ?195 522 523 519 0 0 1 30 521 5610 0 522 519 377 0
 +.09 .19955 .002 0 0 -1 16 522 5402 0 ?194 524 200 521 0 0 1 30 377 5611 0 368
 521 525 0 +.09 .19155 .002 0 0 -1 30 525 5612 0 375 377 526 0 +.09 .18355 .002
 0 0 -1 16 375 5404 0 ?365 527 368 525 0 0 1 30 526 5613 0 528 525 529 0 +.09 .1
7555 .002 0 0 -1 16 528 5405 0 ?181 530 531 526 0 0 1 30 529 5614 0 530 526 532
 0 +.09 .16755 .002 0 0 -1 16 530 5406 0 ?533 534 528 529 0 0 1 30 532 5615 0 53
5 529 536 0 +.07 .15755 .002 0 0 -1 16 535 5407 0 ?537 538 534 532 0 0 1 30 536
 5616 0 538 532 539 0 +.05 .15755 .002 0 0 -1 16 538 5408 0 ?172 540 535 536 0 0
 1 30 539 5617 0 541 536 542 0 +.05 .21755 .002 0 0 -1 16 541 5409 0 ?543 544 54
5 539 0 0 1 30 542 5618 0 544 539 546 0 +.07 .21755 .002 0 0 -1 16 544 5410 0 ?5
47 523 541 542 0 0 1 30 546 5619 0 524 542 548 0 +.078 .19955 .002 0 0 -1 16 524
 5411 0 ?191 376 522 546 0 0 1 30 548 5620 0 376 546 549 0 +.078 .19155 .002 0 0
 -1 16 376 5412 0 ?160 368 524 548 0 0 1 30 549 5621 0 527 548 550 0 +.078 .1835
5 .002 0 0 -1 16 527 5413 0 ?551 531 375 549 0 0 1 30 550 5622 0 531 549 552 0 +
.078 .17555 .002 0 0 -1 16 531 5414 0 ?154 528 527 550 0 0 1 30 552 5623 0 523 5
50 553 0 +.07 .20755 .002 0 0 -1 16 523 5415 0 ?151 200 544 552 0 0 1 30 553 562
4 0 534 552 554 0 +.07 .16755 .002 0 0 -1 16 534 5416 0 ?555 535 530 553 0 0 1 3
0 554 5625 0 545 553 556 0 +.05 .20755 .002 0 0 -1 16 545 5417 0 ?145 541 557 55
4 0 0 1 30 556 5626 0 540 554 558 0 +.05 .16755 .002 0 0 -1 16 540 5418 0 ?142 5
59 538 556 0 0 1 30 558 5627 0 559 556 560 0 +.03 .16755 .002 0 0 -1 16 559 5419
 0 ?561 562 540 558 0 0 1 30 560 5628 0 562 558 563 0 +.03 .15755 .002 0 0 -1 16
 562 5420 0 ?564 565 559 560 0 0 1 30 563 5629 0 565 560 566 0 +.01 .15755 .002
 0 0 -1 16 565 5421 0 ?133 567 562 563 0 0 1 30 566 5630 0 568 563 569 0 +.01 .2
1755 .002 0 0 -1 16 568 5422 0 ?130 570 571 566 0 0 1 30 569 5631 0 570 566 572
 0 +.03 .21755 .002 0 0 -1 16 570 5423 0 ?127 557 568 569 0 0 1 30 572 5632 0 55
7 569 573 0 +.03 .20755 .002 0 0 -1 16 557 5424 0 ?124 545 570 572 0 0 1 30 573
 5633 0 567 572 574 0 +.01 .16755 .002 0 0 -1 16 567 5425 0 ?121 575 565 573 0 0
 1 30 574 5634 0 571 573 576 0 +.01 .20755 .002 0 0 -1 16 571 5426 0 ?118 568 57
7 574 0 0 1 30 576 5635 0 575 574 578 0 +-.01 .16755 .002 0 0 -1 16 575 5427 0 ?
579 580 567 576 0 0 1 30 578 5636 0 580 576 581 0 +-.01 .15755 .002 0 0 -1 16 58
0 5428 0 ?582 583 575 578 0 0 1 30 581 5637 0 583 578 584 0 +-.03 .15755 .002 0
 0 -1 16 583 5429 0 ?109 585 580 581 0 0 1 30 584 5638 0 586 581 587 0 +-.03 .21
755 .002 0 0 -1 16 586 5430 0 ?106 588 589 584 0 0 1 30 587 5639 0 588 584 590 0
 +-.01 .21755 .002 0 0 -1 16 588 5431 0 ?103 577 586 587 0 0 1 30 590 5640 0 577
 587 591 0 +-.01 .20755 .002 0 0 -1 16 577 5432 0 ?100 571 588 590 0 0 1 30 591
 5641 0 585 590 592 0 +-.03 .16755 .002 0 0 -1 16 585 5433 0 ?97 593 583 591 0 0
 1 30 592 5642 0 589 591 594 0 +-.03 .20755 .002 0 0 -1 16 589 5434 0 ?94 586 59
5 592 0 0 1 30 594 5643 0 596 592 597 0 +-.07 .21755 .002 0 0 -1 16 596 5435 0 ?
598 599 600 594 0 0 1 30 597 5644 0 599 594 601 0 +-.05 .21755 .002 0 0 -1 16 59
9 5436 0 ?602 595 596 597 0 0 1 30 601 5645 0 603 597 604 0 +-.07 .15755 .002 0
 0 -1 16 603 5437 0 ?605 606 607 601 0 0 1 30 604 5646 0 607 601 608 0 +-.05 .15
755 .002 0 0 -1 16 607 5438 0 ?609 603 593 604 0 0 1 30 608 5647 0 593 604 610 0
 +-.05 .16755 .002 0 0 -1 16 593 5439 0 ?611 607 585 608 0 0 1 30 610 5648 0 595
 608 612 0 +-.05 .20755 .002 0 0 -1 16 595 5440 0 ?76 589 599 610 0 0 1 30 612 5
649 0 600 610 613 0 +-.07 .20755 .002 0 0 -1 16 600 5441 0 ?73 596 386 612 0 0 1
 30 613 5650 0 606 612 614 0 +-.07 .16755 .002 0 0 -1 16 606 5442 0 ?70 615 603
 613 0 0 1 30 614 5651 0 615 613 616 0 +-.09 .16755 .002 0 0 -1 16 615 5443 0 ?6
7 617 606 614 0 0 1 30 616 5652 0 617 614 618 0 +-.09 .17555 .002 0 0 -1 16 617
 5444 0 ?64 619 615 616 0 0 1 30 618 5653 0 619 616 620 0 +-.078 .17555 .002 0 0
 -1 16 619 5445 0 ?61 621 617 618 0 0 1 30 620 5654 0 622 618 623 0 +-.09 .18355
 .002 0 0 -1 16 622 5446 0 ?58 624 621 620 0 0 1 30 623 5655 0 624 620 625 0 +-.
09 .19155 .002 0 0 -1 16 624 5447 0 ?55 626 622 623 0 0 1 30 625 5656 0 626 623
 627 0 +-.078 .19155 .002 0 0 -1 16 626 5448 0 ?52 25 624 625 0 0 1 30 627 5657
 0 621 625 628 0 +-.078 .18355 .002 0 0 -1 16 621 5449 0 ?49 622 619 627 0 0 1 3
0 628 5658 0 386 627 20 0 +-.09 .20755 .002 0 0 -1 16 386 5450 0 ?46 600 33 628
 0 0 1 30 20 5659 0 25 628 8 0 +-.078 .19955 .002 0 0 -1 16 25 5451 0 ?43 11 626
 20 0 0 1 17 43 0 629 630 631 41 632 25 0 392 +15 629 5535 0 630 633 0 17 630 0
 629 220 43 50 419 417 0 401 -17 631 0 629 43 220 203 634 635 0 0 +17 632 0 636
 208 392 203 43 25 0 631 -17 392 0 636 632 24 41 637 390 0 419 +15 636 5553 0 39
2 638 0 17 24 0 636 392 208 39 202 11 0 637 +17 637 0 639 389 419 39 392 390 0 2
07 -17 419 0 639 637 401 41 630 417 0 0 +15 639 4871 0 389 640 0 17 401 0 639 41
9 404 50 641 399 0 0 +17 404 0 639 401 642 53 643 402 0 0 +17 641 0 644 223 52 5
3 401 399 0 404 -15 644 5547 0 641 645 0 17 223 0 644 646 641 221 55 624 0 647 -
17 52 0 644 641 646 50 220 626 0 630 +17 646 0 644 52 223 218 647 648 0 0 +17 22
0 0 629 631 630 218 52 626 0 634 -17 634 0 29 647 209 218 631 635 0 646 -17 647
 0 29 649 634 221 646 648 0 650 -17 209 0 29 634 357 203 208 651 0 632 +16 635 3
49 0 ?631 652 653 654 0 0 1 16 652 419 0 ?250 655 635 656 0 0 1 16 653 324 0 ?65
7 635 658 659 0 0 1 30 654 351 0 635 659 656 0 +-.078 .19555 .002 0 1 0 30 659 3
26 0 653 660 654 0 +-.078 .17955 .002 0 1 0 30 656 421 0 652 654 661 0 +-.06 .15
755 .002 1 0 0 30 661 426 0 655 656 662 0 +-.05 .16255 .002 0 1 0 16 655 424 0 ?
247 663 652 661 0 0 1 30 662 431 0 663 661 664 0 +-.07 .16255 .002 0 -1 0 16 663
 429 0 ?253 665 655 662 0 0 1 30 664 436 0 665 662 666 0 +-.05 .21255 .002 0 1 0
 16 665 434 0 ?256 667 663 664 0 0 1 30 666 441 0 667 664 668 0 +-.06 .21755 .00
2 -1 0 0 16 667 439 0 ?259 669 665 666 0 0 1 30 668 446 0 669 666 670 0 +-.07 .2
1255 .002 0 -1 0 16 669 444 0 ?241 671 667 668 0 0 1 30 670 451 0 671 668 672 0
 +-.04 .20755 .002 1 0 0 16 671 449 0 ?673 674 669 670 0 0 1 30 672 496 0 674 67
0 675 0 +-.04 .16755 .002 1 0 0 16 674 494 0 ?265 676 671 672 0 0 1 30 675 541 0
 676 672 677 0 +-.03 .21255 .002 0 -1 0 16 676 539 0 ?262 678 674 675 0 0 1 30 6
77 551 0 678 675 679 0 +-.01 .21255 .002 34694469519536e-29 1 0 16 678 549 0 ?27
1 680 676 677 0 0 1 30 679 556 0 680 677 681 0 +-.02 .21755 .002 1 0 0 16 680 55
4 0 ?682 683 678 679 0 0 1 30 681 566 0 683 679 684 0 +-.03 .16255 .002 0 1 0 16
 683 564 0 ?685 686 680 681 0 0 1 30 684 571 0 686 681 687 0 +-.02 .15755 .002 1
 0 0 16 686 569 0 ?280 688 683 684 0 0 1 30 687 576 0 688 684 689 0 +-.01 .16255
 .002 0 1 0 16 688 574 0 ?283 690 686 687 0 0 1 30 689 591 0 690 687 691 0 +-711
236625150491e-31 .20755 .002 1 0 0 16 690 589 0 ?692 693 688 689 0 0 1 30 691 63
6 0 693 689 694 0 +-711236625150491e-31 .16755 .002 1 0 0 16 693 634 0 ?289 695
 690 691 0 0 1 30 694 646 0 695 691 696 0 +.01 .21255 .002 0 -1 0 16 695 644 0 ?
286 697 693 694 0 0 1 30 696 656 0 697 694 698 0 +.03 .21255 .002 0 1 0 16 697 6
54 0 ?295 699 695 696 0 0 1 30 698 661 0 699 696 700 0 +.02 .21755 .002 1 0 0 16
 699 659 0 ?701 702 697 698 0 0 1 30 700 706 0 702 698 703 0 +.01 .16255 .002 0
 1 0 16 702 704 0 ?704 705 699 700 0 0 1 30 703 711 0 705 700 706 0 +.02 .15755
 .002 1 0 0 16 705 709 0 ?304 707 702 703 0 0 1 30 706 716 0 707 703 708 0 +.03
 .16255 .002 0 1 0 16 707 714 0 ?307 709 705 706 0 0 1 30 708 731 0 709 706 710
 0 +.04 .16755 .002 1 0 0 16 709 729 0 ?310 711 707 708 0 0 1 30 710 776 0 711 7
08 712 0 +.04 .20755 .002 1 0 0 16 711 774 0 ?713 714 709 710 0 0 1 30 712 841 0
 714 710 715 0 +.074 .16755 .002 1 0 0 16 714 839 0 ?346 716 711 712 0 0 1 30 71
5 856 0 716 712 717 0 +.078 .17955 .002 0 1 0 16 716 854 0 ?325 718 714 715 0 0
 1 30 717 876 0 718 715 719 0 +.078 .19555 .002 0 1 0 16 718 874 0 ?331 720 716
 717 0 0 1 30 719 891 0 720 717 721 0 +.074 .20755 .002 1 0 0 16 720 889 0 ?199
 722 718 719 0 0 1 30 721 896 0 722 719 723 0 +.05 .21255 .002 0 -1 0 16 722 894
 0 ?313 724 720 721 0 0 1 30 723 901 0 724 721 725 0 +.07 .21255 .002 0 1 0 16 7
24 899 0 ?334 726 722 723 0 0 1 30 725 906 0 726 723 727 0 +.06 .21755 .002 -1 0
 0 16 726 904 0 ?337 728 724 725 0 0 1 30 727 911 0 728 725 729 0 +.05 .16255 .0
02 0 1 0 16 728 909 0 ?730 731 726 727 0 0 1 30 729 916 0 731 727 732 0 +.06 .15
755 .002 1 0 0 16 731 914 0 ?343 733 728 729 0 0 1 30 732 921 0 733 729 734 0 +.
07 .16255 .002 0 1 0 16 733 919 0 ?316 735 731 732 0 0 1 30 734 931 0 735 732 73
6 0 +.09 .17155 .002 0 1 0 16 735 929 0 ?349 737 733 734 0 0 1 30 736 936 0 737
 734 383 0 +.084 .17555 .002 1 0 0 16 737 934 0 ?738 362 735 736 0 0 1 30 383 94
1 0 362 736 366 0 +.084 .18355 .002 1 0 0 16 362 939 0 ?351 355 737 383 0 0 1 17
 738 0 739 181 322 347 740 737 0 0 +15 739 5463 0 741 742 0 17 181 0 739 741 738
 179 743 528 0 508 +17 322 0 739 738 741 320 154 531 0 744 -17 740 0 29 325 349
 320 738 737 0 0 -17 325 0 29 351 740 323 744 716 0 745 +17 349 0 29 740 346 347
 746 735 0 743 +17 346 0 29 349 316 344 747 714 0 748 +17 746 0 749 533 743 344
 349 735 0 0 -17 743 0 749 746 508 347 181 528 0 738 -15 749 5465 0 508 750 0 17
 508 0 749 743 533 179 751 506 0 511 +17 533 0 749 508 746 176 748 530 0 751 +17
 751 0 639 752 511 176 508 506 0 0 -17 511 0 639 751 753 179 741 509 0 0 +17 753
 0 639 511 754 152 157 485 0 741 -17 741 0 739 322 181 152 511 509 0 0 -17 754 0
 639 753 370 155 184 512 0 0 -17 157 0 755 745 154 155 753 485 0 551 +15 755 548
3 0 157 756 0 17 745 0 755 744 157 323 551 527 0 361 -17 154 0 755 157 744 152 3
22 531 0 753 +17 551 0 757 184 361 155 745 527 0 754 +15 757 5461 0 184 758 0 17
 184 0 757 363 551 182 754 512 0 365 +17 361 0 757 551 363 323 351 362 0 0 -17 3
63 0 757 361 184 350 365 375 0 354 -17 365 0 364 367 354 182 363 375 0 370 +17 3
70 0 639 754 372 182 367 371 0 0 -17 372 0 639 370 759 185 374 515 0 0 +17 759 0
 639 372 192 158 163 487 0 374 -17 374 0 373 328 186 158 372 515 0 0 -17 192 0 6
39 759 760 161 188 193 0 0 -17 163 0 761 762 160 161 759 487 0 191 +15 761 5481
 0 163 763 0 17 762 0 761 379 163 329 191 524 0 764 -17 160 0 761 163 379 158 32
8 376 0 759 +17 191 0 189 188 764 161 762 524 0 192 +15 189 5455 0 188 765 0 17
 764 0 189 191 190 329 31 380 0 0 -17 190 0 189 764 188 27 194 522 0 32 -17 31 0
 29 26 331 27 764 380 0 190 +17 331 0 29 31 353 329 379 718 0 762 +17 379 0 761
 160 762 326 331 718 0 353 -17 194 0 766 201 32 187 190 522 0 760 +17 32 0 766 1
94 34 27 26 33 0 0 -15 766 5453 0 201 767 0 17 34 0 766 32 201 12 195 200 0 199
 -17 201 0 766 34 194 21 760 518 0 491 +17 199 0 197 195 319 12 30 720 0 0 +15 1
97 5479 0 198 768 0 17 319 0 197 199 198 317 151 523 0 769 -17 30 0 29 334 26 31
7 199 720 0 0 -17 334 0 29 337 30 332 769 724 0 770 +17 337 0 29 313 334 335 771
 726 0 772 +17 769 0 773 151 770 317 334 724 0 30 -17 770 0 773 769 166 332 547
 544 0 771 -15 773 5475 0 166 774 0 17 166 0 773 770 151 164 775 495 0 547 +17 5
47 0 776 169 771 164 770 544 0 777 +17 771 0 776 547 772 332 337 726 0 0 -15 776
 5473 0 169 778 0 17 772 0 776 771 169 335 543 541 0 779 -17 169 0 776 772 547 1
67 777 497 0 543 +17 543 0 780 494 779 167 772 541 0 781 +17 779 0 780 543 782 3
35 313 722 0 0 -15 780 5477 0 494 783 0 17 782 0 780 779 494 311 145 545 0 713 -
17 313 0 29 784 337 311 779 722 0 782 +17 784 0 29 295 313 290 713 711 0 0 -17 2
95 0 29 785 784 293 786 697 0 787 +17 713 0 788 145 292 311 784 711 0 0 +15 788
 5487 0 789 790 0 17 145 0 788 789 713 143 782 545 0 494 +17 292 0 788 713 789 2
90 124 557 0 786 -17 789 0 788 292 145 122 482 480 0 0 -17 124 0 791 466 786 122
 292 557 0 792 +17 786 0 791 124 787 290 295 697 0 784 -15 791 5499 0 466 793 0
 17 787 0 791 786 466 293 127 570 0 701 -17 466 0 791 787 124 125 792 464 0 469
 +17 127 0 794 795 701 125 787 570 0 466 +17 701 0 794 127 298 293 785 699 0 0 +
15 794 5497 0 795 796 0 17 298 0 794 701 795 296 130 568 0 797 -17 785 0 29 286
 295 296 701 699 0 0 -17 286 0 29 798 785 284 797 695 0 799 +17 798 0 29 271 286
 266 692 690 0 0 -17 797 0 800 130 799 296 286 695 0 785 -17 799 0 800 797 463 2
84 118 571 0 692 -15 800 5501 0 463 801 0 17 463 0 800 799 130 116 802 461 0 457
 +17 118 0 803 804 692 116 799 571 0 463 +17 692 0 803 118 268 284 798 690 0 0 +
15 803 5505 0 804 805 0 17 268 0 803 692 804 266 100 577 0 806 -17 804 0 803 268
 118 98 457 455 0 0 -17 100 0 807 444 806 98 268 577 0 808 +17 806 0 807 100 809
 266 271 678 0 798 -15 807 5515 0 444 810 0 17 809 0 807 806 444 269 103 588 0 6
82 -17 271 0 29 811 798 269 806 678 0 809 +17 811 0 29 262 271 272 682 680 0 0 -
17 262 0 29 812 811 260 813 676 0 814 +17 682 0 815 103 274 269 811 680 0 0 +15
 815 5513 0 816 817 0 17 103 0 815 816 682 101 809 588 0 444 +17 274 0 815 682 8
16 272 106 586 0 813 -17 816 0 815 274 103 104 447 445 0 0 -17 106 0 818 441 813
 104 274 586 0 819 +17 813 0 818 106 814 272 262 676 0 811 -15 818 5517 0 441 82
0 0 17 814 0 818 813 441 260 94 589 0 673 -17 441 0 818 814 106 92 819 439 0 435
 +17 94 0 821 822 673 92 814 589 0 441 +17 673 0 821 94 244 260 812 671 0 0 +15
 821 5521 0 822 823 0 17 244 0 821 673 822 242 76 595 0 824 -17 812 0 29 256 262
 242 673 671 0 0 -17 256 0 29 259 812 254 824 665 0 825 +17 259 0 29 241 256 257
 826 667 0 827 +17 824 0 828 76 825 242 256 665 0 812 -17 825 0 828 824 88 254 6
02 599 0 826 -15 828 5527 0 88 829 0 17 88 0 828 825 76 86 830 426 0 602 +17 602
 0 831 91 826 86 825 599 0 832 +17 826 0 831 602 827 254 259 667 0 0 -15 831 552
5 0 91 833 0 17 827 0 831 826 91 257 598 596 0 834 -17 91 0 831 827 602 89 832 4
28 0 598 +17 598 0 835 432 834 89 827 596 0 836 +17 834 0 835 598 837 257 241 66
9 0 0 -15 835 5523 0 432 838 0 17 837 0 835 834 432 239 73 600 0 839 -17 241 0 2
9 840 259 239 834 669 0 837 +17 840 0 29 357 241 210 839 841 0 206 -17 357 0 29
 209 840 196 206 520 0 0 -17 839 0 842 73 214 239 840 841 0 0 +16 841 254 0 ?839
 843 651 844 0 0 1 17 206 0 205 46 202 210 357 520 0 0 +15 205 5555 0 207 17 0 1
7 46 0 205 207 206 44 214 386 0 845 +16 520 239 0 ?206 651 518 846 0 0 1 16 651
 244 0 ?209 841 520 847 0 0 1 30 846 241 0 520 0 847 0 +-.09 .20355 .002 0 1 0 3
0 847 246 0 651 846 844 0 +-.084 .19955 .002 1 0 0 30 844 256 0 841 847 848 0 +-
.084 .20755 .002 1 0 0 30 848 261 0 843 844 849 0 +-.084 .18355 .002 1 0 0 16 84
3 259 0 ?217 648 841 848 0 0 1 30 849 271 0 648 848 850 0 +-.084 .19155 .002 1 0
 0 16 648 269 0 ?646 851 843 849 0 0 1 30 850 276 0 851 849 852 0 +-.09 .18755 .
002 0 1 0 16 851 274 0 ?650 853 648 850 0 0 1 30 852 281 0 853 850 854 0 +-.084
 .16755 .002 -1 0 0 16 853 279 0 ?855 856 851 852 0 0 1 30 854 291 0 856 852 660
 0 +-.084 .17555 .002 1 0 0 16 856 289 0 ?857 658 853 854 0 0 1 30 660 296 0 658
 854 659 0 +-.09 .17155 .002 0 1 0 16 658 294 0 ?858 653 856 660 0 0 1 17 858 0
 859 64 235 230 860 658 0 0 +15 859 5539 0 861 862 0 17 64 0 859 861 858 62 232
 617 0 863 +17 235 0 859 858 861 233 67 615 0 860 -17 860 0 29 864 865 233 858 6
58 0 855 -17 864 0 29 253 860 236 855 853 0 0 -17 865 0 29 860 866 230 857 856 0
 858 -17 855 0 867 67 238 233 864 853 0 0 +15 867 5543 0 868 869 0 17 67 0 867 8
68 855 65 235 615 0 861 +17 238 0 867 855 868 236 70 606 0 870 -17 868 0 867 238
 67 68 407 405 0 0 -17 70 0 871 85 870 68 238 606 0 872 +17 870 0 871 70 873 236
 253 663 0 864 -15 871 5529 0 85 874 0 17 873 0 871 870 85 251 605 603 0 875 -17
 253 0 29 250 864 251 870 663 0 873 +17 250 0 29 247 253 248 875 652 0 876 +17 2
47 0 29 265 250 245 877 655 0 878 +17 875 0 879 605 876 251 250 652 0 0 -17 876
 0 879 875 82 248 609 607 0 877 -15 879 5533 0 82 880 0 17 82 0 879 876 605 80 8
81 420 0 609 +17 609 0 882 79 877 80 876 607 0 883 +17 877 0 882 609 878 248 247
 655 0 0 -15 882 5531 0 79 884 0 17 878 0 882 877 79 245 611 593 0 885 -17 79 0
 882 878 609 77 883 422 0 611 +17 611 0 886 438 885 77 878 593 0 887 +17 885 0 8
86 611 888 245 265 674 0 0 -15 886 5519 0 438 889 0 17 888 0 886 885 438 263 97
 585 0 685 -17 265 0 29 890 247 263 885 674 0 888 +17 890 0 29 280 265 275 685 6
83 0 0 -17 280 0 29 283 890 278 891 686 0 892 +17 685 0 893 97 277 263 890 683 0
 0 +15 893 5511 0 894 895 0 17 97 0 893 894 685 95 888 585 0 438 +17 277 0 893 6
85 894 275 109 583 0 891 -17 894 0 893 277 97 107 450 448 0 0 -17 109 0 896 112
 891 107 277 583 0 897 +17 891 0 896 109 892 275 280 686 0 890 -15 896 5509 0 11
2 898 0 17 892 0 896 891 112 278 582 580 0 899 -17 112 0 896 892 109 110 897 451
 0 582 +17 582 0 900 115 899 110 892 580 0 901 +17 899 0 900 582 902 278 283 688
 0 0 -15 900 5507 0 115 903 0 17 902 0 900 899 115 281 579 575 0 904 -17 283 0 2
9 289 280 281 899 688 0 902 +17 289 0 29 905 283 287 904 693 0 906 +17 905 0 29
 304 289 299 704 702 0 0 -17 904 0 907 579 906 281 289 693 0 0 -17 906 0 907 904
 460 287 121 567 0 704 -15 907 5503 0 460 908 0 17 460 0 907 906 579 119 909 458
 0 472 +17 121 0 910 911 704 119 906 567 0 460 +17 704 0 910 121 301 287 905 702
 0 0 +15 910 5495 0 911 912 0 17 301 0 910 704 911 299 133 565 0 913 -17 911 0 9
10 301 121 131 472 470 0 0 -17 133 0 914 136 913 131 301 565 0 915 +17 913 0 914
 133 916 299 304 705 0 905 -15 914 5493 0 136 917 0 17 916 0 914 913 136 302 564
 562 0 918 -17 304 0 29 307 905 302 913 705 0 916 +17 307 0 29 310 304 305 918 7
07 0 919 +17 310 0 29 920 307 308 921 709 0 922 +17 918 0 923 564 919 302 307 70
7 0 0 -17 919 0 923 918 139 305 561 559 0 921 -15 923 5491 0 139 924 0 17 139 0
 923 919 564 137 925 475 0 561 +17 561 0 926 479 921 137 919 559 0 927 +17 921 0
 926 561 922 305 310 709 0 0 -15 926 5489 0 479 928 0 17 922 0 926 921 479 308 1
42 540 0 730 -17 479 0 926 922 561 140 927 477 0 501 +17 142 0 929 930 730 140 9
22 540 0 479 +17 730 0 929 142 340 308 920 728 0 0 +15 929 5471 0 930 931 0 17 3
40 0 929 730 930 338 172 538 0 932 -17 920 0 29 343 310 338 730 728 0 0 -17 343
 0 29 316 920 341 932 731 0 933 +17 316 0 29 346 343 314 934 733 0 935 +17 932 0
 936 172 933 338 343 731 0 920 -17 933 0 936 932 175 341 537 535 0 934 -15 936 5
469 0 175 937 0 17 175 0 936 933 172 173 938 502 0 537 +17 537 0 939 148 934 173
 933 535 0 940 +17 934 0 939 537 935 341 316 733 0 0 -15 939 5467 0 148 941 0 17
 935 0 939 934 148 314 555 534 0 747 -17 148 0 939 935 537 146 940 504 0 555 +17
 555 0 942 178 747 146 935 534 0 752 +17 747 0 942 555 748 314 346 714 0 0 -15 9
42 5485 0 178 943 0 17 748 0 942 747 178 344 533 530 0 746 -17 178 0 942 748 555
 176 752 483 0 533 +17 752 0 639 940 751 146 178 483 0 0 -17 940 0 639 938 752 1
73 148 504 0 0 -17 938 0 639 501 940 170 175 502 0 930 -17 501 0 639 927 938 140
 930 499 0 0 +17 930 0 929 340 142 170 501 499 0 0 -17 927 0 639 925 501 137 479
 477 0 0 -17 925 0 639 915 927 134 139 475 0 0 -17 915 0 639 472 925 131 136 473
 0 911 -17 472 0 639 909 915 119 911 470 0 0 +17 136 0 914 916 133 134 915 473 0
 564 +17 564 0 923 139 918 134 916 562 0 925 +17 909 0 639 901 472 113 460 458 0
 0 -17 901 0 639 897 909 110 115 453 0 0 -17 897 0 639 450 901 107 112 451 0 894
 -17 115 0 900 902 582 113 901 453 0 579 +17 579 0 907 460 904 113 902 575 0 909
 +17 450 0 639 887 897 95 894 448 0 0 +17 887 0 639 883 450 77 438 436 0 0 -17 8
83 0 639 881 887 80 79 422 0 0 -17 438 0 886 888 611 95 887 436 0 450 +17 881 0
 639 872 883 83 82 420 0 0 -17 872 0 639 407 881 68 85 424 0 868 -17 407 0 639 4
13 872 65 868 405 0 0 +17 85 0 871 873 70 83 872 424 0 605 +17 605 0 879 82 875
 83 873 603 0 881 +17 413 0 639 410 407 62 861 411 0 0 +17 410 0 639 416 413 59
 863 408 0 0 +17 861 0 859 235 64 65 413 411 0 407 -17 416 0 639 642 410 47 944
 414 0 0 +17 863 0 945 232 61 62 410 408 0 413 -15 945 5541 0 863 946 0 17 232 0
 945 857 863 230 64 617 0 865 -17 61 0 945 863 857 59 229 619 0 944 +17 857 0 94
5 61 232 227 865 856 0 0 +17 229 0 947 657 944 227 61 619 0 866 -17 944 0 947 22
9 49 59 416 414 0 410 -15 947 5537 0 944 948 0 17 49 0 947 944 657 47 949 621 0
 398 +17 657 0 947 49 229 215 866 653 0 0 +17 949 0 950 951 398 215 49 621 0 657
 -17 398 0 950 949 58 47 642 396 0 416 +15 950 5549 0 398 952 0 17 58 0 950 398
 951 56 226 622 0 642 +17 642 0 639 404 416 56 398 396 0 643 -17 643 0 953 226 5
5 56 404 402 0 0 -15 953 5545 0 643 954 0 17 226 0 953 650 643 224 58 622 0 951
 -17 55 0 953 643 650 53 223 624 0 641 +17 650 0 953 55 226 221 649 851 0 0 +17
 649 0 29 217 647 224 650 851 0 0 -17 217 0 29 866 649 215 951 843 0 949 +17 866
 0 29 865 217 227 657 653 0 857 -17 951 0 950 58 949 224 217 843 0 649 -14 255 9
54 5546 0 ?952 645 953 6 955 +0 0 952 645 23 14 952 5550 0 ?948 954 950 6 956 -0
 0 948 954 23 14 645 5548 0 ?954 633 644 6 957 +0 0 954 633 23 50 955 5603 0 954
 958 957 0 +-.09 .18755 .002 -1 0 0 0 0 1 13 23 1411 0 0 0 0 0 0 10 17 14 17 555
6 0 ?638 0 205 6 7 +0 0 638 0 23 14 638 5554 0 ?633 17 636 6 19 -0 0 633 17 23 1
4 633 5536 0 ?645 638 629 6 959 +0 0 645 638 23 50 19 5607 0 638 960 7 0 +-.084
 .19955 .002 0 1 0 0 0 1 50 960 5606 0 961 956 19 0 +-.084 .20755 .002 0 1 0 0 0
 1 14 961 5552 0 ?358 838 842 6 960 +0 0 358 838 23 50 956 5605 0 952 957 960 0
 +-.084 .18355 .002 0 1 0 0 0 1 50 957 5604 0 645 955 956 0 +-.084 .19155 .002 0
 1 0 0 0 1 14 358 1 0 ?640 961 29 6 962 +0 0 640 961 23 14 838 5524 0 ?961 833 8
35 6 963 -0 0 961 833 23 15 842 5551 0 845 961 0 17 845 0 842 214 73 44 395 393
 0 389 -17 214 0 842 839 845 210 46 386 0 840 -17 73 0 842 845 839 71 837 600 0
 432 +17 395 0 639 836 389 71 845 393 0 0 +17 389 0 639 395 637 44 207 387 0 0 +
17 207 0 205 202 46 39 389 387 0 0 -17 836 0 639 832 395 89 432 430 0 0 -17 832
 0 639 830 836 86 91 428 0 0 -17 432 0 835 837 598 71 836 430 0 395 +17 830 0 63
9 435 832 74 88 426 0 822 -17 435 0 639 819 830 92 822 433 0 0 +17 822 0 821 244
 94 74 435 433 0 0 -17 819 0 639 447 435 104 441 439 0 816 -17 447 0 639 808 819
 101 816 445 0 0 +17 808 0 639 457 447 98 444 442 0 804 -17 457 0 639 802 808 11
6 804 455 0 0 +17 444 0 807 809 100 101 808 442 0 447 +17 802 0 639 469 457 128
 463 461 0 795 -17 469 0 639 792 802 125 795 467 0 0 +17 795 0 794 298 127 128 4
69 467 0 0 -17 792 0 639 482 469 122 466 464 0 789 -17 482 0 639 781 792 143 789
 480 0 0 +17 781 0 639 777 482 167 494 492 0 0 -17 777 0 639 775 781 164 169 497
 0 0 -17 494 0 780 782 543 143 781 492 0 482 +17 775 0 639 491 777 149 166 495 0
 198 -17 491 0 639 760 775 21 198 489 0 0 +17 198 0 197 319 195 149 491 489 0 0
 -17 760 0 639 192 491 187 201 518 0 0 -14 833 5526 0 ?838 829 831 6 964 -0 0 83
8 829 23 50 963 5592 0 838 965 964 0 +-.07 .21255 .002 1 0 0 0 0 -1 50 965 5591
 0 823 966 963 0 +-.04 .20755 .002 0 1 0 0 0 1 50 964 5593 0 833 963 967 0 +-.06
 .21755 .002 0 -1 0 0 0 -1 50 967 5594 0 829 964 968 0 +-.05 .21255 .002 -1 0 0
 0 0 1 14 829 5528 0 ?833 823 828 6 967 -0 0 833 823 23 50 968 5595 0 874 967 96
9 0 +-.07 .16255 .002 1 0 0 0 0 -1 14 874 5530 0 ?880 869 871 6 968 -0 0 880 869
 23 50 969 5596 0 884 968 970 0 +-.05 .16255 .002 -1 0 0 0 0 1 14 884 5532 0 ?88
9 880 882 6 969 -0 0 889 880 23 50 970 5597 0 880 969 959 0 +-.06 .15755 .002 0
 1 0 0 0 1 14 880 5534 0 ?884 874 879 6 970 -0 0 884 874 23 50 959 5598 0 633 97
0 971 0 +-.078 .19555 .002 -1 0 0 0 0 1 50 971 5599 0 948 959 972 0 +-.078 .1795
5 .002 -1 0 0 0 0 1 14 948 5538 0 ?946 952 947 6 971 +0 0 946 952 23 50 972 5600
 0 862 971 973 0 +-.09 .17155 .002 -1 0 0 0 0 1 14 862 5540 0 ?869 946 859 6 972
 +0 0 869 946 23 50 973 5601 0 946 972 958 0 +-.084 .17555 .002 0 1 0 0 0 1 14 9
46 5542 0 ?862 948 945 6 973 +0 0 862 948 23 50 958 5602 0 869 973 955 0 +-.084
 .16755 .002 0 -1 0 0 0 -1 14 869 5544 0 ?874 862 867 6 958 +0 0 874 862 23 14 8
89 5520 0 ?895 884 886 6 966 -0 0 895 884 23 14 895 5512 0 ?898 889 893 6 974 +0
 0 898 889 23 50 966 5590 0 889 975 965 0 +-.04 .16755 .002 0 1 0 0 0 1 50 975 5
589 0 820 976 966 0 +-.03 .21255 .002 1 0 0 0 0 -1 14 820 5518 0 ?823 817 818 6
 975 -0 0 823 817 23 50 976 5588 0 810 977 975 0 +-.01 .21255 .002 -1 3469446951
9536e-29 0 -34694469519536e-29 -1 0 14 810 5516 0 ?817 805 807 6 976 -0 0 817 80
5 23 50 977 5587 0 817 974 976 0 +-.02 .21755 .002 0 1 0 0 0 1 14 817 5514 0 ?82
0 810 815 6 977 +0 0 820 810 23 50 974 5586 0 895 978 977 0 +-.03 .16255 .002 -1
 0 0 0 0 1 50 978 5585 0 898 979 974 0 +-.02 .15755 .002 0 1 0 0 0 1 14 898 5510
 0 ?903 895 896 6 978 -0 0 903 895 23 50 979 5584 0 903 980 978 0 +-.01 .16255 .
002 -1 0 0 0 0 1 14 903 5508 0 ?908 898 900 6 979 -0 0 908 898 23 50 980 5583 0
 805 981 979 0 +-711236625150491e-31 .20755 .002 0 1 0 0 0 1 14 805 5506 0 ?810
 801 803 6 980 +0 0 810 801 23 50 981 5582 0 908 982 980 0 +-711236625150491e-31
 .16755 .002 0 1 0 0 0 1 14 908 5504 0 ?912 903 907 6 981 -0 0 912 903 23 50 982
 5581 0 801 983 981 0 +.01 .21255 .002 1 0 0 0 0 -1 14 801 5502 0 ?805 796 800 6
 982 -0 0 805 796 23 50 983 5580 0 793 984 982 0 +.03 .21255 .002 -1 0 0 0 0 1 1
4 793 5500 0 ?796 790 791 6 983 -0 0 796 790 23 50 984 5579 0 796 985 983 0 +.02
 .21755 .002 0 1 0 0 0 1 14 796 5498 0 ?801 793 794 6 984 +0 0 801 793 23 50 985
 5578 0 912 986 984 0 +.01 .16255 .002 -1 0 0 0 0 1 14 912 5496 0 ?917 908 910 6
 985 +0 0 917 908 23 50 986 5577 0 917 987 985 0 +.02 .15755 .002 0 1 0 0 0 1 14
 917 5494 0 ?924 912 914 6 986 -0 0 924 912 23 50 987 5576 0 924 988 986 0 +.03
 .16255 .002 -1 0 0 0 0 1 14 924 5492 0 ?928 917 923 6 987 -0 0 928 917 23 50 98
8 5575 0 928 989 987 0 +.04 .16755 .002 0 1 0 0 0 1 14 928 5490 0 ?931 924 926 6
 988 -0 0 931 924 23 50 989 5574 0 790 990 988 0 +.04 .20755 .002 0 1 0 0 0 1 14
 790 5488 0 ?793 783 788 6 989 +0 0 793 783 23 50 990 5573 0 943 991 989 0 +.074
 .16755 .002 0 1 0 0 0 1 14 943 5486 0 ?750 941 942 6 990 -0 0 750 941 23 50 991
 5572 0 756 992 990 0 +.078 .17955 .002 -1 0 0 0 0 1 14 756 5484 0 ?758 742 755
 6 991 -0 0 758 742 23 50 992 5571 0 763 993 991 0 +.078 .19555 .002 -1 0 0 0 0
 1 14 763 5482 0 ?765 378 761 6 992 -0 0 765 378 23 50 993 5570 0 768 994 992 0
 +.074 .20755 .002 0 1 0 0 0 1 14 768 5480 0 ?774 767 197 6 993 +0 0 774 767 23
 50 994 5569 0 783 995 993 0 +.05 .21255 .002 1 0 0 0 0 -1 14 783 5478 0 ?790 77
8 780 6 994 -0 0 790 778 23 50 995 5568 0 774 996 994 0 +.07 .21255 .002 -1 0 0
 0 0 1 14 774 5476 0 ?778 768 773 6 995 -0 0 778 768 23 50 996 5567 0 778 997 99
5 0 +.06 .21755 .002 0 -1 0 0 0 -1 14 778 5474 0 ?783 774 776 6 996 -0 0 783 774
 23 50 997 5566 0 931 998 996 0 +.05 .16255 .002 -1 0 0 0 0 1 14 931 5472 0 ?937
 928 929 6 997 +0 0 937 928 23 50 998 5565 0 937 999 997 0 +.06 .15755 .002 0 1
 0 0 0 1 14 937 5470 0 ?941 931 936 6 998 -0 0 941 931 23 50 999 5564 0 941 1000
 998 0 +.07 .16255 .002 -1 0 0 0 0 1 14 941 5468 0 ?943 937 939 6 999 -0 0 943 9
37 23 50 1000 5563 0 750 1001 999 0 +.09 .17155 .002 -1 0 0 0 0 1 14 750 5466 0
 ?742 943 749 6 1000 -0 0 742 943 23 50 1001 5562 0 742 1002 1000 0 +.084 .17555
 .002 0 1 0 0 0 1 14 742 5464 0 ?756 750 739 6 1001 +0 0 756 750 23 50 1002 5561
 0 758 1003 1001 0 +.084 .18355 .002 0 1 0 0 0 1 14 758 5462 0 ?369 756 757 6 10
02 -0 0 369 756 23 50 1003 5560 0 369 1004 1002 0 +.09 .18755 .002 -1 0 0 0 0 1
 14 369 5460 0 ?378 758 364 6 1003 -0 0 378 758 23 50 1004 5559 0 378 1005 1003
 0 +.084 .19155 .002 0 1 0 0 0 1 14 378 5458 0 ?763 369 373 6 1004 +0 0 763 369
 23 50 1005 5558 0 765 1006 1004 0 +.084 .19955 .002 0 1 0 0 0 1 14 765 5456 0 ?
767 763 189 6 1005 -0 0 767 763 23 50 1006 5557 0 767 1007 1005 0 +.09 .20355 .0
02 -1 0 0 0 0 1 14 767 5454 0 ?768 765 766 6 1006 -0 0 768 765 23 50 1007 5296 0
 640 962 1006 0 +-277555756156289e-31 .13255 0 0 0 1 1 0 0 14 640 4754 0 ?0 358
 639 6 1007 -0 0 0 358 23 50 962 3 0 358 0 1007 0 +-277555756156289e-31 .13255 .
002 0 0 1 1 0 0 14 823 5522 0 ?829 820 821 6 965 +0 0 829 820 23 17 172 0 936 17
5 932 170 340 538 0 938 +17 76 0 828 88 824 74 244 595 0 830 +17 130 0 800 463 7
97 128 298 568 0 802 +17 151 0 773 166 769 149 319 523 0 775 +17 744 0 755 154 7
45 320 325 716 0 740 -17 208 0 636 24 632 196 209 651 0 357 -19 18 5662 0 1 0 10
 6 0 S0 74 4 CI16 index_map_offset0 0 1 dCCZ20 16 3 0 0 1008 14 2 0 0 0 0 0 0 0
 0 0 0 0 0 0 0 0 0 0 81 1 1008 6139 1009 1 0 14 0 0 1010 81 1 14 6140 1011 1 100
8 2 0 0 1012 80 7 CCCCCDI12 legal_owners0 17 1 lCZ1 1011 13 1013 8038 0 0 0 0 0
 0 0 0 0 TTTTTTTTTTTTTFTFT10 98 255 6 1012 80 97 114 116 32 50 79 255 14 1013 SD
L/TYSA_UNAME80 1 1009 1014 1015 8040 0 0 0 0 3 5 0 0 0 TTTFFFFFFFFFFFFFF2 83 255
 3 1010 .231372549019608 .380392156862745 .705882352941177 79 17 1015 SDL/TYSA_C
OLOUR_280 1 13 1016 1017 8017 0 0 0 0 0 0 0 0 0 TTTTTTTTTTTTTFTFT3 84 255 6 15 P
art 279 13 1017 SDL/TYSA_NAME1 0 
