**ABCDEFGHIJKLMNOPQRSTUVWXYZabcdefghijklmnopqrstuvwxyz**************************
**PARASOLID !"#$%&'()*+,-./:;<=>?@[\]^_`{|}~0123456789**************************
**PART1;
MC=unknown;
MC_MODEL=unknown;
MC_ID=unknown;
OS=unknown;
OS_RELEASE=unknown;
FRU=Parasolid 37.0.209;
APPL=Onshape;
SITE=unknown;
USER=unknown;
FORMAT=text;
GUISE=transmit;
KEY=BTGapi::writeModels_.xmt;
FILE=BTGapi::writeModels_.xmt;
DATE=2025-03-16T16:43:44 (UTC);
**PART2;
SCH=SCH_3700209_36001;
USFLD_SIZE=0;
**PART3;
**END_OF_HEADER*****************************************************************
T51 : TRANSMIT FILE created by modeller version 370020923 SCH_3700209_36001_1300
6231 0 12 36 CCCI7 lattice222 0 CCCI4 mesh1006 0 I8 polyline1008 0 CCCCCCCDI5 ow
ner1040 0 CCCI16 boundary_lattice222 0 CCCI13 boundary_mesh1006 0 I17 boundary_p
olyline1008 0 CCCA16 index_map_offset0 0 1 dA9 index_map82 0 A17 node_id_index_m
ap82 0 A20 schema_embedding_map82 0 A5 child12 0 A14 lowest_node_id0 0 1 dA16 me
sh_offset_data206 0 Z1 1045 2 3 0 0 0 0 0 0 0 1e3 1e-8 0 4 5 1 0 1 2 6 0 7 8 9 0
 0 10 11 12 0 0 0 0 0 0 0 81 255 1 2 1045 13 1 14 0 0 0 15 70 11 CI9 list_type0
 0 1 uI10 notransmit0 0 1 lCCCDCCDI12 finger_index0 0 1 dI12 finger_block1012 0
 CZ3 0 4 T1 0 0 7 20 1 16 16 13 255 6 125 0 1 0 17 0 0 18 0 54 255 7 453 0 17 19
 0 20 +.0099 -.01035 -.00435 0 -1 0 7e-4 2e-4 0 0 1 32 255 8 838 0 1 21 0 22 +.0
099 -.00969930772705735 -.00435 0 .1736481776669305 .984807753012208 0 .98480775
3012208 -.1736481776669305 .00518289343482927 9e-4 29 255 9 810 0 23 24 0 .01058
373971655886 -.01055 -.0042 19 9 CCCCCCI5 frame230 0 CA5 owner12 0 Z10 1 0 1 18
 0 25 0 V0 16 255 11 117 26 ?27 0 28 29 0 0 1 18 255 12 95 30 31 0 32 33 5e-7 1
 81 1 30 846 34 12 0 0 0 35 36 17 255 31 0 37 38 39 12 40 41 0 42 -18 32 93 35 4
3 12 44 45 5e-7 1 29 33 434 0 12 46 45 .00997946920771662 -.01015 -.004429469207
716615 29 46 415 0 47 48 33 .01005 -.01055 -.0045 29 45 432 0 32 33 49 .00997946
920771662 -.01015 -.00487946920771662 29 49 417 0 50 45 51 .01005 -.01055 -.0049
5 18 50 77 52 53 54 47 49 5e-7 1 29 51 419 0 54 49 55 .00975 -.01055 -.00495 18
 54 79 56 57 58 50 51 5e-7 1 29 55 430 0 44 51 59 .00982053079228339 -.01015 -.0
0487946920771662 18 44 91 60 61 32 62 55 5e-7 1 29 59 427 0 62 55 63 .0098205307
9228339 -.01015 -.003820530792283385 18 62 88 64 65 44 66 59 5e-7 1 29 63 397 0
 67 59 68 .00975 -.01055 -.00375 18 67 54 69 70 71 72 63 5e-7 1 29 68 399 0 71 6
3 73 .01005 -.01055 -.00375 18 71 56 74 27 75 67 68 5e-7 1 29 73 425 0 66 68 76
 .00997946920771662 -.01015 -.003820530792283385 18 66 86 77 78 62 58 73 5e-7 1
 29 76 746 0 79 73 80 .00900734330749303 -.01035 -.004464734603858305 18 79 24 8
1 82 83 84 76 ?1 29 80 747 0 85 76 86 .00921626028344113 -.01055 -.0045 18 85 42
 87 88 89 90 80 ?1 29 86 755 0 91 80 92 .01058373971655886 -.01055 -.0045 18 91
 73 93 94 47 95 86 ?1 29 92 756 0 95 86 96 .01079265669250696 -.01035 -.00446473
4603858305 18 95 65 97 98 91 99 92 ?1 29 96 765 0 100 92 101 .00921626028344113
 -.01055 -.0042 18 100 34 102 103 90 104 96 ?1 29 101 766 0 84 96 24 .0090073433
0749303 -.01035 -.004235265396141695 18 84 16 105 106 79 23 101 ?1 29 24 809 0 1
07 101 9 .01079265669250696 -.01035 -.004235265396141695 18 107 7 108 109 23 0 2
4 ?1 81 1 108 873 34 107 0 0 110 26 111 17 109 0 112 113 114 107 115 116 0 117 -
18 23 11 110 118 84 107 9 ?1 81 1 110 872 34 23 0 0 105 108 119 17 118 0 120 103
 121 23 122 123 0 113 -15 255 120 49 0 118 124 0 17 103 0 120 125 118 100 126 12
7 0 128 +17 121 0 120 118 129 72 130 131 0 122 -17 122 0 112 132 113 72 118 123
 0 0 +16 123 50 133 ?122 134 135 136 0 0 1 17 113 0 112 122 109 23 117 137 0 126
 +15 112 98 0 109 138 0 17 117 0 139 106 126 107 113 137 0 140 -16 137 12 141 ?1
13 142 127 143 0 0 1 17 126 0 139 117 128 23 103 127 0 0 -15 139 4 0 106 144 0 1
7 128 0 139 126 106 100 145 146 0 147 -16 127 10 148 ?103 137 149 150 0 0 1 81 1
 148 915 34 127 0 0 141 151 152 16 149 5 151 ?140 127 0 153 0 0 1 133 255 150 57
9 0 127 0 154 0 +155 .01058373971655886 -.01055 -.0042 .00921626028344113 -.0105
5 -.0042 4.92834947906964 7.63802113528953 133 154 581 0 156 150 153 0 +157 .009
75 -.01055 -.0042 .00921626028344113 -.01055 -.0042 65e-5 .00118373971655887 31
 255 155 414 0 158 159 160 161 +.0099 -.01055 -.00435 0 -1 0 0 0 1 7e-4 16 158 7
2 162 ?163 164 165 155 0 0 1 31 159 371 0 1 166 155 167 +.0099 -.01035 -.00435 0
 1 0 0 0 1 9e-4 38 12 CCCCCCCCCCCA17 intersection_data204 0 Z160 745 0 168 155 1
69 0 +170 7 171 172 173 174 141 255 161 150 161 161 155 16 168 41 175 ?176 177 1
78 160 0 0 1 38 169 754 0 179 160 180 0 +170 7 181 182 183 184 50 255 170 439 0
 185 186 187 188 +.0104 -.01055 -.0045 0 -.1736481776669305 .984807753012208 0 .
984807753012208 .1736481776669305 40 255 6 171 0 1 6 1186322729547156e-20 .33870
2804088894 ??.00900734330749303 -.01035 -.004464734603858305 .00902054024508809
 -.01041680468433176 -.00447651407214371 .00905534574406052 -.0104755629650949 -
.00448687474238229 .00910836525718664 -.0105203657276546 -.004494774678231845 .0
0917403285358734 -.01054572103153696 -.004499245502410365 .00921626028344094 -.0
105500000000009 -.00450000000000016 41 3 CI8 term_use0 0 1 cCZ1 172 L?.009007343
30749303 -.01035 -.004464734603858305 41 1 173 L?.00921626028344094 -.0105500000
000009 -.00450000000000016 204 2 17 INTERSECTION_DATA17 Intersection data7 uv_ty
pe0 0 1 u6 values0 1 1 fT24 174 4 .0002030853223771495 .00139265669250697 1.6986
2707630415 0 .000135250068108045 .001379459754911914 1.71367046394725 .340568953
453961 755853461525099e-19 .00134465425593948 1.731448070106135 .678742623399082
 300914287633787e-19 .001291634742813368 1.7516781054697 1.0194664108662 4344978
44878957e-20 .00122596714641266 1.77355302345962 1.363569057995786 -926466081835
7e-28 .00118373971655906 1.78675682548002 1.570796326793795 14 255 185 100 189 ?
138 190 191 6 170 +192 192 138 190 25 50 186 437 0 138 193 170 194 +.0104 -.0105
5 -.0042 0 -.1736481776669305 -.984807753012208 0 -.984807753012208 .17364817766
69305 50 187 442 0 190 170 195 0 +.01005 -.01055 -.00495 -.984807753012208 -.173
6481776669305 0 -.1736481776669305 .984807753012208 0 141 188 160 196 196 170 14
1 196 169 188 188 170 14 190 104 197 ?185 198 37 6 187 +199 199 185 198 25 50 19
5 446 0 200 187 201 0 +.01005 -.01055 -.00495 0 -.1736481776669305 .984807753012
208 0 .984807753012208 .1736481776669305 14 200 110 202 ?198 203 204 6 195 +0 0
 198 203 25 50 201 447 0 203 195 19 0 +.00975 -.01055 -.00495 .984807753012208 -
.1736481776669305 0 -.1736481776669305 -.984807753012208 0 14 203 112 205 ?200 1
99 206 6 201 +198 198 200 199 25 50 19 451 0 207 201 7 0 +.01005 -.01055 -.00375
 0 -.1736481776669305 -.984807753012208 0 -.984807753012208 .1736481776669305 14
 207 118 208 ?199 17 209 6 19 +0 0 199 17 25 81 1 208 1026 210 207 211 0 0 202 2
12 14 199 115 213 ?203 207 214 6 187 +190 190 203 207 25 14 17 122 215 ?207 0 21
6 6 7 +144 144 207 0 25 15 209 119 0 217 207 0 13 25 2 0 0 0 0 0 0 10 17 17 217
 0 209 27 65 66 218 219 0 220 +17 27 0 209 221 217 71 78 11 0 130 +17 65 0 209 2
17 221 62 70 28 0 222 -17 218 0 223 224 220 62 217 219 0 0 -16 219 87 225 ?217 2
26 227 228 0 0 1 17 220 0 223 218 229 66 230 227 0 0 -15 223 82 0 229 231 0 17 2
29 0 223 220 232 58 114 233 0 0 +17 230 0 214 234 78 58 220 227 0 229 +16 227 85
 235 ?230 219 233 236 0 0 1 81 1 235 887 34 227 0 0 225 237 238 16 233 83 237 ?2
29 227 239 240 0 0 1 133 236 678 0 227 241 242 0 +243 .00997946920771662 -.01015
 -.003820530792283385 .00997946920771662 -.01015 -.004270530792283385 -.00112946
920771662 -.000679469207716617 30 255 241 401 0 1 244 236 245 +.01005 -.01055 -.
00495 0 0 1 133 242 680 0 246 236 247 0 +247 .01005 -.01055 -.0042 .009979469207
71662 -.01015 -.004270530792283385 59880754411112e-18 .000472129690516766 30 243
 435 0 1 248 249 250 +.00997946920771662 -.01015 -.00495 0 0 -1 133 248 638 0 25
1 252 243 0 +243 .00997946920771662 -.01015 -.004429469207716615 .00997946920771
662 -.01015 -.00487946920771662 -.000520530792283388 -705307922833857e-19 133 24
9 640 0 253 243 254 0 +241 .01005 -.01055 -.00495 .01005 -.01055 -.0045 0 45e-5
 141 250 248 255 255 243 141 255 236 250 250 243 16 253 76 256 ?39 257 164 249 0
 0 1 133 254 642 0 41 249 258 0 +258 .00997946920771662 -.01015 -.00442946920771
6615 .01005 -.01055 -.0045 -.000472129690516766 -59880754411112e-18 16 41 103 25
9 ?40 260 179 254 0 0 1 30 258 441 0 1 254 261 262 +.010060244870711 -.010608101
54900752 -.00451024487071098 .171087869746036 -.970287525247814 -.17108786974603
6 133 261 647 0 239 258 263 0 +263 .00975 -.01055 -.0045 .00975 -.01055 -.00495
 -45e-5 0 141 262 254 262 262 258 16 239 80 264 ?265 233 257 261 0 0 1 30 263 42
1 0 1 261 266 267 +.00975 -.01055 -.00495 0 0 -1 133 266 649 0 268 263 269 0 +27
0 .00982053079228339 -.01015 -.00487946920771662 .00982053079228339 -.01015 -.00
4429469207716615 705307922833857e-19 .000520530792283388 141 267 261 271 271 263
 141 271 272 267 267 263 133 272 669 0 134 270 273 0 +263 .00975 -.01055 -.00375
 .00975 -.01055 -.0042 -.0012 -75e-5 16 134 53 274 ?275 276 123 272 0 0 1 30 270
 429 0 1 277 272 278 +.00982053079228339 -.01015 -.00495 0 0 1 133 273 671 0 178
 272 279 0 +279 .00982053079228339 -.01015 -.004270530792283385 .00975 -.01055 -
.0042 -.000301041820770732 .0001112071153349222 16 178 38 280 ?281 168 282 273 0
 0 1 30 279 384 0 1 273 244 283 +.00976902618846326 -.01044209712327172 -.004219
026188463255 -.171087869746036 -.970287525247814 .171087869746036 133 244 676 0
 131 279 241 0 +241 .01005 -.01055 -.0042 .01005 -.01055 -.00375 75e-5 .0012 141
 283 273 283 283 279 16 131 57 284 ?130 116 276 244 0 0 1 81 1 284 897 34 131 0
 0 285 286 287 17 130 0 214 78 234 71 121 131 0 129 +16 116 60 285 ?115 288 131
 289 0 0 1 16 276 55 286 ?221 131 134 290 0 0 1 81 1 286 898 34 276 0 0 284 274
 291 17 221 0 209 65 27 67 129 276 0 292 +133 290 689 0 276 293 294 0 +294 .0100
5 -.01055 -.00375 .00975 -.01055 -.00375 0 3e-4 30 293 450 0 1 29 290 295 +.0100
1487472899092 -.01035079468911704 -.00378512527100908 .171087869746036 -.9702875
25247814 .171087869746036 30 294 400 0 1 290 296 297 +.01005 -.01055 -.00375 -1
 0 0 133 296 691 0 28 294 298 0 +298 .00982053079228339 -.01015 -.00382053079228
3385 .00975 -.01055 -.00375 -.000360922575181844 5132636092381e-17 141 297 290 2
97 297 294 16 28 114 299 ?70 11 300 296 0 0 1 30 298 448 0 1 296 166 301 +.00975
878131775228 -.01050019867227926 -.00375878131775227 -.171087869746036 -.9702875
25247814 .171087869746036 133 166 709 0 302 298 159 0 +159 .01079265669250696 -.
01035 -.004464734603858305 .00900734330749303 -.01035 -.004464734603858305 1.698
62707630415 4.58455823087544 141 301 296 301 301 298 16 302 23 303 ?304 305 142
 166 0 0 1 81 1 303 912 34 302 0 0 306 307 308 17 304 0 309 310 311 79 98 302 0
 0 +16 305 25 306 ?310 312 302 313 0 0 1 16 142 19 307 ?314 302 137 315 0 0 1 81
 1 307 913 34 142 0 0 303 141 316 17 314 0 317 314 314 0 318 142 0 0 +31 315 410
 0 142 153 319 0 +.0099 -.00955 -.00435 0 -1 0 0 0 1 9e-4 133 153 588 0 149 154
 315 0 +159 .00900734330749303 -.01035 -.004235265396141695 .01079265669250696 -
.01035 -.004235265396141695 4.84021972989394 7.72615088446523 133 319 602 0 177
 315 320 0 +320 .00921626028344113 -.01055 -.0045 .00975 -.01055 -.0045 -.001183
73971655887 -65e-5 16 177 43 321 ?322 323 168 319 0 0 1 30 320 389 0 1 319 324 3
25 +.0104 -.01055 -.0045 1 0 0 133 324 607 0 282 320 326 0 +326 .009820530792283
39 -.01015 -.004270530792283385 .0090035153961027 -.01015 -.004270530792283385 -
.00982053079228339 -.0090035153961027 141 325 319 327 327 320 141 327 328 325 32
5 320 133 328 629 0 164 240 252 0 +320 .01005 -.01055 -.0045 .01058373971655886
 -.01055 -.0045 -35e-5 .0001837397165588685 16 164 74 329 ?330 253 158 328 0 0 1
 133 240 624 0 233 157 328 0 +326 .0107964846038973 -.01015 -.004270530792283385
 .00997946920771662 -.01015 -.004270530792283385 -.0107964846038973 -.0099794692
0771662 133 252 633 0 331 328 248 0 +332 .00997946920771662 -.01015 -.0044294692
07716615 .0107964846038973 -.01015 -.004429469207716615 .00997946920771662 .0107
964846038973 16 331 96 333 ?334 246 251 252 0 0 1 30 332 392 0 1 335 336 337 +0
 -.01015 -.004429469207716615 1 0 0 133 335 611 0 135 338 332 0 +332 .0090035153
961027 -.01015 -.004429469207716615 .00982053079228339 -.01015 -.004429469207716
615 .0090035153961027 .00982053079228339 133 336 613 0 288 332 339 0 +339 .01079
64846038973 -.01015 -.004429469207716615 .0107964846038973 -.01015 -.00427053079
2283385 4.62397471545035 4.80080324531903 141 337 335 340 340 332 141 340 252 33
7 337 332 16 288 62 341 ?232 165 116 336 0 0 1 31 339 406 0 1 336 136 342 +.0099
 -.01015 -.00435 0 -1 0 0 0 1 9e-4 133 136 622 0 123 339 157 0 +157 .01058373971
655886 -.01055 -.0042 .01005 -.01055 -.0042 -.00018373971655887 35e-5 141 342 33
6 343 343 339 141 343 338 342 342 339 133 338 609 0 312 326 335 0 +339 .00900351
53961027 -.01015 -.004270530792283385 .0090035153961027 -.01015 -.00442946920771
6615 1.48238206186056 1.659210591729235 16 312 27 344 ?345 346 305 338 0 0 1 30
 326 383 0 1 324 338 347 +0 -.01015 -.004270530792283385 -1 0 0 141 347 324 348
 348 326 141 348 240 347 347 326 81 1 344 910 34 312 0 0 349 306 350 17 345 0 22
3 351 352 83 353 312 0 310 +16 346 29 349 ?354 156 312 21 0 0 1 81 1 349 909 34
 346 0 0 355 344 356 17 354 0 309 140 353 84 357 346 0 0 +16 156 32 355 ?147 146
 346 154 0 0 1 133 21 837 0 346 358 8 0 +8 .0090035153961027 -.01015 -.004270530
792283385 .00900734330749303 -.01035 -.004235265396141695 1.659210591729235 1.69
8627076304145 32 358 831 0 1 313 21 359 +.0099 -.00969930772705735 -.00435 0 .17
36481776669305 -.984807753012208 0 .984807753012208 .1736481776669305 .005182893
43482927 9e-4 133 313 830 0 305 143 358 0 +358 .00900734330749303 -.01035 -.0044
64734603858305 .0090035153961027 -.01015 -.004429469207716615 4.58455823087544 4
.62397471545035 141 359 313 360 360 358 141 360 361 359 359 358 133 361 794 0 16
5 180 289 0 +358 .0107964846038973 -.01015 -.004429469207716615 .010792656692506
96 -.01035 -.004464734603858305 1.659210591729235 1.69862707630415 16 165 64 362
 ?311 158 288 361 0 0 1 38 180 764 0 146 169 361 0 +186 7 363 364 365 366 133 28
9 802 0 116 361 143 0 +8 .01079265669250696 -.01035 -.004235265396141695 .010796
4846038973 -.01015 -.004270530792283385 4.58455823087544 4.62397471545035 38 143
 808 0 137 289 313 0 +186 7 367 368 369 370 40 6 367 0 1 6 1186322729547156e-20
 .338702804088894 ??.01079265669250696 -.01035 -.004235265396141695 .01077945975
491192 -.01041680468433176 -.00422348592785629 .01074465425593948 -.010475562965
0949 -.00421312525761771 .01069163474281336 -.0105203657276546 -.004205225321768
155 .01062596714641266 -.01054572103153696 -.004200754497589635 .010583739716559
06 -.0105500000000009 -.00419999999999984 41 1 368 L?.01079265669250696 -.01035
 -.004235265396141695 41 1 369 L?.01058373971655906 -.0105500000000009 -.0041999
9999999984 204 24 370 4 -.0002030853223771495 -.0003926566925069685 4.8402197298
9394 0 -.000135250068108052 -.00037945975491192 4.85526311753704 .34056895345391
6 -75585346152507e-18 -.0003446542559394795 4.87304072369592 .67874262339909 -30
0914287633891e-19 -.000291634742813362 4.89327075905949 1.019466410866194 -43449
78448791275e-21 -.0002259671464126605 4.91514567704941 1.363569057995784 9264660
818357e-28 -.000183739716559059 4.92834947906981 1.570796326793795 16 146 35 371
 ?145 282 156 180 0 0 1 40 6 363 0 1 6 1199401608106206e-20 .3417134703339285 ??
.00921626028344113 -.01055 -.0042 .00914709038084504 -.0105383341929157 -.004202
056996540705 .00908572497944578 -.0105048543436308 -.004207960397279685 .0090387
232925807 -.01045294994855534 -.004217112542548835 .00901208679783605 -.01038881
10414537 -.004228421962384015 .00900734330749269 -.01035 -.00423526539614168 41
 1 364 L?.00921626028344113 -.01055 -.0042 41 1 365 L?.00900734330749269 -.01035
 -.00423526539614168 204 24 366 4 0 .00118373971655887 1.354835828109942 1.57079
63267949 -1184577096253366e-20 .001252909619154958 1.376773184032286 1.227561507
985598 -458421008883439e-19 .001314275020554224 1.398097089102006 .8855634925419
88 -98547204921775e-18 .001361276707419304 1.417712225242372 .540715724202507 -.
0001636755580500695 .001387913202163952 1.434716961132034 .195294257565745 -.000
203085322377074 .00139265669250731 1.44296557728568 3729655473343785e-28 81 1 37
1 907 34 146 0 0 372 355 373 17 145 0 374 357 147 84 128 146 0 354 +16 282 36 37
2 ?352 178 146 324 0 0 1 81 1 372 906 34 282 0 0 280 371 375 17 352 0 223 345 22
4 376 377 282 0 357 +17 224 0 223 352 218 90 222 226 0 378 -18 376 28 379 352 10
4 83 380 5e-7 1 17 377 0 374 281 357 90 352 282 0 0 -17 357 0 374 377 145 376 35
4 346 0 353 -15 374 31 0 147 381 0 17 353 0 309 354 310 376 345 312 0 0 -15 309
 14 0 354 382 0 17 310 0 309 353 304 83 383 305 0 0 +18 83 26 384 385 376 79 386
 5e-7 1 17 383 0 387 176 385 79 310 305 0 304 -15 387 40 0 383 192 0 17 176 0 38
7 322 383 85 82 168 0 0 +17 385 0 387 383 388 83 351 135 0 345 -17 388 0 387 385
 322 389 390 323 0 0 +17 351 0 223 391 345 389 385 135 0 388 +16 135 47 392 ?351
 123 323 335 0 0 1 81 1 392 901 34 135 0 0 133 393 394 16 323 45 393 ?388 135 17
7 269 0 0 1 81 1 393 902 34 323 0 0 392 321 395 133 269 651 0 323 266 396 0 +396
 .00975 -.01055 -.0045 .00982053079228339 -.01015 -.004429469207716615 -.0001112
071153349222 .000301041820770732 30 396 391 0 1 269 397 398 +.00976902618846326
 -.01044209712327172 -.004480973811536745 .171087869746036 .970287525247814 .171
087869746036 133 397 656 0 399 396 400 0 +400 .00997946920771662 -.01015 -.00487
946920771662 .00982053079228339 -.01015 -.00487946920771662 705307922833874e-19
 .000229469207716616 141 398 269 398 398 396 16 399 92 401 ?402 251 268 397 0 0
 1 30 400 433 0 1 397 403 404 +.01005 -.01015 -.00487946920771662 -1 0 0 133 403
 658 0 300 400 405 0 +405 .00982053079228339 -.01015 -.00487946920771662 .00975
 -.01055 -.00495 -.000412248936105654 0 141 404 397 404 404 400 16 300 109 406 ?
57 28 260 403 0 0 1 30 405 445 0 1 403 407 408 +.00975 -.01055 -.00495 -.1710878
69746036 -.970287525247814 -.171087869746036 133 407 660 0 257 405 409 0 +409 .0
0975 -.01055 -.00495 .01005 -.01055 -.00495 -3e-4 0 141 408 403 408 408 405 16 2
57 78 410 ?411 239 253 407 0 0 1 30 409 420 0 1 407 412 413 +.01005 -.01055 -.00
495 1 0 0 133 412 662 0 260 409 414 0 +414 .00997946920771662 -.01015 -.00487946
920771662 .01005 -.01055 -.00495 -.000412248936105654 0 141 413 407 413 413 409
 16 260 106 415 ?53 300 41 412 0 0 1 30 414 443 0 1 412 277 416 +.01005 -.01055
 -.00495 .171087869746036 -.970287525247814 -.171087869746036 133 277 667 0 226
 414 270 0 +270 .00982053079228339 -.01015 -.004270530792283385 .009820530792283
39 -.01015 -.003820530792283385 .000679469207716617 .00112946920771662 141 416 4
12 416 416 414 16 226 89 417 ?222 268 219 277 0 0 1 81 1 417 885 34 226 0 0 418
 225 419 17 222 0 206 70 378 62 224 226 0 218 +16 268 90 418 ?420 399 226 266 0
 0 1 81 1 418 884 34 268 0 0 401 417 421 17 420 0 422 390 61 389 391 268 0 351 +
15 422 108 0 265 198 0 17 390 0 422 265 420 89 388 323 0 322 -17 61 0 422 420 26
5 44 57 300 0 402 -18 389 46 423 420 72 89 424 5e-7 1 17 391 0 223 425 351 44 42
0 268 0 0 -17 425 0 223 426 391 32 402 399 0 0 -17 426 0 223 334 425 12 38 251 0
 0 -17 402 0 204 57 43 44 425 399 0 391 +15 204 111 0 402 200 0 17 57 0 204 411
 402 54 61 300 0 265 +17 43 0 204 402 411 32 53 260 0 38 -17 411 0 204 43 57 50
 427 257 0 428 +17 53 0 37 39 38 50 43 260 0 411 +17 38 0 37 53 31 32 426 251 0
 425 +15 37 105 0 38 190 0 16 251 94 429 ?38 331 399 248 0 0 1 81 1 429 882 34 2
51 0 0 333 401 430 80 7 CCCCCDI12 legal_owners0 17 1 lCZ1 34 431 432 9000 0 0 0
 0 3 5 0 0 0 FFTFTFTTFFFFFFFFF2 81 1 333 881 34 331 0 0 433 429 434 81 1 401 883
 34 399 0 0 429 418 435 83 255 1 430 6378 83 1 435 6379 81 1 433 880 34 246 0 0
 436 333 437 83 1 434 6377 16 246 99 433 ?132 179 331 242 0 0 1 81 1 436 879 34
 179 0 0 259 433 438 83 1 437 6376 16 179 102 436 ?439 41 246 169 0 0 1 81 1 259
 878 34 41 0 0 415 436 440 83 1 438 6375 81 1 415 877 34 260 0 0 406 259 441 83
 1 440 6374 81 1 406 876 34 300 0 0 299 415 442 83 1 441 6373 81 1 299 875 34 28
 0 0 26 406 443 83 1 442 6372 81 1 26 874 34 11 0 0 108 299 444 83 1 443 6371 83
 1 444 6370 17 439 0 191 445 330 95 94 179 0 311 +15 191 101 0 330 185 0 17 445
 0 191 42 439 99 311 165 0 446 -17 330 0 191 439 40 91 447 164 0 163 +17 94 0 21
6 88 98 91 439 179 0 330 -17 311 0 309 304 446 95 445 165 0 0 +17 446 0 309 311
 115 99 232 288 0 0 -17 115 0 309 446 140 75 109 116 0 0 +18 99 63 448 334 95 75
 449 5e-7 1 17 232 0 223 229 334 75 446 288 0 115 +17 334 0 223 232 426 99 42 33
1 0 445 +18 75 61 450 114 99 71 451 5e-7 1 81 1 450 858 34 75 0 0 448 74 452 17
 114 0 112 109 132 75 229 233 0 232 -29 451 403 0 75 449 453 .0107964846038973 -
.01015 -.004270530792283385 29 449 405 0 99 424 451 .0107964846038973 -.01015 -.
004429469207716615 29 453 394 0 72 451 48 .01005 -.01055 -.0042 18 72 51 454 234
 67 389 453 5e-7 1 29 48 423 0 58 453 46 .00997946920771662 -.01015 -.0042705307
92283385 18 58 84 455 132 66 54 48 5e-7 1 81 1 455 851 34 58 0 0 77 56 456 17 13
2 0 112 114 122 58 234 246 0 230 +17 234 0 214 130 230 72 132 246 0 121 -15 214
 116 0 130 199 0 81 1 77 850 34 66 0 0 64 455 457 81 1 56 852 34 54 0 0 455 52 4
58 83 1 456 6347 81 1 52 853 34 50 0 0 56 459 460 83 1 458 6348 81 1 459 854 34
 47 0 0 52 93 461 83 1 460 6349 18 47 75 459 40 50 91 46 5e-7 1 81 1 93 855 34 9
1 0 0 459 97 462 83 1 461 6350 81 1 97 856 34 95 0 0 93 448 463 83 1 462 6351 81
 1 448 857 34 99 0 0 97 450 464 83 1 463 6352 83 1 464 6353 17 40 0 191 330 42 4
7 31 41 0 39 +17 42 0 191 40 445 12 334 331 0 426 -17 39 0 37 31 53 47 428 253 0
 447 +17 428 0 465 427 447 50 39 253 0 0 -17 447 0 465 428 163 47 330 164 0 0 -1
5 465 71 0 466 467 0 17 163 0 465 447 466 91 88 158 0 0 +17 466 0 465 163 468 85
 322 177 0 176 -17 88 0 216 82 94 85 163 158 0 466 -15 216 123 0 82 17 0 17 82 0
 216 98 88 79 176 168 0 383 -17 98 0 216 94 82 95 304 302 0 439 -17 468 0 465 46
6 427 89 265 239 0 390 -17 322 0 387 388 176 89 466 177 0 0 +18 89 44 469 468 38
9 85 470 5e-7 1 81 1 469 863 34 89 0 0 423 87 471 29 470 388 0 89 472 473 .00975
 -.01055 -.0045 29 472 378 0 104 386 470 .00975 -.01055 -.0042 29 473 382 0 90 4
70 424 .00982053079228339 -.01015 -.004270530792283385 18 90 37 474 224 85 100 4
73 5e-7 1 29 424 390 0 389 473 449 .00982053079228339 -.01015 -.0044294692077166
15 81 1 474 865 34 90 0 0 87 102 475 81 1 87 864 34 85 0 0 469 474 476 81 1 102
 866 34 100 0 0 474 477 478 83 1 475 6361 81 1 477 867 34 104 0 0 102 379 479 83
 1 478 6362 18 104 33 477 275 100 376 472 5e-7 1 81 1 379 868 34 376 0 0 477 384
 480 83 1 479 6363 81 1 384 869 34 83 0 0 379 81 481 83 1 480 6364 81 1 81 870 3
4 79 0 0 384 105 482 83 1 481 6365 81 1 105 871 34 84 0 0 81 110 483 83 1 482 63
66 83 1 483 6367 17 275 0 206 378 70 104 292 134 0 281 +15 206 113 0 222 203 0 1
7 378 0 206 222 275 90 281 178 0 377 -17 70 0 206 275 222 67 65 28 0 221 +17 292
 0 120 129 125 67 275 134 0 0 -17 281 0 374 147 377 104 378 178 0 125 +17 147 0
 374 145 281 100 125 156 0 0 +17 125 0 120 292 103 104 147 156 0 0 -17 129 0 120
 121 292 71 221 276 0 0 -83 1 476 6360 29 386 372 0 83 380 472 .0090035153961027
 -.01015 -.004429469207716615 29 380 374 0 376 0 386 .0090035153961027 -.01015 -
.004270530792283385 81 1 423 862 34 389 0 0 454 469 484 83 1 471 6359 81 1 454 8
61 34 72 0 0 69 423 485 83 1 484 6358 81 1 69 860 34 67 0 0 74 454 486 83 1 485
 6357 81 1 74 859 34 71 0 0 450 69 487 83 1 486 6356 83 1 487 6355 17 427 0 465
 468 428 54 411 257 0 0 -17 265 0 422 61 390 54 468 239 0 427 +14 467 70 488 ?48
9 231 465 6 490 +124 124 489 231 25 81 1 488 1030 210 467 491 0 492 493 494 14 4
89 68 495 ?124 467 496 6 497 -0 0 124 467 25 14 231 81 498 ?467 138 223 6 193 +0
 0 467 138 25 50 490 393 0 124 0 499 0 +.0104 -.01055 -.00525 0 -1 0 0 0 1 14 12
4 48 500 ?192 489 120 6 490 +467 467 192 489 25 81 1 500 1035 210 124 501 0 502
 498 503 14 192 39 504 ?381 124 387 6 170 +185 185 381 124 25 81 1 504 1037 210
 192 505 0 498 495 506 14 381 30 492 ?382 192 374 6 186 +138 138 382 192 25 81 1
 492 1029 210 381 507 0 202 488 508 14 382 13 509 ?144 381 317 6 499 +0 0 144 38
1 25 14 138 97 510 ?231 185 112 6 186 +381 381 231 185 25 81 1 510 1039 210 138
 511 0 495 215 512 80 1 210 0 513 8001 0 0 0 0 3 5 0 0 0 FFFFTFTFFFFFFFFFF2 81 1
 511 925 34 138 0 510 514 515 516 81 1 495 1038 210 489 517 0 504 510 518 81 1 2
15 1040 210 17 519 0 510 205 520 83 3 512 .776470588235294 .756862745098039 .737
254901960784 81 1 519 917 34 17 0 215 151 211 521 81 1 205 1041 210 203 522 0 21
5 197 523 83 3 520 .776470588235294 .756862745098039 .737254901960784 81 1 522 9
20 34 203 0 205 524 525 526 81 1 197 1042 210 190 527 0 205 213 528 83 3 523 .77
6470588235294 .756862745098039 .737254901960784 81 1 527 923 34 190 0 197 529 51
4 530 81 1 213 1043 210 199 524 0 197 0 531 83 3 528 .776470588235294 .756862745
098039 .737254901960784 81 1 524 919 34 199 0 213 211 522 532 83 3 531 .77647058
8235294 .756862745098039 .737254901960784 81 1 211 918 34 207 0 208 519 524 533
 83 1 532 6415 83 1 533 6414 81 1 529 922 34 198 0 502 525 527 534 81 1 514 924
 34 185 0 189 527 511 535 83 1 530 6419 81 1 189 1033 210 185 514 0 509 502 536
 83 1 535 6420 81 1 509 1032 210 382 537 0 493 189 538 81 1 502 1034 210 198 529
 0 189 500 539 83 3 536 .776470588235294 .756862745098039 .737254901960784 14 19
8 107 502 ?190 200 422 6 201 +203 203 190 200 25 83 3 539 .776470588235294 .7568
62745098039 .737254901960784 81 1 537 932 34 382 0 509 507 540 541 81 1 493 1031
 210 144 540 0 488 509 542 83 3 538 .776470588235294 .756862745098039 .737254901
960784 14 144 3 493 ?0 382 139 6 7 +17 17 0 382 25 81 1 540 933 34 144 0 493 537
 543 544 83 3 542 .776470588235294 .756862745098039 .737254901960784 81 1 543 93
4 34 1 545 546 540 0 547 83 1 544 6429 81 1 545 844 548 1 0 543 0 0 549 81 1 546
 935 550 1 543 551 0 0 552 83 1 547 6430 80 1 550 34 553 9000 0 0 0 0 3 5 0 0 0
 FFTFTFTTFFFFFFFFF2 81 1 551 1027 554 1 546 14 0 0 555 83 1 552 6713 80 1 554 21
0 556 8040 0 0 0 0 3 5 0 0 0 TTTFFFFFFFFFFFFFF2 81 1 14 1044 557 1 551 2 0 0 558
 83 3 555 1 1 1 80 1 557 13 559 8038 0 0 0 0 0 0 0 0 0 TTTTTTTTTTTTTFTFT10 98 25
5 40 558 83 71 57 48 32 45 32 77 105 99 114 111 32 83 101 114 118 111 32 57 103
 32 45 32 84 111 119 101 114 32 80 114 111 46 49 95 80 101 8225 97 79 255 14 559
 SDL/TYSA_UNAME79 17 556 SDL/TYSA_COLOUR_279 18 553 BTI/importMaxCount80 1 548 5
60 561 9000 0 0 0 0 3 5 0 0 0 TTTFFFFFFFFFFFFFF1 82 255 1 549 12 79 23 561 ONSHA
PE_ORIGINALBODY_ID81 1 507 931 34 381 0 492 505 537 562 83 1 541 6428 81 1 505 9
30 34 192 0 504 501 507 563 83 1 562 6427 81 1 501 929 34 124 0 500 517 505 564
 83 1 563 6426 81 1 517 928 34 489 0 495 491 501 565 83 1 564 6425 81 1 491 927
 34 467 0 488 515 517 566 83 1 565 6424 81 1 515 926 34 231 0 498 511 491 567 83
 1 566 6423 81 1 498 1036 210 231 515 0 500 504 568 83 1 567 6422 83 3 568 .7764
70588235294 .756862745098039 .737254901960784 81 1 525 921 34 200 0 202 522 529
 569 83 1 534 6418 81 1 202 1028 210 200 525 0 208 492 570 83 1 569 6417 83 3 57
0 .776470588235294 .756862745098039 .737254901960784 83 1 526 6416 81 1 151 916
 34 149 0 0 148 519 571 83 1 521 6413 83 1 571 6412 83 3 518 .776470588235294 .7
56862745098039 .737254901960784 83 1 516 6421 79 15 513 SDL/TYSA_COLOUR15 317 84
0 0 314 382 309 51 255 499 402 0 382 490 497 0 +.0099 -.01309558441227158 -.0043
5 0 1 0 9e-4 0 0 -1 50 497 411 0 489 499 193 0 +.0099 -.00955 -.00435 0 -1 0 0 0
 1 50 193 422 0 231 497 186 0 +0 -.01015 0 0 -1 0 0 0 1 83 3 508 .77647058823529
4 .756862745098039 .737254901960784 83 3 506 .776470588235294 .756862745098039 .
737254901960784 83 3 503 .776470588235294 .756862745098039 .737254901960784 15 4
96 69 0 318 489 0 17 318 0 496 318 318 0 314 142 0 0 -83 3 494 .776470588235294
 .756862745098039 .737254901960784 81 1 64 849 34 62 0 0 60 77 572 83 1 457 6346
 81 1 60 848 34 44 0 0 35 64 573 83 1 572 6345 81 1 35 847 34 32 0 0 30 60 574 8
3 1 573 6344 83 1 574 6343 83 1 452 6354 17 140 0 309 115 354 107 106 149 0 0 +1
7 106 0 139 128 117 84 140 149 0 145 -79 13 432 BTI/importTag83 1 421 6380 81 1
 225 886 34 219 0 0 417 235 575 83 1 419 6381 83 1 575 6382 81 1 410 890 34 257
 0 0 264 256 576 81 1 264 889 34 239 0 0 237 410 577 81 1 256 891 34 253 0 0 410
 329 578 83 1 576 6386 81 1 329 892 34 164 0 0 256 162 579 83 1 578 6387 81 1 16
2 893 34 158 0 0 329 362 580 83 1 579 6388 81 1 362 894 34 165 0 0 162 341 581 8
3 1 580 6389 81 1 341 895 34 288 0 0 362 285 582 83 1 581 6390 81 1 285 896 34 1
16 0 0 341 284 583 83 1 582 6391 83 1 583 6392 81 1 237 888 34 233 0 0 235 264 5
84 83 1 577 6385 83 1 584 6384 81 1 321 903 34 177 0 0 393 175 585 83 1 395 6398
 81 1 175 904 34 168 0 0 321 280 586 83 1 585 6399 81 1 280 905 34 178 0 0 175 3
72 587 83 1 586 64e2 83 1 587 6401 81 1 133 900 34 123 0 0 274 392 588 83 1 394
 6397 81 1 274 899 34 134 0 0 286 133 589 83 1 588 6396 83 1 589 6395 83 1 375 6
402 81 1 355 908 34 156 0 0 371 349 590 83 1 373 6403 83 1 590 6404 83 1 356 640
5 81 1 306 911 34 305 0 0 344 303 591 83 1 350 6406 83 1 591 6407 30 157 395 0 1
 136 240 592 +.0104 -.01055 -.0042 -1 0 0 141 592 136 593 593 157 141 593 154 59
2 592 157 81 1 141 914 34 137 0 0 307 148 594 83 1 316 6409 83 1 594 6410 83 1 3
08 6408 133 29 687 0 11 595 293 0 +293 .00997946920771662 -.01015 -.003820530792
283385 .01005 -.01055 -.00375 -.00020694349241041 .000205305443695244 141 295 29
 295 295 293 30 595 428 0 1 228 29 596 +.01005 -.01015 -.003820530792283385 1 0
 0 133 228 685 0 219 247 595 0 +595 .00982053079228339 -.01015 -.003820530792283
385 .00997946920771662 -.01015 -.003820530792283385 -.000229469207716616 -705307
922833874e-19 141 596 228 596 596 595 30 247 438 0 1 242 228 597 +.0100602448707
11 -.01060810154900752 -.004189755129289015 -.171087869746036 .970287525247814 -
.171087869746036 141 597 242 597 597 247 83 1 291 6394 17 78 0 214 230 130 66 27
 11 0 217 -83 1 287 6393 141 278 277 598 598 270 141 598 266 278 278 270 141 245
 244 599 599 241 141 599 249 245 245 241 83 1 238 6383 83 3 212 .776470588235294
 .756862745098039 .737254901960784 141 194 180 600 600 186 141 600 143 194 194 1
86 40 6 181 0 1 6 119940160810604e-19 .3417134703339185 ??.01058373971655886 -.0
1055 -.0045 .01065290961915496 -.0105383341929157 -.004497943003459295 .01071427
502055422 -.0105048543436308 -.004492039602720315 .0107612767074193 -.0104529499
4855534 -.004482887457451165 .01078791320216394 -.0103888110414537 -.00447157803
761599 .0107926566925073 -.01035 -.00446473460385832 41 1 182 L?.010583739716558
86 -.01055 -.0045 41 1 183 L?.0107926566925073 -.01035 -.00446473460385832 204 2
4 184 4 0 -.0001837397165588685 4.496428481699735 1.5707963267949 11845770962533
66e-20 -.0002529096191549575 4.51836583762208 1.227561507985604 458421008883422e
-19 -.000314275020554221 4.5396897426918 .885563492541994 98547204921775e-18 -.0
003612767074193025 4.55930487883217 .540715724202511 .0001636755580500675 -.0003
879132021639505 4.57630961472182 .195294257565756 .000203085322377074 -.00039265
669250731 4.58455823087547 3729655473343785e-28 141 167 166 601 601 159 141 601
 153 167 167 159 83 1 152 6411 83 1 119 6368 83 1 111 6369 83 1 36 6342 19 18 12
4 0 1 0 10 6 0 S0 141 22 21 602 602 8 141 602 289 22 22 8 141 20 160 603 604 7 1
41 603 143 605 20 7 141 604 169 20 605 7 141 605 180 604 603 7 74 4 CI16 index_m
ap_offset0 0 1 dCCZ20 16 7 0 0 545 543 546 213 551 14 2 0 0 0 0 0 0 0 0 0 0 0 0
 0 80 1 13 606 607 8017 0 0 0 0 0 0 0 0 0 TTTTTTTTTTTTTFTFT3 84 255 40 15 SG90 -
 Micro Servo 9g - Tower Pro.1_Pe‡a79 13 607 SDL/TYSA_NAME1 0 
