**ABCDEFGHIJKLMNOPQRSTUVWXYZabcdefghijklmnopqrstuvwxyz**************************
**PARASOLID !"#$%&'()*+,-./:;<=>?@[\]^_`{|}~0123456789**************************
**PART1;
MC=unknown;
MC_MODEL=unknown;
MC_ID=unknown;
OS=unknown;
OS_RELEASE=unknown;
FRU=Parasolid 37.0.209;
APPL=Onshape;
SITE=unknown;
USER=unknown;
FORMAT=text;
GUISE=transmit;
KEY=BTGapi::writeModels_.xmt;
FILE=BTGapi::writeModels_.xmt;
DATE=2025-03-16T16:43:44 (UTC);
**PART2;
SCH=SCH_3700209_36001;
USFLD_SIZE=0;
**PART3;
**END_OF_HEADER*****************************************************************
T51 : TRANSMIT FILE created by modeller version 370020923 SCH_3700209_36001_1300
6231 0 12 36 CCCI7 lattice222 0 CCCI4 mesh1006 0 I8 polyline1008 0 CCCCCCCDI5 ow
ner1040 0 CCCI16 boundary_lattice222 0 CCCI13 boundary_mesh1006 0 I17 boundary_p
olyline1008 0 CCCA16 index_map_offset0 0 1 dA9 index_map82 0 A17 node_id_index_m
ap82 0 A20 schema_embedding_map82 0 A5 child12 0 A14 lowest_node_id0 0 1 dA16 me
sh_offset_data206 0 Z1 6283 2 3 0 0 0 0 0 0 0 1e3 1e-8 0 4 5 1 0 1 2 6 0 7 8 9 0
 0 10 11 12 0 0 0 0 0 0 0 81 255 1 2 6283 13 1 14 0 0 0 15 70 11 CI9 list_type0
 0 1 uI10 notransmit0 0 1 lCCCDCCDI12 finger_index0 0 1 dI12 finger_block1012 0
 CZ3 0 4 T1 0 0 6 20 1 16 16 13 255 6 950 0 1 0 17 0 0 18 0 50 255 7 3559 0 17 1
9 0 0 +-156576973608935e-29 0 -.0061 -256683563293336e-27 0 -1 -1 0 256683563293
336e-27 30 255 8 3545 0 1 20 0 21 +.00849999999999844 .00615 -.00610000000000218
 1 0 -256683563293336e-27 29 255 9 3550 0 22 23 0 .00849999999999844 -.00685 -.0
0610000000000218 19 9 CCCCCCI5 frame230 0 CA5 owner12 0 Z10 1 0 1 18 0 24 0 V0 1
6 255 11 943 25 ?26 0 27 28 0 0 1 18 255 12 938 29 30 0 22 23 5e-7 1 81 1 29 622
5 31 12 0 0 0 32 33 17 255 30 0 34 35 36 12 26 11 0 37 -18 22 936 32 38 12 39 9
 5e-7 1 29 23 3552 0 12 40 9 .00849999999999841 -.00685 -.00620000000000218 29 4
0 3535 0 41 42 23 -.00850000000000157 -.00685 -.00609999999999782 18 41 919 43 4
4 45 0 40 5e-7 1 29 42 3540 0 46 47 40 -.00850000000000159 -.00685 -.00619999999
999782 18 46 924 48 26 49 50 42 5e-7 1 29 47 3544 0 49 51 42 .00849999999999844
 .00615 -.00610000000000218 18 49 929 52 53 39 46 47 5e-7 1 29 51 3546 0 39 54 4
7 .00849999999999841 .00615 -.00620000000000218 18 39 931 55 56 22 49 51 5e-7 1
 29 54 3536 0 45 57 51 -.00850000000000157 .00615 -.00609999999999782 18 45 920
 58 59 50 41 54 5e-7 1 29 57 3538 0 50 0 54 -.00850000000000159 .00615 -.0061999
9999999782 18 50 922 60 61 46 45 57 5e-7 1 81 1 60 6230 31 50 0 0 48 58 62 17 61
 0 63 64 65 50 66 67 0 68 -15 255 63 927 0 69 70 0 17 64 0 63 69 61 45 71 72 0 7
3 +17 65 0 63 61 69 39 74 75 0 0 -17 66 0 76 37 68 39 61 67 0 65 +16 67 932 77 ?
66 78 75 79 0 0 1 17 68 0 76 66 26 50 80 81 0 71 +15 76 946 0 68 82 0 17 26 0 76
 68 37 46 30 11 0 36 +17 80 0 83 84 71 46 68 81 0 0 -16 81 923 85 ?68 86 72 87 0
 0 1 17 71 0 83 80 73 50 64 72 0 0 -15 83 917 0 73 88 0 17 73 0 83 71 84 45 89 9
0 0 0 +16 72 921 91 ?64 81 90 92 0 0 1 81 1 91 6243 31 72 0 0 85 93 94 16 90 918
 93 ?73 72 0 95 0 0 1 133 255 92 5304 0 72 0 96 0 +96 -.00850000000000159 .00615
 -.00619999999999782 -.00850000000000157 .00615 -.00609999999999782 0 1e-4 30 96
 3539 0 1 92 97 98 +-.00850000000000159 .00615 -.00619999999999782 2566835632933
36e-27 0 1 133 97 5308 0 75 96 99 0 +99 .00849999999999841 .00615 -.006200000000
00218 .00849999999999844 .00615 -.00610000000000218 0 1e-4 141 255 98 92 98 98 9
6 16 75 930 100 ?74 67 101 97 0 0 1 30 99 3547 0 1 97 102 103 +.0084999999999984
1 .00615 -.00620000000000218 256683563293336e-27 0 1 133 102 5312 0 86 99 104 0
 +104 -.00850000000000159 -.00685 -.00619999999999782 -.00850000000000157 -.0068
5 -.00609999999999782 0 1e-4 141 103 97 103 103 99 16 86 925 105 ?84 101 81 102
 0 0 1 30 104 3542 0 1 102 106 107 +-.00850000000000159 -.00685 -.00619999999999
782 256683563293336e-27 0 1 133 106 5314 0 108 104 109 0 +109 .00849999999999841
 -.00685 -.00620000000000218 .00849999999999844 -.00685 -.00610000000000218 0 1e
-4 141 107 102 107 107 104 16 108 937 110 ?35 111 78 106 0 0 1 30 109 3553 0 1 1
06 87 112 +.00849999999999841 -.00685 -.00620000000000218 256683563293336e-27 0
 1 133 87 5326 0 81 109 113 0 +113 -.00850000000000159 -.00685 -.006199999999997
82 -.00850000000000159 .00615 -.00619999999999782 -.013 0 141 112 106 112 112 10
9 30 113 3541 0 1 87 79 114 +-.00850000000000159 .00615 -.00619999999999782 1334
402673828314e-31 1 -342519233186407e-43 133 79 5328 0 67 113 115 0 +115 -.008500
00000000159 .00615 -.00619999999999782 .00849999999999841 .00615 -.0062000000000
0218 -.017 0 141 114 87 114 114 113 30 115 3548 0 1 79 116 117 +.008499999999998
41 .00615 -.00620000000000218 1 0 -256683563293336e-27 133 116 5330 0 111 115 11
8 0 +118 .00849999999999841 .00615 -.00620000000000218 .00849999999999841 -.0068
5 -.00620000000000218 0 .013 141 117 79 117 117 115 16 111 939 119 ?37 27 108 11
6 0 0 1 30 118 3554 0 1 116 28 120 +.00849999999999841 .00615 -.0062000000000021
8 -1334402673828314e-31 -1 342519233186407e-43 133 28 5332 0 11 118 121 0 +121 .
00849999999999841 -.00685 -.00620000000000218 -.00850000000000159 -.00685 -.0061
9999999999782 0 .017 141 120 116 120 120 118 30 121 3557 0 1 28 95 122 +.0084999
9999999841 -.00685 -.00620000000000218 -1 0 256683563293336e-27 133 95 5336 0 90
 121 123 0 +123 -.00850000000000157 -.00685 -.00609999999999782 -.00850000000000
157 .00615 -.00609999999999782 -.013 0 141 122 28 122 122 121 30 123 3537 0 1 95
 124 125 +-.00850000000000157 .00615 -.00609999999999782 1334402673828314e-31 1
 -342519233186407e-43 133 124 5338 0 27 123 126 0 +126 .00849999999999844 -.0068
5 -.00610000000000218 -.00850000000000157 -.00685 -.00609999999999782 0 .017 141
 125 95 125 125 123 16 27 942 127 ?44 11 111 124 0 0 1 30 126 3556 0 1 124 128 1
29 +.00849999999999844 -.00685 -.00610000000000218 -1 0 256683563293336e-27 133
 128 5340 0 78 126 130 0 +130 .00849999999999844 .00615 -.00610000000000218 .008
49999999999844 -.00685 -.00610000000000218 0 .013 141 129 124 129 129 126 16 78
 935 131 ?132 108 67 128 0 0 1 30 130 3551 0 1 128 20 133 +.00849999999999844 .0
0615 -.00610000000000218 -1334402673828314e-31 -1 342519233186407e-43 133 20 534
2 0 101 130 8 0 +8 -.00850000000000157 .00615 -.00609999999999782 .0084999999999
9844 .00615 -.00610000000000218 -.017 0 141 133 128 133 133 130 16 101 928 134 ?
69 75 86 20 0 0 1 81 1 134 6240 31 101 0 0 100 105 135 17 69 0 63 65 64 49 59 10
1 0 0 +17 59 0 136 89 53 45 69 101 0 64 -15 136 948 0 89 17 0 17 89 0 136 38 59
 41 73 90 0 0 -17 53 0 136 59 38 49 132 78 0 74 -17 38 0 136 53 89 22 44 27 0 35
 -17 132 0 137 138 74 22 53 78 0 0 +17 74 0 137 132 56 49 65 75 0 69 +15 137 934
 0 132 139 0 17 56 0 137 74 138 39 37 111 0 66 -17 138 0 137 56 132 12 35 108 0
 0 -17 37 0 76 26 66 12 56 111 0 138 +17 35 0 34 44 30 22 138 108 0 132 +15 34 9
41 0 44 140 0 17 44 0 34 36 35 41 38 27 0 84 +17 36 0 34 30 44 46 84 86 0 80 -17
 84 0 83 73 80 41 36 86 0 89 +14 255 140 940 141 ?139 17 34 6 142 -0 0 139 17 24
 81 1 141 6246 31 140 0 0 143 144 145 14 139 933 144 ?70 140 137 6 146 -0 0 70 1
40 24 14 17 947 143 ?140 0 136 6 7 -0 0 140 0 24 50 142 3555 0 140 146 19 0 +.00
849999999999841 -.00685 -.00620000000000218 0 1 0 -256683563293336e-27 0 -1 13 2
4 2 0 0 0 0 0 0 10 17 50 146 3549 0 139 147 142 0 +.00849999999999841 .00615 -.0
0620000000000218 -1 1334402673828314e-31 256683563293336e-27 1334402673828314e-3
1 1 -342519233186407e-43 50 19 3558 0 82 142 7 0 +-1591438092418685e-30 0 -.0062
 -256683563293336e-27 0 -1 -1 0 256683563293336e-27 14 82 3 148 ?0 88 76 6 19 +0
 0 0 88 24 81 1 148 6250 31 82 0 0 149 150 151 14 88 916 149 ?82 70 83 6 152 -0
 0 82 70 24 81 1 149 6249 31 88 0 0 153 148 154 14 70 926 153 ?88 139 63 6 147 -
0 0 88 139 24 50 152 3534 0 88 0 147 0 +-.00850000000000159 .00615 -.00619999999
999782 1 -1334402673828314e-31 -256683563293336e-27 -1334402673828314e-31 -1 342
519233186407e-43 50 147 3543 0 70 152 146 0 +.00849999999999841 .00615 -.0062000
0000000218 0 -1 0 256683563293336e-27 0 1 81 1 153 6248 31 70 0 0 144 149 155 80
 7 CCCCCDI12 legal_owners0 17 1 lCZ1 31 156 157 9000 0 0 0 0 3 5 0 0 0 FFTFTFTTF
FFFFFFFF2 81 1 144 6247 31 139 0 0 141 153 158 83 255 1 155 6632 83 1 158 6631 7
9 255 13 157 BTI/importTag83 1 154 6633 81 1 150 6251 31 1 159 160 148 0 161 83
 1 151 6634 81 1 159 6223 162 1 0 150 0 0 163 81 1 160 6252 164 1 150 165 0 0 16
6 83 1 161 6635 80 1 164 31 167 9000 0 0 0 0 3 5 0 0 0 FFTFTFTTFFFFFFFFF2 81 1 1
65 6281 168 1 160 14 0 0 169 83 1 166 6713 80 1 168 170 171 8040 0 0 0 0 3 5 0 0
 0 TTTFFFFFFFFFFFFFF2 81 1 14 6282 172 1 165 2 0 0 173 83 3 169 .250980392156863
 .250980392156863 .250980392156863 80 1 172 13 174 8038 0 0 0 0 0 0 0 0 0 TTTTTT
TTTTTTTFTFT10 98 255 40 173 83 71 57 48 32 45 32 77 105 99 114 111 32 83 101 114
 118 111 32 57 103 32 45 32 84 111 119 101 114 32 80 114 111 46 49 95 80 101 822
5 97 79 14 174 SDL/TYSA_UNAME79 17 171 SDL/TYSA_COLOUR_279 18 167 BTI/importMaxC
ount80 1 162 175 176 9000 0 0 0 0 3 5 0 0 0 TTTFFFFFFFFFFFFFF1 82 255 1 163 15 7
9 23 176 ONSHAPE_ORIGINALBODY_ID81 1 143 6245 31 17 0 0 93 141 177 81 1 93 6244
 31 90 0 0 91 143 178 83 1 177 6629 83 1 178 6628 83 1 145 6630 81 1 100 6239 31
 75 0 0 77 134 179 81 1 105 6241 31 86 0 0 134 85 180 83 1 135 6624 81 1 85 6242
 31 81 0 0 105 91 181 83 1 180 6625 83 1 181 6626 81 1 77 6238 31 67 0 0 131 100
 182 83 1 179 6623 81 1 131 6237 31 78 0 0 110 77 183 83 1 182 6622 81 1 110 623
6 31 108 0 0 119 131 184 83 1 183 6621 81 1 119 6235 31 111 0 0 127 110 185 83 1
 184 6620 81 1 127 6234 31 27 0 0 25 119 186 83 1 185 6619 81 1 25 6233 31 11 0
 0 43 127 187 83 1 186 6618 81 1 43 6232 31 41 0 0 58 25 188 83 1 187 6617 81 1
 58 6231 31 45 0 0 60 43 189 83 1 188 6616 83 1 189 6615 83 1 94 6627 81 1 48 62
29 31 46 0 0 52 60 190 83 1 62 6614 81 1 52 6228 31 49 0 0 55 48 191 83 1 190 66
13 81 1 55 6227 31 39 0 0 32 52 192 83 1 191 6612 81 1 32 6226 31 22 0 0 29 55 1
93 83 1 192 6611 83 1 193 6610 83 1 33 6609 19 18 949 0 1 0 10 6 0 S0 141 21 20
 21 21 8 74 4 CI16 index_map_offset0 0 1 dCCZ20 16 6 0 0 159 150 160 165 14 2 0
 0 0 0 0 0 0 0 0 0 0 0 0 0 80 1 13 194 195 8017 0 0 0 0 0 0 0 0 0 TTTTTTTTTTTTTF
TFT3 84 255 40 15 SG90 - Micro Servo 9g - Tower Pro.1_Pe‡a79 13 195 SDL/TYSA_NAM
E1 0 
