**ABCDEFGHIJKLMNOPQRSTUVWXYZabcdefghijklmnopqrstuvwxyz**************************
**PARASOLID !"#$%&'()*+,-./:;<=>?@[\]^_`{|}~0123456789**************************
**PART1;
MC=unknown;
MC_MODEL=unknown;
MC_ID=unknown;
OS=unknown;
OS_RELEASE=unknown;
FRU=Parasolid 37.0.209;
APPL=Onshape;
SITE=unknown;
USER=unknown;
FORMAT=text;
GUISE=transmit;
KEY=BTGapi::writeModels_.xmt;
FILE=BTGapi::writeModels_.xmt;
DATE=2025-03-16T16:43:44 (UTC);
**PART2;
SCH=SCH_3700209_36001;
USFLD_SIZE=0;
**PART3;
**END_OF_HEADER*****************************************************************
T51 : TRANSMIT FILE created by modeller version 370020923 SCH_3700209_36001_1300
6231 0 12 36 CCCI7 lattice222 0 CCCI4 mesh1006 0 I8 polyline1008 0 CCCCCCCDI5 ow
ner1040 0 CCCI16 boundary_lattice222 0 CCCI13 boundary_mesh1006 0 I17 boundary_p
olyline1008 0 CCCA16 index_map_offset0 0 1 dA9 index_map82 0 A17 node_id_index_m
ap82 0 A20 schema_embedding_map82 0 A5 child12 0 A14 lowest_node_id0 0 1 dA16 me
sh_offset_data206 0 Z1 216 2 3 0 0 0 0 0 0 0 1e3 1e-8 0 4 5 1 0 1 2 6 0 7 8 9 0
 0 10 11 12 0 0 0 0 0 0 0 81 255 1 2 216 13 1 14 0 0 0 15 70 11 CI9 list_type0 0
 1 uI10 notransmit0 0 1 lCCCDCCDI12 finger_index0 0 1 dI12 finger_block1012 0 CZ
3 0 4 T1 0 0 3 20 1 16 16 13 255 6 153 0 1 0 17 0 0 18 0 50 255 7 148 0 17 19 0
 0 +-.01 .001 .052 1 0 0 0 0 -1 30 255 8 152 0 11 20 0 0 +-.01 -.008 .052 0 0 -1
 29 255 9 129 0 21 22 0 -.01 .01 0 19 9 CCCCCCI5 frame230 0 CA5 owner12 0 Z10 58
 0 1 18 0 23 0 V0 16 255 11 136 0 ?24 0 25 8 0 0 1 18 255 12 52 0 26 0 27 28 ?1
 17 255 26 0 29 30 31 12 32 33 0 34 +18 27 47 0 35 12 36 37 ?1 29 28 54 0 12 37
 38 -.01 .01 .052 29 37 49 0 27 39 28 -.008 .01 .052 29 38 132 0 40 28 41 -.01 -
.008 0 18 40 120 0 42 43 0 38 ?1 29 41 131 0 43 38 22 -.008 -.008 0 18 43 116 0
 44 45 40 41 ?1 29 22 130 0 45 41 9 -.008 .01 0 18 45 112 0 46 21 43 22 ?1 17 46
 0 47 48 32 45 35 49 0 50 +18 21 108 0 48 51 45 9 ?1 17 48 0 47 34 46 21 50 52 0
 53 +18 51 32 0 54 36 21 55 ?1 17 54 0 56 24 57 51 58 59 0 30 -18 36 37 0 58 27
 51 39 ?1 29 55 34 0 51 0 39 -.01 -.008 .052 29 39 39 0 36 55 37 -.008 -.008 .05
2 17 58 0 29 31 30 36 54 59 0 57 +15 255 29 6 0 30 60 0 17 31 0 29 26 58 27 61 6
2 0 0 -17 30 0 29 58 26 51 63 64 0 65 +16 59 12 0 ?58 62 64 66 0 0 1 17 57 0 56
 54 67 36 44 25 0 61 -15 56 141 0 67 68 0 17 67 0 56 57 24 43 42 69 0 70 +17 44
 0 71 72 61 43 57 25 0 67 +16 25 135 0 ?44 11 49 20 0 0 1 17 61 0 71 44 35 36 31
 62 0 0 +15 71 139 0 72 73 0 17 35 0 71 61 72 27 46 49 0 32 -16 62 17 0 ?61 33 5
9 74 0 0 1 16 33 27 0 ?26 75 62 76 0 0 1 30 74 19 0 62 66 76 0 +-.008 0 .052 216
840434497101e-30 -1 0 30 66 14 0 59 77 74 0 +-.009 -.008 .052 1 0 0 30 76 29 0 3
3 74 78 0 +-.009 .01 .052 -1 0 0 30 78 128 0 79 76 80 0 +-.01 .001 0 0 -1 0 16 7
9 104 0 ?81 69 0 78 0 0 1 30 80 127 0 69 78 82 0 +-.009 -.008 0 1 0 0 16 69 100
 0 ?67 83 79 80 0 0 1 30 82 126 0 83 80 84 0 +-.008 0 0 216840434497101e-30 -1 0
 16 83 94 0 ?70 52 69 82 0 0 1 30 84 125 0 52 82 85 0 +-.009 .01 0 -1 0 0 16 52
 90 0 ?48 64 83 84 0 0 1 30 85 149 0 75 84 86 0 +-.01 .01 .052 0 0 -1 16 75 133
 0 ?53 49 33 85 0 0 1 30 86 150 0 49 85 20 0 +-.008 .01 .052 0 0 -1 16 49 134 0
 ?46 25 75 86 0 0 1 30 20 151 0 25 86 8 0 +-.008 -.008 .052 0 0 -1 17 53 0 87 81
 63 21 34 75 0 88 +15 87 143 0 81 17 0 17 81 0 87 65 53 40 88 79 0 0 +17 63 0 87
 53 65 12 30 64 0 0 -17 34 0 47 32 48 12 53 75 0 63 -17 88 0 89 50 42 21 81 79 0
 0 -15 89 89 0 88 90 0 17 50 0 89 70 88 45 48 52 0 72 -17 42 0 89 88 70 40 67 69
 0 24 -17 70 0 89 42 50 43 72 83 0 0 +17 24 0 56 67 54 40 65 11 0 81 +17 65 0 87
 63 81 51 24 11 0 0 -17 72 0 71 35 44 45 70 83 0 0 -14 255 90 81 0 ?0 60 89 6 91
 -0 0 0 60 23 14 60 1 0 ?90 92 29 6 93 +0 0 90 92 23 50 91 124 0 90 93 94 0 +693
889390390723e-32 -693889390390723e-32 0 0 0 1 1 0 0 13 23 59 0 0 0 0 0 0 10 17 1
4 17 144 0 ?68 0 87 6 7 -0 0 68 0 23 14 68 142 0 ?73 17 56 6 19 -0 0 73 17 23 14
 73 140 0 ?92 68 71 6 95 +0 0 92 68 23 50 19 147 0 68 95 7 0 +-.009 -.008 .052 0
 1 0 0 0 1 50 95 146 0 73 94 19 0 +-.008 0 .052 1 216840434497101e-30 0 -2168404
34497101e-30 1 0 50 94 145 0 92 91 95 0 +-.009 .01 .052 0 -1 0 0 0 -1 14 92 138
 0 ?60 73 47 6 94 -0 0 60 73 23 15 47 137 0 48 92 0 50 93 3 0 60 0 91 0 +6938893
90390723e-32 -693889390390723e-32 .052 0 0 1 1 0 0 17 32 0 47 46 34 27 26 33 0 3
1 -16 64 7 0 ?30 59 52 77 0 0 1 30 77 9 0 64 0 66 0 +-.01 .001 .052 0 -1 0 19 18
 154 0 1 0 10 6 0 S0 74 4 CI16 index_map_offset0 0 1 dCCZ20 16 3 0 0 96 14 2 0 0
 0 0 0 0 0 0 0 0 0 0 0 0 0 0 0 81 1 96 214 97 1 0 14 0 0 98 81 1 14 215 99 1 96
 2 0 0 100 80 7 CCCCCDI12 legal_owners0 17 1 lCZ1 99 13 101 8038 0 0 0 0 0 0 0 0
 0 TTTTTTTTTTTTTFTFT10 98 255 6 100 80 97 114 116 32 49 79 255 14 101 SDL/TYSA_U
NAME80 1 97 102 103 8040 0 0 0 0 3 5 0 0 0 TTTFFFFFFFFFFFFFF2 83 255 3 98 .61568
6274509804 .811764705882353 .929411764705882 79 17 103 SDL/TYSA_COLOUR_280 1 13
 104 105 8017 0 0 0 0 0 0 0 0 0 TTTTTTTTTTTTTFTFT3 84 255 6 15 Part 179 13 105 S
DL/TYSA_NAME1 0 
