**ABCDEFGHIJKLMNOPQRSTUVWXYZabcdefghijklmnopqrstuvwxyz**************************
**PARASOLID !"#$%&'()*+,-./:;<=>?@[\]^_`{|}~0123456789**************************
**PART1;
MC=unknown;
MC_MODEL=unknown;
MC_ID=unknown;
OS=unknown;
OS_RELEASE=unknown;
FRU=Parasolid 37.0.209;
APPL=Onshape;
SITE=unknown;
USER=unknown;
FORMAT=text;
GUISE=transmit;
KEY=BTGapi::writeModels_.xmt;
FILE=BTGapi::writeModels_.xmt;
DATE=2025-03-16T16:43:44 (UTC);
**PART2;
SCH=SCH_3700209_36001;
USFLD_SIZE=0;
**PART3;
**END_OF_HEADER*****************************************************************
T51 : TRANSMIT FILE created by modeller version 370020923 SCH_3700209_36001_1300
6231 0 12 36 CCCI7 lattice222 0 CCCI4 mesh1006 0 I8 polyline1008 0 CCCCCCCDI5 ow
ner1040 0 CCCI16 boundary_lattice222 0 CCCI13 boundary_mesh1006 0 I17 boundary_p
olyline1008 0 CCCA16 index_map_offset0 0 1 dA9 index_map82 0 A17 node_id_index_m
ap82 0 A20 schema_embedding_map82 0 A5 child12 0 A14 lowest_node_id0 0 1 dA16 me
sh_offset_data206 0 Z1 2052 2 3 0 0 0 0 0 0 0 1e3 1e-8 0 4 5 1 0 1 2 6 0 7 8 9 0
 0 10 11 12 0 0 0 0 0 0 0 81 255 1 2 2052 13 1 14 0 0 0 15 70 11 CI9 list_type0
 0 1 uI10 notransmit0 0 1 lCCCDCCDI12 finger_index0 0 1 dI12 finger_block1012 0
 CZ3 0 4 T1 0 0 3 20 1 16 16 13 255 6 1691 0 1 0 17 0 0 18 0 50 255 7 1652 0 19
 20 0 0 +-.0465 .005 .002 -4336808689942015e-31 1 0 -1 -4336808689942015e-31 0 3
0 255 8 1690 0 21 22 0 0 +-.0475 .005 .002 0 0 -1 29 255 9 1463 0 23 24 0 .0555
 -.015 0 19 9 CCCCCCI5 frame230 0 CA5 owner12 0 Z10 664 0 1 18 0 25 0 V0 16 255
 11 1526 0 ?26 0 27 28 0 0 1 18 255 12 653 0 29 0 30 31 ?1 17 255 29 0 32 33 34
 12 35 36 0 37 -18 30 648 0 38 12 39 40 ?1 29 31 655 0 12 40 41 .0555 -.015 .002
 29 40 650 0 30 42 31 .0555 -.025 .002 29 41 1500 0 43 31 44 -.0475 .005 0 18 43
 1420 0 45 46 0 41 ?1 29 44 1499 0 46 41 47 -.0455 .005 0 18 46 1416 0 48 49 43
 44 ?1 29 47 1498 0 49 44 50 -.0555 .015 0 18 49 1412 0 51 52 46 47 ?1 29 50 149
7 0 52 47 53 -.0295 .005 0 18 52 1408 0 54 55 49 50 ?1 29 53 1496 0 55 50 56 -.0
295 -.005 0 18 55 1404 0 57 58 52 53 ?1 29 56 1495 0 58 53 59 -.0275 -.005 0 18
 58 1400 0 60 61 55 56 ?1 29 59 1494 0 61 56 62 -.0275 .005 0 18 61 1396 0 63 64
 58 59 ?1 29 62 1493 0 64 59 65 .0295 .005 0 18 64 1392 0 66 67 61 62 ?1 29 65 1
492 0 67 62 68 .0275 .005 0 18 67 1388 0 69 70 64 65 ?1 29 68 1491 0 70 65 71 .0
455 .015 0 18 70 1384 0 72 73 67 68 ?1 29 71 1490 0 73 68 74 .0455 .005 0 18 73
 1380 0 75 76 70 71 ?1 29 74 1489 0 76 71 77 -.0275 .015 0 18 76 1376 0 78 79 73
 74 ?1 29 77 1488 0 79 74 80 -.0195 .0115 0 18 79 1372 0 26 81 76 77 ?1 29 80 14
87 0 81 77 82 -.0475 -.015 0 18 81 1368 0 83 84 79 80 ?1 29 82 1486 0 84 80 85 -
.0475 -.005 0 18 84 1364 0 86 87 81 82 ?1 29 85 1485 0 87 82 88 -.0555 -.025 0 1
8 87 1360 0 89 90 84 85 ?1 29 88 1484 0 90 85 91 -.0475 -.025 0 18 90 1356 0 92
 93 87 88 ?1 29 91 1483 0 93 88 94 -.0455 -.015 0 18 93 1352 0 95 96 90 91 ?1 29
 94 1482 0 96 91 97 -.0455 -.005 0 18 96 1348 0 98 99 93 94 ?1 29 97 1481 0 99 9
4 100 -.0295 -.015 0 18 99 1344 0 101 102 96 97 ?1 29 100 1480 0 102 97 103 -.02
95 .015 0 18 102 1340 0 104 105 99 100 ?1 29 103 1479 0 105 100 106 -.0455 -.025
 0 18 105 1336 0 107 108 102 103 ?1 29 106 1478 0 108 103 109 .0275 -.025 0 18 1
08 1332 0 110 111 105 106 ?1 29 109 1477 0 111 106 112 .0275 -.015 0 18 111 1328
 0 113 114 108 109 ?1 29 112 1476 0 114 109 115 -.0275 -.015 0 18 114 1324 0 116
 117 111 112 ?1 29 115 1475 0 117 112 118 .0275 -.005 0 18 117 1320 0 119 120 11
4 115 ?1 29 118 1474 0 120 115 121 -.0075 .0115 0 18 120 1316 0 122 123 117 118
 ?1 29 121 1473 0 123 118 124 -.0075 -.0035 0 18 123 1312 0 125 126 120 121 ?1 2
9 124 1472 0 126 121 127 -.0195 -.0035 0 18 126 1308 0 128 129 123 124 ?1 29 127
 1471 0 129 124 130 .0555 .005 0 18 129 1304 0 131 132 126 127 ?1 29 130 1470 0
 132 127 133 .0295 -.005 0 18 132 1300 0 134 135 129 130 ?1 29 133 1469 0 135 13
0 136 .0295 -.015 0 18 135 1296 0 137 138 132 133 ?1 29 136 1468 0 138 133 139 .
0455 -.015 0 18 138 1292 0 140 141 135 136 ?1 29 139 1467 0 141 136 142 .0455 -.
005 0 18 141 1288 0 143 144 138 139 ?1 29 142 1466 0 144 139 145 .0555 -.005 0 1
8 144 1284 0 146 147 141 142 ?1 29 145 1465 0 147 142 24 .0295 -.025 0 18 147 12
80 0 148 149 144 145 ?1 29 24 1464 0 149 145 9 .0555 -.025 0 18 149 1276 0 150 2
3 147 24 ?1 17 150 0 32 34 33 149 38 151 0 152 +18 23 1272 0 35 153 149 9 ?1 17
 35 0 154 140 37 23 29 36 0 155 +18 153 408 0 156 157 23 158 ?1 17 156 0 159 160
 161 153 45 21 0 162 -18 157 413 0 163 164 153 165 ?1 29 158 410 0 153 0 165 -.0
475 .005 .002 29 165 415 0 157 158 166 -.0455 .005 .002 29 166 425 0 164 165 167
 -.0555 .015 .002 18 164 423 0 168 169 157 166 ?1 29 167 435 0 169 166 170 -.029
5 .005 .002 18 169 433 0 171 172 164 167 ?1 29 170 440 0 172 167 173 -.0295 -.00
5 .002 18 172 438 0 174 175 169 170 ?1 29 173 445 0 175 170 176 -.0275 -.005 .00
2 18 175 443 0 177 178 172 173 ?1 29 176 450 0 178 173 179 -.0275 .005 .002 18 1
78 448 0 180 181 175 176 ?1 29 179 455 0 181 176 182 .0295 .005 .002 18 181 453
 0 183 184 178 179 ?1 29 182 470 0 184 179 185 .0275 .005 .002 18 184 468 0 186
 187 181 182 ?1 29 185 475 0 187 182 188 .0455 .015 .002 18 187 473 0 189 190 18
4 185 ?1 29 188 480 0 190 185 191 .0455 .005 .002 18 190 478 0 192 193 187 188 ?
1 29 191 490 0 193 188 194 -.0275 .015 .002 18 193 488 0 195 196 190 191 ?1 29 1
94 500 0 196 191 197 -.0195 .0115 .002 18 196 498 0 198 199 193 194 ?1 29 197 50
5 0 199 194 200 -.0475 -.015 .002 18 199 503 0 201 202 196 197 ?1 29 200 510 0 2
02 197 203 -.0475 -.005 .002 18 202 508 0 204 205 199 200 ?1 29 203 520 0 205 20
0 206 -.0555 -.025 .002 18 205 518 0 207 208 202 203 ?1 29 206 525 0 208 203 209
 -.0475 -.025 .002 18 208 523 0 210 211 205 206 ?1 29 209 530 0 211 206 212 -.04
55 -.015 .002 18 211 528 0 213 214 208 209 ?1 29 212 535 0 214 209 215 -.0455 -.
005 .002 18 214 533 0 216 217 211 212 ?1 29 215 540 0 217 212 218 -.0295 -.015 .
002 18 217 538 0 219 220 214 215 ?1 29 218 545 0 220 215 221 -.0295 .015 .002 18
 220 543 0 222 223 217 218 ?1 29 221 550 0 223 218 224 -.0455 -.025 .002 18 223
 548 0 225 226 220 221 ?1 29 224 555 0 226 221 227 .0275 -.025 .002 18 226 553 0
 228 229 223 224 ?1 29 227 560 0 229 224 230 .0275 -.015 .002 18 229 558 0 231 2
32 226 227 ?1 29 230 565 0 232 227 233 -.0275 -.015 .002 18 232 563 0 234 235 22
9 230 ?1 29 233 570 0 235 230 236 .0275 -.005 .002 18 235 568 0 237 238 232 233
 ?1 29 236 580 0 238 233 239 -.0075 .0115 .002 18 238 578 0 240 241 235 236 ?1 2
9 239 590 0 241 236 242 -.0075 -.0035 .002 18 241 588 0 243 244 238 239 ?1 29 24
2 605 0 244 239 245 -.0195 -.0035 .002 18 244 603 0 246 247 241 242 ?1 29 245 61
5 0 247 242 248 .0555 .005 .002 18 247 613 0 249 250 244 245 ?1 29 248 620 0 250
 245 251 .0295 -.005 .002 18 250 618 0 252 253 247 248 ?1 29 251 625 0 253 248 2
54 .0295 -.015 .002 18 253 623 0 255 256 250 251 ?1 29 254 630 0 256 251 257 .04
55 -.015 .002 18 256 628 0 258 259 253 254 ?1 29 257 635 0 259 254 260 .0455 -.0
05 .002 18 259 633 0 261 262 256 257 ?1 29 260 640 0 262 257 42 .0555 -.005 .002
 18 262 638 0 263 39 259 260 ?1 29 42 645 0 39 260 40 .0295 -.025 .002 18 39 643
 0 264 30 262 42 ?1 17 264 0 265 266 267 39 148 268 0 269 -15 255 265 1549 0 267
 270 0 17 266 0 265 137 264 253 269 271 0 272 +17 267 0 265 264 137 147 273 274
 0 275 -17 148 0 276 152 277 147 264 268 0 267 +16 268 1503 0 ?148 278 151 279 0
 0 1 17 269 0 280 281 272 39 266 271 0 277 -15 280 6 0 207 282 283 17 281 0 280
 284 269 30 277 285 0 33 -17 272 0 280 269 286 253 287 288 0 0 -16 271 373 0 ?26
6 285 289 290 0 0 1 17 277 0 276 148 38 39 281 285 0 0 +15 276 1547 0 152 291 0
 17 38 0 276 277 152 30 150 151 0 281 -16 285 378 0 ?277 292 271 293 0 0 1 16 29
2 383 0 ?33 294 285 295 0 0 1 30 293 380 0 285 290 295 0 +.0425 -.025 .002 -1 -6
67201336914156e-30 0 30 290 375 0 271 296 293 0 +.0295 -.02 .002 -34694469519536
4e-30 1 0 30 295 385 0 292 293 297 0 +.0555 -.02 .002 0 -1 0 30 297 390 0 294 29
5 298 0 +.0285 -.005 .002 -1 0 0 16 294 388 0 ?237 288 292 297 0 0 1 30 298 395
 0 288 297 299 0 +.0285 -.015 .002 -1 0 0 16 288 393 0 ?287 300 294 298 0 0 1 30
 299 400 0 300 298 301 0 +-.0165 -.0035 .002 -1 0 0 16 300 398 0 ?246 302 288 29
9 0 0 1 30 301 1462 0 303 299 304 0 +-.0465 .005 0 1 4336808689942015e-31 0 16 3
03 1268 0 ?48 305 0 301 0 0 1 30 304 1461 0 305 301 306 0 +-.0505 .015 0 -1 0 0
 16 305 1262 0 ?51 307 303 304 0 0 1 30 306 1460 0 307 304 308 0 +-.0555 .01 0 0
 -1 0 16 307 1254 0 ?309 310 305 306 0 0 1 30 308 1459 0 310 306 311 0 +-.0285 .
005 0 1 0 0 16 310 1250 0 ?312 313 307 308 0 0 1 30 311 1458 0 313 308 314 0 +-.
0285 -.005 0 1 0 0 16 313 1246 0 ?315 316 310 311 0 0 1 30 314 1457 0 316 311 31
7 0 +.0285 .005 0 -1 0 0 16 316 1242 0 ?318 319 313 314 0 0 1 30 317 1456 0 319
 314 320 0 +.0285 .015 0 -1 0 0 16 319 1232 0 ?78 321 316 317 0 0 1 30 320 1455
 0 321 317 322 0 +.0455 .01 0 0 -1 0 16 321 1228 0 ?323 324 319 320 0 0 1 30 322
 1454 0 324 320 325 0 +-.0275 .01325 0 0 -1 0 16 324 1222 0 ?326 327 321 322 0 0
 1 30 325 1453 0 327 322 328 0 +-.0475 -1647987302177965e-32 0 0 -1 0 16 327 121
8 0 ?329 330 324 325 0 0 1 30 328 1452 0 330 325 331 0 +-.0475 -.02 0 0 1 0 16 3
30 1214 0 ?332 333 327 328 0 0 1 30 331 1451 0 333 328 334 0 +-.0515 -.025 0 -1
 -867361737988403e-30 0 16 333 1210 0 ?335 336 330 331 0 0 1 30 334 1450 0 336 3
31 337 0 +-.0465 -.015 0 -1 0 0 16 336 1206 0 ?338 339 333 334 0 0 1 30 337 1449
 0 339 334 340 0 +-.0465 -.005 0 -1 0 0 16 339 1202 0 ?341 342 336 337 0 0 1 30
 340 1448 0 342 337 343 0 +-.0295 -.01 0 0 -1 0 16 342 1198 0 ?344 345 339 340 0
 0 1 30 343 1447 0 345 340 346 0 +-.0295 .01 0 0 -1 0 16 345 1194 0 ?347 348 342
 343 0 0 1 30 346 1446 0 348 343 349 0 +-.0455 -1561251128379125e-32 0 0 -1 0 16
 348 1190 0 ?98 350 345 346 0 0 1 30 349 1445 0 350 346 351 0 +-.0285 -.015 0 -1
 0 0 16 350 1186 0 ?352 353 348 349 0 0 1 30 351 1444 0 353 349 354 0 +-.0455 -.
02 0 0 -1 0 16 353 1182 0 ?355 356 350 351 0 0 1 30 354 1443 0 356 351 357 0 +-.
009 -.025 0 -1 -665373388045899e-30 0 16 356 1178 0 ?358 359 353 354 0 0 1 30 35
7 1442 0 359 354 360 0 +.0275 -.02 0 0 -1 0 16 359 1174 0 ?361 362 356 357 0 0 1
 30 360 1441 0 362 357 363 0 +-.0275 -.01 0 0 -1 0 16 362 1170 0 ?364 365 359 36
0 0 0 1 30 363 1440 0 365 360 366 0 +.0275 -1040834085586084e-32 0 0 -1 0 16 365
 1166 0 ?367 368 362 363 0 0 1 30 366 1439 0 368 363 369 0 +-.0165 .0115 0 1 0 0
 16 368 1160 0 ?370 371 365 366 0 0 1 30 369 1438 0 371 366 372 0 +-.0075 .0055
 0 722801448323671e-31 -1 0 16 371 1154 0 ?373 374 368 369 0 0 1 30 372 1437 0 3
74 369 375 0 +-.0195 -.001999999999999965 0 0 -1 0 16 374 1148 0 ?376 377 371 37
2 0 0 1 30 375 1436 0 377 372 378 0 +.0555 3469446951953615e-33 0 0 -1 0 16 377
 1144 0 ?379 380 374 375 0 0 1 30 378 1435 0 380 375 381 0 +.0505 .005 0 -1 -173
4723475976805e-31 0 16 380 1140 0 ?382 383 377 378 0 0 1 30 381 1434 0 383 378 3
84 0 +.0295 -607153216591882e-32 0 0 -1 0 16 383 1136 0 ?385 386 380 381 0 0 1 3
0 384 1433 0 386 381 387 0 +.0455 -.01 0 0 1 0 16 386 1132 0 ?388 389 383 384 0
 0 1 30 387 1432 0 389 384 390 0 +.0505 -.005 0 -1 -260208521396521e-30 0 16 389
 1128 0 ?391 392 386 387 0 0 1 30 390 1431 0 392 387 393 0 +.0505 -.015 0 -1 0 0
 16 392 1124 0 ?140 274 389 390 0 0 1 30 393 1430 0 274 390 394 0 +.0295 -.02 0
 -346944695195364e-30 1 0 16 274 1120 0 ?273 395 392 393 0 0 1 30 394 1429 0 395
 393 396 0 +.0425 -.025 0 -1 -667201336914156e-30 0 16 395 1116 0 ?275 397 274 3
94 0 0 1 30 396 1428 0 397 394 398 0 +.0555 -.02 0 0 -1 0 16 397 1112 0 ?399 400
 395 396 0 0 1 30 398 1427 0 400 396 401 0 +.0285 -.005 0 -1 0 0 16 400 1108 0 ?
402 403 397 398 0 0 1 30 401 1426 0 403 398 404 0 +.0285 -.015 0 -1 0 0 16 403 1
104 0 ?405 406 400 401 0 0 1 30 404 1425 0 406 401 407 0 +-.0165 -.0035 0 -1 0 0
 16 406 1098 0 ?408 409 403 404 0 0 1 30 407 1653 0 36 404 410 0 +.0555 -.015 .0
02 0 0 -1 16 36 1501 0 ?35 151 411 407 0 0 1 30 410 1654 0 151 407 279 0 +.0555
 -.025 .002 0 0 -1 16 151 1502 0 ?150 268 36 410 0 0 1 30 279 1655 0 268 410 412
 0 +.0295 -.025 .002 0 0 -1 30 412 1656 0 413 279 414 0 +.0555 -.005 .002 0 0 -1
 16 413 1504 0 ?146 415 416 412 0 0 1 30 414 1657 0 415 412 417 0 +.0455 -.005 .
002 0 0 -1 16 415 1505 0 ?143 411 413 414 0 0 1 30 417 1658 0 411 414 418 0 +.04
55 -.015 .002 0 0 -1 16 411 1506 0 ?419 36 415 417 0 0 1 30 418 1659 0 278 417 4
20 0 +.0295 -.015 .002 0 0 -1 16 278 1507 0 ?137 421 268 418 0 0 1 30 420 1660 0
 422 418 423 0 +.0295 -.005 .002 0 0 -1 16 422 1508 0 ?424 425 426 420 0 0 1 30
 423 1661 0 416 420 427 0 +.0555 .005 .002 0 0 -1 16 416 1509 0 ?131 413 428 423
 0 0 1 30 427 1662 0 429 423 430 0 +-.0195 -.0035 .002 0 0 -1 16 429 1510 0 ?128
 431 425 427 0 0 1 30 430 1663 0 431 427 432 0 +-.0075 -.0035 .002 0 0 -1 16 431
 1511 0 ?433 27 429 430 0 0 1 30 432 1664 0 27 430 434 0 +-.0075 .0115 .002 0 0
 -1 16 27 1512 0 ?435 11 431 432 0 0 1 30 434 1665 0 426 432 436 0 +.0275 -.005
 .002 0 0 -1 16 426 1513 0 ?119 422 437 434 0 0 1 30 436 1666 0 438 434 439 0 +-
.0275 -.015 .002 0 0 -1 16 438 1514 0 ?440 441 442 436 0 0 1 30 439 1667 0 421 4
36 443 0 +.0275 -.015 .002 0 0 -1 16 421 1515 0 ?113 444 278 439 0 0 1 30 443 16
68 0 444 439 445 0 +.0275 -.025 .002 0 0 -1 16 444 1516 0 ?110 446 421 443 0 0 1
 30 445 1669 0 446 443 447 0 +-.0455 -.025 .002 0 0 -1 16 446 1517 0 ?107 448 44
4 445 0 0 1 30 447 1670 0 449 445 450 0 +-.0295 .015 .002 0 0 -1 16 449 1518 0 ?
104 451 452 447 0 0 1 30 450 1671 0 442 447 453 0 +-.0295 -.015 .002 0 0 -1 16 4
42 1519 0 ?101 438 454 450 0 0 1 30 453 1672 0 455 450 456 0 +-.0455 -.005 .002
 0 0 -1 16 455 1520 0 ?457 458 302 453 0 0 1 30 456 1673 0 448 453 459 0 +-.0455
 -.015 .002 0 0 -1 16 448 1521 0 ?95 460 446 456 0 0 1 30 459 1674 0 461 456 462
 0 +-.0475 -.025 .002 0 0 -1 16 461 1522 0 ?92 454 460 459 0 0 1 30 462 1675 0 4
54 459 463 0 +-.0555 -.025 .002 0 0 -1 16 454 1523 0 ?89 442 461 462 0 0 1 30 46
3 1676 0 302 462 464 0 +-.0475 -.005 .002 0 0 -1 16 302 1524 0 ?86 455 300 463 0
 0 1 30 464 1677 0 460 463 28 0 +-.0475 -.015 .002 0 0 -1 16 460 1525 0 ?83 461
 448 464 0 0 1 30 28 1678 0 11 464 465 0 +-.0195 .0115 .002 0 0 -1 30 465 1679 0
 466 28 467 0 +-.0275 .015 .002 0 0 -1 16 466 1527 0 ?468 469 470 465 0 0 1 30 4
67 1680 0 428 465 471 0 +.0455 .005 .002 0 0 -1 16 428 1528 0 ?75 416 469 467 0
 0 1 30 471 1681 0 469 467 472 0 +.0455 .015 .002 0 0 -1 16 469 1529 0 ?72 428 4
66 471 0 0 1 30 472 1682 0 437 471 473 0 +.0275 .005 .002 0 0 -1 16 437 1530 0 ?
69 426 474 472 0 0 1 30 473 1683 0 425 472 475 0 +.0295 .005 .002 0 0 -1 16 425
 1531 0 ?66 429 422 473 0 0 1 30 475 1684 0 470 473 476 0 +-.0275 .005 .002 0 0
 -1 16 470 1532 0 ?63 466 451 475 0 0 1 30 476 1685 0 441 475 477 0 +-.0275 -.00
5 .002 0 0 -1 16 441 1533 0 ?478 474 438 476 0 0 1 30 477 1686 0 474 476 479 0 +
-.0295 -.005 .002 0 0 -1 16 474 1534 0 ?57 437 441 477 0 0 1 30 479 1687 0 451 4
77 480 0 +-.0295 .005 .002 0 0 -1 16 451 1535 0 ?54 470 449 479 0 0 1 30 480 168
8 0 452 479 22 0 +-.0555 .015 .002 0 0 -1 16 452 1536 0 ?481 449 21 480 0 0 1 30
 22 1689 0 458 480 8 0 +-.0455 .005 .002 0 0 -1 16 458 1537 0 ?482 21 455 22 0 0
 1 17 482 0 483 98 484 46 485 458 0 486 +16 21 1538 0 ?45 452 458 8 0 0 1 17 45
 0 487 48 162 43 156 21 0 488 +15 487 1613 0 48 19 0 17 48 0 487 485 45 46 488 3
03 0 482 +17 162 0 487 45 485 153 163 409 0 489 -17 488 0 490 329 486 43 48 303
 0 161 -15 490 1093 0 329 491 492 17 329 0 490 493 488 84 161 327 0 0 +17 486 0
 490 488 493 46 98 348 0 0 -17 161 0 159 156 86 43 329 327 0 0 -15 159 1595 0 16
1 494 0 17 86 0 159 161 160 84 495 302 0 341 +17 160 0 159 86 156 202 489 496 0
 0 +17 495 0 497 498 341 202 86 302 0 160 -17 341 0 497 495 457 84 493 339 0 329
 +15 497 1587 0 341 499 0 17 457 0 497 341 498 96 500 455 0 493 +17 493 0 490 48
6 329 96 341 339 0 0 -17 498 0 497 457 495 214 204 501 0 0 -17 500 0 483 484 98
 214 457 455 0 498 -15 483 1581 0 98 502 0 17 484 0 483 482 500 157 216 503 0 0
 -17 98 0 483 500 482 96 486 348 0 457 +17 216 0 504 204 163 214 484 503 0 500 +
16 503 233 0 ?216 505 506 507 0 0 1 16 505 238 0 ?219 508 503 509 0 0 1 16 506 2
23 0 ?510 503 511 512 0 0 1 30 507 235 0 503 512 509 0 +-.0455 -1561251128379125
e-32 .002 0 -1 0 30 512 225 0 506 513 507 0 +-.0295 .01 .002 0 -1 0 30 509 240 0
 505 507 514 0 +-.0285 -.015 .002 -1 0 0 30 514 245 0 508 509 515 0 +-.0455 -.02
 .002 0 -1 0 16 508 243 0 ?225 516 505 514 0 0 1 30 515 250 0 516 514 517 0 +-.0
09 -.025 .002 -1 -665373388045899e-30 0 16 516 248 0 ?518 519 508 515 0 0 1 30 5
17 255 0 519 515 520 0 +.0275 -.02 .002 0 -1 0 16 519 253 0 ?521 522 516 517 0 0
 1 30 520 270 0 522 517 523 0 +-.0275 -.01 .002 0 -1 0 16 522 268 0 ?524 525 519
 520 0 0 1 30 523 280 0 525 520 526 0 +.0275 -1040834085586084e-32 .002 0 -1 0 1
6 525 278 0 ?527 528 522 523 0 0 1 30 526 290 0 528 523 529 0 +-.0165 .0115 .002
 1 0 0 16 528 288 0 ?530 531 525 526 0 0 1 30 529 300 0 531 526 532 0 +-.0075 .0
055 .002 722801448323671e-31 -1 0 16 531 298 0 ?533 534 528 529 0 0 1 30 532 325
 0 534 529 535 0 +-.0195 -.001999999999999965 .002 0 -1 0 16 534 323 0 ?536 537
 531 532 0 0 1 30 535 335 0 537 532 538 0 +.0555 3469446951953615e-33 .002 0 -1
 0 16 537 333 0 ?539 540 534 535 0 0 1 30 538 340 0 540 535 541 0 +.0505 .005 .0
02 -1 -1734723475976805e-31 0 16 540 338 0 ?192 542 537 538 0 0 1 30 541 345 0 5
42 538 543 0 +.0295 -607153216591882e-32 .002 0 -1 0 16 542 343 0 ?544 545 540 5
41 0 0 1 30 543 360 0 545 541 546 0 +.0455 -.01 .002 0 1 0 16 545 358 0 ?261 547
 542 543 0 0 1 30 546 365 0 547 543 296 0 +.0505 -.005 .002 -1 -260208521396521e
-30 0 16 547 363 0 ?548 289 545 546 0 0 1 30 296 370 0 289 546 290 0 +.0505 -.01
5 .002 -1 0 0 16 289 368 0 ?258 271 547 296 0 0 1 17 258 0 280 261 284 256 37 28
9 0 549 +17 261 0 280 550 258 259 551 545 0 552 +17 284 0 280 258 281 12 33 292
 0 0 -17 37 0 154 35 549 12 258 289 0 284 -17 549 0 154 37 140 256 419 411 0 551
 -15 154 1551 0 140 553 0 17 140 0 154 549 35 138 155 392 0 419 +17 419 0 554 38
8 551 138 549 411 0 555 +17 551 0 554 419 552 256 261 545 0 0 -15 554 1555 0 388
 556 0 17 552 0 554 551 388 259 143 415 0 548 -17 388 0 554 552 419 141 555 386
 0 391 +17 143 0 557 558 548 141 552 415 0 388 +17 548 0 557 143 263 259 550 547
 0 0 +15 557 1553 0 558 559 0 17 263 0 557 548 558 262 146 413 0 550 -17 550 0 2
80 560 261 262 548 547 0 539 -17 560 0 280 192 550 247 539 537 0 0 -17 539 0 561
 146 249 262 560 537 0 0 +15 561 1561 0 562 563 0 17 146 0 561 562 539 144 263 4
13 0 558 +17 249 0 561 539 562 247 131 416 0 564 -17 562 0 561 249 146 129 379 3
77 0 0 -17 131 0 565 382 564 129 249 416 0 566 +17 564 0 565 131 567 247 192 540
 0 560 -15 565 1559 0 382 568 0 17 567 0 565 564 382 190 75 428 0 569 -17 192 0
 280 570 560 190 564 540 0 567 +17 570 0 280 195 192 187 569 571 0 0 -17 195 0 2
80 180 570 193 572 573 0 574 +17 569 0 575 75 189 190 570 571 0 0 +16 571 128 0
 ?569 576 573 577 0 0 1 16 576 153 0 ?180 496 571 578 0 0 1 16 573 118 0 ?195 57
1 579 580 0 0 1 30 577 130 0 571 580 578 0 +.0455 .01 .002 0 -1 0 30 580 120 0 5
73 581 577 0 +.0285 .015 .002 -1 0 0 30 578 155 0 576 577 582 0 +-.0275 .01325 .
002 0 -1 0 30 582 175 0 496 578 583 0 +-.0475 -1647987302177965e-32 .002 0 -1 0
 16 496 173 0 ?160 584 576 582 0 0 1 30 583 185 0 584 582 585 0 +-.0475 -.02 .00
2 0 1 0 16 584 183 0 ?201 586 496 583 0 0 1 30 585 195 0 586 583 587 0 +-.0515 -
.025 .002 -1 -867361737988403e-30 0 16 586 193 0 ?588 589 584 585 0 0 1 30 587 2
00 0 589 585 590 0 +-.0465 -.015 .002 -1 0 0 16 589 198 0 ?591 501 586 587 0 0 1
 30 590 210 0 501 587 513 0 +-.0465 -.005 .002 -1 0 0 16 501 208 0 ?204 511 589
 590 0 0 1 30 513 220 0 511 590 512 0 +-.0295 -.01 .002 0 -1 0 16 511 218 0 ?592
 506 501 513 0 0 1 17 592 0 593 101 174 217 594 511 0 0 +15 593 1585 0 595 596 0
 17 101 0 593 595 592 99 597 442 0 352 +17 174 0 593 592 595 172 57 474 0 598 -1
7 594 0 283 599 219 172 592 511 0 0 -15 283 828 0 594 282 600 17 599 0 283 524 5
94 175 598 601 0 602 +17 219 0 283 594 524 217 234 505 0 597 +17 524 0 283 219 5
99 232 177 522 0 603 +17 234 0 604 440 597 232 219 505 0 524 -17 597 0 604 234 3
52 217 101 442 0 592 -15 604 1579 0 352 605 0 17 352 0 604 597 440 99 116 350 0
 344 +17 440 0 604 352 234 114 603 438 0 364 +17 116 0 606 60 344 114 352 350 0
 440 -17 344 0 606 116 607 99 595 342 0 0 +15 606 1095 0 344 491 608 17 607 0 60
6 344 60 55 315 313 0 595 -17 595 0 593 174 101 55 344 342 0 0 -17 60 0 606 607
 116 58 364 362 0 478 -17 315 0 609 602 57 58 607 313 0 0 +15 609 1605 0 315 610
 0 17 602 0 609 598 315 175 478 441 0 0 -17 57 0 609 315 598 55 174 474 0 607 +1
7 598 0 609 57 602 172 599 601 0 594 -16 601 98 0 ?599 579 611 612 0 0 1 16 579
 108 0 ?613 573 601 581 0 0 1 16 611 88 0 ?614 601 615 616 0 0 1 30 612 100 0 60
1 616 581 0 +-.0285 -.005 .002 1 0 0 30 616 90 0 611 617 612 0 +-.0285 .005 .002
 1 0 0 30 581 110 0 579 612 580 0 +.0285 .005 .002 -1 0 0 30 617 85 0 615 618 61
6 0 +-.0555 .01 .002 0 -1 0 16 615 83 0 ?207 611 619 617 0 0 1 30 618 80 0 619 6
20 617 0 +-.0505 .015 .002 -1 0 0 16 619 78 0 ?168 615 409 618 0 0 1 30 620 70 0
 409 0 618 0 +-.0465 .005 .002 1 4336808689942015e-31 0 16 409 68 0 ?163 619 406
 620 0 0 1 17 163 0 504 216 489 157 162 409 0 485 +15 504 857 0 489 282 280 17 4
89 0 504 163 204 153 160 496 0 0 -17 485 0 487 162 48 157 482 458 0 484 -17 204
 0 504 489 216 202 498 501 0 495 +14 255 282 1 0 ?491 621 504 6 622 +0 0 491 621
 25 14 491 1027 0 ?0 282 490 6 623 -0 0 0 282 25 14 621 1540 0 ?282 499 624 6 62
5 -0 0 282 499 25 50 622 3 0 282 0 623 0 +693889390390723e-32 -.005 .002 0 0 1 1
 0 0 13 25 665 0 0 0 0 0 0 10 17 14 17 1564 0 ?626 0 627 6 628 +0 0 626 0 25 14
 626 1568 0 ?629 17 630 6 631 -0 0 629 17 25 15 627 1563 0 632 17 0 50 628 1627
 0 17 633 634 0 +-.0195 -.001999999999999965 .002 1 0 0 0 0 -1 50 633 1626 0 563
 635 628 0 +.0555 3469446951953615e-33 .002 1 0 0 0 0 -1 50 634 1628 0 629 628 6
31 0 +-.0075 .0055 .002 1 722801448323671e-31 0 -722801448323671e-31 1 0 14 629
 1566 0 ?636 626 637 6 634 -0 0 636 626 25 50 631 1629 0 626 634 638 0 +-.0165 .
0115 .002 0 1 0 0 0 1 50 638 1630 0 639 631 640 0 +.0275 -1040834085586084e-32 .
002 1 0 0 0 0 -1 14 639 1570 0 ?605 502 641 6 638 +0 0 605 502 25 50 640 1631 0
 642 638 643 0 +-.0275 -.01 .002 1 0 0 0 0 -1 14 642 1572 0 ?644 610 645 6 640 -
0 0 644 610 25 50 643 1632 0 646 640 647 0 +.0275 -.02 .002 1 0 0 0 0 -1 14 646
 1574 0 ?648 649 650 6 643 +0 0 648 649 25 50 647 1633 0 649 643 651 0 +-.009 -.
025 .002 665373388045899e-30 -1 0 1 665373388045899e-30 0 14 649 1576 0 ?646 652
 653 6 647 +0 0 646 652 25 50 651 1634 0 652 647 654 0 +-.0455 -.02 .002 1 0 0 0
 0 -1 14 652 1578 0 ?649 655 656 6 651 -0 0 649 655 25 50 654 1635 0 605 651 657
 0 +-.0285 -.015 .002 0 -1 0 0 0 -1 14 605 1580 0 ?658 639 604 6 654 -0 0 658 63
9 25 50 657 1636 0 502 654 659 0 +-.0455 -1561251128379125e-32 .002 1 0 0 0 0 -1
 14 502 1582 0 ?639 19 483 6 657 -0 0 639 19 25 50 659 1637 0 660 657 661 0 +-.0
295 .01 .002 1 0 0 0 0 -1 14 660 1584 0 ?494 662 663 6 659 +0 0 494 662 25 50 66
1 1638 0 596 659 664 0 +-.0295 -.01 .002 1 0 0 0 0 -1 14 596 1586 0 ?610 665 593
 6 661 +0 0 610 665 25 50 664 1639 0 499 661 666 0 +-.0465 -.005 .002 0 -1 0 0 0
 -1 14 499 1588 0 ?621 658 497 6 664 -0 0 621 658 25 50 666 1640 0 655 664 667 0
 +-.0465 -.015 .002 0 -1 0 0 0 -1 14 655 1590 0 ?652 668 669 6 666 +0 0 652 668
 25 50 667 1641 0 670 666 671 0 +-.0515 -.025 .002 867361737988403e-30 -1 0 1 86
7361737988403e-30 0 14 670 1592 0 ?668 644 672 6 667 +0 0 668 644 25 50 671 1642
 0 668 667 673 0 +-.0475 -.02 .002 -1 0 0 0 0 1 14 668 1594 0 ?655 670 674 6 671
 -0 0 655 670 25 50 673 1643 0 494 671 675 0 +-.0475 -1647987302177965e-32 .002
 1 0 0 0 0 -1 14 494 1596 0 ?19 660 159 6 673 +0 0 19 660 25 50 675 1644 0 676 6
73 677 0 +-.0275 .01325 .002 1 0 0 0 0 -1 14 676 1598 0 ?662 678 679 6 675 -0 0
 662 678 25 50 677 1645 0 680 675 681 0 +.0455 .01 .002 1 0 0 0 0 -1 14 680 1600
 0 ?678 568 575 6 677 +0 0 678 568 25 50 681 1646 0 678 677 682 0 +.0285 .015 .0
02 0 -1 0 0 0 -1 14 678 1602 0 ?676 680 683 6 681 -0 0 676 680 25 50 682 1647 0
 636 681 684 0 +.0285 .005 .002 0 -1 0 0 0 -1 14 636 1604 0 ?685 629 686 6 682 +
0 0 685 629 25 50 684 1648 0 610 682 687 0 +-.0285 -.005 .002 0 1 0 0 0 1 14 610
 1606 0 ?642 596 609 6 684 -0 0 642 596 25 50 687 1649 0 662 684 688 0 +-.0285 .
005 .002 0 1 0 0 0 1 14 662 1608 0 ?660 676 689 6 687 +0 0 660 676 25 50 688 165
0 0 644 687 20 0 +-.0555 .01 .002 1 0 0 0 0 -1 14 644 1610 0 ?670 642 690 6 688
 -0 0 670 642 25 50 20 1651 0 658 688 7 0 +-.0505 .015 .002 0 -1 0 0 0 -1 14 658
 1612 0 ?499 605 691 6 20 -0 0 499 605 25 15 691 1611 0 51 658 0 17 51 0 691 692
 104 49 693 305 0 481 +17 692 0 691 694 51 164 481 452 0 695 -17 104 0 691 51 69
4 102 222 449 0 693 +17 693 0 492 347 696 102 51 305 0 697 -17 481 0 690 309 695
 49 692 452 0 696 +15 690 1609 0 309 644 0 17 309 0 690 698 481 87 696 307 0 335
 +17 695 0 690 481 698 164 207 615 0 0 -17 696 0 492 693 335 49 309 307 0 0 -15
 492 1094 0 696 491 606 17 335 0 492 696 699 87 700 333 0 0 +17 699 0 492 335 33
8 90 332 330 0 700 -17 700 0 672 210 89 90 335 333 0 0 -15 672 1591 0 700 670 0
 17 210 0 672 588 700 208 92 461 0 701 -17 89 0 672 700 588 87 698 454 0 309 +17
 588 0 672 89 210 205 702 586 0 0 +17 698 0 690 695 309 205 89 454 0 588 -17 702
 0 280 201 207 208 588 586 0 0 -17 201 0 280 703 702 199 701 584 0 704 +17 207 0
 280 702 168 205 695 615 0 698 +17 168 0 280 207 705 164 694 619 0 692 +17 705 0
 280 168 706 220 510 506 0 0 -17 694 0 691 104 692 220 168 619 0 705 -17 706 0 2
80 705 180 169 614 611 0 510 -17 510 0 663 54 222 169 705 506 0 0 +15 663 1583 0
 697 660 0 17 54 0 663 697 510 52 171 451 0 707 +17 222 0 663 510 697 220 104 44
9 0 694 -17 697 0 663 222 54 102 347 345 0 0 -17 347 0 492 312 693 52 697 345 0
 0 +17 312 0 492 708 347 61 707 310 0 0 +17 708 0 492 709 312 76 326 324 0 0 -17
 707 0 689 171 63 52 312 310 0 347 -15 689 1607 0 707 662 0 17 171 0 689 614 707
 169 54 451 0 706 -17 63 0 689 707 614 61 710 470 0 326 +17 614 0 689 63 171 178
 706 611 0 0 +17 710 0 679 711 326 178 63 470 0 614 -17 326 0 679 710 468 61 708
 324 0 312 +15 679 1597 0 326 676 0 17 468 0 679 326 711 76 574 466 0 708 +17 71
1 0 679 468 710 193 180 576 0 0 -17 574 0 683 572 78 193 468 466 0 711 -15 683 1
601 0 78 678 0 17 572 0 683 72 574 187 195 573 0 570 -17 78 0 683 574 72 76 709
 319 0 468 +17 72 0 683 78 572 70 189 469 0 709 +17 709 0 492 323 708 70 78 319
 0 712 -17 323 0 492 566 709 73 712 321 0 0 +17 712 0 575 189 75 70 323 321 0 0
 -15 575 1599 0 712 680 0 17 189 0 575 569 712 187 72 469 0 572 -17 75 0 575 712
 569 73 567 428 0 382 +17 382 0 565 567 131 73 566 380 0 323 +17 566 0 492 379 3
23 129 382 380 0 562 -17 379 0 492 391 566 144 562 377 0 0 +17 391 0 492 555 379
 141 558 389 0 0 +17 555 0 492 155 391 138 388 386 0 0 -17 558 0 557 263 143 144
 391 389 0 379 -17 155 0 492 399 555 23 140 392 0 34 -17 399 0 492 275 155 149 3
4 397 0 0 +17 34 0 32 29 150 23 399 397 0 0 -15 32 1545 0 34 713 0 14 713 1546 0
 ?553 291 32 6 714 +0 0 553 291 25 14 553 1552 0 ?556 713 154 6 715 -0 0 556 713
 25 14 291 1548 0 ?713 270 276 6 716 +0 0 713 270 25 50 714 1618 0 713 717 716 0
 +.0555 -.02 .002 1 0 0 0 0 -1 50 717 1617 0 665 718 714 0 +.0285 -.005 .002 0 -
1 0 0 0 -1 50 716 1619 0 291 714 719 0 +.0425 -.025 .002 667201336914156e-30 -1
 0 1 667201336914156e-30 0 50 719 1620 0 270 716 715 0 +.0295 -.02 .002 -1 -3469
44695195364e-30 0 346944695195364e-30 -1 0 14 270 1550 0 ?291 648 265 6 719 +0 0
 291 648 25 50 715 1621 0 553 719 720 0 +.0505 -.015 .002 0 -1 0 0 0 -1 50 720 1
622 0 559 715 721 0 +.0505 -.005 .002 260208521396521e-30 -1 0 1 260208521396521
e-30 0 14 559 1554 0 ?563 556 557 6 720 +0 0 563 556 25 50 721 1623 0 556 720 72
2 0 +.0455 -.01 .002 -1 0 0 0 0 1 14 556 1556 0 ?559 553 554 6 721 -0 0 559 553
 25 50 722 1624 0 685 721 635 0 +.0295 -607153216591882e-32 .002 1 0 0 0 0 -1 14
 685 1558 0 ?665 636 723 6 722 -0 0 665 636 25 50 635 1625 0 568 722 633 0 +.050
5 .005 .002 1734723475976805e-31 -1 0 1 1734723475976805e-31 0 14 568 1560 0 ?68
0 563 565 6 635 -0 0 680 563 25 14 563 1562 0 ?568 559 561 6 633 +0 0 568 559 25
 14 665 1544 0 ?596 685 724 6 717 -0 0 596 685 25 15 723 1557 0 385 685 0 17 385
 0 723 725 66 132 726 383 0 0 +17 725 0 723 727 385 250 424 422 0 0 -17 66 0 723
 385 727 64 183 425 0 726 +17 726 0 608 318 134 64 385 383 0 728 -15 608 1096 0
 318 491 729 17 318 0 608 367 726 67 728 316 0 0 +17 134 0 608 726 367 132 402 4
00 0 424 -17 728 0 686 183 69 64 318 316 0 0 -15 686 1603 0 728 636 0 17 183 0 6
86 613 728 181 66 425 0 727 -17 69 0 686 728 613 67 186 437 0 730 +17 613 0 686
 69 183 184 731 579 0 0 +17 186 0 641 527 730 184 69 437 0 732 -17 730 0 641 186
 119 67 367 365 0 318 -15 641 1569 0 730 639 0 17 119 0 641 730 527 117 733 426
 0 402 +17 367 0 608 134 318 117 730 365 0 0 +17 527 0 641 119 186 235 732 525 0
 0 +17 733 0 724 252 402 235 119 426 0 527 -17 402 0 724 733 424 117 134 400 0 3
67 +15 724 1543 0 402 665 0 17 424 0 724 402 252 132 725 422 0 385 +17 252 0 724
 424 733 250 237 294 0 544 -17 237 0 600 732 544 235 252 294 0 733 +17 544 0 600
 237 731 250 727 542 0 725 +15 600 14 0 731 282 734 17 731 0 600 544 732 181 613
 579 0 0 -17 727 0 723 66 725 181 544 542 0 731 -17 732 0 600 731 237 184 527 52
5 0 613 -15 734 754 0 735 282 0 17 735 0 734 530 246 196 536 534 0 0 -17 530 0 7
34 533 735 238 736 528 0 737 +17 246 0 734 735 533 244 243 300 0 738 +17 536 0 6
27 128 198 244 735 534 0 0 +17 128 0 627 632 536 126 738 429 0 408 +17 198 0 627
 536 632 196 26 11 0 736 -17 632 0 627 198 128 79 376 374 0 0 -17 26 0 630 370 7
36 79 198 11 0 739 +17 736 0 630 26 737 196 530 528 0 735 -15 630 1567 0 370 626
 0 17 737 0 630 736 370 238 435 27 0 0 -17 370 0 630 737 26 120 739 368 0 0 +17
 435 0 637 373 240 120 737 27 0 370 +15 637 1565 0 373 629 0 17 373 0 637 740 43
5 123 122 371 0 0 +17 240 0 637 435 740 238 533 531 0 530 -17 740 0 637 240 373
 241 433 431 0 0 -17 533 0 734 246 530 241 240 531 0 740 +17 433 0 624 408 243 1
23 740 431 0 373 +15 624 1539 0 408 621 0 17 408 0 624 738 433 126 125 406 0 376
 +17 243 0 624 433 738 241 246 300 0 533 -17 738 0 624 243 408 244 128 429 0 536
 -17 125 0 729 122 376 123 408 406 0 433 -17 376 0 729 125 739 126 632 374 0 0 +
15 729 1097 0 376 491 0 17 739 0 729 376 122 79 370 368 0 632 -17 122 0 729 739
 125 120 373 371 0 435 -14 648 1542 0 ?270 646 741 6 718 +0 0 270 646 25 15 741
 1541 0 742 648 0 50 718 1616 0 648 625 717 0 +.0285 -.015 .002 0 -1 0 0 0 -1 50
 625 1615 0 621 623 718 0 +-.0165 -.0035 .002 0 -1 0 0 0 -1 50 623 1424 0 491 62
2 625 0 +693889390390723e-32 -.005 0 0 0 1 1 0 0 17 742 0 741 255 113 135 405 40
3 0 0 -17 255 0 741 287 742 253 137 278 0 266 -17 113 0 741 742 287 111 231 421
 0 743 +17 405 0 492 361 273 111 742 403 0 0 +17 361 0 492 358 405 108 743 359 0
 0 +17 273 0 492 405 275 135 267 274 0 742 +17 275 0 492 273 399 147 152 395 0 0
 +17 152 0 276 38 148 149 275 395 0 399 -17 358 0 492 744 361 105 745 356 0 0 +1
7 743 0 650 231 110 111 361 359 0 405 -15 650 1573 0 743 646 0 17 231 0 650 521
 743 229 113 421 0 286 -17 110 0 650 743 521 108 228 444 0 745 +17 521 0 650 110
 231 226 286 519 0 0 +17 228 0 653 518 745 226 110 444 0 746 -17 745 0 653 228 1
07 108 358 356 0 361 -15 653 1575 0 745 649 0 17 107 0 653 745 518 105 747 446 0
 355 +17 518 0 653 107 228 223 746 516 0 0 +17 747 0 656 748 355 223 107 446 0 5
18 -17 355 0 656 747 95 105 744 353 0 358 +15 656 1577 0 355 652 0 17 95 0 656 3
55 748 93 213 448 0 744 +17 744 0 492 338 358 93 355 353 0 749 -17 338 0 492 699
 744 81 749 336 0 0 +17 749 0 669 213 83 93 338 336 0 0 -15 669 1589 0 749 655 0
 17 213 0 669 591 749 211 95 448 0 748 -17 83 0 669 749 591 81 704 460 0 332 +17
 591 0 669 83 213 199 703 589 0 0 +17 704 0 674 701 332 199 83 460 0 591 -17 332
 0 674 704 92 81 699 330 0 338 +15 674 1593 0 332 668 0 17 92 0 674 332 701 90 2
10 461 0 699 +17 701 0 674 92 704 208 201 584 0 702 -17 703 0 280 225 201 211 59
1 589 0 0 -17 225 0 280 746 703 223 748 508 0 747 +17 746 0 280 286 225 226 518
 516 0 521 -17 748 0 656 95 747 211 225 508 0 703 -17 286 0 280 272 746 229 521
 519 0 287 -17 287 0 741 113 255 229 272 288 0 0 +17 137 0 265 267 266 135 255 2
78 0 273 +17 180 0 280 706 195 178 711 576 0 710 +14 19 1614 0 ?502 494 487 6 7
 -0 0 502 494 25 15 645 1571 0 364 642 0 17 364 0 645 603 478 114 60 362 0 0 +17
 603 0 645 177 364 232 440 438 0 0 -17 478 0 645 364 177 58 602 441 0 315 +17 17
7 0 645 478 603 175 524 522 0 599 -17 33 0 32 150 29 30 284 292 0 0 +19 18 1692
 0 1 0 10 6 0 S0 74 4 CI16 index_map_offset0 0 1 dCCZ20 16 3 0 0 750 14 2 0 0 0
 0 0 0 0 0 0 0 0 0 0 0 0 0 0 81 1 750 2050 751 1 0 14 0 0 752 81 1 14 2051 753 1
 750 2 0 0 754 80 7 CCCCCDI12 legal_owners0 17 1 lCZ1 753 13 755 8038 0 0 0 0 0
 0 0 0 0 TTTTTTTTTTTTTFTFT10 98 255 6 754 80 97 114 116 32 49 79 255 14 755 SDL/
TYSA_UNAME80 1 751 756 757 8040 0 0 0 0 3 5 0 0 0 TTTFFFFFFFFFFFFFF2 83 255 3 75
2 .615686274509804 .811764705882353 .929411764705882 79 17 757 SDL/TYSA_COLOUR_2
80 1 13 758 759 8017 0 0 0 0 0 0 0 0 0 TTTTTTTTTTTTTFTFT3 84 255 6 15 Part 179 1
3 759 SDL/TYSA_NAME1 0 
