**ABCDEFGHIJKLMNOPQRSTUVWXYZabcdefghijklmnopqrstuvwxyz**************************
**PARASOLID !"#$%&'()*+,-./:;<=>?@[\]^_`{|}~0123456789**************************
**PART1;
MC=unknown;
MC_MODEL=unknown;
MC_ID=unknown;
OS=unknown;
OS_RELEASE=unknown;
FRU=Parasolid 37.0.209;
APPL=Onshape;
SITE=unknown;
USER=unknown;
FORMAT=text;
GUISE=transmit;
KEY=BTGapi::writeModels_.xmt;
FILE=BTGapi::writeModels_.xmt;
DATE=2025-03-16T16:43:44 (UTC);
**PART2;
SCH=SCH_3700209_36001;
USFLD_SIZE=0;
**PART3;
**END_OF_HEADER*****************************************************************
T51 : TRANSMIT FILE created by modeller version 370020923 SCH_3700209_36001_1300
6231 0 12 36 CCCI7 lattice222 0 CCCI4 mesh1006 0 I8 polyline1008 0 CCCCCCCDI5 ow
ner1040 0 CCCI16 boundary_lattice222 0 CCCI13 boundary_mesh1006 0 I17 boundary_p
olyline1008 0 CCCA16 index_map_offset0 0 1 dA9 index_map82 0 A17 node_id_index_m
ap82 0 A20 schema_embedding_map82 0 A5 child12 0 A14 lowest_node_id0 0 1 dA16 me
sh_offset_data206 0 Z1 744 2 3 0 0 0 0 0 0 0 1e3 1e-8 0 4 5 1 0 1 2 6 0 7 8 9 0
 0 10 11 12 0 0 0 0 0 0 0 81 255 1 2 744 13 1 14 0 0 0 15 70 11 CI9 list_type0 0
 1 uI10 notransmit0 0 1 lCCCDCCDI12 finger_index0 0 1 dI12 finger_block1012 0 CZ
3 0 4 T1 0 0 3 20 1 16 16 13 255 6 604 0 1 0 17 0 0 18 0 50 255 7 589 0 17 19 0
 0 +-.007 .033 .002 1734723475976795e-30 -1 0 1 1734723475976795e-30 0 30 255 8
 603 0 11 20 0 0 +-.009 .033 .002 0 0 -1 29 255 9 520 0 21 22 0 -.015 .007 0 19
 9 CCCCCCI5 frame230 0 CA5 owner12 0 Z10 263 0 1 18 0 23 0 V0 16 255 11 547 0 ?2
4 0 25 8 0 0 1 18 255 12 257 0 26 0 27 28 ?1 17 255 26 0 29 30 31 12 32 33 0 34
 +18 27 252 0 31 12 35 36 ?1 29 28 259 0 12 36 37 -.015 .007 .002 29 36 254 0 27
 38 28 -.015 .023 .002 29 37 533 0 39 28 40 -.009 .033 0 18 39 501 0 41 42 0 37
 ?1 29 40 532 0 42 37 43 -.009 .023 0 18 42 497 0 44 45 39 40 ?1 29 43 531 0 45
 40 46 .009 .023 0 18 45 493 0 47 48 42 43 ?1 29 46 530 0 48 43 49 -.009 -.033 0
 18 48 489 0 50 51 45 46 ?1 29 49 529 0 51 46 52 .009 -.033 0 18 51 485 0 53 54
 48 49 ?1 29 52 528 0 54 49 55 .009 -.002 0 18 54 481 0 56 57 51 52 ?1 29 55 527
 0 57 52 58 .009 .008 0 18 57 477 0 59 60 54 55 ?1 29 58 526 0 60 55 61 -.009 .0
07 0 18 60 473 0 62 63 57 58 ?1 29 61 525 0 63 58 64 .021 .023 0 18 63 469 0 65
 66 60 61 ?1 29 64 524 0 66 61 67 .021 .033 0 18 66 465 0 68 69 63 64 ?1 29 67 5
23 0 69 64 70 .021 -.002 0 18 69 461 0 71 72 66 67 ?1 29 70 522 0 72 67 22 .021
 .008 0 18 72 457 0 73 74 69 70 ?1 29 22 521 0 74 70 9 -.015 .023 0 18 74 453 0
 75 21 72 22 ?1 17 75 0 76 77 78 74 79 80 0 81 +18 21 449 0 82 83 74 9 ?1 17 82
 0 84 85 86 21 34 87 0 88 +18 83 157 0 89 90 21 91 ?1 17 89 0 92 24 93 83 94 95
 0 96 -18 90 162 0 94 97 83 98 ?1 29 91 159 0 83 0 98 -.009 .033 .002 29 98 164
 0 90 91 99 -.009 .023 .002 29 99 169 0 97 98 100 .009 .023 .002 18 97 167 0 101
 102 90 99 ?1 29 100 189 0 102 99 103 -.009 -.033 .002 18 102 187 0 104 105 97 1
00 ?1 29 103 204 0 105 100 106 .009 -.033 .002 18 105 202 0 107 108 102 103 ?1 2
9 106 209 0 108 103 109 .009 -.002 .002 18 108 207 0 110 111 105 106 ?1 29 109 2
19 0 111 106 112 .009 .008 .002 18 111 217 0 113 114 108 109 ?1 29 112 224 0 114
 109 115 -.009 .007 .002 18 114 222 0 116 117 111 112 ?1 29 115 229 0 117 112 11
8 .021 .023 .002 18 117 227 0 119 120 114 115 ?1 29 118 234 0 120 115 121 .021 .
033 .002 18 120 232 0 122 123 117 118 ?1 29 121 239 0 123 118 38 .021 -.002 .002
 18 123 237 0 124 35 120 121 ?1 29 38 249 0 35 121 36 .021 .008 .002 18 35 247 0
 125 27 123 38 ?1 17 125 0 126 127 128 35 73 129 0 130 -15 255 126 556 0 128 131
 0 17 127 0 126 71 125 123 130 132 0 0 +17 128 0 126 125 71 72 133 134 0 135 -17
 73 0 136 137 138 72 125 129 0 128 +16 129 536 0 ?73 139 140 141 0 0 1 17 130 0
 29 142 124 35 127 132 0 138 -15 29 6 0 96 143 0 17 142 0 29 144 130 111 138 145
 0 146 -17 124 0 29 130 147 123 148 149 0 150 +16 132 127 0 ?127 145 149 151 0 0
 1 17 138 0 136 73 113 35 142 145 0 0 +15 136 554 0 137 152 0 17 113 0 136 138 1
37 111 59 140 0 142 -16 145 137 0 ?138 153 132 154 0 0 1 16 153 142 0 ?31 33 145
 155 0 0 1 30 154 139 0 145 151 155 0 +.015 .008 .002 1 0 0 30 151 129 0 132 156
 154 0 +.021 -.001 .002 0 -1 0 30 155 144 0 153 154 157 0 +-.012 .023 .002 -1 0
 0 30 157 149 0 33 155 158 0 +-.015 .015 .002 3252606517456515e-31 -1 0 16 33 14
7 0 ?26 159 153 157 0 0 1 30 158 154 0 159 157 160 0 +-.012 .007 .002 -1 -144560
289664734e-30 0 16 159 152 0 ?86 161 33 158 0 0 1 30 160 519 0 162 158 163 0 +-.
007 .033 0 -1 -1734723475976795e-30 0 16 162 439 0 ?164 165 0 160 0 0 1 30 163 5
18 0 165 160 166 0 +-.009 .028 0 3469446951953615e-31 -1 0 16 165 435 0 ?44 167
 162 163 0 0 1 30 166 517 0 167 163 168 0 +-.009 .0035 0 247817639425258e-30 -1
 0 16 167 431 0 ?169 170 165 166 0 0 1 30 168 516 0 170 166 171 0 +-.007 -.033 0
 -1 0 0 16 170 423 0 ?172 173 167 168 0 0 1 30 171 515 0 173 168 174 0 +.009 -.0
175 0 3357529308342205e-31 -1 0 16 173 419 0 ?175 176 170 171 0 0 1 30 174 514 0
 176 171 177 0 +.009 .0155 0 3469446951953615e-31 -1 0 16 176 415 0 ?178 179 173
 174 0 0 1 30 177 513 0 179 174 180 0 +.015 .023 0 1 289120579329467e-30 0 16 17
9 411 0 ?65 181 176 177 0 0 1 30 180 512 0 181 177 182 0 +.021 .028 0 0 1 0 16 1
81 407 0 ?68 183 179 180 0 0 1 30 182 511 0 183 180 184 0 +.015 -.002 0 1 0 0 16
 183 403 0 ?185 134 181 182 0 0 1 30 184 510 0 134 182 186 0 +.021 -.001 0 0 -1
 0 16 134 397 0 ?133 187 183 184 0 0 1 30 186 509 0 187 184 188 0 +.015 .008 0 1
 0 0 16 187 393 0 ?135 80 134 186 0 0 1 30 188 508 0 80 186 189 0 +-.012 .023 0
 -1 0 0 16 80 389 0 ?75 190 187 188 0 0 1 30 189 507 0 190 188 191 0 +-.015 .015
 0 3252606517456515e-31 -1 0 16 190 385 0 ?88 192 80 189 0 0 1 30 191 506 0 192
 189 193 0 +-.012 .007 0 -1 -144560289664734e-30 0 16 192 381 0 ?194 195 190 191
 0 0 1 30 193 590 0 87 191 196 0 +-.015 .007 .002 0 0 -1 16 87 534 0 ?82 197 198
 193 0 0 1 30 196 591 0 197 193 141 0 +-.015 .023 .002 0 0 -1 16 197 535 0 ?81 2
5 87 196 0 0 1 30 141 592 0 129 196 199 0 +.021 .008 .002 0 0 -1 30 199 593 0 13
9 141 200 0 +.021 -.002 .002 0 0 -1 16 139 537 0 ?71 201 129 199 0 0 1 30 200 59
4 0 161 199 202 0 +.021 .033 .002 0 0 -1 16 161 538 0 ?203 204 159 200 0 0 1 30
 202 595 0 204 200 205 0 +.021 .023 .002 0 0 -1 16 204 539 0 ?206 207 161 202 0
 0 1 30 205 596 0 198 202 208 0 +-.009 .007 .002 0 0 -1 16 198 540 0 ?62 87 209
 205 0 0 1 30 208 597 0 140 205 210 0 +.009 .008 .002 0 0 -1 16 140 541 0 ?59 12
9 207 208 0 0 1 30 210 598 0 201 208 211 0 +.009 -.002 .002 0 0 -1 16 201 542 0
 ?56 212 139 210 0 0 1 30 211 599 0 212 210 213 0 +.009 -.033 .002 0 0 -1 16 212
 543 0 ?53 209 201 211 0 0 1 30 213 600 0 209 211 214 0 +-.009 -.033 .002 0 0 -1
 16 209 544 0 ?50 198 212 213 0 0 1 30 214 601 0 207 213 20 0 +.009 .023 .002 0
 0 -1 16 207 545 0 ?47 140 204 214 0 0 1 30 20 602 0 25 214 8 0 +-.009 .023 .002
 0 0 -1 16 25 546 0 ?78 11 197 20 0 0 1 17 78 0 76 75 215 42 93 25 0 79 +15 76 5
52 0 75 216 0 17 215 0 76 78 77 90 31 153 0 0 -17 93 0 92 89 44 90 78 25 0 215 -
17 79 0 217 41 218 42 75 80 0 0 -15 217 380 0 219 220 0 17 41 0 217 219 79 39 44
 165 0 24 -17 218 0 217 79 194 74 88 190 0 0 -17 194 0 217 218 221 21 85 192 0 0
 +17 88 0 222 34 81 21 218 190 0 194 +15 222 550 0 88 223 0 17 34 0 222 32 88 12
 82 87 0 86 -17 81 0 222 88 32 74 77 197 0 218 +17 32 0 222 81 34 27 26 33 0 0 -
17 77 0 76 215 75 27 81 197 0 32 -17 86 0 84 82 116 12 30 159 0 0 +15 84 548 0 8
5 224 0 17 116 0 84 86 85 114 62 198 0 225 -17 30 0 29 104 26 114 86 159 0 0 -17
 104 0 29 226 30 102 225 227 0 228 +17 226 0 29 147 104 105 229 230 0 231 -17 22
5 0 232 62 228 114 104 227 0 30 -16 227 57 0 ?104 230 95 233 0 0 1 17 228 0 232
 225 169 102 50 209 0 229 -15 232 570 0 169 234 0 17 169 0 232 228 62 48 221 167
 0 172 +17 50 0 235 236 229 48 228 209 0 169 +17 229 0 235 50 107 102 226 230 0
 0 +15 235 568 0 236 237 0 17 107 0 235 229 236 105 53 212 0 226 -16 230 62 0 ?2
29 238 227 239 0 0 1 16 238 77 0 ?231 240 230 241 0 0 1 30 239 64 0 230 233 241
 0 +-.007 -.033 .002 -1 0 0 30 233 59 0 227 242 239 0 +-.009 .0035 .002 24781763
9425258e-30 -1 0 30 241 79 0 238 239 243 0 +.009 -.0175 .002 3357529308342205e-3
1 -1 0 30 243 94 0 240 241 244 0 +.009 .0155 .002 3469446951953615e-31 -1 0 16 2
40 92 0 ?146 245 238 243 0 0 1 30 244 104 0 245 243 246 0 +.015 .023 .002 1 2891
20579329467e-30 0 16 245 102 0 ?119 247 240 244 0 0 1 30 246 109 0 247 244 156 0
 +.021 .028 .002 0 1 0 16 247 107 0 ?122 149 245 246 0 0 1 30 156 124 0 149 246
 151 0 +.015 -.002 .002 1 0 0 16 149 122 0 ?124 132 247 156 0 0 1 17 122 0 29 96
 119 120 248 247 0 249 +17 96 0 29 94 122 83 250 195 0 251 +17 119 0 29 122 144
 117 252 245 0 253 +17 248 0 254 206 249 117 122 247 0 0 -17 249 0 254 248 68 12
0 203 161 0 250 -15 254 560 0 68 255 0 17 68 0 254 249 206 66 256 181 0 203 +17
 203 0 257 164 250 66 249 161 0 219 +17 250 0 257 203 251 120 96 195 0 0 -15 257
 574 0 164 17 0 17 251 0 257 250 164 83 24 11 0 0 -16 195 27 0 ?96 95 192 258 0
 0 1 16 95 32 0 ?94 227 195 242 0 0 1 30 258 29 0 195 0 242 0 +-.007 .033 .002 -
1 -1734723475976795e-30 0 30 242 34 0 95 258 233 0 +-.009 .028 .002 346944695195
3615e-31 -1 0 17 94 0 29 31 96 90 89 95 0 93 +17 31 0 29 26 94 27 215 153 0 77 +
17 164 0 257 251 203 39 219 162 0 0 +17 24 0 92 44 89 39 251 11 0 164 +15 92 572
 0 44 259 0 17 44 0 92 93 24 42 41 165 0 78 +14 255 259 573 0 ?216 17 92 6 19 -0
 0 216 17 23 14 216 553 0 ?223 259 76 6 260 -0 0 223 259 23 14 17 575 0 ?259 0 2
57 6 7 -0 0 259 0 23 50 19 588 0 259 261 7 0 +-.009 .028 .002 1 3469446951953615
e-31 0 -3469446951953615e-31 1 0 13 23 264 0 0 0 0 0 0 10 17 50 261 587 0 234 26
2 19 0 +-.009 .0035 .002 1 2478176394252585e-31 0 -2478176394252585e-31 1 0 14 2
34 571 0 ?237 224 232 6 261 -0 0 237 224 23 50 262 586 0 237 263 261 0 +-.007 -.
033 .002 0 -1 0 0 0 -1 14 237 569 0 ?264 234 235 6 262 +0 0 264 234 23 50 263 58
5 0 264 265 262 0 +.009 -.0175 .002 1 3357529308342205e-31 0 -3357529308342205e-
31 1 0 14 264 567 0 ?266 237 267 6 263 +0 0 266 237 23 50 265 584 0 268 269 263
 0 +.009 .0155 .002 1 3469446951953615e-31 0 -3469446951953615e-31 1 0 14 268 56
5 0 ?270 152 271 6 265 +0 0 270 152 23 50 269 583 0 270 272 265 0 +.015 .023 .00
2 -289120579329467e-30 1 0 -1 -289120579329467e-30 0 14 270 563 0 ?255 268 273 6
 269 -0 0 255 268 23 50 272 582 0 255 274 269 0 +.021 .028 .002 -1 0 0 0 0 1 14
 255 561 0 ?143 270 254 6 272 -0 0 143 270 23 50 274 581 0 266 275 272 0 +.015 -
.002 .002 0 1 0 0 0 1 14 266 559 0 ?131 264 276 6 274 -0 0 131 264 23 50 275 580
 0 131 277 274 0 +.021 -.001 .002 1 0 0 0 0 -1 14 131 557 0 ?152 266 126 6 275 +
0 0 152 266 23 50 277 579 0 152 260 275 0 +.015 .008 .002 0 1 0 0 0 1 14 152 555
 0 ?268 131 136 6 277 +0 0 268 131 23 50 260 578 0 216 278 277 0 +-.012 .023 .00
2 0 -1 0 0 0 -1 50 278 577 0 223 279 260 0 +-.015 .015 .002 1 3252606517456515e-
31 0 -3252606517456515e-31 1 0 14 223 551 0 ?224 216 222 6 278 -0 0 224 216 23 5
0 279 576 0 224 280 278 0 +-.012 .007 .002 144560289664734e-30 -1 0 1 1445602896
64734e-30 0 14 224 549 0 ?234 223 84 6 279 +0 0 234 223 23 50 280 505 0 220 281
 279 0 +.0115 -693889390390723e-32 0 0 0 1 1 0 0 14 220 352 0 ?0 143 217 6 280 -
0 0 0 143 23 50 281 3 0 143 0 280 0 +.0115 -693889390390723e-32 .002 0 0 1 1 0 0
 14 143 1 0 ?220 255 29 6 281 +0 0 220 255 23 15 276 558 0 185 266 0 17 185 0 27
6 150 56 69 282 183 0 133 +17 150 0 276 148 185 123 71 139 0 127 -17 56 0 276 18
5 148 54 110 201 0 282 +17 282 0 217 175 133 54 185 183 0 283 -17 133 0 217 282
 135 69 128 134 0 0 +17 135 0 217 133 178 72 137 187 0 0 +17 178 0 217 135 284 5
7 285 176 0 0 +17 137 0 136 113 73 57 135 187 0 178 -17 284 0 217 178 256 45 65
 179 0 285 -17 285 0 271 101 59 45 178 176 0 0 -15 271 564 0 285 268 0 17 101 0
 271 146 285 97 47 207 0 252 -17 59 0 271 285 146 57 113 140 0 137 +17 146 0 271
 59 101 111 144 240 0 0 +17 144 0 29 119 142 97 146 240 0 0 -17 47 0 273 65 252
 45 101 207 0 284 +17 252 0 273 47 253 97 119 245 0 144 -15 273 562 0 65 270 0 1
7 253 0 273 252 65 117 206 204 0 248 -17 65 0 273 253 47 63 284 179 0 206 +17 20
6 0 254 68 248 63 253 204 0 256 +17 256 0 217 284 219 63 68 181 0 0 -17 219 0 21
7 256 41 66 164 162 0 0 -17 175 0 217 172 282 51 283 173 0 0 +17 283 0 267 110 5
3 54 175 173 0 0 -15 267 566 0 283 264 0 17 110 0 267 231 283 108 56 201 0 148 -
17 53 0 267 283 231 51 107 212 0 236 +17 231 0 267 53 110 105 147 238 0 0 +17 23
6 0 235 107 50 51 172 170 0 175 -17 172 0 217 221 175 48 236 170 0 0 +17 221 0 2
17 194 172 60 169 167 0 85 -17 85 0 84 116 82 60 194 192 0 0 -17 147 0 29 124 22
6 108 231 238 0 0 -17 148 0 276 56 150 108 124 149 0 147 -17 71 0 126 128 127 69
 150 139 0 185 +17 62 0 232 169 225 60 116 198 0 221 +19 18 605 0 1 0 10 6 0 S0
 74 4 CI16 index_map_offset0 0 1 dCCZ20 16 3 0 0 286 14 2 0 0 0 0 0 0 0 0 0 0 0
 0 0 0 0 0 0 81 1 286 742 287 1 0 14 0 0 288 81 1 14 743 289 1 286 2 0 0 290 80
 7 CCCCCDI12 legal_owners0 17 1 lCZ1 289 13 291 8038 0 0 0 0 0 0 0 0 0 TTTTTTTTT
TTTTFTFT10 98 255 6 290 80 97 114 116 32 49 79 255 14 291 SDL/TYSA_UNAME80 1 287
 292 293 8040 0 0 0 0 3 5 0 0 0 TTTFFFFFFFFFFFFFF2 83 255 3 288 .615686274509804
 .811764705882353 .929411764705882 79 17 293 SDL/TYSA_COLOUR_280 1 13 294 295 80
17 0 0 0 0 0 0 0 0 0 TTTTTTTTTTTTTFTFT3 84 255 6 15 Part 179 13 295 SDL/TYSA_NAM
E1 0 
