**ABCDEFGHIJKLMNOPQRSTUVWXYZabcdefghijklmnopqrstuvwxyz**************************
**PARASOLID !"#$%&'()*+,-./:;<=>?@[\]^_`{|}~0123456789**************************
**PART1;
MC=unknown;
MC_MODEL=unknown;
MC_ID=unknown;
OS=unknown;
OS_RELEASE=unknown;
FRU=Parasolid 37.0.209;
APPL=Onshape;
SITE=unknown;
USER=unknown;
FORMAT=text;
GUISE=transmit;
KEY=BTGapi::writeModels_.xmt;
FILE=BTGapi::writeModels_.xmt;
DATE=2025-03-16T16:43:44 (UTC);
**PART2;
SCH=SCH_3700209_36001;
USFLD_SIZE=0;
**PART3;
**END_OF_HEADER*****************************************************************
T51 : TRANSMIT FILE created by modeller version 370020923 SCH_3700209_36001_1300
6231 0 12 36 CCCI7 lattice222 0 CCCI4 mesh1006 0 I8 polyline1008 0 CCCCCCCDI5 ow
ner1040 0 CCCI16 boundary_lattice222 0 CCCI13 boundary_mesh1006 0 I17 boundary_p
olyline1008 0 CCCA16 index_map_offset0 0 1 dA9 index_map82 0 A17 node_id_index_m
ap82 0 A20 schema_embedding_map82 0 A5 child12 0 A14 lowest_node_id0 0 1 dA16 me
sh_offset_data206 0 Z1 1041 2 3 0 0 0 0 0 0 0 1e3 1e-8 0 4 5 1 0 1 2 6 0 7 8 9 0
 0 10 11 12 0 0 0 0 0 0 0 81 255 1 2 1041 13 1 14 0 0 0 15 70 11 CI9 list_type0
 0 1 uI10 notransmit0 0 1 lCCCDCCDI12 finger_index0 0 1 dI12 finger_block1012 0
 CZ3 0 4 T1 0 0 7 20 1 16 16 13 255 6 125 0 1 0 17 0 0 18 0 54 255 7 453 0 17 19
 0 20 +.0099 -.01035 .00435 0 -1 0 7e-4 2e-4 0 0 -1 38 12 CCCCCCCCCCCA17 interse
ction_data204 0 Z8 832 0 21 22 0 0 +7 23 24 25 26 27 29 255 9 834 0 28 29 0 .009
00734330749303 -.01035 .004235265396141695 19 9 CCCCCCI5 frame230 0 CA5 owner12
 0 Z10 1 0 1 18 0 30 0 V0 16 255 11 117 31 ?32 0 33 34 0 0 1 18 255 12 94 35 36
 0 37 38 5e-7 1 81 1 35 842 39 12 0 0 0 40 41 17 255 36 0 42 43 44 12 32 11 0 45
 -18 37 92 40 46 12 47 48 5e-7 1 29 38 433 0 12 49 50 .00997946920771662 -.01015
 .003820530792283385 29 49 400 0 51 52 38 .01005 -.01055 .00375 29 50 746 0 53 3
8 54 .00900734330749303 -.01035 .004464734603858305 18 53 42 55 56 57 58 50 ?1 2
9 54 747 0 59 50 60 .00921626028344104 -.01055000000000046 .00450000000000008 18
 59 49 61 62 63 64 54 ?1 29 60 754 0 65 54 66 .01058373971655886 -.01055 .0045 1
8 65 78 67 68 69 70 60 ?1 29 66 755 0 71 60 72 .01079265669250696 -.01035 .00446
4734603858305 18 71 24 73 74 75 76 66 ?1 29 72 765 0 76 66 77 .01079265669250696
 -.01035 .004235265396141695 18 76 16 78 79 71 80 72 ?1 29 77 766 0 63 72 29 .01
058373971655896 -.01055000000000046 .00419999999999992 18 63 54 81 82 83 59 77 ?
1 29 29 833 0 80 77 9 .00921626028344113 -.01055 .0042 18 80 11 84 85 76 28 29 ?
1 81 1 84 868 39 80 0 0 78 86 87 17 85 0 88 82 89 80 90 91 0 92 +18 28 6 86 93 8
0 0 9 ?1 81 1 86 869 39 28 0 0 84 31 94 17 93 0 95 92 96 28 97 98 0 99 +15 255 9
5 31 0 90 100 0 17 92 0 95 90 93 80 99 21 0 101 -17 96 0 95 93 102 58 103 104 0
 0 +17 97 0 105 106 107 58 93 98 0 96 -16 98 38 108 ?93 109 104 110 0 0 1 17 99
 0 111 79 101 28 92 21 0 107 +15 111 4 0 79 112 0 17 79 0 111 113 99 76 107 114
 0 115 +17 101 0 111 99 113 80 82 116 0 0 +16 21 12 117 ?99 118 116 8 0 0 1 17 1
07 0 105 97 119 28 79 114 0 0 -15 105 14 0 119 120 0 17 119 0 105 107 121 76 122
 123 0 0 -16 114 5 124 ?79 116 0 125 0 0 1 81 1 124 912 39 114 0 0 126 127 128 1
6 116 10 126 ?101 21 114 129 0 0 1 133 255 125 586 0 114 130 131 0 +132 .0090073
4330749303 -.01035 .004235265396141695 .01079265669250696 -.01035 .0042352653961
41695 4.84021972989394 7.72615088446523 31 255 130 359 0 133 129 125 134 +.0099
 -.01055 .00435 0 1 0 0 0 -1 7e-4 31 131 409 0 118 125 135 0 +.0099 -.00955 .004
35 0 1 0 0 0 -1 9e-4 31 132 363 0 1 136 137 138 +.0099 -.01035 .00435 0 -1 0 0 0
 -1 9e-4 30 255 136 450 0 1 34 132 139 +.01001487472899092 -.01035079468911704 .
00378512527100908 .171087869746036 -.970287525247814 -.171087869746036 133 137 7
13 0 140 132 141 0 +132 .01079265669250696 -.01035 .004464734603858305 .00900734
330749303 -.01035 .004464734603858305 1.69862707630415 4.58455823087544 141 255
 138 137 142 142 132 141 142 125 138 138 132 16 140 23 143 ?56 144 118 137 0 0 1
 38 141 745 0 145 137 146 0 +7 147 148 149 150 151 16 145 50 152 ?153 154 155 14
1 0 0 1 38 146 753 0 156 141 157 0 +7 147 158 159 160 161 50 255 147 385 0 162 2
3 163 164 +.0104 -.01055 .0045 0 -.1736481776669305 -.984807753012208 0 .9848077
53012208 -.1736481776669305 40 255 6 148 0 1 6 1186322729547156e-20 .33870280408
8894 ??.00900734330749303 -.01035 .004464734603858305 .00902054024508809 -.01041
680468433176 .00447651407214371 .00905534574406052 -.0104755629650949 .004486874
74238229 .00910836525718664 -.0105203657276546 .004494774678231845 .009174032853
58734 -.01054572103153696 .004499245502410365 .00921626028344094 -.0105500000000
009 .00450000000000016 41 3 CI8 term_use0 0 1 cCZ1 149 L?.00900734330749303 -.01
035 .004464734603858305 41 1 150 L?.00921626028344094 -.0105500000000009 .004500
00000000016 204 2 17 INTERSECTION_DATA17 Intersection data7 uv_type0 0 1 u6 valu
es0 1 1 fT24 151 4 4.58455823087544 0 .0002030853223771495 -.00139265669250697 4
.56951484323233 .340568953453961 .000135250068108045 -.001379459754911914 4.5517
3723707345 .678742623399082 755853461525099e-19 -.00134465425593948 4.5315072017
0989 1.0194664108662 300914287633787e-19 -.001291634742813368 4.50963228371997 1
.363569057995786 434497844878957e-20 -.00122596714641266 4.49642848169957 1.5707
96326793795 -9264660818357e-28 -.00118373971655906 14 255 162 39 165 ?100 166 16
7 6 147 +168 168 100 166 30 50 23 377 0 100 0 147 169 +.0104 -.01055 .0042 0 -.1
736481776669305 .984807753012208 0 -.984807753012208 -.1736481776669305 50 163 3
96 0 166 147 170 0 +.0104 -.01055 .00525 0 -1 0 0 0 -1 141 164 141 171 171 147 1
41 171 146 164 164 147 14 166 51 172 ?162 173 88 6 163 +174 174 162 173 30 51 25
5 170 406 0 120 163 175 0 +.0099 -.01309558441227158 .00435 0 1 0 9e-4 0 0 1 14
 120 13 176 ?112 100 177 6 170 +0 0 112 100 30 50 175 410 0 173 170 178 0 +.0099
 -.00955 .00435 0 -1 0 0 0 -1 14 173 67 179 ?166 174 180 6 175 -0 0 166 174 30 5
0 178 421 0 181 175 182 0 +0 -.01015 0 0 -1 0 0 0 -1 14 181 80 183 ?174 184 185
 6 178 +0 0 174 184 30 50 182 442 0 186 178 187 0 +.01005 -.01055 .00495 -.98480
7753012208 -.1736481776669305 0 -.1736481776669305 .984807753012208 0 14 186 104
 188 ?168 189 190 6 182 +191 191 168 189 30 50 187 446 0 192 182 193 0 +.01005 -
.01055 .00495 0 -.1736481776669305 -.984807753012208 0 .984807753012208 -.173648
1776669305 14 192 110 194 ?189 195 196 6 187 +0 0 189 195 30 50 193 447 0 195 18
7 19 0 +.00975 -.01055 .00495 .984807753012208 -.1736481776669305 0 -.1736481776
669305 -.984807753012208 0 14 195 112 197 ?192 191 198 6 193 +189 189 192 191 30
 50 19 451 0 199 193 7 0 +.01005 -.01055 .00375 0 -.1736481776669305 .9848077530
12208 0 -.984807753012208 -.1736481776669305 14 199 118 200 ?191 17 42 6 19 +0 0
 191 17 30 81 1 200 1024 201 199 202 0 203 204 205 14 191 115 206 ?195 199 207 6
 182 +186 186 195 199 30 14 17 122 203 ?199 0 208 6 7 +112 112 199 0 30 15 42 11
9 0 43 199 0 13 30 2 0 0 0 0 0 0 10 17 17 43 0 42 209 36 37 210 211 0 212 -17 20
9 0 42 44 43 213 46 33 0 214 +17 210 0 185 215 212 12 43 211 0 0 +16 211 93 216
 ?210 217 218 219 0 0 1 17 212 0 185 210 103 37 220 218 0 0 +15 185 81 0 221 181
 0 17 103 0 185 212 222 223 96 104 0 102 -17 220 0 198 224 46 223 212 218 0 103
 -16 218 91 225 ?212 211 226 227 0 0 1 81 1 225 880 39 218 0 0 216 228 229 16 22
6 90 228 ?230 218 231 232 0 0 1 133 227 667 0 218 233 234 0 +234 .00982053079228
339 -.01015 .004270530792283385 .00982053079228339 -.01015 .003820530792283385 .
000679469207716617 .00112946920771662 30 233 445 0 1 235 227 236 +.00975 -.01055
 .00495 -.171087869746036 -.970287525247814 .171087869746036 30 234 432 0 1 227
 237 238 +.00982053079228339 -.01015 .00495 0 0 -1 133 237 669 0 239 234 240 0 +
240 .00982053079228339 -.01015 .004270530792283385 .00975 -.01055 .0042 -.000301
041820770732 .0001112071153349222 141 238 227 241 241 234 141 241 232 238 238 23
4 133 232 651 0 226 242 243 0 +234 .00982053079228339 -.01015 .00487946920771662
 .00982053079228339 -.01015 .004429469207716615 705307922833857e-19 .00052053079
2283388 30 242 392 0 1 244 232 245 +.00976902618846326 -.01044209712327172 .0044
80973811536745 .171087869746036 .970287525247814 -.171087869746036 133 243 656 0
 231 232 246 0 +246 .00997946920771662 -.01015 .00487946920771662 .0098205307922
8339 -.01015 .00487946920771662 705307922833874e-19 .000229469207716616 16 231 8
8 247 ?248 226 249 243 0 0 1 30 246 429 0 1 243 250 251 +.01005 -.01015 .0048794
6920771662 -1 0 0 133 250 658 0 252 246 253 0 +253 .00997946920771662 -.01015 .0
0487946920771662 .01005 -.01055 .00495 -.000412248936105654 0 141 251 243 251 25
1 246 16 252 106 254 ?255 256 156 250 0 0 1 30 253 443 0 1 250 257 258 +.01005 -
.01055 .00495 .171087869746036 -.970287525247814 .171087869746036 133 257 660 0
 259 253 260 0 +260 .00975 -.01055 .00495 .01005 -.01055 .00495 -3e-4 0 141 258
 250 258 258 253 16 259 73 261 ?262 263 264 257 0 0 1 30 260 415 0 1 257 235 265
 +.01005 -.01055 .00495 1 0 0 133 235 662 0 256 260 233 0 +233 .0098205307922833
9 -.01015 .00487946920771662 .00975 -.01055 .00495 -.000412248936105654 0 141 26
5 257 265 265 260 16 256 109 266 ?267 33 252 235 0 0 1 81 1 266 872 39 256 0 0 2
68 254 269 17 267 0 270 271 272 273 274 256 0 275 +16 33 114 268 ?209 11 256 276
 0 0 1 81 1 268 871 39 33 0 0 31 266 277 133 276 687 0 33 278 279 0 +279 .009820
53079228339 -.01015 .003820530792283385 .00975 -.01055 .00375 -.0003609225751818
44 5132636092381e-17 30 278 434 0 1 219 276 280 +.01005 -.01015 .003820530792283
385 1 0 0 30 279 448 0 1 276 281 282 +.00975878131775228 -.01050019867227926 .00
375878131775227 -.171087869746036 -.970287525247814 -.171087869746036 133 281 68
9 0 283 279 284 0 +284 .01005 -.01055 .00375 .00975 -.01055 .00375 0 3e-4 141 28
2 276 282 282 279 16 283 58 285 ?286 287 288 281 0 0 1 30 284 403 0 1 281 34 289
 +.01005 -.01055 .00375 -1 0 0 133 34 691 0 11 284 136 0 +136 .00997946920771662
 -.01015 .003820530792283385 .01005 -.01055 .00375 -.00020694349241041 .00020530
5443695244 141 289 281 289 289 284 81 1 285 893 39 283 0 0 290 291 292 17 286 0
 88 89 293 213 44 283 0 0 +16 287 60 290 ?89 294 283 295 0 0 1 16 288 56 291 ?29
3 283 154 296 0 0 1 81 1 291 894 39 288 0 0 285 297 298 17 293 0 88 286 299 51 3
00 288 0 0 +16 154 53 297 ?299 288 145 301 0 0 1 133 296 676 0 288 295 302 0 +30
3 .01005 -.01055 .0042 .01005 -.01055 .00375 75e-5 .0012 133 295 671 0 287 240 2
96 0 +304 .00975 -.01055 .00375 .00975 -.01055 .0042 -.0012 -75e-5 133 302 678 0
 305 296 306 0 +306 .01005 -.01055 .0042 .00997946920771662 -.01015 .00427053079
2283385 59880754411112e-18 .000472129690516766 30 303 417 0 1 307 308 309 +.0100
5 -.01055 .00495 0 0 -1 133 307 642 0 263 310 303 0 +303 .01005 -.01055 .00495 .
01005 -.01055 .0045 0 45e-5 133 308 647 0 264 303 304 0 +304 .00975 -.01055 .004
5 .00975 -.01055 .00495 -45e-5 0 141 309 307 311 311 303 141 311 296 309 309 303
 16 264 71 312 ?313 259 294 308 0 0 1 30 304 413 0 1 308 244 314 +.00975 -.01055
 .00495 0 0 1 133 244 649 0 315 304 242 0 +242 .00975 -.01055 .0045 .00982053079
228339 -.01015 .004429469207716615 -.0001112071153349222 .000301041820770732 141
 314 308 316 316 304 141 316 295 314 314 304 16 315 46 317 ?318 155 319 244 0 0
 1 81 1 317 898 39 315 0 0 320 321 322 17 318 0 270 272 271 323 324 315 0 325 +1
6 155 48 320 ?326 145 315 135 0 0 1 16 319 44 321 ?325 315 109 327 0 0 1 81 1 32
1 899 39 319 0 0 317 328 329 17 325 0 167 324 330 323 331 319 0 0 +16 109 41 328
 ?330 319 98 332 0 0 1 133 327 611 0 319 333 334 0 +335 .0090035153961027 -.0101
5 .004429469207716615 .00982053079228339 -.01015 .004429469207716615 .0090035153
961027 .00982053079228339 31 333 375 0 1 336 327 337 +.0099 -.01015 .00435 0 1 0
 0 0 -1 9e-4 133 334 613 0 294 327 338 0 +333 .0090035153961027 -.01015 .0042705
30792283385 .0090035153961027 -.01015 .004429469207716615 1.48238206186056 1.659
210591729235 30 335 425 0 1 339 340 341 +0 -.01015 .004429469207716615 1 0 0 133
 339 631 0 342 343 335 0 +335 .00997946920771662 -.01015 .004429469207716615 .01
07964846038973 -.01015 .004429469207716615 .00997946920771662 .0107964846038973
 133 340 638 0 249 335 344 0 +344 .00997946920771662 -.01015 .004429469207716615
 .00997946920771662 -.01015 .00487946920771662 -.000520530792283388 -70530792283
3857e-19 141 341 339 345 345 335 141 345 327 341 341 335 16 249 86 346 ?347 231
 342 340 0 0 1 30 344 427 0 1 340 348 349 +.00997946920771662 -.01015 .00495 0 0
 1 133 348 640 0 350 344 310 0 +310 .00997946920771662 -.01015 .0044294692077166
15 .01005 -.01055 .0045 -.000472129690516766 -59880754411112e-18 141 349 340 351
 351 344 141 351 352 349 349 344 133 352 680 0 217 306 219 0 +344 .0099794692077
1662 -.01015 .003820530792283385 .00997946920771662 -.01015 .004270530792283385
 -.00112946920771662 -.000679469207716617 16 217 95 353 ?215 305 211 352 0 0 1 3
0 306 437 0 1 302 352 354 +.010060244870711 -.01060810154900752 .004189755129289
015 -.171087869746036 .970287525247814 .171087869746036 133 219 685 0 211 352 27
8 0 +278 .00982053079228339 -.01015 .003820530792283385 .00997946920771662 -.010
15 .003820530792283385 -.000229469207716616 -705307922833874e-19 141 354 302 354
 354 306 81 1 353 878 39 217 0 0 355 216 356 17 215 0 185 221 210 69 45 217 0 35
7 +16 305 98 355 ?358 359 217 302 0 0 1 81 1 355 877 39 305 0 0 360 353 361 17 3
58 0 207 45 300 69 362 305 0 215 +16 359 99 360 ?113 350 305 157 0 0 1 81 1 360
 876 39 359 0 0 363 355 364 17 113 0 111 101 79 63 115 359 0 365 +16 350 102 363
 ?366 156 359 348 0 0 1 38 157 764 0 359 146 367 0 +7 23 368 369 370 371 133 367
 795 0 144 157 372 0 +22 .0107964846038973 -.01015 .004429469207716615 .01079265
669250696 -.01035 .004464734603858305 1.659210591729235 1.69862707630415 40 6 36
8 0 1 6 1186322729547156e-20 .338702804088894 ??.01079265669250696 -.01035 .0042
35265396141695 .01077945975491192 -.01041680468433176 .00422348592785629 .010744
65425593948 -.0104755629650949 .00421312525761771 .01069163474281336 -.010520365
7276546 .004205225321768155 .01062596714641266 -.01054572103153696 .004200754497
589635 .01058373971655906 -.0105500000000009 .00419999999999984 41 1 369 L?.0107
9265669250696 -.01035 .004235265396141695 41 1 370 L?.01058373971655906 -.010550
0000000009 .00419999999999984 204 24 371 4 1.442965577285646 0 -.000203085322377
1495 .0003926566925069685 1.427922189642542 .340568953453916 -.00013525006810804
5 .000379459754911913 1.410144583483662 .67874262339909 -755853461525099e-19 .00
0344654255939478 1.389914548120094 1.019466410866194 -300914287633787e-19 .00029
1634742813367 1.368039630130174 1.363569057995784 -434497844878957e-20 .00022596
71464126605 1.354835828109776 1.570796326793795 9264660818357e-28 .0001837397165
59059 16 144 25 373 ?374 375 140 367 0 0 1 133 372 801 0 123 367 110 0 +376 .010
79265669250696 -.01035 .004235265396141695 .0107964846038973 -.01015 .0042705307
92283385 4.58455823087544 4.62397471545035 32 255 22 821 0 1 332 8 377 +.0099 -.
00969930772705735 .00435 0 -.1736481776669305 -.984807753012208 0 .9848077530122
08 -.1736481776669305 .00518289343482927 9e-4 133 332 824 0 109 376 22 0 +22 .00
900734330749303 -.01035 .004464734603858305 .0090035153961027 -.01015 .004429469
207716615 4.58455823087544 4.62397471545035 141 377 332 378 378 22 141 378 367 3
77 377 22 32 376 815 0 1 110 332 379 +.0099 -.00969930772705735 .00435 0 -.17364
81776669305 .984807753012208 0 .984807753012208 .1736481776669305 .0051828934348
2927 9e-4 133 110 818 0 98 372 376 0 +376 .0090035153961027 -.01015 .00427053079
2283385 .00900734330749303 -.01035 .004235265396141695 1.659210591729235 1.69862
7076304145 141 379 110 380 380 376 141 380 372 379 379 376 16 123 29 381 ?122 91
 375 372 0 0 1 81 1 381 905 39 123 0 0 382 383 384 17 122 0 385 357 115 386 119
 123 0 121 +16 91 32 382 ?85 239 123 387 0 0 1 16 375 27 383 ?121 123 144 336 0
 0 1 81 1 383 906 39 375 0 0 381 373 388 17 121 0 105 119 389 386 390 375 0 0 +1
33 336 609 0 375 391 333 0 +333 .0107964846038973 -.01015 .004429469207716615 .0
107964846038973 -.01015 .004270530792283385 4.62397471545035 4.80080324531903 30
 391 394 0 1 135 336 392 +.0104 -.01055 .0045 1 0 0 133 135 604 0 155 131 391 0
 +391 .00921626028344104 -.01055000000000046 .00450000000000008 .00975 -.01055 .
0045 -.001183739716558964 -65e-5 141 392 135 393 393 391 141 393 343 392 392 391
 133 343 629 0 394 395 339 0 +391 .01005 -.01055 .0045 .01058373971655886 -.0105
5 .0045 -35e-5 .0001837397165588685 16 394 77 396 ?397 133 263 343 0 0 1 30 395
 399 0 1 301 343 398 +.0104 -.01055 .0042 -1 0 0 133 301 624 0 154 399 395 0 +39
5 .01058373971655896 -.01055000000000046 .00419999999999992 .01005 -.01055 .0042
 -.0001837397165589635 35e-5 141 398 301 400 400 395 141 400 387 398 398 395 133
 387 577 0 91 0 129 0 +395 .00975 -.01055 .0042 .00921626028344113 -.01055 .0042
 65e-5 .00118373971655887 133 129 579 0 116 387 130 0 +130 .01058373971655896 -.
01055000000000046 .00419999999999992 .00921626028344113 -.01055 .0042 4.92834947
906973 7.63802113528953 30 399 423 0 1 401 301 402 +0 -.01015 .00427053079228338
5 -1 0 0 133 401 622 0 403 338 399 0 +399 .0107964846038973 -.01015 .00427053079
2283385 .00997946920771662 -.01015 .004270530792283385 -.0107964846038973 -.0099
7946920771662 141 402 401 404 404 399 141 404 338 402 402 399 133 338 615 0 104
 334 401 0 +399 .00982053079228339 -.01015 .004270530792283385 .0090035153961027
 -.01015 .004270530792283385 -.00982053079228339 -.0090035153961027 16 104 36 40
5 ?96 98 239 338 0 0 1 81 1 405 902 39 104 0 0 108 406 407 16 239 34 406 ?224 10
4 91 237 0 0 1 81 1 406 903 39 239 0 0 405 382 408 17 224 0 198 214 220 409 102
 239 0 90 +15 198 113 0 220 195 0 17 214 0 198 46 224 213 89 287 0 286 -18 409 3
3 410 89 223 386 411 5e-7 1 17 102 0 95 96 90 223 224 239 0 0 -17 90 0 95 102 92
 409 85 91 0 0 -18 223 35 412 220 58 409 413 5e-7 1 81 1 412 862 39 223 0 0 414
 410 415 18 58 37 414 222 53 223 416 5e-7 1 29 413 380 0 223 417 418 .0098205307
9228339 -.01015 .004270530792283385 29 417 389 0 323 419 413 .00982053079228339
 -.01015 .004429469207716615 29 418 422 0 69 413 420 .00997946920771662 -.01015
 .004270530792283385 18 69 83 421 358 422 65 418 5e-7 1 29 420 398 0 83 418 423
 .01005 -.01055 .0042 18 83 55 424 362 51 63 420 5e-7 1 29 423 416 0 70 420 425
 .01005 -.01055 .0045 18 70 76 426 366 65 427 423 5e-7 1 29 425 424 0 422 423 42
8 .00997946920771662 -.01015 .004429469207716615 18 422 85 429 430 431 69 425 5e
-7 1 29 428 426 0 431 425 432 .00997946920771662 -.01015 .00487946920771662 18 4
31 87 433 434 47 422 428 5e-7 1 29 432 414 0 427 428 435 .01005 -.01055 .00495 1
8 427 74 436 255 70 273 432 5e-7 1 29 435 412 0 273 432 437 .00975 -.01055 .0049
5 18 273 72 438 267 427 213 435 5e-7 1 29 437 428 0 47 435 48 .00982053079228339
 -.01015 .00487946920771662 18 47 89 439 274 37 431 437 5e-7 1 29 48 431 0 37 43
7 52 .00982053079228339 -.01015 .003820530792283385 29 52 402 0 213 48 49 .00975
 -.01055 .00375 18 213 59 440 209 273 51 52 5e-7 1 81 1 440 852 39 213 0 0 438 4
41 442 18 51 57 441 32 213 83 49 5e-7 1 81 1 441 853 39 51 0 0 440 424 443 17 32
 0 207 300 45 51 36 11 0 44 +15 207 116 0 300 191 0 17 300 0 207 358 32 83 293 2
88 0 299 -17 45 0 207 32 358 12 215 217 0 210 -17 44 0 42 36 209 51 286 283 0 29
3 -17 299 0 88 293 82 83 365 154 0 0 +15 88 52 0 299 166 0 17 82 0 88 299 85 63
 101 116 0 113 -17 365 0 385 115 362 63 299 154 0 0 -15 385 97 0 122 184 0 17 11
5 0 385 122 365 76 113 359 0 119 -17 362 0 385 365 357 83 358 305 0 300 -17 357
 0 385 362 122 69 221 403 0 0 +17 221 0 185 390 215 386 357 403 0 122 -16 403 82
 444 ?357 342 133 401 0 0 1 81 1 444 885 39 403 0 0 445 446 447 16 342 84 445 ?4
48 249 403 339 0 0 1 16 133 79 446 ?449 403 394 130 0 0 1 81 1 446 886 39 133 0
 0 444 396 450 17 449 0 208 74 153 65 62 133 0 397 +15 208 123 0 153 17 0 17 74
 0 208 56 449 71 68 156 0 374 +17 153 0 208 449 56 59 451 145 0 452 +17 62 0 453
 326 397 59 449 133 0 153 -17 397 0 453 62 454 65 455 394 0 0 +15 453 70 0 326 1
74 0 17 454 0 453 397 262 70 456 263 0 0 +17 455 0 457 430 68 70 397 394 0 454 -
15 457 101 0 455 168 0 17 430 0 457 448 455 422 366 350 0 458 -17 68 0 457 455 3
74 65 74 156 0 449 -17 374 0 457 68 448 71 389 144 0 459 +16 156 103 460 ?74 252
 350 146 0 0 1 81 1 460 874 39 156 0 0 254 363 461 80 7 CCCCCDI12 legal_owners0
 17 1 lCZ1 39 462 463 9000 0 0 0 0 3 5 0 0 0 FFTFTFTTFFFFFFFFF2 81 1 254 873 39
 252 0 0 266 460 464 81 1 363 875 39 350 0 0 460 360 465 83 255 1 461 6463 83 1
 465 6464 83 1 464 6462 79 255 13 463 BTI/importTag17 448 0 457 374 430 75 466 3
42 0 390 +17 389 0 105 121 459 75 374 144 0 0 -17 459 0 105 389 467 71 56 140 0
 0 -17 467 0 105 459 106 53 330 109 0 0 -17 56 0 208 153 74 53 459 140 0 451 +17
 451 0 167 330 452 53 153 145 0 467 -15 167 40 0 330 162 0 17 330 0 167 325 451
 57 467 109 0 0 +17 452 0 167 451 324 59 326 155 0 0 -17 324 0 167 452 325 64 31
8 315 0 0 -17 326 0 453 313 62 64 452 155 0 324 +17 313 0 453 262 326 273 271 26
4 0 0 +18 64 47 468 271 59 323 469 5e-7 1 81 1 468 857 39 64 0 0 61 470 471 17 2
71 0 270 318 267 64 313 264 0 326 -18 323 45 470 230 64 57 417 5e-7 1 29 469 391
 0 64 472 473 .00975 -.01055 .0045 29 472 387 0 57 416 469 .0090035153961027 -.0
1015 .004429469207716615 29 473 372 0 75 469 419 .0107964846038973 -.01015 .0044
29469207716615 18 75 26 474 448 386 71 473 5e-7 1 29 419 374 0 386 473 417 .0107
964846038973 -.01015 .004270530792283385 18 386 28 475 221 409 75 419 5e-7 1 81
 1 475 864 39 386 0 0 410 474 476 81 1 410 863 39 409 0 0 412 475 477 81 1 474 8
65 39 75 0 0 475 73 478 83 1 476 6453 81 1 73 866 39 71 0 0 474 78 479 83 1 478
 6454 81 1 78 867 39 76 0 0 73 84 480 83 1 479 6455 83 1 480 6456 83 1 477 6452
 18 57 43 481 106 323 53 472 5e-7 1 29 416 382 0 58 411 472 .0090035153961027 -.
01015 .004270530792283385 29 411 378 0 409 0 416 .00975 -.01055 .0042 81 1 481 8
59 39 57 0 0 470 55 482 17 106 0 105 467 97 57 222 294 0 331 +17 222 0 185 103 3
31 58 106 294 0 97 -16 294 64 483 ?106 264 287 334 0 0 1 17 331 0 185 222 230 57
 325 319 0 330 -17 230 0 185 331 248 323 272 226 0 318 +17 248 0 185 230 347 47
 484 231 0 0 +17 272 0 270 267 318 47 230 226 0 248 -15 270 108 0 271 189 0 14 1
89 107 485 ?186 192 270 6 193 +195 195 186 192 30 81 1 485 1037 201 189 486 0 18
3 487 488 80 1 201 0 489 8001 0 0 0 0 3 5 0 0 0 FFFFTFTFFFFFFFFFF2 81 1 486 918
 39 189 0 485 490 491 492 81 1 183 1036 201 181 493 0 194 485 494 81 1 487 1038
 201 174 495 0 485 179 496 83 3 488 .776470588235294 .756862745098039 .737254901
960784 14 174 69 487 ?173 181 453 6 163 +166 166 173 181 30 81 1 495 923 39 174
 0 487 493 497 498 81 1 179 1039 201 173 497 0 487 0 499 83 3 496 .7764705882352
94 .756862745098039 .737254901960784 81 1 497 924 39 173 0 179 495 500 501 83 3
 499 .776470588235294 .756862745098039 .737254901960784 81 1 500 925 39 166 0 17
2 497 502 503 83 1 501 6513 81 1 172 1031 201 166 500 0 188 176 504 81 1 502 926
 39 162 0 165 500 505 506 83 1 503 6514 81 1 165 1034 201 162 502 0 507 194 508
 81 1 505 927 39 100 0 507 502 509 510 83 1 506 6515 14 100 30 507 ?120 162 95 6
 23 +184 184 120 162 30 81 1 507 1033 201 100 505 0 176 165 511 81 1 509 928 39
 120 0 176 505 512 513 83 1 510 6516 81 1 176 1032 201 120 509 0 172 507 514 81
 1 512 929 39 112 0 204 509 515 516 83 1 513 6517 14 112 3 204 ?0 120 111 6 7 +1
7 17 0 120 30 81 1 204 1025 201 112 512 0 200 206 517 81 1 515 930 39 1 518 519
 512 0 520 83 1 516 6518 81 1 518 840 521 1 0 515 0 0 522 81 1 519 931 523 1 515
 524 0 0 525 83 1 520 6519 80 1 523 39 526 9000 0 0 0 0 3 5 0 0 0 FFTFTFTTFFFFFF
FFF2 81 1 524 1023 527 1 519 14 0 0 528 83 1 525 6713 80 1 527 201 529 8040 0 0
 0 0 3 5 0 0 0 TTTFFFFFFFFFFFFFF2 81 1 14 1040 530 1 524 2 0 0 531 83 3 528 1 1
 1 80 1 530 13 532 8038 0 0 0 0 0 0 0 0 0 TTTTTTTTTTTTTFTFT10 98 255 40 531 83 7
1 57 48 32 45 32 77 105 99 114 111 32 83 101 114 118 111 32 57 103 32 45 32 84 1
11 119 101 114 32 80 114 111 46 49 95 80 101 8225 97 79 14 532 SDL/TYSA_UNAME79
 17 529 SDL/TYSA_COLOUR_279 18 526 BTI/importMaxCount80 1 521 533 534 9000 0 0 0
 0 3 5 0 0 0 TTTFFFFFFFFFFFFFF1 82 255 1 522 13 79 23 534 ONSHAPE_ORIGINALBODY_I
D81 1 206 1026 201 191 535 0 204 197 536 83 3 517 .776470588235294 .756862745098
039 .737254901960784 81 1 535 915 39 191 0 206 202 537 538 81 1 197 1027 201 195
 537 0 206 539 540 83 3 536 .776470588235294 .756862745098039 .737254901960784 8
1 1 537 916 39 195 0 197 535 490 541 81 1 539 1028 201 168 542 0 197 543 544 83
 3 540 .776470588235294 .756862745098039 .737254901960784 14 168 100 539 ?184 18
6 457 6 147 +162 162 184 186 30 81 1 542 920 39 168 0 539 491 545 546 81 1 543 1
029 201 184 545 0 539 188 547 83 3 544 .776470588235294 .756862745098039 .737254
901960784 14 184 96 543 ?181 168 385 6 23 +100 100 181 168 30 81 1 545 921 39 18
4 0 543 542 493 548 81 1 188 1030 201 186 491 0 543 172 549 83 3 547 .7764705882
35294 .756862745098039 .737254901960784 81 1 491 919 39 186 0 188 486 542 550 83
 3 549 .776470588235294 .756862745098039 .737254901960784 83 1 550 6508 81 1 493
 922 39 181 0 183 545 495 551 83 1 548 6510 83 1 551 6511 83 1 546 6509 81 1 490
 917 39 192 0 194 537 486 552 83 1 541 6505 81 1 194 1035 201 192 490 0 165 183
 553 83 1 552 6506 83 3 553 .776470588235294 .756862745098039 .737254901960784 8
1 1 202 914 39 199 0 200 127 535 554 83 1 538 6504 81 1 127 913 39 17 0 203 124
 202 555 83 1 554 6503 81 1 203 1022 201 17 127 0 0 200 556 83 1 555 6502 83 3 5
56 .776470588235294 .756862745098039 .737254901960784 83 3 514 .776470588235294
 .756862745098039 .737254901960784 83 3 511 .776470588235294 .756862745098039 .7
37254901960784 83 3 508 .776470588235294 .756862745098039 .737254901960784 83 3
 504 .776470588235294 .756862745098039 .737254901960784 83 1 498 6512 83 3 494 .
776470588235294 .756862745098039 .737254901960784 83 1 492 6507 79 15 489 SDL/TY
SA_COLOUR17 347 0 185 248 466 431 458 249 0 0 +17 484 0 196 255 274 431 248 231
 0 347 -15 196 111 0 484 192 0 17 255 0 196 275 484 427 434 252 0 456 +17 274 0
 196 484 275 47 267 256 0 272 -17 275 0 196 274 255 273 262 259 0 313 -17 262 0
 453 454 313 427 275 259 0 0 +17 434 0 190 458 456 431 255 252 0 484 -17 456 0 1
90 434 366 427 454 263 0 262 -15 190 105 0 458 186 0 17 366 0 190 456 458 70 430
 350 0 455 +16 263 75 557 ?454 394 259 307 0 0 1 81 1 557 888 39 263 0 0 396 261
 558 81 1 396 887 39 394 0 0 446 557 559 81 1 261 889 39 259 0 0 557 312 560 83
 1 558 6477 81 1 312 890 39 264 0 0 261 483 561 83 1 560 6478 81 1 483 891 39 29
4 0 0 312 290 562 83 1 561 6479 81 1 290 892 39 287 0 0 483 285 563 83 1 562 648
0 83 1 563 6481 83 1 559 6476 17 458 0 190 366 434 422 347 249 0 466 -17 466 0 1
85 347 390 422 448 342 0 0 -17 390 0 185 466 221 75 121 375 0 389 -81 1 470 858
 39 323 0 0 468 481 564 81 1 55 860 39 53 0 0 481 414 565 83 1 482 6448 81 1 414
 861 39 58 0 0 55 412 566 83 1 565 6449 83 1 566 6450 83 1 564 6447 81 1 61 856
 39 59 0 0 81 468 567 83 1 471 6446 81 1 81 855 39 63 0 0 424 61 568 83 1 567 64
45 81 1 424 854 39 83 0 0 441 81 569 83 1 568 6444 83 1 569 6443 83 1 450 6475 8
1 1 445 884 39 342 0 0 346 444 570 81 1 346 883 39 249 0 0 247 445 571 83 1 570
 6473 81 1 247 882 39 231 0 0 228 346 572 83 1 571 6472 81 1 228 881 39 226 0 0
 225 247 573 83 1 572 6471 83 1 573 6470 83 1 447 6474 83 1 443 6442 81 1 438 85
1 39 273 0 0 436 440 574 83 1 442 6441 81 1 436 850 39 427 0 0 426 438 575 83 1
 574 6440 81 1 426 849 39 70 0 0 67 436 576 83 1 575 6439 81 1 67 848 39 65 0 0
 421 426 577 83 1 576 6438 81 1 421 847 39 69 0 0 429 67 578 83 1 577 6437 81 1
 429 846 39 422 0 0 433 421 579 83 1 578 6436 81 1 433 845 39 431 0 0 439 429 58
0 83 1 579 6435 81 1 439 844 39 47 0 0 40 433 581 83 1 580 6434 81 1 40 843 39 3
7 0 0 35 439 582 83 1 581 6433 83 1 582 6432 83 1 415 6451 17 89 0 88 85 286 409
 214 287 0 224 +17 46 0 198 220 214 37 209 33 0 43 -81 1 382 904 39 91 0 0 406 3
81 583 83 1 408 6492 83 1 583 6493 81 1 108 901 39 98 0 0 328 405 584 83 1 407 6
491 81 1 328 900 39 109 0 0 321 108 585 83 1 584 6490 83 1 585 6489 81 1 373 907
 39 144 0 0 383 143 586 83 1 388 6495 81 1 143 908 39 140 0 0 373 587 588 83 1 5
86 6496 81 1 587 909 39 118 0 0 143 117 589 83 1 588 6497 16 118 19 587 ?590 140
 21 131 0 0 1 81 1 117 910 39 21 0 0 587 126 591 83 1 589 6498 81 1 126 911 39 1
16 0 0 117 124 592 83 1 591 6499 83 1 592 65e2 17 590 0 180 590 590 0 593 118 0
 0 +15 180 68 0 590 173 0 17 593 0 177 593 593 0 590 118 0 0 -15 177 836 0 593 1
20 105 83 1 384 6494 83 1 364 6465 83 1 361 6466 81 1 216 879 39 211 0 0 353 225
 594 83 1 356 6467 83 1 594 6468 30 310 440 0 1 348 307 595 +.010060244870711 -.
01060810154900752 .00451024487071098 .171087869746036 -.970287525247814 .1710878
69746036 141 595 348 595 595 310 141 337 336 596 596 333 141 596 334 337 337 333
 83 1 329 6488 81 1 320 897 39 155 0 0 152 317 597 81 1 152 896 39 145 0 0 297 3
20 598 83 1 597 6486 81 1 297 895 39 154 0 0 291 152 599 83 1 598 6485 83 1 599
 6484 83 1 322 6487 30 240 381 0 1 237 295 600 +.00976902618846326 -.01044209712
327172 .004219026188463255 -.171087869746036 -.970287525247814 -.171087869746036
 141 600 237 600 600 240 83 1 298 6483 83 1 292 6482 141 280 219 280 280 278 81
 1 31 870 39 11 0 0 86 268 601 83 1 277 6460 83 1 601 6459 83 1 269 6461 141 245
 244 245 245 242 141 236 235 236 236 233 83 1 229 6469 83 3 205 .776470588235294
 .756862745098039 .737254901960784 141 169 157 602 602 23 141 602 8 169 169 23 4
0 6 158 0 1 6 119940160810604e-19 .3417134703339185 ??.01058373971655886 -.01055
 .0045 .01065290961915496 -.0105383341929157 .004497943003459295 .01071427502055
422 -.0105048543436308 .004492039602720315 .0107612767074193 -.01045294994855534
 .004482887457451165 .01078791320216394 -.0103888110414537 .00447157803761599 .0
107926566925073 -.01035 .00446473460385832 41 1 159 L?.01058373971655886 -.01055
 .0045 41 1 160 L?.0107926566925073 -.01035 .00446473460385832 204 24 161 4 1.78
675682547985 1.5707963267949 0 .0001837397165588685 1.76481946955751 1.227561507
985604 1184577096253366e-20 .0002529096191549575 1.74349556448779 .8855634925419
94 458421008883422e-19 .000314275020554221 1.72388042834742 .540715724202511 985
47204921775e-18 .0003612767074193025 1.706875692457765 .195294257565756 .0001636
755580500675 .0003879132021639505 1.698627076304115 3729655473343785e-28 .000203
085322377074 .00039265669250731 141 139 34 139 139 136 141 134 129 134 134 130 8
3 1 128 6501 83 1 94 6458 83 1 87 6457 83 1 41 6431 19 18 124 0 1 0 10 6 0 S0 40
 6 24 0 1 6 1199401608106206e-20 .3417134703339285 ??.00921626028344113 -.01055
 .0042 .00914709038084504 -.0105383341929157 .004202056996540705 .00908572497944
578 -.0105048543436308 .004207960397279685 .0090387232925807 -.01045294994855534
 .004217112542548835 .00901208679783605 -.0103888110414537 .004228421962384015 .
00900734330749269 -.01035 .00423526539614168 41 1 25 L?.00921626028344113 -.0105
5 .0042 41 1 26 L?.00900734330749269 -.01035 .00423526539614168 204 24 27 4 4.92
834947906964 1.5707963267949 0 -.00118373971655887 4.9064121231473 1.22756150798
5598 -1184577096252372e-20 -.00125290961915496 4.88508821807758 .885563492541988
 -458421008883355e-19 -.00131427502055422 4.86547308193721 .540715724202507 -985
472049217885e-19 -.0013612767074193 4.84846834604755 .195294257565745 -.00016367
5558050063 -.00138791320216395 4.84021972989391 3729655473343785e-28 -.000203085
322377074 -.00139265669250731 141 20 141 603 604 7 141 603 8 605 20 7 141 604 14
6 20 605 7 141 605 157 604 603 7 74 4 CI16 index_map_offset0 0 1 dCCZ20 16 7 0 0
 518 515 519 179 524 14 2 0 0 0 0 0 0 0 0 0 0 0 0 0 80 1 13 606 607 8017 0 0 0 0
 0 0 0 0 0 TTTTTTTTTTTTTFTFT3 84 255 40 15 SG90 - Micro Servo 9g - Tower Pro.1_P
e‡a79 13 607 SDL/TYSA_NAME1 0 
