**ABCDEFGHIJKLMNOPQRSTUVWXYZabcdefghijklmnopqrstuvwxyz**************************
**PARASOLID !"#$%&'()*+,-./:;<=>?@[\]^_`{|}~0123456789**************************
**PART1;
MC=unknown;
MC_MODEL=unknown;
MC_ID=unknown;
OS=unknown;
OS_RELEASE=unknown;
FRU=Parasolid 37.0.209;
APPL=Onshape;
SITE=unknown;
USER=unknown;
FORMAT=text;
GUISE=transmit;
KEY=BTGapi::writeModels_.xmt;
FILE=BTGapi::writeModels_.xmt;
DATE=2025-03-16T16:43:44 (UTC);
**PART2;
SCH=SCH_3700209_36001;
USFLD_SIZE=0;
**PART3;
**END_OF_HEADER*****************************************************************
T51 : TRANSMIT FILE created by modeller version 370020923 SCH_3700209_36001_1300
6231 0 12 36 CCCI7 lattice222 0 CCCI4 mesh1006 0 I8 polyline1008 0 CCCCCCCDI5 ow
ner1040 0 CCCI16 boundary_lattice222 0 CCCI13 boundary_mesh1006 0 I17 boundary_p
olyline1008 0 CCCA16 index_map_offset0 0 1 dA9 index_map82 0 A17 node_id_index_m
ap82 0 A20 schema_embedding_map82 0 A5 child12 0 A14 lowest_node_id0 0 1 dA16 me
sh_offset_data206 0 Z1 2764 2 3 0 0 0 0 0 0 0 1e3 1e-8 0 4 5 1 0 1 2 6 0 7 8 9 0
 0 10 11 12 0 0 0 0 0 0 0 81 255 1 2 2764 13 1 14 0 0 0 15 70 11 CI9 list_type0
 0 1 uI10 notransmit0 0 1 lCCCDCCDI12 finger_index0 0 1 dI12 finger_block1012 0
 CZ3 0 4 T1 0 0 4 20 1 16 16 13 255 6 2431 0 1 0 17 0 0 18 0 50 255 7 2394 0 19
 20 0 0 +-.233 .04755 .002 0 1 0 0 0 1 30 255 8 2430 0 11 21 0 0 +-.188 .01755 .
002 0 0 -1 29 255 9 2215 0 22 23 0 -.204 -.06755 0 19 9 CCCCCCI5 frame230 0 CA5
 owner12 0 Z10 816 0 1 18 0 24 0 V0 16 255 11 2286 0 ?25 0 26 8 0 0 1 18 255 12
 810 0 27 0 28 29 ?1 17 255 27 0 30 31 32 12 33 34 0 35 +18 28 805 0 36 12 37 38
 ?1 29 29 812 0 12 38 39 -.204 -.06755 .002 29 38 807 0 28 40 29 -.196 -.06755 .
002 29 39 2250 0 41 29 42 -.188 .01755 0 18 41 2174 0 25 43 0 39 ?1 29 42 2249 0
 43 39 44 -.188 .04755 0 18 43 2170 0 45 46 41 42 ?1 29 44 2248 0 46 42 47 -.228
 .04755 0 18 46 2166 0 48 49 43 44 ?1 29 47 2247 0 49 44 50 -.228 .01755 0 18 49
 2162 0 51 52 46 47 ?1 29 50 2246 0 52 47 53 -.238 .04755 0 18 52 2158 0 54 55 4
9 50 ?1 29 53 2245 0 55 50 56 -.238 .01755 0 18 55 2154 0 57 58 52 53 ?1 29 56 2
244 0 58 53 59 -.178 .04755 0 18 58 2150 0 60 61 55 56 ?1 29 59 2243 0 61 56 62
 -.178 .01755 0 18 61 2146 0 63 64 58 59 ?1 29 62 2242 0 64 59 65 -.188 -.01755
 0 18 64 2142 0 66 67 61 62 ?1 29 65 2241 0 67 62 68 -.228 -.01755 0 18 67 2138
 0 69 70 64 65 ?1 29 68 2240 0 70 65 71 -.228 -.04755 0 18 70 2134 0 72 73 67 68
 ?1 29 71 2239 0 73 68 74 -.238 -.01755 0 18 73 2130 0 75 76 70 71 ?1 29 74 2238
 0 76 71 77 -.238 -.04755 0 18 76 2126 0 78 79 73 74 ?1 29 77 2237 0 79 74 80 -.
188 -.04755 0 18 79 2122 0 81 82 76 77 ?1 29 80 2236 0 82 77 83 -.178 -.04755 0
 18 82 2118 0 84 85 79 80 ?1 29 83 2235 0 85 80 86 -.178 -.01755 0 18 85 2114 0
 87 88 82 83 ?1 29 86 2234 0 88 83 89 -.188 .05555 0 18 88 2110 0 90 91 85 86 ?1
 29 89 2233 0 91 86 92 -.196 .05555 0 18 91 2106 0 93 94 88 89 ?1 29 92 2232 0 9
4 89 95 -.22 .05555 0 18 94 2102 0 96 97 91 92 ?1 29 95 2231 0 97 92 98 -.228 .0
5555 0 18 97 2098 0 99 100 94 95 ?1 29 98 2230 0 100 95 101 -.22 .06755 0 18 100
 2094 0 102 103 97 98 ?1 29 101 2229 0 103 98 104 -.212 .05555 0 18 103 2090 0 1
05 106 100 101 ?1 29 104 2228 0 106 101 107 -.212 .06755 0 18 106 2086 0 108 109
 103 104 ?1 29 107 2227 0 109 104 110 -.196 .06755 0 18 109 2082 0 111 112 106 1
07 ?1 29 110 2226 0 112 107 113 -.204 .06755 0 18 112 2078 0 114 115 109 110 ?1
 29 113 2225 0 115 110 116 -.204 .05555 0 18 115 2074 0 117 118 112 113 ?1 29 11
6 2224 0 118 113 119 -.22 -.05555 0 18 118 2070 0 120 121 115 116 ?1 29 119 2223
 0 121 116 122 -.212 -.05555 0 18 121 2066 0 123 124 118 119 ?1 29 122 2222 0 12
4 119 125 -.196 -.05555 0 18 124 2062 0 126 127 121 122 ?1 29 125 2221 0 127 122
 128 -.188 -.05555 0 18 127 2058 0 129 130 124 125 ?1 29 128 2220 0 130 125 131
 -.228 -.05555 0 18 130 2054 0 132 133 127 128 ?1 29 131 2219 0 133 128 134 -.21
2 -.06755 0 18 133 2050 0 135 136 130 131 ?1 29 134 2218 0 136 131 137 -.22 -.06
755 0 18 136 2046 0 138 139 133 134 ?1 29 137 2217 0 139 134 23 -.204 -.05555 0
 18 139 2042 0 140 141 136 137 ?1 29 23 2216 0 141 137 9 -.196 -.06755 0 18 141
 2038 0 142 22 139 23 ?1 17 142 0 143 144 145 141 36 146 0 147 +18 22 2034 0 148
 149 141 9 ?1 17 148 0 150 147 151 22 35 152 0 153 +18 149 555 0 154 155 22 156
 ?1 17 154 0 157 158 159 149 25 11 0 160 -18 155 560 0 161 162 149 163 ?1 29 156
 557 0 149 0 163 -.188 .01755 .002 29 163 562 0 155 156 164 -.188 .04755 .002 29
 164 582 0 162 163 165 -.228 .04755 .002 18 162 580 0 166 167 155 164 ?1 29 165
 587 0 167 164 168 -.228 .01755 .002 18 167 585 0 169 170 162 165 ?1 29 168 597
 0 170 165 171 -.238 .04755 .002 18 170 595 0 172 173 167 168 ?1 29 171 602 0 17
3 168 174 -.238 .01755 .002 18 173 600 0 175 176 170 171 ?1 29 174 607 0 176 171
 177 -.178 .04755 .002 18 176 605 0 178 179 173 174 ?1 29 177 612 0 179 174 180
 -.178 .01755 .002 18 179 610 0 181 182 176 177 ?1 29 180 617 0 182 177 183 -.18
8 -.01755 .002 18 182 615 0 184 185 179 180 ?1 29 183 632 0 185 180 186 -.228 -.
01755 .002 18 185 630 0 187 188 182 183 ?1 29 186 637 0 188 183 189 -.228 -.0475
5 .002 18 188 635 0 190 191 185 186 ?1 29 189 642 0 191 186 192 -.238 -.01755 .0
02 18 191 640 0 193 194 188 189 ?1 29 192 647 0 194 189 195 -.238 -.04755 .002 1
8 194 645 0 196 197 191 192 ?1 29 195 652 0 197 192 198 -.188 -.04755 .002 18 19
7 650 0 199 200 194 195 ?1 29 198 667 0 200 195 201 -.178 -.04755 .002 18 200 66
5 0 202 203 197 198 ?1 29 201 672 0 203 198 204 -.178 -.01755 .002 18 203 670 0
 205 206 200 201 ?1 29 204 677 0 206 201 207 -.188 .05555 .002 18 206 675 0 208
 209 203 204 ?1 29 207 682 0 209 204 210 -.196 .05555 .002 18 209 680 0 211 212
 206 207 ?1 29 210 687 0 212 207 213 -.22 .05555 .002 18 212 685 0 214 215 209 2
10 ?1 29 213 692 0 215 210 216 -.228 .05555 .002 18 215 690 0 217 218 212 213 ?1
 29 216 697 0 218 213 219 -.22 .06755 .002 18 218 695 0 220 221 215 216 ?1 29 21
9 702 0 221 216 222 -.212 .05555 .002 18 221 700 0 223 224 218 219 ?1 29 222 707
 0 224 219 225 -.212 .06755 .002 18 224 705 0 226 227 221 222 ?1 29 225 712 0 22
7 222 228 -.196 .06755 .002 18 227 710 0 229 230 224 225 ?1 29 228 717 0 230 225
 231 -.204 .06755 .002 18 230 715 0 232 233 227 228 ?1 29 231 722 0 233 228 234
 -.204 .05555 .002 18 233 720 0 235 236 230 231 ?1 29 234 767 0 236 231 237 -.22
 -.05555 .002 18 236 765 0 238 239 233 234 ?1 29 237 772 0 239 234 240 -.212 -.0
5555 .002 18 239 770 0 241 242 236 237 ?1 29 240 777 0 242 237 243 -.196 -.05555
 .002 18 242 775 0 244 245 239 240 ?1 29 243 782 0 245 240 246 -.188 -.05555 .00
2 18 245 780 0 247 248 242 243 ?1 29 246 787 0 248 243 249 -.228 -.05555 .002 18
 248 785 0 250 251 245 246 ?1 29 249 792 0 251 246 252 -.212 -.06755 .002 18 251
 790 0 253 254 248 249 ?1 29 252 797 0 254 249 40 -.22 -.06755 .002 18 254 795 0
 255 37 251 252 ?1 29 40 802 0 37 252 38 -.204 -.05555 .002 18 37 800 0 256 28 2
54 40 ?1 17 256 0 257 258 259 37 140 260 0 33 -15 255 257 2293 0 259 261 0 17 25
8 0 257 123 256 239 32 262 0 0 +17 259 0 257 256 123 139 263 264 0 0 -17 140 0 2
65 153 33 139 256 260 0 266 +16 260 2253 0 ?140 267 152 268 0 0 1 17 33 0 265 14
0 35 37 27 34 0 32 -15 265 2287 0 153 269 0 17 35 0 265 33 153 12 148 152 0 151
 -16 34 550 0 ?27 270 271 272 0 0 1 17 32 0 30 27 273 37 258 262 0 0 -15 30 6 0
 160 274 0 17 273 0 30 32 275 239 276 277 0 258 -16 262 530 0 ?258 278 279 280 0
 0 1 16 278 540 0 ?151 271 262 281 0 0 1 16 279 520 0 ?255 262 277 282 0 0 1 30
 280 532 0 262 282 281 0 +-.208 -.05555 .002 -1 0 0 30 282 522 0 279 283 280 0 +
-.22 -.06155 .002 0 -1 0 30 281 542 0 278 280 284 0 +-.2 -.06755 .002 -1 0 0 30
 284 547 0 271 281 272 0 +-.196 -.06155 .002 0 -1 0 16 271 545 0 ?145 34 278 284
 0 0 1 30 272 552 0 34 284 285 0 +-.204 -.06155 .002 0 -1 0 30 285 2214 0 286 27
2 287 0 +-.233 .04755 0 1 0 0 16 286 2030 0 ?288 289 0 285 0 0 1 30 287 2213 0 2
89 285 290 0 +-.238 .03255 0 0 1 0 16 289 2026 0 ?291 292 286 287 0 0 1 30 290 2
212 0 292 287 293 0 +-.233 .01755 0 -1 0 0 16 292 2022 0 ?294 295 289 290 0 0 1
 30 293 2211 0 295 290 296 0 +-.178 .03255 0 925185853854293e-30 -1 0 16 295 201
8 0 ?297 298 292 293 0 0 1 30 296 2210 0 298 293 299 0 +-.183 .04755 0 1 6938893
90390724e-30 0 16 298 2014 0 ?300 301 295 296 0 0 1 30 299 2209 0 301 296 302 0
 +-.183 .01755 0 -1 -693889390390722e-30 0 16 301 2010 0 ?303 304 298 299 0 0 1
 30 302 2208 0 304 299 305 0 +-.188 -1318389841742372e-31 0 0 -1 0 16 304 2006 0
 ?306 307 301 302 0 0 1 30 305 2207 0 307 302 308 0 +-.228 -1318389841742372e-31
 0 0 1 0 16 307 2002 0 ?309 310 304 305 0 0 1 30 308 2206 0 310 305 311 0 +-.233
 -.04755 0 -1 0 0 16 310 1998 0 ?312 313 307 308 0 0 1 30 311 2205 0 313 308 314
 0 +-.233 -.01755 0 1 0 0 16 313 1994 0 ?315 316 310 311 0 0 1 30 314 2204 0 316
 311 317 0 +-.238 -.03255 0 0 1 0 16 316 1990 0 ?318 319 313 314 0 0 1 30 317 22
03 0 319 314 320 0 +-.183 -.04755 0 -1 0 0 16 319 1986 0 ?321 322 316 317 0 0 1
 30 320 2202 0 322 317 323 0 +-.178 -.03255 0 0 -1 0 16 322 1982 0 ?324 325 319
 320 0 0 1 30 323 2201 0 325 320 326 0 +-.183 -.01755 0 1 0 0 16 325 1978 0 ?327
 328 322 323 0 0 1 30 326 2200 0 328 323 329 0 +-.188 .05155 0 0 1 0 16 328 1974
 0 ?90 330 325 326 0 0 1 30 329 2199 0 330 326 331 0 +-.192 .05555 0 -1 0 0 16 3
30 1970 0 ?332 333 328 329 0 0 1 30 331 2198 0 333 329 334 0 +-.224 .05555 0 -1
 0 0 16 333 1966 0 ?335 336 330 331 0 0 1 30 334 2197 0 336 331 337 0 +-.228 .05
155 0 0 1 0 16 336 1962 0 ?338 339 333 334 0 0 1 30 337 2196 0 339 334 340 0 +-.
216 .06755 0 1 0 0 16 339 1958 0 ?341 342 336 337 0 0 1 30 340 2195 0 342 337 34
3 0 +-.22 .06155 0 0 -1 0 16 342 1954 0 ?96 344 339 340 0 0 1 30 343 2194 0 344
 340 345 0 +-.212 .06155 0 0 -1 0 16 344 1950 0 ?346 347 342 343 0 0 1 30 345 21
93 0 347 343 348 0 +-.196 .06155 0 0 -1 0 16 347 1946 0 ?349 350 344 345 0 0 1 3
0 348 2192 0 350 345 351 0 +-.2 .06755 0 1 0 0 16 350 1942 0 ?352 353 347 348 0
 0 1 30 351 2191 0 353 348 354 0 +-.204 .06155 0 0 -1 0 16 353 1938 0 ?117 355 3
50 351 0 0 1 30 354 2190 0 355 351 356 0 +-.208 .05555 0 -1 0 0 16 355 1934 0 ?3
57 358 353 354 0 0 1 30 356 2189 0 358 354 359 0 +-.188 -.05155 0 0 -1 0 16 358
 1930 0 ?360 361 355 356 0 0 1 30 359 2188 0 361 356 362 0 +-.192 -.05555 0 -1 0
 0 16 361 1926 0 ?363 364 358 359 0 0 1 30 362 2187 0 364 359 365 0 +-.228 -.051
55 0 0 1 0 16 364 1922 0 ?366 367 361 362 0 0 1 30 365 2186 0 367 362 368 0 +-.2
24 -.05555 0 -1 0 0 16 367 1918 0 ?369 370 364 365 0 0 1 30 368 2185 0 370 365 3
71 0 +-.216 -.06755 0 -1 0 0 16 370 1914 0 ?372 373 367 368 0 0 1 30 371 2184 0
 373 368 374 0 +-.212 -.06155 0 0 -1 0 16 373 1910 0 ?375 376 370 371 0 0 1 30 3
74 2183 0 376 371 377 0 +-.22 -.06155 0 0 -1 0 16 376 1906 0 ?378 264 373 374 0
 0 1 30 377 2182 0 264 374 379 0 +-.208 -.05555 0 -1 0 0 16 264 1902 0 ?263 380
 376 377 0 0 1 30 379 2181 0 380 377 381 0 +-.2 -.06755 0 -1 0 0 16 380 1898 0 ?
382 383 264 379 0 0 1 30 381 2180 0 383 379 384 0 +-.196 -.06155 0 0 -1 0 16 383
 1894 0 ?385 386 380 381 0 0 1 30 384 2179 0 386 381 387 0 +-.204 -.06155 0 0 -1
 0 16 386 1890 0 ?153 388 383 384 0 0 1 30 387 2395 0 152 384 389 0 +-.204 -.067
55 .002 0 0 -1 16 152 2251 0 ?148 260 146 387 0 0 1 30 389 2396 0 146 387 268 0
 +-.196 -.06755 .002 0 0 -1 16 146 2252 0 ?142 152 390 389 0 0 1 30 268 2397 0 2
60 389 391 0 +-.204 -.05555 .002 0 0 -1 30 391 2398 0 392 268 393 0 +-.22 -.0675
5 .002 0 0 -1 16 392 2254 0 ?138 394 395 391 0 0 1 30 393 2399 0 395 391 396 0 +
-.212 -.06755 .002 0 0 -1 16 395 2255 0 ?135 392 267 393 0 0 1 30 396 2400 0 397
 393 398 0 +-.228 -.05555 .002 0 0 -1 16 397 2256 0 ?132 399 394 396 0 0 1 30 39
8 2401 0 400 396 401 0 +-.188 -.05555 .002 0 0 -1 16 400 2257 0 ?129 390 402 398
 0 0 1 30 401 2402 0 390 398 403 0 +-.196 -.05555 .002 0 0 -1 16 390 2258 0 ?126
 146 400 401 0 0 1 30 403 2403 0 267 401 404 0 +-.212 -.05555 .002 0 0 -1 16 267
 2259 0 ?123 395 260 403 0 0 1 30 404 2404 0 394 403 405 0 +-.22 -.05555 .002 0
 0 -1 16 394 2260 0 ?120 397 392 404 0 0 1 30 405 2405 0 406 404 407 0 +-.204 .0
5555 .002 0 0 -1 16 406 2261 0 ?408 409 410 405 0 0 1 30 407 2406 0 409 405 411
 0 +-.204 .06755 .002 0 0 -1 16 409 2262 0 ?114 412 406 407 0 0 1 30 411 2407 0
 412 407 413 0 +-.196 .06755 .002 0 0 -1 16 412 2263 0 ?111 414 409 411 0 0 1 30
 413 2408 0 415 411 416 0 +-.212 .06755 .002 0 0 -1 16 415 2264 0 ?108 410 417 4
13 0 0 1 30 416 2409 0 410 413 418 0 +-.212 .05555 .002 0 0 -1 16 410 2265 0 ?10
5 406 415 416 0 0 1 30 418 2410 0 417 416 419 0 +-.22 .06755 .002 0 0 -1 16 417
 2266 0 ?102 415 420 418 0 0 1 30 419 2411 0 421 418 422 0 +-.228 .05555 .002 0
 0 -1 16 421 2267 0 ?99 420 423 419 0 0 1 30 422 2412 0 420 419 424 0 +-.22 .055
55 .002 0 0 -1 16 420 2268 0 ?425 417 421 422 0 0 1 30 424 2413 0 414 422 426 0
 +-.196 .05555 .002 0 0 -1 16 414 2269 0 ?93 427 412 424 0 0 1 30 426 2414 0 427
 424 428 0 +-.188 .05555 .002 0 0 -1 16 427 2270 0 ?429 430 414 426 0 0 1 30 428
 2415 0 431 426 432 0 +-.178 -.01755 .002 0 0 -1 16 431 2271 0 ?87 433 270 428 0
 0 1 30 432 2416 0 433 428 434 0 +-.178 -.04755 .002 0 0 -1 16 433 2272 0 ?84 40
2 431 432 0 0 1 30 434 2417 0 402 432 435 0 +-.188 -.04755 .002 0 0 -1 16 402 22
73 0 ?81 400 433 434 0 0 1 30 435 2418 0 436 434 437 0 +-.238 -.04755 .002 0 0 -
1 16 436 2274 0 ?78 438 399 435 0 0 1 30 437 2419 0 438 435 439 0 +-.238 -.01755
 .002 0 0 -1 16 438 2275 0 ?75 440 436 437 0 0 1 30 439 2420 0 399 437 441 0 +-.
228 -.04755 .002 0 0 -1 16 399 2276 0 ?72 436 397 439 0 0 1 30 441 2421 0 440 43
9 442 0 +-.228 -.01755 .002 0 0 -1 16 440 2277 0 ?69 443 438 441 0 0 1 30 442 24
22 0 270 441 444 0 +-.188 -.01755 .002 0 0 -1 16 270 2278 0 ?66 431 34 442 0 0 1
 30 444 2423 0 26 442 445 0 +-.178 .01755 .002 0 0 -1 16 26 2279 0 ?63 11 446 44
4 0 0 1 30 445 2424 0 446 444 447 0 +-.178 .04755 .002 0 0 -1 16 446 2280 0 ?60
 26 430 445 0 0 1 30 447 2425 0 448 445 449 0 +-.238 .01755 .002 0 0 -1 16 448 2
281 0 ?57 450 443 447 0 0 1 30 449 2426 0 450 447 451 0 +-.238 .04755 .002 0 0 -
1 16 450 2282 0 ?54 423 448 449 0 0 1 30 451 2427 0 443 449 452 0 +-.228 .01755
 .002 0 0 -1 16 443 2283 0 ?51 448 440 451 0 0 1 30 452 2428 0 423 451 21 0 +-.2
28 .04755 .002 0 0 -1 16 423 2284 0 ?48 421 450 452 0 0 1 30 21 2429 0 430 452 8
 0 +-.188 .04755 .002 0 0 -1 16 430 2285 0 ?45 446 427 21 0 0 1 17 45 0 453 90 4
54 43 161 430 0 455 +15 453 2329 0 90 456 0 17 90 0 453 457 45 88 455 328 0 429
 +17 454 0 453 45 457 155 208 458 0 459 -17 161 0 460 461 462 155 45 430 0 454 -
17 455 0 463 300 464 43 90 328 0 462 -15 463 1889 0 306 465 0 17 300 0 463 297 4
55 58 462 298 0 0 +17 464 0 463 455 349 88 332 330 0 0 -17 462 0 460 161 60 43 3
00 298 0 0 -15 460 2349 0 462 466 0 17 60 0 460 462 461 58 178 446 0 467 +17 461
 0 460 60 161 176 459 468 0 0 +17 178 0 469 470 467 176 60 446 0 471 -17 467 0 4
69 178 63 58 297 295 0 300 -15 469 2351 0 467 472 0 17 63 0 469 467 470 61 181 2
6 0 473 +17 297 0 463 303 300 61 467 295 0 0 +17 303 0 463 306 297 41 473 301 0
 0 +17 306 0 463 327 303 64 159 304 0 0 +17 473 0 474 181 25 61 303 301 0 297 -1
5 474 2347 0 473 475 0 17 181 0 474 476 473 179 63 26 0 477 -17 25 0 474 473 476
 41 154 11 0 159 +17 476 0 474 25 181 149 477 478 0 0 +17 159 0 157 154 66 41 30
6 304 0 303 -15 157 2345 0 159 17 0 17 66 0 157 159 158 64 184 270 0 479 +17 158
 0 157 66 154 182 160 480 0 0 +17 184 0 481 482 479 182 66 270 0 483 -17 479 0 4
81 184 87 64 327 325 0 306 -15 481 2331 0 479 484 0 17 87 0 481 479 482 85 205 4
31 0 485 +17 327 0 463 324 306 85 479 325 0 0 +17 324 0 463 321 327 82 485 322 0
 0 +17 321 0 463 360 324 79 486 319 0 0 +17 485 0 487 205 84 85 324 322 0 327 -1
5 487 2333 0 485 488 0 17 205 0 487 489 485 203 87 431 0 490 -17 84 0 487 485 48
9 82 202 433 0 486 +17 489 0 487 84 205 200 490 491 0 0 +17 202 0 492 493 486 20
0 84 433 0 494 -17 486 0 492 202 81 82 321 319 0 324 -15 492 2335 0 486 495 0 17
 81 0 492 486 493 79 199 402 0 496 +17 493 0 492 81 202 197 494 497 0 0 +17 199
 0 498 499 496 197 81 402 0 500 -17 496 0 498 199 129 79 360 358 0 321 -15 498 2
307 0 496 501 0 17 129 0 498 496 499 127 247 400 0 502 +17 360 0 463 363 321 127
 496 358 0 0 +17 363 0 463 385 360 124 502 361 0 0 +17 385 0 463 382 363 141 144
 383 0 0 +17 502 0 503 247 126 127 363 361 0 360 -15 503 2305 0 502 504 0 17 247
 0 503 505 502 245 129 400 0 506 -17 126 0 503 502 505 124 244 390 0 144 +17 505
 0 503 126 247 242 506 507 0 0 +17 244 0 143 145 144 242 126 390 0 508 -17 144 0
 143 244 142 124 385 383 0 363 -15 143 2289 0 144 509 0 14 255 509 2290 0 ?504 5
10 143 6 511 +0 0 504 510 24 14 504 2306 0 ?501 509 503 6 512 +0 0 501 509 24 14
 510 2292 0 ?509 269 150 6 513 +0 0 509 269 24 50 511 2360 0 509 514 513 0 +-.19
6 -.06155 .002 1 0 0 0 0 -1 13 24 817 0 0 0 0 0 0 10 17 14 17 2346 0 ?475 0 157
 6 515 +0 0 475 0 24 14 475 2348 0 ?472 17 474 6 516 +0 0 472 17 24 50 515 2388
 0 17 517 516 0 +-.188 -1318389841742372e-31 .002 1 0 0 0 0 -1 50 517 2387 0 518
 519 515 0 +-.228 -1318389841742372e-31 .002 -1 0 0 0 0 1 50 516 2389 0 475 515
 520 0 +-.183 .01755 .002 693889390390722e-30 -1 0 1 693889390390722e-30 0 50 52
0 2390 0 466 516 521 0 +-.183 .04755 .002 -693889390390724e-30 1 0 -1 -693889390
390724e-30 0 14 466 2350 0 ?456 472 460 6 520 +0 0 456 472 24 50 521 2391 0 472
 520 522 0 +-.178 .03255 .002 1 925185853854293e-30 0 -925185853854293e-30 1 0 1
4 472 2352 0 ?466 475 469 6 521 +0 0 466 475 24 50 522 2392 0 523 521 20 0 +-.23
3 .01755 .002 0 -1 0 0 0 -1 14 523 2354 0 ?518 524 525 6 522 +0 0 518 524 24 50
 20 2393 0 524 522 7 0 +-.238 .03255 .002 -1 0 0 0 0 1 14 524 2356 0 ?523 19 526
 6 20 +0 0 523 19 24 14 19 2358 0 ?524 527 528 6 7 +0 0 524 527 24 15 526 2355 0
 529 524 0 17 529 0 526 175 54 55 291 289 0 294 -17 175 0 526 530 529 173 57 448
 0 531 -17 54 0 526 529 530 52 172 450 0 532 +17 291 0 463 288 294 52 529 289 0
 0 +17 294 0 463 291 309 55 533 292 0 0 +17 309 0 463 294 315 49 534 307 0 0 +17
 533 0 525 169 57 49 294 292 0 309 -15 525 2353 0 533 523 0 17 169 0 525 535 533
 167 51 443 0 536 -17 57 0 525 533 535 55 175 448 0 529 +17 535 0 525 57 169 173
 536 537 0 0 +17 536 0 30 538 531 167 535 537 0 539 -16 537 185 0 ?535 540 541 5
42 0 0 1 16 540 190 0 ?470 468 537 543 0 0 1 16 541 180 0 ?530 537 388 544 0 0 1
 30 542 187 0 537 544 543 0 +-.233 .01755 .002 -1 0 0 30 544 182 0 541 545 542 0
 +-.238 .03255 .002 0 1 0 30 543 192 0 540 542 546 0 +-.178 .03255 .002 92518585
3854293e-30 -1 0 30 546 197 0 468 543 547 0 +-.183 .04755 .002 1 693889390390724
e-30 0 16 468 195 0 ?461 478 540 546 0 0 1 30 547 202 0 478 546 548 0 +-.183 .01
755 .002 -1 -693889390390722e-30 0 16 478 200 0 ?476 480 468 547 0 0 1 30 548 21
2 0 480 547 549 0 +-.188 -1318389841742372e-31 .002 0 -1 0 16 480 210 0 ?158 550
 478 548 0 0 1 30 549 232 0 550 548 551 0 +-.228 -1318389841742372e-31 .002 0 1
 0 16 550 230 0 ?539 552 480 549 0 0 1 30 551 237 0 552 549 553 0 +-.233 -.04755
 .002 -1 0 0 16 552 235 0 ?554 555 550 551 0 0 1 30 553 247 0 555 551 556 0 +-.2
33 -.01755 .002 1 0 0 16 555 245 0 ?557 558 552 553 0 0 1 30 556 252 0 558 553 5
59 0 +-.238 -.03255 .002 0 1 0 16 558 250 0 ?560 497 555 556 0 0 1 30 559 282 0
 497 556 561 0 +-.183 -.04755 .002 -1 0 0 16 497 280 0 ?493 491 558 559 0 0 1 30
 561 287 0 491 559 562 0 +-.178 -.03255 .002 0 -1 0 16 491 285 0 ?489 563 497 56
1 0 0 1 30 562 292 0 563 561 564 0 +-.183 -.01755 .002 1 0 0 16 563 290 0 ?482 4
58 491 562 0 0 1 30 564 297 0 458 562 565 0 +-.188 .05155 .002 0 1 0 16 458 295
 0 ?208 566 563 564 0 0 1 30 565 302 0 566 564 567 0 +-.192 .05555 .002 -1 0 0 1
6 566 300 0 ?211 568 458 565 0 0 1 30 567 317 0 568 565 569 0 +-.224 .05555 .002
 -1 0 0 16 568 315 0 ?217 570 566 567 0 0 1 30 569 322 0 570 567 571 0 +-.228 .0
5155 .002 0 1 0 16 570 320 0 ?572 573 568 569 0 0 1 30 571 327 0 573 569 574 0 +
-.216 .06755 .002 1 0 0 16 573 325 0 ?575 576 570 571 0 0 1 30 574 332 0 576 571
 577 0 +-.22 .06155 .002 0 -1 0 16 576 330 0 ?214 578 573 574 0 0 1 30 577 342 0
 578 574 579 0 +-.212 .06155 .002 0 -1 0 16 578 340 0 ?580 581 576 577 0 0 1 30
 579 352 0 581 577 582 0 +-.196 .06155 .002 0 -1 0 16 581 350 0 ?583 584 578 579
 0 0 1 30 582 357 0 584 579 585 0 +-.2 .06755 .002 1 0 0 16 584 355 0 ?586 587 5
81 582 0 0 1 30 585 362 0 587 582 588 0 +-.204 .06155 .002 0 -1 0 16 587 360 0 ?
235 589 584 585 0 0 1 30 588 377 0 589 585 590 0 +-.208 .05555 .002 -1 0 0 16 58
9 375 0 ?223 591 587 588 0 0 1 30 590 487 0 591 588 592 0 +-.188 -.05155 .002 0
 -1 0 16 591 485 0 ?499 507 589 590 0 0 1 30 592 497 0 507 590 593 0 +-.192 -.05
555 .002 -1 0 0 16 507 495 0 ?505 594 591 592 0 0 1 30 593 502 0 594 592 595 0 +
-.228 -.05155 .002 0 1 0 16 594 500 0 ?596 597 507 593 0 0 1 30 595 507 0 597 59
3 598 0 +-.224 -.05555 .002 -1 0 0 16 597 505 0 ?599 600 594 595 0 0 1 30 598 51
2 0 600 595 283 0 +-.216 -.06755 .002 -1 0 0 16 600 510 0 ?601 277 597 598 0 0 1
 30 283 517 0 277 598 282 0 +-.212 -.06155 .002 0 -1 0 16 277 515 0 ?276 279 600
 283 0 0 1 17 276 0 602 135 241 251 273 277 0 0 +15 602 2297 0 603 604 0 17 135
 0 602 603 276 133 253 395 0 605 +17 241 0 602 276 603 239 123 267 0 273 -17 603
 0 602 241 135 121 375 373 0 263 -17 123 0 257 259 258 121 241 267 0 603 +17 375
 0 463 372 263 133 603 373 0 0 +17 263 0 463 375 266 121 259 264 0 0 +17 266 0 4
63 263 382 139 153 386 0 259 -17 382 0 463 266 385 22 147 380 0 0 +17 153 0 265
 35 140 22 266 386 0 382 +17 147 0 150 36 148 141 382 380 0 385 -15 150 2291 0 1
47 510 0 17 36 0 150 151 147 28 142 146 0 31 -17 151 0 150 148 36 12 31 278 0 0
 +17 31 0 30 508 27 28 151 278 0 145 -17 508 0 30 506 31 242 145 271 0 505 -17 1
45 0 143 142 244 28 508 271 0 0 +17 506 0 30 500 508 245 505 507 0 499 -17 500 0
 30 494 506 197 499 591 0 493 -17 499 0 498 129 199 245 500 591 0 0 +17 494 0 30
 490 500 200 493 497 0 489 -17 490 0 30 483 494 203 489 491 0 482 -17 483 0 30 1
60 490 182 482 563 0 158 -17 482 0 481 87 184 203 483 563 0 0 +17 160 0 30 477 4
83 149 158 480 0 476 -17 477 0 30 471 160 179 476 478 0 470 -17 471 0 30 459 477
 176 470 540 0 461 -17 470 0 469 63 178 179 471 540 0 0 +17 459 0 30 208 471 155
 461 468 0 0 -17 208 0 30 211 459 206 454 458 0 457 +17 211 0 30 606 208 209 607
 566 0 608 +17 457 0 453 454 90 206 429 427 0 607 -17 429 0 609 332 607 88 457 4
27 0 464 +17 607 0 609 429 608 206 211 566 0 0 -15 609 2327 0 332 610 0 17 608 0
 609 607 332 209 93 414 0 583 -17 332 0 609 608 429 91 464 330 0 349 +17 93 0 61
1 612 583 91 608 414 0 332 +17 583 0 611 93 229 209 606 581 0 0 +15 611 2315 0 6
12 613 0 17 229 0 611 583 612 227 111 412 0 606 -17 606 0 30 614 211 227 583 581
 0 586 -17 614 0 30 235 606 230 586 584 0 0 -17 586 0 615 111 232 227 614 584 0
 0 +15 615 2313 0 616 617 0 17 111 0 615 616 586 109 229 412 0 612 +17 232 0 615
 586 616 230 114 409 0 618 -17 616 0 615 232 111 112 352 350 0 0 -17 114 0 619 1
17 618 112 232 409 0 620 +17 618 0 619 114 621 230 235 587 0 614 -15 619 2311 0
 117 622 0 17 621 0 619 618 117 233 408 406 0 623 -17 235 0 30 223 614 233 618 5
87 0 621 +17 223 0 30 624 235 221 623 589 0 625 +17 624 0 30 626 223 224 580 578
 0 575 -17 623 0 627 408 625 233 223 589 0 0 -17 625 0 627 623 357 221 105 410 0
 580 -15 627 2309 0 357 628 0 17 357 0 627 625 408 103 629 355 0 346 +17 105 0 6
30 631 580 103 625 410 0 357 +17 580 0 630 105 226 221 624 578 0 0 +15 630 2317
 0 631 632 0 17 226 0 630 580 631 224 108 415 0 624 -17 631 0 630 226 105 106 34
6 344 0 341 -17 108 0 633 634 575 106 226 415 0 631 +15 633 2321 0 634 635 0 17
 634 0 633 220 108 100 341 339 0 0 -17 575 0 633 108 220 224 626 573 0 0 +17 220
 0 633 575 634 218 102 417 0 636 -17 626 0 30 214 624 218 575 573 0 0 -17 214 0
 30 217 626 212 636 576 0 637 +17 217 0 30 638 214 215 639 568 0 640 +17 636 0 6
41 102 637 218 214 576 0 626 -17 637 0 641 636 96 212 425 420 0 639 -15 641 2319
 0 96 642 0 17 96 0 641 637 102 94 643 342 0 425 +17 425 0 644 335 639 94 637 42
0 0 645 +17 639 0 644 425 640 212 217 568 0 0 -15 644 2325 0 335 646 0 17 640 0
 644 639 335 215 99 421 0 572 -17 335 0 644 640 425 97 645 333 0 338 +17 99 0 64
7 648 572 97 640 421 0 335 +17 572 0 647 99 166 215 638 570 0 0 +15 647 2323 0 6
48 527 0 17 166 0 647 572 648 162 48 423 0 638 -17 638 0 30 649 217 162 572 570
 0 650 -17 649 0 30 531 638 170 650 388 0 530 -17 650 0 528 48 172 162 649 388 0
 0 +15 528 2357 0 532 19 0 17 48 0 528 532 650 46 166 423 0 648 +17 172 0 528 65
0 532 170 54 450 0 649 -16 388 175 0 ?650 541 386 545 0 0 1 30 545 177 0 388 0 5
44 0 +-.233 .04755 .002 1 0 0 17 532 0 528 172 48 52 288 286 0 291 -17 288 0 463
 338 291 46 532 286 0 0 +17 338 0 463 645 288 97 648 336 0 0 +17 645 0 463 643 3
38 94 335 333 0 0 -17 648 0 647 166 99 46 338 336 0 288 -17 643 0 463 341 645 10
0 96 342 0 634 -17 341 0 463 346 643 106 634 339 0 0 +17 346 0 463 629 341 103 6
31 344 0 0 +17 629 0 463 620 346 115 357 355 0 0 -17 620 0 463 352 629 112 117 3
53 0 616 -17 352 0 463 349 620 109 616 350 0 0 +17 117 0 619 621 114 115 620 353
 0 408 +17 408 0 627 357 623 115 621 406 0 629 +17 349 0 463 464 352 91 612 347
 0 0 +17 612 0 611 229 93 109 349 347 0 352 -17 531 0 30 536 649 173 530 541 0 5
35 -17 530 0 526 54 175 170 531 541 0 0 +14 527 2324 0 ?19 646 647 6 651 +0 0 19
 646 24 14 646 2326 0 ?527 642 644 6 652 -0 0 527 642 24 50 651 2377 0 527 653 6
52 0 +-.228 .05155 .002 -1 0 0 0 0 1 50 653 2376 0 635 654 651 0 +-.216 .06755 .
002 0 1 0 0 0 1 50 652 2378 0 646 651 655 0 +-.224 .05555 .002 0 -1 0 0 0 -1 50
 655 2379 0 610 652 656 0 +-.192 .05555 .002 0 -1 0 0 0 -1 14 610 2328 0 ?613 45
6 609 6 655 -0 0 613 456 24 50 656 2380 0 456 655 657 0 +-.188 .05155 .002 -1 0
 0 0 0 1 14 456 2330 0 ?610 466 453 6 656 -0 0 610 466 24 50 657 2381 0 484 656
 658 0 +-.183 -.01755 .002 0 1 0 0 0 1 14 484 2332 0 ?274 488 481 6 657 +0 0 274
 488 24 50 658 2382 0 488 657 659 0 +-.178 -.03255 .002 1 0 0 0 0 -1 14 488 2334
 0 ?484 495 487 6 658 +0 0 484 495 24 50 659 2383 0 495 658 660 0 +-.183 -.04755
 .002 0 -1 0 0 0 -1 14 495 2336 0 ?488 501 492 6 659 +0 0 488 501 24 50 660 2384
 0 661 659 662 0 +-.238 -.03255 .002 -1 0 0 0 0 1 14 661 2338 0 ?663 664 665 6 6
60 +0 0 663 664 24 50 662 2385 0 664 660 519 0 +-.233 -.01755 .002 0 1 0 0 0 1 1
4 664 2340 0 ?661 518 666 6 662 +0 0 661 518 24 50 519 2386 0 663 662 517 0 +-.2
33 -.04755 .002 0 -1 0 0 0 -1 14 663 2342 0 ?667 661 668 6 519 +0 0 667 661 24 1
4 667 2304 0 ?669 663 670 6 671 +0 0 669 663 24 15 668 2341 0 672 663 0 17 672 0
 668 190 78 70 312 310 0 366 -17 190 0 668 554 672 188 72 399 0 673 -17 78 0 668
 672 554 76 196 436 0 674 +17 312 0 463 318 366 76 672 310 0 0 +17 366 0 463 312
 369 70 675 364 0 0 +17 369 0 463 366 676 130 677 367 0 0 +17 675 0 670 250 72 1
30 366 364 0 369 -15 670 2303 0 675 667 0 17 250 0 670 596 675 248 132 397 0 678
 -17 72 0 670 675 596 70 190 399 0 672 +17 596 0 670 72 250 188 678 594 0 0 +17
 678 0 30 679 673 248 596 594 0 599 -17 679 0 30 255 678 236 599 597 0 0 -17 673
 0 30 678 680 188 554 552 0 596 -17 599 0 681 132 238 248 679 597 0 0 +15 681 23
01 0 677 669 0 17 132 0 681 677 599 130 250 397 0 675 +17 238 0 681 599 677 236
 120 394 0 682 -17 677 0 681 238 132 118 369 367 0 0 -17 120 0 683 378 682 118 2
38 394 0 676 +17 682 0 683 120 684 236 255 279 0 679 -15 683 2295 0 378 685 0 17
 684 0 683 682 378 254 138 392 0 601 -17 255 0 30 275 679 254 682 279 0 684 +17
 275 0 30 273 255 251 601 600 0 276 -17 601 0 686 138 253 254 275 600 0 0 +15 68
6 2299 0 605 687 0 17 138 0 686 605 601 136 684 392 0 378 +17 253 0 686 601 605
 251 135 395 0 275 -17 605 0 686 253 138 133 372 370 0 375 -17 372 0 463 676 375
 136 605 370 0 0 +17 676 0 463 369 372 118 378 376 0 677 -17 378 0 683 684 120 1
36 676 376 0 372 +14 687 2300 0 ?604 685 686 6 688 +0 0 604 685 24 14 604 2298 0
 ?261 687 602 6 689 +0 0 261 687 24 14 685 2296 0 ?687 669 683 6 690 -0 0 687 66
9 24 50 688 2365 0 687 689 691 0 +-.216 -.06755 .002 0 -1 0 0 0 -1 50 689 2364 0
 604 690 688 0 +-.212 -.06155 .002 1 0 0 0 0 -1 50 691 2366 0 669 688 671 0 +-.2
24 -.05555 .002 0 -1 0 0 0 -1 14 669 2302 0 ?685 667 681 6 691 +0 0 685 667 24 5
0 671 2367 0 667 691 512 0 +-.228 -.05155 .002 -1 0 0 0 0 1 50 512 2368 0 504 67
1 692 0 +-.192 -.05555 .002 0 -1 0 0 0 -1 50 692 2369 0 501 512 693 0 +-.188 -.0
5155 .002 1 0 0 0 0 -1 14 501 2308 0 ?495 504 498 6 692 +0 0 495 504 24 50 693 2
370 0 628 692 694 0 +-.208 .05555 .002 0 -1 0 0 0 -1 14 628 2310 0 ?632 622 627
 6 693 -0 0 632 622 24 50 694 2371 0 622 693 695 0 +-.204 .06155 .002 1 0 0 0 0
 -1 14 622 2312 0 ?628 617 619 6 694 -0 0 628 617 24 50 695 2372 0 617 694 696 0
 +-.2 .06755 .002 0 1 0 0 0 1 14 617 2314 0 ?622 613 615 6 695 +0 0 622 613 24 5
0 696 2373 0 613 695 697 0 +-.196 .06155 .002 1 0 0 0 0 -1 14 613 2316 0 ?617 61
0 611 6 696 +0 0 617 610 24 50 697 2374 0 632 696 654 0 +-.212 .06155 .002 1 0 0
 0 0 -1 14 632 2318 0 ?635 628 630 6 697 +0 0 635 628 24 50 654 2375 0 642 697 6
53 0 +-.22 .06155 .002 1 0 0 0 0 -1 14 642 2320 0 ?646 635 641 6 654 -0 0 646 63
5 24 14 635 2322 0 ?642 632 633 6 653 +0 0 642 632 24 50 690 2363 0 685 698 689
 0 +-.22 -.06155 .002 1 0 0 0 0 -1 50 698 2362 0 261 513 690 0 +-.208 -.05555 .0
02 0 -1 0 0 0 -1 14 261 2294 0 ?269 604 257 6 698 +0 0 269 604 24 50 513 2361 0
 510 511 698 0 +-.2 -.06755 .002 0 -1 0 0 0 -1 14 269 2288 0 ?510 261 265 6 514
 -0 0 510 261 24 50 514 2359 0 269 699 511 0 +-.204 -.06155 .002 1 0 0 0 0 -1 50
 699 2178 0 465 700 514 0 +-.154 -277555756156289e-31 0 0 0 1 1 0 0 14 465 1818
 0 ?0 274 463 6 699 -0 0 0 274 24 50 700 3 0 274 0 699 0 +-.154 -277555756156289
e-31 .002 0 0 1 1 0 0 14 274 1 701 ?465 484 30 6 700 +0 0 465 484 24 81 1 701 27
61 702 274 0 0 0 0 703 80 7 CCCCCDI12 legal_owners0 17 1 lCZ1 702 0 704 8001 0 0
 0 0 3 5 0 0 0 FFFFTFTFFFFFFFFFF2 83 255 3 703 .231372549019608 .380392156862745
 .705882352941177 79 255 15 704 SDL/TYSA_COLOUR17 680 0 30 673 705 194 560 558 0
 554 -17 554 0 668 78 190 194 673 552 0 0 +17 705 0 30 680 538 191 557 555 0 560
 -17 560 0 665 75 196 191 680 558 0 0 +15 665 2337 0 674 661 0 17 75 0 665 674 5
60 73 193 438 0 706 +17 196 0 665 560 674 194 78 436 0 680 -17 674 0 665 196 75
 76 318 316 0 312 -17 318 0 463 315 312 73 674 316 0 0 +17 315 0 463 309 318 67
 706 313 0 0 +17 706 0 666 193 69 73 315 313 0 318 -15 666 2339 0 706 664 0 17 1
93 0 666 557 706 191 75 438 0 705 -17 69 0 666 706 557 67 187 440 0 534 +17 557
 0 666 69 193 185 705 555 0 0 +17 187 0 707 539 534 185 69 440 0 538 -17 534 0 7
07 187 51 67 309 307 0 315 -15 707 2343 0 534 518 0 17 51 0 707 534 539 49 169 4
43 0 533 +17 539 0 707 51 187 167 538 550 0 0 +17 538 0 30 705 536 185 539 550 0
 557 -14 518 2344 0 ?664 523 707 6 517 +0 0 664 523 24 17 102 0 641 96 636 100 2
20 417 0 643 +19 18 2432 0 1 0 10 6 0 S0 74 4 CI16 index_map_offset0 0 1 dCCZ20
 16 4 0 0 701 708 14 2 0 0 0 0 0 0 0 0 0 0 0 0 0 0 0 0 81 1 708 2762 709 1 0 14
 0 0 710 81 1 14 2763 711 1 708 2 0 0 712 80 1 711 13 713 8038 0 0 0 0 0 0 0 0 0
 TTTTTTTTTTTTTFTFT10 98 255 6 712 80 97 114 116 32 51 79 14 713 SDL/TYSA_UNAME80
 1 709 702 714 8040 0 0 0 0 3 5 0 0 0 TTTFFFFFFFFFFFFFF2 83 3 710 .2313725490196
08 .380392156862745 .705882352941177 79 17 714 SDL/TYSA_COLOUR_280 1 13 715 716
 8017 0 0 0 0 0 0 0 0 0 TTTTTTTTTTTTTFTFT3 84 255 6 15 Part 379 13 716 SDL/TYSA_
NAME1 0 
