**ABCDEFGHIJKLMNOPQRSTUVWXYZabcdefghijklmnopqrstuvwxyz**************************
**PARASOLID !"#$%&'()*+,-./:;<=>?@[\]^_`{|}~0123456789**************************
**PART1;
MC=unknown;
MC_MODEL=unknown;
MC_ID=unknown;
OS=unknown;
OS_RELEASE=unknown;
FRU=Parasolid 37.0.209;
APPL=Onshape;
SITE=unknown;
USER=unknown;
FORMAT=text;
GUISE=transmit;
KEY=BTGapi::writeModels_.xmt;
FILE=BTGapi::writeModels_.xmt;
DATE=2025-03-16T16:43:44 (UTC);
**PART2;
SCH=SCH_3700209_36001;
USFLD_SIZE=0;
**PART3;
**END_OF_HEADER*****************************************************************
T51 : TRANSMIT FILE created by modeller version 370020923 SCH_3700209_36001_1300
6231 0 12 36 CCCI7 lattice222 0 CCCI4 mesh1006 0 I8 polyline1008 0 CCCCCCCDI5 ow
ner1040 0 CCCI16 boundary_lattice222 0 CCCI13 boundary_mesh1006 0 I17 boundary_p
olyline1008 0 CCCA16 index_map_offset0 0 1 dA9 index_map82 0 A17 node_id_index_m
ap82 0 A20 schema_embedding_map82 0 A5 child12 0 A14 lowest_node_id0 0 1 dA16 me
sh_offset_data206 0 Z1 142 2 3 0 0 0 0 0 0 0 1e3 1e-8 0 4 5 1 0 1 2 6 0 7 8 0 0
 0 9 10 0 0 0 0 0 0 0 0 81 255 1 2 142 11 1 12 0 0 0 13 70 11 CI9 list_type0 0 1
 uI10 notransmit0 0 1 lCCCDCCDI12 finger_index0 0 1 dI12 finger_block1012 0 CZ3
 0 4 T1 0 0 6 20 1 14 14 13 255 6 22 0 1 0 15 0 0 16 0 50 255 7 71 0 15 17 0 0 +
-.01225 -.01055 .00525 1 0 0 0 0 -1 31 255 8 70 0 18 19 0 0 +-.01225 -.00565 .00
1 1 0 0 0 0 -1 5e-4 19 9 CCCCCCI5 frame230 0 CA5 owner12 0 Z9 1 0 1 16 0 20 0 V0
 16 255 10 10 21 ?22 0 18 19 0 0 1 81 1 21 126 23 10 0 0 0 24 25 17 255 22 0 26
 22 22 0 27 10 0 0 +16 18 5 24 ?28 10 0 8 0 0 1 31 19 68 0 10 0 8 0 +-.00925 -.0
0565 .001 -1 0 0 0 0 1 5e-4 81 1 24 127 23 18 0 0 21 29 30 17 28 0 31 28 28 0 32
 18 0 0 +15 255 31 4 0 28 33 0 17 32 0 34 32 32 0 28 18 0 0 -15 34 20 0 32 15 0
 14 255 15 19 29 ?35 0 34 6 7 -0 0 35 0 20 81 1 29 128 23 15 0 0 24 36 37 14 35
 13 36 ?33 15 38 6 39 -0 0 33 15 20 13 20 2 0 0 0 0 0 0 9 15 81 1 36 129 23 35 0
 0 29 40 41 14 33 3 40 ?0 35 26 6 17 +0 0 0 35 20 15 38 14 0 27 35 0 50 39 67 0
 35 0 17 0 +-.00925 0 0 -1 0 0 0 0 1 51 255 17 69 0 33 39 7 0 +-.014664213562373
1 -.00565 .001 1 0 0 5e-4 0 0 -1 17 27 0 38 27 27 0 22 10 0 0 -81 1 40 130 23 33
 0 0 36 42 43 15 26 121 0 22 33 31 80 7 CCCCCDI12 legal_owners0 17 1 lCZ1 23 44
 45 9000 0 0 0 0 3 5 0 0 0 FFTFTFTTFFFFFFFFF2 81 1 42 131 23 1 46 47 40 0 48 83
 255 1 43 5493 81 1 46 124 49 1 0 42 0 0 50 81 1 47 132 51 1 42 52 0 0 53 83 1 4
8 5494 80 1 51 23 54 9000 0 0 0 0 3 5 0 0 0 FFTFTFTTFFFFFFFFF2 81 1 52 140 55 1
 47 12 0 0 56 83 1 53 6713 80 1 55 57 58 8040 0 0 0 0 3 5 0 0 0 TTTFFFFFFFFFFFFF
F2 81 1 12 141 59 1 52 2 0 0 60 83 3 56 .549019607843137 .36078431372549 .031372
54901960785 80 1 59 11 61 8038 0 0 0 0 0 0 0 0 0 TTTTTTTTTTTTTFTFT10 98 255 40 6
0 83 71 57 48 32 45 32 77 105 99 114 111 32 83 101 114 118 111 32 57 103 32 45 3
2 84 111 119 101 114 32 80 114 111 46 49 95 80 101 8225 97 79 255 14 61 SDL/TYSA
_UNAME79 17 58 SDL/TYSA_COLOUR_279 18 54 BTI/importMaxCount80 1 49 62 63 9000 0
 0 0 0 3 5 0 0 0 TTTFFFFFFFFFFFFFF1 82 255 1 50 7 79 23 63 ONSHAPE_ORIGINALBODY_
ID79 13 45 BTI/importTag83 1 41 5492 83 1 37 5491 83 1 30 5490 83 1 25 5489 19 1
6 21 0 1 0 9 6 0 S0 74 4 CI16 index_map_offset0 0 1 dCCZ20 14 6 0 0 46 42 47 52
 12 2 0 0 0 0 0 0 0 0 0 0 0 0 0 0 80 1 11 64 65 8017 0 0 0 0 0 0 0 0 0 TTTTTTTTT
TTTTFTFT3 84 255 40 13 SG90 - Micro Servo 9g - Tower Pro.1_Pe‡a79 13 65 SDL/TYSA
_NAME1 0 
