**ABCDEFGHIJKLMNOPQRSTUVWXYZabcdefghijklmnopqrstuvwxyz**************************
**PARASOLID !"#$%&'()*+,-./:;<=>?@[\]^_`{|}~0123456789**************************
**PART1;
MC=unknown;
MC_MODEL=unknown;
MC_ID=unknown;
OS=unknown;
OS_RELEASE=unknown;
FRU=Parasolid 37.0.209;
APPL=Onshape;
SITE=unknown;
USER=unknown;
FORMAT=text;
GUISE=transmit;
KEY=BTGapi::writeModels_.xmt;
FILE=BTGapi::writeModels_.xmt;
DATE=2025-03-16T16:43:44 (UTC);
**PART2;
SCH=SCH_3700209_36001;
USFLD_SIZE=0;
**PART3;
**END_OF_HEADER*****************************************************************
T51 : TRANSMIT FILE created by modeller version 370020923 SCH_3700209_36001_1300
6231 0 12 36 CCCI7 lattice222 0 CCCI4 mesh1006 0 I8 polyline1008 0 CCCCCCCDI5 ow
ner1040 0 CCCI16 boundary_lattice222 0 CCCI13 boundary_mesh1006 0 I17 boundary_p
olyline1008 0 CCCA16 index_map_offset0 0 1 dA9 index_map82 0 A17 node_id_index_m
ap82 0 A20 schema_embedding_map82 0 A5 child12 0 A14 lowest_node_id0 0 1 dA16 me
sh_offset_data206 0 Z1 1135 2 3 0 0 0 0 0 0 0 1e3 1e-8 0 4 0 1 0 1 2 5 0 6 7 8 0
 0 9 10 11 0 0 0 0 0 0 0 81 255 1 2 1135 12 1 13 0 0 0 14 70 11 CI9 list_type0 0
 1 uI10 notransmit0 0 1 lCCCDCCDI12 finger_index0 0 1 dI12 finger_block1012 0 CZ
3 0 4 T1 0 0 3 20 1 15 15 13 255 5 905 0 1 0 16 0 0 17 0 50 255 6 880 0 18 19 0
 0 +-.0425 -.015 .002 0 -1 0 0 0 -1 30 255 7 904 0 20 21 0 0 +-.0295 -.015 .002
 0 0 -1 29 255 8 761 0 22 23 0 .0455 .015 0 19 9 CCCCCCI5 frame230 0 CA5 owner12
 0 Z9 363 0 1 17 0 24 0 V0 16 255 10 797 0 ?25 0 26 27 0 0 1 18 255 11 357 0 28
 0 29 30 ?1 17 255 28 0 31 32 33 11 34 35 0 36 -18 29 347 0 37 11 38 39 ?1 29 30
 359 0 11 39 40 .0455 .015 .002 29 39 349 0 29 41 30 -.0555 .015 .002 29 40 784
 0 42 30 43 -.0295 -.015 0 18 42 732 0 44 45 0 40 ?1 29 43 783 0 45 40 46 -.0295
 -.005 0 18 45 728 0 47 48 42 43 ?1 29 46 782 0 48 43 49 -.0295 .005 0 18 48 724
 0 50 51 45 46 ?1 29 49 781 0 51 46 52 -.0295 .015 0 18 51 720 0 53 54 48 49 ?1
 29 52 780 0 54 49 55 -.0455 .005 0 18 54 716 0 56 57 51 52 ?1 29 55 779 0 57 52
 58 -.0455 -.005 0 18 57 712 0 59 60 54 55 ?1 29 58 778 0 60 55 61 -.0475 -.005
 0 18 60 708 0 62 63 57 58 ?1 29 61 777 0 63 58 64 -.0475 .005 0 18 63 704 0 65
 66 60 61 ?1 29 64 776 0 66 61 67 -.0555 -.015 0 18 66 700 0 68 69 63 64 ?1 29 6
7 775 0 69 64 70 .0555 .005 0 18 69 696 0 71 72 66 67 ?1 29 70 774 0 72 67 73 .0
455 .005 0 18 72 692 0 74 75 69 70 ?1 29 73 773 0 75 70 76 .0295 .005 0 18 75 68
8 0 25 77 72 73 ?1 29 76 772 0 77 73 78 .0295 -.005 0 18 77 684 0 79 80 75 76 ?1
 29 78 771 0 80 76 81 .0275 -.005 0 18 80 680 0 82 83 77 78 ?1 29 81 770 0 83 78
 84 .0275 .005 0 18 83 676 0 85 86 80 81 ?1 29 84 769 0 86 81 87 -.0275 .015 0 1
8 86 672 0 88 89 83 84 ?1 29 87 768 0 89 84 90 -.0275 .005 0 18 89 668 0 91 92 8
6 87 ?1 29 90 767 0 92 87 93 -.0275 -.005 0 18 92 664 0 94 95 89 90 ?1 29 93 766
 0 95 90 96 -.0275 -.015 0 18 95 660 0 97 98 92 93 ?1 29 96 765 0 98 93 99 .0455
 -.015 0 18 98 656 0 100 101 95 96 ?1 29 99 764 0 101 96 102 .0455 -.005 0 18 10
1 652 0 103 104 98 99 ?1 29 102 763 0 104 99 23 .0555 -.005 0 18 104 648 0 105 1
06 101 102 ?1 29 23 762 0 106 102 8 -.0555 .015 0 18 106 644 0 107 22 104 23 ?1
 17 107 0 108 109 110 106 111 112 0 113 -18 22 640 0 34 114 106 8 ?1 17 34 0 115
 116 36 22 28 35 0 117 +18 114 212 0 118 119 22 120 ?1 17 118 0 121 122 123 114
 44 20 0 124 -18 119 217 0 125 126 114 127 ?1 29 120 214 0 114 0 127 -.0295 -.01
5 .002 29 127 219 0 119 120 128 -.0295 -.005 .002 29 128 224 0 126 127 129 -.029
5 .005 .002 18 126 222 0 130 131 119 128 ?1 29 129 229 0 131 128 132 -.0295 .015
 .002 18 131 227 0 133 134 126 129 ?1 29 132 239 0 134 129 135 -.0455 .005 .002
 18 134 237 0 136 137 131 132 ?1 29 135 244 0 137 132 138 -.0455 -.005 .002 18 1
37 242 0 139 140 134 135 ?1 29 138 249 0 140 135 141 -.0475 -.005 .002 18 140 24
7 0 142 143 137 138 ?1 29 141 254 0 143 138 144 -.0475 .005 .002 18 143 252 0 14
5 146 140 141 ?1 29 144 264 0 146 141 147 -.0555 -.015 .002 18 146 262 0 148 149
 143 144 ?1 29 147 269 0 149 144 150 .0555 .005 .002 18 149 267 0 151 152 146 14
7 ?1 29 150 274 0 152 147 153 .0455 .005 .002 18 152 272 0 154 155 149 150 ?1 29
 153 279 0 155 150 156 .0295 .005 .002 18 155 277 0 157 158 152 153 ?1 29 156 28
4 0 158 153 159 .0295 -.005 .002 18 158 282 0 160 161 155 156 ?1 29 159 289 0 16
1 156 162 .0275 -.005 .002 18 161 287 0 163 164 158 159 ?1 29 162 294 0 164 159
 165 .0275 .005 .002 18 164 292 0 166 167 161 162 ?1 29 165 314 0 167 162 168 -.
0275 .015 .002 18 167 312 0 169 170 164 165 ?1 29 168 319 0 170 165 171 -.0275 .
005 .002 18 170 317 0 172 173 167 168 ?1 29 171 324 0 173 168 174 -.0275 -.005 .
002 18 173 322 0 175 176 170 171 ?1 29 174 329 0 176 171 177 -.0275 -.015 .002 1
8 176 327 0 178 179 173 174 ?1 29 177 334 0 179 174 180 .0455 -.015 .002 18 179
 332 0 181 182 176 177 ?1 29 180 339 0 182 177 41 .0455 -.005 .002 18 182 337 0
 183 38 179 180 ?1 29 41 344 0 38 180 39 .0555 -.005 .002 18 38 342 0 184 29 182
 41 ?1 17 184 0 185 186 187 38 105 188 0 189 -15 255 185 819 0 187 190 0 17 186
 0 185 103 184 182 189 191 0 0 +17 187 0 185 184 103 104 192 193 0 194 -17 105 0
 195 196 197 104 184 188 0 187 +16 188 787 0 ?105 198 199 200 0 0 1 17 189 0 201
 202 183 38 186 191 0 197 -15 201 6 0 124 203 204 17 202 0 201 154 189 149 197 2
05 0 0 -17 183 0 201 189 206 182 207 208 0 209 +16 191 157 0 ?186 210 208 211 0
 0 1 17 197 0 195 105 151 38 202 205 0 0 +15 195 839 0 196 212 0 17 151 0 195 19
7 196 149 71 199 0 213 -16 205 82 0 ?197 214 215 216 0 0 1 16 214 87 0 ?154 217
 205 218 0 0 1 16 215 77 0 ?148 205 219 220 0 0 1 30 216 84 0 205 220 218 0 +.05
55 3469446951953615e-33 .002 0 -1 0 30 220 79 0 215 221 216 0 +-.0555 -.005 .002
 0 -1 0 30 218 89 0 214 216 222 0 +.0505 .005 .002 -1 -1734723475976805e-31 0 30
 222 99 0 217 218 223 0 +.0295 -607153216591882e-32 .002 0 -1 0 16 217 97 0 ?224
 225 214 222 0 0 1 30 223 104 0 225 222 226 0 +.0285 -.005 .002 -1 0 0 16 225 10
2 0 ?163 227 217 223 0 0 1 30 226 109 0 227 223 228 0 +.0275 -1040834085586084e-
32 .002 0 -1 0 16 227 107 0 ?229 230 225 226 0 0 1 30 228 119 0 230 226 231 0 +.
0235 .015 .002 -1 0 0 16 230 117 0 ?232 233 227 228 0 0 1 30 231 134 0 233 228 2
34 0 +-.0275 .01 .002 0 -1 0 16 233 132 0 ?172 235 230 231 0 0 1 30 234 144 0 23
5 231 236 0 +-.0275 -.01 .002 0 -1 0 16 235 142 0 ?178 237 233 234 0 0 1 30 236
 149 0 237 234 238 0 +.009 -.015 .002 -1 0 0 16 237 147 0 ?239 208 235 236 0 0 1
 30 238 154 0 208 236 211 0 +.0455 -.01 .002 0 1 0 16 208 152 0 ?183 191 237 238
 0 0 1 30 211 159 0 191 238 240 0 +.0505 -.005 .002 -1 -260208521396521e-30 0 30
 240 164 0 210 211 241 0 +-.0465 .005 .002 1 4336808689942015e-31 0 16 210 162 0
 ?242 243 191 240 0 0 1 30 241 179 0 243 240 244 0 +-.0285 .005 .002 1 0 0 16 24
3 177 0 ?245 246 210 241 0 0 1 30 244 184 0 246 241 247 0 +-.0285 -.005 .002 1 0
 0 16 246 182 0 ?248 249 243 244 0 0 1 30 247 199 0 249 244 250 0 +.0285 .005 .0
02 -1 0 0 16 249 197 0 ?251 252 246 247 0 0 1 30 250 204 0 252 247 253 0 +.0455
 .01 .002 0 -1 0 16 252 202 0 ?32 254 249 250 0 0 1 30 253 760 0 255 250 256 0 +
-.0425 -.015 0 -1 0 0 16 255 636 0 ?110 257 0 253 0 0 1 30 256 759 0 257 253 258
 0 +-.0295 -.01 0 0 -1 0 16 257 632 0 ?259 260 255 256 0 0 1 30 258 758 0 260 25
6 261 0 +-.0295 .01 0 0 -1 0 16 260 628 0 ?262 263 257 258 0 0 1 30 261 757 0 26
3 258 264 0 +-.0375 .015 0 -1 0 0 16 263 622 0 ?265 266 260 261 0 0 1 30 264 756
 0 266 261 267 0 +-.0455 -1561251128379125e-32 0 0 -1 0 16 266 618 0 ?59 268 263
 264 0 0 1 30 267 755 0 268 264 269 0 +-.0465 -.005 0 -1 0 0 16 268 614 0 ?270 2
71 266 267 0 0 1 30 269 754 0 271 267 272 0 +-.0475 -1647987302177965e-32 0 0 -1
 0 16 271 610 0 ?273 112 268 269 0 0 1 30 272 753 0 112 269 274 0 +-.0555 -.005
 0 0 -1 0 16 112 604 0 ?111 275 271 272 0 0 1 30 274 752 0 275 272 276 0 +.0555
 3469446951953615e-33 0 0 -1 0 16 275 600 0 ?194 277 112 274 0 0 1 30 276 751 0
 277 274 278 0 +.0505 .005 0 -1 -1734723475976805e-31 0 16 277 596 0 ?279 280 27
5 276 0 0 1 30 278 750 0 280 276 281 0 +.0295 -607153216591882e-32 0 0 -1 0 16 2
80 592 0 ?282 283 277 278 0 0 1 30 281 749 0 283 278 284 0 +.0285 -.005 0 -1 0 0
 16 283 588 0 ?285 286 280 281 0 0 1 30 284 748 0 286 281 287 0 +.0275 -10408340
85586084e-32 0 0 -1 0 16 286 584 0 ?288 289 283 284 0 0 1 30 287 747 0 289 284 2
90 0 +.0235 .015 0 -1 0 0 16 289 572 0 ?116 291 286 287 0 0 1 30 290 746 0 291 2
87 292 0 +-.0275 .01 0 0 -1 0 16 291 568 0 ?293 294 289 290 0 0 1 30 292 745 0 2
94 290 295 0 +-.0275 -.01 0 0 -1 0 16 294 564 0 ?296 297 291 292 0 0 1 30 295 74
4 0 297 292 298 0 +.009 -.015 0 -1 0 0 16 297 560 0 ?299 300 294 295 0 0 1 30 29
8 743 0 300 295 301 0 +.0455 -.01 0 0 1 0 16 300 556 0 ?302 193 297 298 0 0 1 30
 301 742 0 193 298 303 0 +.0505 -.005 0 -1 -260208521396521e-30 0 16 193 552 0 ?
192 304 300 301 0 0 1 30 303 741 0 304 301 305 0 +-.0465 .005 0 1 43368086899420
15e-31 0 16 304 548 0 ?306 307 193 303 0 0 1 30 305 740 0 307 303 308 0 +-.0285
 .005 0 1 0 0 16 307 544 0 ?309 310 304 305 0 0 1 30 308 739 0 310 305 311 0 +-.
0285 -.005 0 1 0 0 16 310 540 0 ?312 313 307 308 0 0 1 30 311 738 0 313 308 314
 0 +.0285 .005 0 -1 0 0 16 313 536 0 ?315 316 310 311 0 0 1 30 314 737 0 316 311
 317 0 +.0455 .01 0 0 -1 0 16 316 532 0 ?318 319 313 314 0 0 1 30 317 881 0 35 3
14 320 0 +.0455 .015 .002 0 0 -1 16 35 785 0 ?34 321 322 317 0 0 1 30 320 882 0
 323 317 200 0 +-.0555 .015 .002 0 0 -1 16 323 786 0 ?113 324 325 320 0 0 1 30 2
00 883 0 188 320 326 0 +.0555 -.005 .002 0 0 -1 30 326 884 0 198 200 327 0 +.045
5 -.005 .002 0 0 -1 16 198 788 0 ?103 328 188 326 0 0 1 30 327 885 0 328 326 329
 0 +.0455 -.015 .002 0 0 -1 16 328 789 0 ?100 330 198 327 0 0 1 30 329 886 0 330
 327 331 0 +-.0275 -.015 .002 0 0 -1 16 330 790 0 ?97 332 328 329 0 0 1 30 331 8
87 0 332 329 333 0 +-.0275 -.005 .002 0 0 -1 16 332 791 0 ?334 335 330 331 0 0 1
 30 333 888 0 336 331 337 0 +-.0275 .005 .002 0 0 -1 16 336 792 0 ?91 322 338 33
3 0 0 1 30 337 889 0 322 333 339 0 +-.0275 .015 .002 0 0 -1 16 322 793 0 ?340 35
 336 337 0 0 1 30 339 890 0 341 337 342 0 +.0275 .005 .002 0 0 -1 16 341 794 0 ?
85 343 20 339 0 0 1 30 342 891 0 343 339 344 0 +.0275 -.005 .002 0 0 -1 16 343 7
95 0 ?82 26 341 342 0 0 1 30 344 892 0 26 342 27 0 +.0295 -.005 .002 0 0 -1 16 2
6 796 0 ?345 10 343 344 0 0 1 30 27 893 0 10 344 346 0 +.0295 .005 .002 0 0 -1 3
0 346 894 0 321 27 347 0 +.0455 .005 .002 0 0 -1 16 321 798 0 ?74 199 35 346 0 0
 1 30 347 895 0 199 346 348 0 +.0555 .005 .002 0 0 -1 16 199 799 0 ?71 188 321 3
47 0 0 1 30 348 896 0 325 347 349 0 +-.0555 -.015 .002 0 0 -1 16 325 800 0 ?68 3
23 350 348 0 0 1 30 349 897 0 254 348 351 0 +-.0475 .005 .002 0 0 -1 16 254 801
 0 ?65 352 252 349 0 0 1 30 351 898 0 352 349 353 0 +-.0475 -.005 .002 0 0 -1 16
 352 802 0 ?62 354 254 351 0 0 1 30 353 899 0 354 351 355 0 +-.0455 -.005 .002 0
 0 -1 16 354 803 0 ?356 350 352 353 0 0 1 30 355 900 0 350 353 357 0 +-.0455 .00
5 .002 0 0 -1 16 350 804 0 ?358 325 354 355 0 0 1 30 357 901 0 324 355 359 0 +-.
0295 .015 .002 0 0 -1 16 324 805 0 ?53 338 323 357 0 0 1 30 359 902 0 338 357 21
 0 +-.0295 .005 .002 0 0 -1 16 338 806 0 ?50 336 324 359 0 0 1 30 21 903 0 335 3
59 7 0 +-.0295 -.005 .002 0 0 -1 16 335 807 0 ?47 20 332 21 0 0 1 17 47 0 360 31
2 361 45 125 335 0 362 +16 20 808 0 ?44 341 335 7 0 0 1 17 44 0 363 364 365 42 1
18 20 0 123 +15 363 853 0 364 366 0 17 364 0 363 125 44 45 259 257 0 0 -17 365 0
 363 44 125 114 367 368 0 0 +17 123 0 121 118 68 42 110 255 0 259 -15 121 855 0
 123 18 0 17 68 0 121 123 122 66 369 325 0 111 +17 110 0 108 107 259 66 123 255
 0 0 +17 259 0 108 110 362 42 364 257 0 0 +15 108 530 0 110 370 371 17 362 0 108
 259 94 45 312 310 0 364 -17 94 0 108 362 299 92 296 294 0 334 -17 312 0 360 372
 47 92 362 310 0 0 +15 360 813 0 312 373 0 17 372 0 360 361 312 173 334 332 0 0
 -17 361 0 360 47 372 119 248 246 0 367 -17 334 0 374 296 175 92 372 332 0 312 +
15 374 825 0 296 375 0 17 296 0 374 376 334 95 94 294 0 299 +17 175 0 374 334 37
6 173 178 235 0 248 -17 376 0 374 175 296 176 97 330 0 239 -17 178 0 201 206 248
 176 175 235 0 376 +17 248 0 201 178 367 173 361 246 0 372 +17 367 0 201 248 124
 119 365 368 0 0 -17 124 0 201 367 148 114 122 319 0 365 -16 368 32 0 ?365 377 3
19 378 0 0 1 16 377 42 0 ?379 380 368 381 0 0 1 16 319 27 0 ?122 368 316 382 0 0
 1 30 378 34 0 368 382 381 0 +-.0295 -.01 .002 0 -1 0 30 382 29 0 319 0 378 0 +-
.0425 -.015 .002 -1 0 0 30 381 44 0 377 378 383 0 +-.0295 .01 .002 0 -1 0 30 383
 49 0 380 381 384 0 +-.0375 .015 .002 -1 0 0 16 380 47 0 ?385 386 377 383 0 0 1
 30 384 59 0 386 383 387 0 +-.0455 -1561251128379125e-32 .002 0 -1 0 16 386 57 0
 ?139 388 380 384 0 0 1 30 387 64 0 388 384 221 0 +-.0465 -.005 .002 -1 0 0 16 3
88 62 0 ?142 219 386 387 0 0 1 30 221 69 0 219 387 220 0 +-.0475 -16479873021779
65e-32 .002 0 -1 0 16 219 67 0 ?389 215 388 221 0 0 1 17 389 0 390 62 145 140 39
1 219 0 0 +15 390 843 0 392 393 0 17 62 0 390 392 389 60 394 352 0 270 +17 145 0
 390 389 392 143 65 254 0 395 -17 391 0 396 242 142 143 389 219 0 0 -15 396 376
 0 242 203 201 17 242 0 396 139 391 134 395 210 0 397 +17 142 0 396 391 139 140
 398 388 0 394 +17 139 0 396 142 242 137 136 386 0 399 +17 398 0 400 356 394 137
 142 388 0 0 -17 394 0 400 398 270 140 62 352 0 389 -15 400 845 0 270 401 0 17 2
70 0 400 394 356 60 402 268 0 273 +17 356 0 400 270 398 57 399 354 0 402 +17 402
 0 403 56 273 57 270 268 0 0 -17 273 0 403 402 404 60 392 271 0 0 +15 403 529 0
 404 370 108 17 404 0 403 273 56 63 306 304 0 392 -17 392 0 390 145 62 63 273 27
1 0 0 -17 56 0 403 404 402 54 59 266 0 358 -17 306 0 405 397 65 54 404 304 0 0 +
15 405 817 0 306 406 0 17 397 0 405 395 306 134 358 350 0 0 -17 65 0 405 306 395
 63 145 254 0 404 +17 395 0 405 65 397 143 242 210 0 391 -17 358 0 407 59 136 54
 397 350 0 306 +15 407 847 0 59 408 0 17 59 0 407 399 358 57 56 266 0 356 +17 13
6 0 407 358 399 134 139 386 0 242 -17 399 0 407 136 59 137 356 354 0 398 -14 255
 408 848 0 ?401 406 407 5 409 -0 0 401 406 24 14 401 846 0 ?410 408 400 5 411 -0
 0 410 408 24 14 406 818 0 ?408 412 405 5 413 -0 0 408 412 24 50 409 876 0 408 4
11 414 0 +-.0455 -1561251128379125e-32 .002 1 0 0 0 0 -1 13 24 364 0 0 0 0 0 0 9
 16 14 16 812 0 ?415 0 416 5 417 +0 0 415 0 24 14 415 836 0 ?418 16 419 5 420 -0
 0 418 16 24 15 416 811 0 421 16 0 50 417 858 0 16 422 423 0 +.0285 .005 .002 0
 -1 0 0 0 -1 50 422 857 0 424 425 417 0 +.0455 .01 .002 1 0 0 0 0 -1 50 423 859
 0 373 417 426 0 +-.0285 -.005 .002 0 1 0 0 0 1 14 373 814 0 ?375 366 360 5 423
 -0 0 375 366 24 50 426 860 0 427 423 413 0 +-.0285 .005 .002 0 1 0 0 0 1 14 427
 816 0 ?428 429 430 5 426 +0 0 428 429 24 50 413 861 0 406 426 431 0 +-.0465 .00
5 .002 -4336808689942015e-31 1 0 -1 -4336808689942015e-31 0 50 431 862 0 190 413
 432 0 +.0505 -.005 .002 260208521396521e-30 -1 0 1 260208521396521e-30 0 14 190
 820 0 ?212 433 185 5 431 +0 0 212 433 24 50 432 863 0 433 431 434 0 +.0455 -.01
 .002 -1 0 0 0 0 1 14 433 822 0 ?190 435 436 5 432 -0 0 190 435 24 50 434 864 0
 435 432 437 0 +.009 -.015 .002 0 -1 0 0 0 -1 14 435 824 0 ?433 375 438 5 434 +0
 0 433 375 24 50 437 865 0 375 434 439 0 +-.0275 -.01 .002 1 0 0 0 0 -1 14 375 8
26 0 ?435 373 374 5 437 -0 0 435 373 24 50 439 866 0 429 437 440 0 +-.0275 .01 .
002 1 0 0 0 0 -1 14 429 828 0 ?427 441 442 5 439 -0 0 427 441 24 50 440 867 0 44
1 439 443 0 +.0235 .015 .002 0 -1 0 0 0 -1 14 441 830 0 ?429 424 115 5 440 -0 0
 429 424 24 50 443 868 0 444 440 445 0 +.0275 -1040834085586084e-32 .002 1 0 0 0
 0 -1 14 444 832 0 ?203 393 446 5 443 +0 0 203 393 24 50 445 869 0 418 443 420 0
 +.0285 -.005 .002 0 -1 0 0 0 -1 14 418 834 0 ?18 415 447 5 445 -0 0 18 415 24 5
0 420 870 0 415 445 448 0 +.0295 -607153216591882e-32 .002 1 0 0 0 0 -1 50 448 8
71 0 449 420 450 0 +.0505 .005 .002 1734723475976805e-31 -1 0 1 1734723475976805
e-31 0 14 449 838 0 ?424 212 451 5 448 -0 0 424 212 24 50 450 872 0 212 448 452
 0 +.0555 3469446951953615e-33 .002 1 0 0 0 0 -1 14 212 840 0 ?449 190 195 5 450
 +0 0 449 190 24 50 452 873 0 410 450 453 0 +-.0555 -.005 .002 1 0 0 0 0 -1 14 4
10 842 0 ?393 401 454 5 452 -0 0 393 401 24 50 453 874 0 393 452 411 0 +-.0475 -
1647987302177965e-32 .002 1 0 0 0 0 -1 14 393 844 0 ?444 410 390 5 453 +0 0 444
 410 24 50 411 875 0 401 453 409 0 +-.0465 -.005 .002 0 -1 0 0 0 -1 15 454 841 0
 111 410 0 17 111 0 454 369 113 66 107 112 0 110 +17 369 0 454 37 111 146 68 325
 0 122 -17 113 0 454 111 37 106 455 323 0 265 +17 37 0 454 113 369 29 148 215 0
 385 -17 455 0 456 457 265 29 113 323 0 0 -17 265 0 456 455 53 106 109 263 0 0 +
15 456 849 0 265 412 0 17 53 0 456 265 457 51 133 324 0 109 +17 109 0 108 262 10
7 51 265 263 0 458 -17 262 0 108 309 109 48 458 260 0 0 +17 458 0 459 133 50 51
 262 260 0 0 -15 459 851 0 458 428 0 17 133 0 459 379 458 131 53 324 0 457 -17 5
0 0 459 458 379 48 130 338 0 460 +17 379 0 459 50 133 126 461 377 0 0 +17 130 0
 430 245 460 126 50 338 0 462 -17 460 0 430 130 91 48 309 307 0 262 -15 430 815
 0 460 427 0 17 91 0 430 460 245 89 463 336 0 293 +17 309 0 108 88 262 89 460 30
7 0 0 +17 88 0 108 117 309 86 293 291 0 340 -17 117 0 108 318 88 22 116 289 0 33
 -17 293 0 442 463 340 89 88 291 0 309 +17 340 0 442 293 169 86 464 322 0 116 +1
5 442 827 0 293 429 0 17 169 0 442 340 463 167 172 233 0 232 -17 464 0 115 36 11
6 167 340 322 0 0 -17 116 0 115 464 34 86 117 289 0 0 +15 115 829 0 116 441 0 17
 36 0 115 34 464 11 232 230 0 465 -17 232 0 201 172 465 167 36 230 0 464 +17 465
 0 201 232 154 11 32 252 0 0 -17 154 0 201 465 202 152 213 214 0 466 +17 32 0 31
 74 28 152 465 252 0 0 +15 31 809 0 33 424 0 17 74 0 31 33 32 72 466 321 0 279 +
17 33 0 31 28 74 22 318 316 0 0 -17 466 0 451 213 279 152 74 321 0 32 -17 279 0
 451 466 71 72 467 277 0 318 +15 451 837 0 279 449 0 17 71 0 451 279 213 69 151
 199 0 467 +17 467 0 108 194 318 69 279 277 0 196 -17 318 0 108 467 117 72 33 31
6 0 0 +17 194 0 108 192 467 104 196 275 0 0 +17 196 0 195 151 105 69 194 275 0 0
 -17 192 0 108 468 194 101 187 193 0 0 +17 468 0 108 299 192 98 302 300 0 469 -1
7 299 0 108 94 468 95 469 297 0 0 +17 302 0 436 209 100 101 468 300 0 192 +17 46
9 0 438 181 97 98 299 297 0 0 -15 438 823 0 469 435 0 17 181 0 438 239 469 179 1
00 328 0 207 -17 97 0 438 469 239 95 376 330 0 296 +17 239 0 438 97 181 176 206
 237 0 0 +17 206 0 201 183 178 179 239 237 0 0 -17 100 0 436 302 207 98 181 328
 0 468 +17 207 0 436 100 209 179 183 208 0 206 -15 436 821 0 302 433 0 17 209 0
 436 207 302 182 103 198 0 186 -17 103 0 185 187 186 101 209 198 0 302 +17 213 0
 451 71 466 149 154 214 0 202 -14 424 810 0 ?441 449 31 5 422 +0 0 441 449 24 17
 172 0 201 462 232 170 169 233 0 463 +17 462 0 201 461 172 126 245 243 0 379 -17
 463 0 442 169 293 170 91 336 0 245 -17 245 0 430 91 130 170 462 243 0 0 +17 461
 0 201 385 462 131 379 377 0 0 -17 385 0 201 148 461 29 457 380 0 455 +17 148 0
 201 124 385 146 37 215 0 369 +17 457 0 456 53 455 131 385 380 0 461 -14 428 852
 0 ?412 427 459 5 470 +0 0 412 427 24 14 412 850 0 ?406 428 456 5 414 -0 0 406 4
28 24 50 470 878 0 428 414 19 0 +-.0295 .01 .002 1 0 0 0 0 -1 50 414 877 0 412 4
09 470 0 +-.0375 .015 .002 0 -1 0 0 0 -1 50 19 879 0 366 470 6 0 +-.0295 -.01 .0
02 1 0 0 0 0 -1 14 366 854 0 ?373 18 363 5 19 +0 0 373 18 24 14 18 856 0 ?366 41
8 121 5 6 +0 0 366 418 24 17 122 0 121 68 118 146 124 319 0 0 +15 447 833 0 285
 418 0 17 285 0 447 471 345 80 79 283 0 288 +17 471 0 447 160 285 161 82 343 0 2
29 -17 345 0 447 285 160 77 472 26 0 282 +17 79 0 371 473 288 77 285 283 0 345 -
17 288 0 371 79 315 80 474 286 0 0 +15 371 531 0 315 370 0 17 315 0 371 288 473
 83 421 313 0 0 +17 474 0 446 166 82 83 288 286 0 315 -15 446 831 0 474 444 0 17
 166 0 446 229 474 164 85 341 0 475 -17 82 0 446 474 229 80 471 343 0 285 +17 22
9 0 446 82 166 161 475 227 0 0 +17 475 0 204 476 163 164 229 227 0 251 -15 204 3
73 0 476 203 0 17 476 0 204 224 475 155 251 249 0 0 -17 163 0 204 475 224 161 16
0 225 0 471 +17 251 0 416 85 157 164 476 249 0 0 +17 85 0 416 421 251 83 166 341
 0 474 +17 157 0 416 251 421 155 25 10 0 477 -17 421 0 416 157 85 75 315 313 0 0
 -17 25 0 419 282 477 75 157 10 0 473 +17 477 0 419 25 472 155 224 217 0 476 -15
 419 835 0 282 415 0 17 472 0 419 477 282 158 345 26 0 0 -17 224 0 204 163 476 1
58 477 217 0 472 +17 282 0 419 472 25 77 473 280 0 0 +17 473 0 371 315 79 75 282
 280 0 421 -17 160 0 447 345 471 158 163 225 0 224 -14 203 1 0 ?370 444 396 5 47
8 +0 0 370 444 24 14 370 491 0 ?0 203 403 5 425 -0 0 0 203 24 50 478 3 0 203 0 4
25 0 +0 .0075 .002 0 0 1 1 0 0 50 425 736 0 370 478 422 0 +0 .0075 0 0 0 1 1 0 0
 17 125 0 363 365 364 119 47 335 0 361 -19 17 906 0 1 0 9 5 0 S0 74 4 CI16 index
_map_offset0 0 1 dCCZ20 15 3 0 0 479 13 2 0 0 0 0 0 0 0 0 0 0 0 0 0 0 0 0 0 81 1
 479 1133 480 1 0 13 0 0 481 81 1 13 1134 482 1 479 2 0 0 483 80 7 CCCCCDI12 leg
al_owners0 17 1 lCZ1 482 12 484 8038 0 0 0 0 0 0 0 0 0 TTTTTTTTTTTTTFTFT10 98 25
5 6 483 80 97 114 116 32 49 79 255 14 484 SDL/TYSA_UNAME80 1 480 485 486 8040 0
 0 0 0 3 5 0 0 0 TTTFFFFFFFFFFFFFF2 83 255 3 481 .615686274509804 .8117647058823
53 .929411764705882 79 17 486 SDL/TYSA_COLOUR_280 1 12 487 488 8017 0 0 0 0 0 0
 0 0 0 TTTTTTTTTTTTTFTFT3 84 255 6 14 Part 179 13 488 SDL/TYSA_NAME1 0 
