**ABCDEFGHIJKLMNOPQRSTUVWXYZabcdefghijklmnopqrstuvwxyz**************************
**PARASOLID !"#$%&'()*+,-./:;<=>?@[\]^_`{|}~0123456789**************************
**PART1;
MC=unknown;
MC_MODEL=unknown;
MC_ID=unknown;
OS=unknown;
OS_RELEASE=unknown;
FRU=Parasolid 37.0.209;
APPL=Onshape;
SITE=unknown;
USER=unknown;
FORMAT=text;
GUISE=transmit;
KEY=BTGapi::writeModels_.xmt;
FILE=BTGapi::writeModels_.xmt;
DATE=2025-03-16T16:43:44 (UTC);
**PART2;
SCH=SCH_3700209_36001;
USFLD_SIZE=0;
**PART3;
**END_OF_HEADER*****************************************************************
T51 : TRANSMIT FILE created by modeller version 370020923 SCH_3700209_36001_1300
6231 0 12 36 CCCI7 lattice222 0 CCCI4 mesh1006 0 I8 polyline1008 0 CCCCCCCDI5 ow
ner1040 0 CCCI16 boundary_lattice222 0 CCCI13 boundary_mesh1006 0 I17 boundary_p
olyline1008 0 CCCA16 index_map_offset0 0 1 dA9 index_map82 0 A17 node_id_index_m
ap82 0 A20 schema_embedding_map82 0 A5 child12 0 A14 lowest_node_id0 0 1 dA16 me
sh_offset_data206 0 Z1 1009 2 3 0 0 0 0 0 0 0 1e3 1e-8 0 4 5 1 0 1 2 6 0 7 8 9 0
 0 10 11 12 0 0 0 0 0 0 0 81 255 1 2 1009 13 1 14 0 0 0 15 70 11 CI9 list_type0
 0 1 uI10 notransmit0 0 1 lCCCDCCDI12 finger_index0 0 1 dI12 finger_block1012 0
 CZ3 0 4 T1 0 0 6 20 1 16 16 13 255 6 125 0 1 0 17 0 0 18 0 54 255 7 453 0 17 19
 0 20 +-.0099 -.01035 .00435 0 -1 0 7e-4 2e-4 0 0 -1 32 255 8 819 0 1 21 0 22 +-
.0099 -.00969930772705735 .00435 0 .1736481776669305 -.984807753012208 0 .984807
753012208 .1736481776669305 .00518289343482927 9e-4 29 255 9 791 0 23 24 0 -.010
58373971655886 -.01055 .0042 19 9 CCCCCCI5 frame230 0 CA5 owner12 0 Z10 1 0 1 18
 0 25 0 V0 16 255 11 117 26 ?27 0 28 29 0 0 1 18 255 12 95 30 31 0 32 33 5e-7 1
 81 1 30 827 34 12 0 0 0 35 36 17 255 31 0 37 38 39 12 40 41 0 42 -18 32 93 35 4
3 12 44 45 5e-7 1 29 33 434 0 12 46 45 -.00997946920771662 -.01015 .004429469207
716615 29 46 415 0 47 48 33 -.01005 -.01055 .0045 29 45 432 0 32 33 49 -.0099794
6920771662 -.01015 .00487946920771662 29 49 417 0 50 45 51 -.01005 -.01055 .0049
5 18 50 77 52 53 54 47 49 5e-7 1 29 51 419 0 54 49 55 -.00975 -.01055 .00495 18
 54 79 56 57 58 50 51 5e-7 1 29 55 430 0 44 51 59 -.00982053079228339 -.01015 .0
0487946920771662 18 44 91 60 61 32 62 55 5e-7 1 29 59 427 0 62 55 63 -.009820530
79228339 -.01015 .003820530792283385 18 62 88 64 65 44 66 59 5e-7 1 29 63 397 0
 67 59 68 -.00975 -.01055 .00375 18 67 54 69 70 71 72 63 5e-7 1 29 68 399 0 71 6
3 73 -.01005 -.01055 .00375 18 71 56 74 27 75 67 68 5e-7 1 29 73 425 0 66 68 76
 -.00997946920771662 -.01015 .003820530792283385 18 66 86 77 78 62 58 73 5e-7 1
 29 76 727 0 79 73 80 -.00900734330749303 -.01035 .004464734603858305 18 79 24 8
1 82 83 84 76 ?1 29 80 728 0 85 76 86 -.00921626028344113 -.01055 .0045 18 85 42
 87 88 89 90 80 ?1 29 86 736 0 91 80 92 -.01058373971655886 -.01055 .0045 18 91
 73 93 94 47 95 86 ?1 29 92 737 0 95 86 96 -.01079265669250696 -.01035 .00446473
4603858305 18 95 65 97 98 91 99 92 ?1 29 96 746 0 100 92 101 -.00921626028344113
 -.01055 .0042 18 100 34 102 103 90 104 96 ?1 29 101 747 0 84 96 24 -.0090073433
0749303 -.01035 .004235265396141695 18 84 16 105 106 79 23 101 ?1 29 24 790 0 10
7 101 9 -.01079265669250696 -.01035 .004235265396141695 18 107 7 108 109 23 0 24
 ?1 81 1 108 854 34 107 0 0 110 26 111 17 109 0 112 113 114 107 115 116 0 117 -1
8 23 11 110 118 84 107 9 ?1 81 1 110 853 34 23 0 0 105 108 119 17 118 0 120 103
 121 23 122 123 0 113 -15 255 120 49 0 118 124 0 17 103 0 120 125 118 100 126 12
7 0 128 +17 121 0 120 118 129 72 130 131 0 122 -17 122 0 112 132 113 72 118 123
 0 0 +16 123 50 133 ?122 134 135 136 0 0 1 17 113 0 112 122 109 23 117 137 0 126
 +15 112 98 0 109 138 0 17 117 0 139 106 126 107 113 137 0 140 -16 137 12 141 ?1
13 142 127 143 0 0 1 17 126 0 139 117 128 23 103 127 0 0 -15 139 4 0 106 144 0 1
7 128 0 139 126 106 100 145 146 0 147 -16 127 10 148 ?103 137 149 150 0 0 1 81 1
 148 896 34 127 0 0 141 151 152 16 149 5 151 ?140 127 0 153 0 0 1 133 255 150 57
5 0 127 0 154 0 +154 -.01058373971655886 -.01055 .0042 -.00921626028344113 -.010
55 .0042 4.92834947906964 7.63802113528953 31 255 154 359 0 155 150 156 157 +-.0
099 -.01055 .00435 0 -1 0 0 0 -1 7e-4 16 155 72 158 ?159 160 161 154 0 0 1 133 1
56 577 0 162 154 153 0 +163 -.00975 -.01055 .0042 -.00921626028344113 -.01055 .0
042 65e-5 .00118373971655887 141 255 157 150 157 157 154 16 162 32 164 ?147 146
 165 156 0 0 1 133 153 583 0 149 156 166 0 +167 -.00900734330749303 -.01035 .004
235265396141695 -.01079265669250696 -.01035 .004235265396141695 4.84021972989394
 7.72615088446523 30 255 163 395 0 1 136 168 169 +-.0104 -.01055 .0042 1 0 0 133
 136 613 0 123 170 163 0 +163 -.01058373971655886 -.01055 .0042 -.01005 -.01055
 .0042 -.00018373971655887 35e-5 133 168 615 0 171 163 172 0 +173 -.010796484603
8973 -.01015 .004270530792283385 -.00997946920771662 -.01015 .004270530792283385
 -.0107964846038973 -.00997946920771662 141 169 136 174 174 163 141 174 156 169
 169 163 16 171 83 175 ?176 177 178 168 0 0 1 133 172 619 0 160 168 179 0 +179 -
.01005 -.01055 .0045 -.01058373971655886 -.01055 .0045 -35e-5 .00018373971655886
85 30 173 383 0 1 180 181 182 +0 -.01015 .004270530792283385 1 0 0 133 180 599 0
 183 184 173 0 +173 -.00982053079228339 -.01015 .004270530792283385 -.0090035153
961027 -.01015 .004270530792283385 -.00982053079228339 -.0090035153961027 133 18
1 601 0 185 173 186 0 +186 -.0090035153961027 -.01015 .004270530792283385 -.0090
035153961027 -.01015 .004429469207716615 1.48238206186056 1.659210591729235 141
 182 180 187 187 173 141 187 168 182 182 173 16 185 27 188 ?189 165 190 181 0 0
 1 31 186 375 0 1 181 191 192 +-.0099 -.01015 .00435 0 -1 0 0 0 -1 9e-4 133 191
 603 0 135 186 193 0 +193 -.0090035153961027 -.01015 .004429469207716615 -.00982
053079228339 -.01015 .004429469207716615 .0090035153961027 .00982053079228339 14
1 192 181 194 194 186 141 194 170 192 192 186 133 170 605 0 195 193 136 0 +186 -
.0107964846038973 -.01015 .004429469207716615 -.0107964846038973 -.01015 .004270
530792283385 4.62397471545035 4.80080324531903 16 195 62 196 ?197 161 116 170 0
 0 1 30 193 392 0 1 191 170 198 +0 -.01015 .004429469207716615 -1 0 0 141 198 19
1 199 199 193 141 199 200 198 198 193 133 200 623 0 201 179 202 0 +193 -.0099794
6920771662 -.01015 .004429469207716615 -.0107964846038973 -.01015 .0044294692077
16615 .00997946920771662 .0107964846038973 16 201 96 203 ?204 205 206 200 0 0 1
 30 179 416 0 1 172 200 207 +-.0104 -.01055 .0045 -1 0 0 133 202 627 0 206 200 2
08 0 +209 -.00997946920771662 -.01015 .004429469207716615 -.00997946920771662 -.
01015 .00487946920771662 -.000520530792283388 -705307922833857e-19 16 206 94 210
 ?38 201 211 202 0 0 1 133 208 629 0 212 202 213 0 +214 -.01005 -.01055 .00495 -
.01005 -.01055 .0045 0 45e-5 30 209 426 0 1 215 216 217 +-.00997946920771662 -.0
1015 .00495 0 0 1 133 215 663 0 177 214 209 0 +209 -.00997946920771662 -.01015 .
003820530792283385 -.00997946920771662 -.01015 .004270530792283385 -.00112946920
771662 -.000679469207716617 133 216 665 0 205 209 218 0 +218 -.01005 -.01055 .00
42 -.00997946920771662 -.01015 .004270530792283385 59880754411112e-18 .000472129
690516766 141 217 215 219 219 209 141 219 202 217 217 209 16 205 99 220 ?132 221
 201 216 0 0 1 30 218 438 0 1 216 222 223 +-.010060244870711 -.01060810154900752
 .004189755129289015 .171087869746036 .970287525247814 .171087869746036 133 222
 669 0 224 218 225 0 +225 -.00982053079228339 -.01015 .003820530792283385 -.0099
7946920771662 -.01015 .003820530792283385 -.000229469207716616 -705307922833874e
-19 141 223 216 223 223 218 16 224 87 226 ?227 228 177 222 0 0 1 30 225 428 0 1
 222 29 229 +-.01005 -.01015 .003820530792283385 -1 0 0 133 29 671 0 11 225 230
 0 +230 -.00997946920771662 -.01015 .003820530792283385 -.01005 -.01055 .00375 -
.00020694349241041 .000205305443695244 141 229 222 229 229 225 30 230 450 0 1 29
 231 232 +-.01001487472899092 -.01035079468911704 .00378512527100908 -.171087869
746036 -.970287525247814 -.171087869746036 133 231 673 0 233 230 234 0 +234 -.01
005 -.01055 .00375 -.00975 -.01055 .00375 0 3e-4 141 232 29 232 232 230 16 233 5
5 235 ?236 131 134 231 0 0 1 30 234 400 0 1 231 237 238 +-.01005 -.01055 .00375
 1 0 0 133 237 675 0 28 234 239 0 +239 -.00982053079228339 -.01015 .003820530792
283385 -.00975 -.01055 .00375 -.000360922575181844 5132636092381e-17 141 238 231
 238 238 234 16 28 114 240 ?70 11 241 237 0 0 1 30 239 448 0 1 237 167 242 +-.00
975878131775228 -.01050019867227926 .00375878131775227 .171087869746036 -.970287
525247814 -.171087869746036 31 167 363 0 1 239 243 244 +-.0099 -.01035 .00435 0
 1 0 0 0 -1 9e-4 141 242 237 242 242 239 133 243 691 0 245 167 246 0 +167 -.0107
9265669250696 -.01035 .004464734603858305 -.00900734330749303 -.01035 .004464734
603858305 1.69862707630415 4.58455823087544 141 244 243 247 247 167 141 247 153
 244 244 167 16 245 23 248 ?249 190 142 243 0 0 1 38 12 CCCCCCCCCCCA17 intersect
ion_data204 0 Z246 726 0 250 243 251 0 +252 7 253 254 255 256 16 250 41 257 ?258
 259 260 246 0 0 1 38 251 735 0 221 246 261 0 +252 7 262 263 264 265 50 255 252
 385 0 266 267 268 269 +-.0104 -.01055 .0045 0 -.1736481776669305 -.984807753012
208 0 .984807753012208 -.1736481776669305 40 255 6 253 0 1 6 1186322729547156e-2
0 .338702804088894 ??-.00900734330749303 -.01035 .004464734603858305 -.009020540
24508809 -.01041680468433176 .00447651407214371 -.00905534574406052 -.0104755629
650949 .00448687474238229 -.00910836525718664 -.0105203657276546 .00449477467823
1845 -.00917403285358734 -.01054572103153696 .004499245502410365 -.0092162602834
4094 -.0105500000000009 .00450000000000016 41 3 CI8 term_use0 0 1 cCZ1 254 L?-.0
0900734330749303 -.01035 .004464734603858305 41 1 255 L?-.00921626028344094 -.01
05500000000009 .00450000000000016 204 2 17 INTERSECTION_DATA17 Intersection data
7 uv_type0 0 1 u6 values0 1 1 fT24 256 4 .0002030853223771495 .00139265669250697
 1.69862707630415 0 .000135250068108045 .001379459754911914 1.71367046394725 .34
0568953453961 755853461525099e-19 .00134465425593948 1.731448070106135 .67874262
3399082 300914287633787e-19 .001291634742813368 1.7516781054697 1.0194664108662
 434497844878957e-20 .00122596714641266 1.77355302345962 1.363569057995786 -9264
660818357e-28 .00118373971655906 1.78675682548002 1.570796326793795 14 255 266 3
9 270 ?271 124 272 6 252 +273 273 271 124 25 50 267 377 0 271 0 252 274 +-.0104
 -.01055 .0042 0 -.1736481776669305 .984807753012208 0 -.984807753012208 -.17364
81776669305 50 268 393 0 124 252 275 0 +-.0104 -.01055 .00525 0 -1 0 0 0 -1 141
 269 246 276 276 252 141 276 251 269 269 252 14 124 48 277 ?266 278 120 6 268 +2
79 279 266 278 25 51 255 275 402 0 280 268 281 0 +-.0099 -.01309558441227158 .00
435 0 1 0 9e-4 0 0 1 14 280 13 282 ?144 271 283 6 275 +0 0 144 271 25 50 281 411
 0 278 275 284 0 +-.0099 -.00955 .00435 0 -1 0 0 0 -1 14 278 68 285 ?124 279 286
 6 281 -0 0 124 279 25 50 284 422 0 287 281 288 0 +0 -.01015 0 0 -1 0 0 0 -1 14
 287 81 289 ?279 138 290 6 284 +0 0 279 138 25 50 288 442 0 291 284 292 0 +-.010
05 -.01055 .00495 .984807753012208 -.1736481776669305 0 .1736481776669305 .98480
7753012208 0 14 291 104 293 ?273 294 37 6 288 +295 295 273 294 25 50 292 446 0 2
96 288 297 0 +-.01005 -.01055 .00495 0 -.1736481776669305 -.984807753012208 0 .9
84807753012208 -.1736481776669305 14 296 110 298 ?294 299 300 6 292 +0 0 294 299
 25 50 297 447 0 299 292 19 0 +-.00975 -.01055 .00495 -.984807753012208 -.173648
1776669305 0 .1736481776669305 -.984807753012208 0 14 299 112 301 ?296 295 302 6
 297 +294 294 296 295 25 50 19 451 0 303 297 7 0 +-.01005 -.01055 .00375 0 -.173
6481776669305 .984807753012208 0 -.984807753012208 -.1736481776669305 14 303 118
 304 ?295 17 305 6 19 +0 0 295 17 25 81 1 304 899 34 303 0 0 306 307 308 14 295
 115 307 ?299 303 309 6 288 +291 291 299 303 25 14 17 122 306 ?303 0 310 6 7 +14
4 144 303 0 25 15 305 119 0 227 303 0 13 25 2 0 0 0 0 0 0 10 17 17 227 0 305 27
 65 66 311 224 0 312 +17 27 0 305 236 227 71 78 11 0 130 +17 65 0 305 227 236 62
 70 28 0 313 -17 311 0 290 314 312 62 227 224 0 0 -17 312 0 290 311 176 66 315 1
77 0 0 -15 290 82 0 176 287 0 17 176 0 290 312 197 58 114 171 0 0 +17 315 0 309
 316 78 58 312 177 0 176 +16 177 85 317 ?315 224 171 215 0 0 1 81 1 317 868 34 1
77 0 0 226 175 318 80 7 CCCCCDI12 legal_owners0 17 1 lCZ1 34 319 320 9000 0 0 0
 0 3 5 0 0 0 FFTFTFTTFFFFFFFFF2 81 1 226 867 34 224 0 0 321 317 322 81 1 175 869
 34 171 0 0 317 323 324 83 255 1 318 6561 81 1 323 870 34 178 0 0 175 325 326 83
 1 324 6562 16 178 80 323 ?327 171 328 329 0 0 1 81 1 325 871 34 328 0 0 323 330
 331 83 1 326 6563 16 328 78 325 ?332 178 212 333 0 0 1 81 1 330 872 34 212 0 0
 325 334 335 83 1 331 6564 16 212 76 330 ?39 328 160 208 0 0 1 81 1 334 873 34 1
60 0 0 330 158 336 83 1 335 6565 16 160 74 334 ?337 212 155 172 0 0 1 81 1 158 8
74 34 155 0 0 334 338 339 83 1 336 6566 81 1 338 875 34 161 0 0 158 196 340 83 1
 339 6567 16 161 64 338 ?341 155 195 342 0 0 1 81 1 196 876 34 195 0 0 338 343 3
44 83 1 340 6568 81 1 343 877 34 116 0 0 196 345 346 83 1 344 6569 16 116 60 343
 ?115 195 131 347 0 0 1 81 1 345 878 34 131 0 0 343 235 348 83 1 346 6570 16 131
 57 345 ?130 116 233 349 0 0 1 81 1 235 879 34 233 0 0 345 350 351 83 1 348 6571
 81 1 350 880 34 134 0 0 235 133 352 83 1 351 6572 16 134 53 350 ?353 233 123 35
4 0 0 1 81 1 133 881 34 123 0 0 350 355 356 83 1 352 6573 81 1 355 882 34 135 0
 0 133 357 358 83 1 356 6574 16 135 47 355 ?359 123 360 191 0 0 1 81 1 357 883 3
4 360 0 0 355 361 362 83 1 358 6575 16 360 45 357 ?363 135 259 364 0 0 1 81 1 36
1 884 34 259 0 0 357 257 365 83 1 362 6576 16 259 43 361 ?366 360 250 184 0 0 1
 81 1 257 885 34 250 0 0 361 367 368 83 1 365 6577 81 1 367 886 34 260 0 0 257 3
69 370 83 1 368 6578 16 260 38 367 ?371 250 183 372 0 0 1 81 1 369 887 34 183 0
 0 367 373 374 83 1 370 6579 16 183 36 369 ?375 260 146 180 0 0 1 81 1 373 888 3
4 146 0 0 369 164 376 83 1 374 6580 16 146 35 373 ?145 183 162 261 0 0 1 81 1 16
4 889 34 162 0 0 373 377 378 83 1 376 6581 81 1 377 890 34 165 0 0 164 188 379 8
3 1 378 6582 16 165 29 377 ?380 162 185 21 0 0 1 81 1 188 891 34 185 0 0 377 381
 382 83 1 379 6583 81 1 381 892 34 190 0 0 188 248 383 83 1 382 6584 16 190 25 3
81 ?384 185 245 385 0 0 1 81 1 248 893 34 245 0 0 381 386 387 83 1 383 6585 81 1
 386 894 34 142 0 0 248 141 388 83 1 387 6586 16 142 19 386 ?389 245 137 166 0 0
 1 81 1 141 895 34 137 0 0 386 148 390 83 1 388 6587 83 1 390 6588 17 389 0 283
 389 389 0 391 142 0 0 +31 166 367 0 142 153 184 0 +-.0099 -.00955 .00435 0 -1 0
 0 0 -1 9e-4 133 184 595 0 259 166 180 0 +179 -.00921626028344113 -.01055 .0045
 -.00975 -.01055 .0045 -.00118373971655887 -65e-5 15 283 821 0 389 280 392 17 39
1 0 286 391 391 0 389 142 0 0 -15 286 69 0 391 278 0 15 392 14 0 380 280 0 17 38
0 0 392 140 393 84 394 165 0 0 +17 140 0 392 115 380 107 106 149 0 0 +17 393 0 3
92 380 384 395 189 185 0 0 -17 394 0 396 397 145 395 380 165 0 393 -15 396 31 0
 147 271 0 17 397 0 396 371 394 90 375 183 0 0 -17 145 0 396 394 147 84 128 146
 0 380 +18 395 28 398 375 104 83 399 5e-7 1 81 1 398 849 34 395 0 0 400 401 402
 17 375 0 290 189 314 395 397 183 0 394 +18 104 33 400 353 100 395 403 5e-7 1 18
 83 26 401 404 395 79 405 5e-7 1 29 399 374 0 395 0 405 -.0090035153961027 -.010
15 .004270530792283385 29 405 372 0 83 399 403 -.0090035153961027 -.01015 .00442
9469207716615 29 403 378 0 104 405 406 -.00975 -.01055 .0042 29 406 388 0 89 403
 407 -.00975 -.01055 .0045 18 89 44 408 409 410 85 406 5e-7 1 29 407 382 0 90 40
6 411 -.00982053079228339 -.01015 .004270530792283385 18 90 37 412 314 85 100 40
7 5e-7 1 29 411 390 0 410 407 413 -.00982053079228339 -.01015 .00442946920771661
5 18 410 46 414 415 72 89 411 5e-7 1 29 413 405 0 99 411 416 -.0107964846038973
 -.01015 .004429469207716615 18 99 63 417 204 95 75 413 5e-7 1 29 416 403 0 75 4
13 418 -.0107964846038973 -.01015 .004270530792283385 18 75 61 419 114 99 71 416
 5e-7 1 29 418 394 0 72 416 48 -.01005 -.01055 .0042 18 72 51 420 316 67 410 418
 5e-7 1 29 48 423 0 58 418 46 -.00997946920771662 -.01015 .004270530792283385 18
 58 84 421 132 66 54 48 5e-7 1 81 1 421 832 34 58 0 0 77 56 422 17 132 0 112 114
 122 58 316 205 0 315 +17 114 0 112 109 132 75 176 171 0 197 -17 316 0 309 130 3
15 72 132 205 0 121 -15 309 116 0 130 295 0 17 130 0 309 78 316 71 121 131 0 129
 +17 78 0 309 315 130 66 27 11 0 227 -17 129 0 120 121 423 71 236 233 0 0 -17 42
3 0 120 129 125 67 353 134 0 0 -17 236 0 305 65 27 67 129 233 0 423 +17 125 0 12
0 423 103 104 147 162 0 0 -17 353 0 302 424 70 104 423 134 0 371 +15 302 113 0 3
13 299 0 17 424 0 302 313 353 90 371 260 0 397 -17 70 0 302 353 313 67 65 28 0 2
36 +17 371 0 396 147 397 104 424 260 0 125 +17 147 0 396 145 371 100 125 162 0 0
 +17 313 0 302 70 424 62 314 228 0 311 +17 314 0 290 375 311 90 313 228 0 424 -1
6 228 89 321 ?313 425 224 426 0 0 1 81 1 321 866 34 228 0 0 427 226 428 16 425 9
0 427 ?415 211 228 429 0 0 1 133 426 653 0 228 430 431 0 +431 -.0098205307922833
9 -.01015 .004270530792283385 -.00982053079228339 -.01015 .003820530792283385 .0
00679469207716617 .00112946920771662 30 430 443 0 1 432 426 433 +-.01005 -.01055
 .00495 -.171087869746036 -.970287525247814 .171087869746036 30 431 429 0 1 426
 354 434 +-.00982053079228339 -.01015 .00495 0 0 -1 133 354 655 0 134 431 372 0
 +435 -.00975 -.01055 .00375 -.00975 -.01055 .0042 -.0012 -75e-5 141 434 426 436
 436 431 141 436 429 434 434 431 133 429 637 0 425 435 364 0 +431 -.009820530792
28339 -.01015 .00487946920771662 -.00982053079228339 -.01015 .004429469207716615
 705307922833857e-19 .000520530792283388 30 435 421 0 1 329 429 437 +-.00975 -.0
1055 .00495 0 0 1 133 364 639 0 360 429 438 0 +438 -.00975 -.01055 .0045 -.00982
053079228339 -.01015 .004429469207716615 -.0001112071153349222 .0003010418207707
32 30 438 391 0 1 364 439 440 +-.00976902618846326 -.01044209712327172 .00448097
3811536745 -.171087869746036 .970287525247814 -.171087869746036 133 439 643 0 21
1 438 441 0 +441 -.00997946920771662 -.01015 .00487946920771662 -.00982053079228
339 -.01015 .00487946920771662 705307922833874e-19 .000229469207716616 141 440 3
64 440 440 438 16 211 92 442 ?443 206 425 439 0 0 1 30 441 433 0 1 439 444 445 +
-.01005 -.01015 .00487946920771662 1 0 0 133 444 645 0 241 441 446 0 +446 -.0098
2053079228339 -.01015 .00487946920771662 -.00975 -.01055 .00495 -.00041224893610
5654 0 141 445 439 445 445 441 16 241 109 447 ?57 28 448 444 0 0 1 30 446 445 0
 1 444 333 449 +-.00975 -.01055 .00495 .171087869746036 -.970287525247814 .17108
7869746036 133 333 647 0 328 446 450 0 +450 -.00975 -.01055 .00495 -.01005 -.010
55 .00495 -3e-4 0 141 449 444 449 449 446 30 450 420 0 1 333 432 451 +-.01005 -.
01055 .00495 -1 0 0 133 432 649 0 448 450 430 0 +430 -.00997946920771662 -.01015
 .00487946920771662 -.01005 -.01055 .00495 -.000412248936105654 0 141 451 333 45
1 451 450 16 448 106 452 ?53 241 41 432 0 0 1 81 1 452 858 34 448 0 0 447 453 45
4 17 53 0 37 39 38 50 43 448 0 332 +16 41 103 453 ?40 448 221 213 0 0 1 81 1 453
 859 34 41 0 0 452 455 456 17 40 0 457 337 42 47 31 41 0 39 +16 221 102 455 ?458
 41 205 251 0 0 1 133 213 631 0 41 208 459 0 +459 -.00997946920771662 -.01015 .0
04429469207716615 -.01005 -.01055 .0045 -.000472129690516766 -59880754411112e-18
 30 459 441 0 1 213 329 460 +-.010060244870711 -.01060810154900752 .004510244870
71098 -.171087869746036 -.970287525247814 .171087869746036 133 329 635 0 178 459
 435 0 +435 -.00975 -.01055 .0045 -.00975 -.01055 .00495 -45e-5 0 141 460 213 46
0 460 459 81 1 455 860 34 221 0 0 453 220 461 17 458 0 457 462 337 95 94 221 0 3
41 +15 457 101 0 337 273 0 17 462 0 457 42 458 99 341 161 0 463 -17 337 0 457 45
8 40 91 464 160 0 159 +17 94 0 310 88 98 91 458 221 0 337 -17 341 0 392 249 463
 95 462 161 0 0 +17 249 0 392 384 341 79 98 245 0 0 +17 463 0 392 341 115 99 197
 195 0 0 -17 115 0 392 463 140 75 109 116 0 0 +17 197 0 290 176 204 75 463 195 0
 115 +17 204 0 290 197 465 99 42 201 0 462 +17 465 0 290 204 466 12 38 206 0 0 -
17 42 0 457 40 462 12 204 201 0 465 -17 466 0 290 465 467 32 443 211 0 0 -17 38
 0 37 53 31 32 465 206 0 466 +15 37 105 0 38 291 0 17 467 0 290 466 359 44 415 4
25 0 0 -17 443 0 300 57 43 44 466 211 0 467 +15 300 111 0 443 296 0 17 57 0 300
 332 443 54 61 241 0 327 +17 43 0 300 443 332 32 53 448 0 38 -17 332 0 300 43 57
 50 468 328 0 469 +17 468 0 470 409 469 54 332 328 0 0 -17 469 0 470 468 464 50
 39 212 0 0 -15 470 71 0 471 279 0 17 464 0 470 469 159 47 337 160 0 0 -17 39 0
 37 31 53 47 469 212 0 464 +18 47 75 472 40 50 91 46 5e-7 1 81 1 472 835 34 47 0
 0 52 93 473 81 1 52 834 34 50 0 0 56 472 474 81 1 93 836 34 91 0 0 472 97 475 8
3 1 473 6528 81 1 97 837 34 95 0 0 93 417 476 83 1 475 6529 81 1 417 838 34 99 0
 0 97 419 477 83 1 476 6530 81 1 419 839 34 75 0 0 417 74 478 83 1 477 6531 81 1
 74 840 34 71 0 0 419 69 479 83 1 478 6532 81 1 69 841 34 67 0 0 74 420 480 83 1
 479 6533 81 1 420 842 34 72 0 0 69 414 481 83 1 480 6534 81 1 414 843 34 410 0
 0 420 408 482 83 1 481 6535 81 1 408 844 34 89 0 0 414 87 483 83 1 482 6536 81
 1 87 845 34 85 0 0 408 412 484 83 1 483 6537 81 1 412 846 34 90 0 0 87 102 485
 83 1 484 6538 81 1 102 847 34 100 0 0 412 400 486 83 1 485 6539 81 1 400 848 34
 104 0 0 102 398 487 83 1 486 6540 83 1 487 6541 81 1 56 833 34 54 0 0 421 52 48
8 83 1 474 6527 83 1 488 6526 17 159 0 470 464 471 91 88 155 0 0 +17 471 0 470 1
59 409 85 366 259 0 258 -17 88 0 310 82 94 85 159 155 0 471 -15 310 123 0 82 17
 0 17 82 0 310 98 88 79 258 250 0 489 -17 98 0 310 94 82 95 249 245 0 458 -17 25
8 0 272 366 489 85 82 250 0 0 +17 489 0 272 258 404 79 384 190 0 249 -15 272 40
 0 489 266 0 17 404 0 272 489 363 83 359 135 0 189 -17 384 0 392 393 249 83 489
 190 0 0 +17 363 0 272 404 366 410 490 360 0 0 +17 359 0 290 467 189 410 404 135
 0 363 +17 189 0 290 359 375 83 393 185 0 384 +17 366 0 272 363 258 89 471 259 0
 0 +17 490 0 491 327 415 89 363 360 0 366 -15 491 108 0 327 294 0 17 327 0 491 6
1 490 54 409 178 0 468 +17 415 0 491 490 61 410 467 425 0 359 +17 61 0 491 415 3
27 44 57 241 0 443 -17 409 0 470 471 468 89 327 178 0 490 -14 294 107 492 ?291 2
96 491 6 297 +299 299 291 296 25 81 1 492 903 34 294 0 0 298 293 493 81 1 298 90
2 34 296 0 0 301 492 494 81 1 293 904 34 291 0 0 492 495 496 83 1 493 6596 81 1
 495 905 34 273 0 0 293 497 498 83 1 496 6597 14 273 100 495 ?138 291 457 6 252
 +266 266 138 291 25 81 1 497 906 34 138 0 0 495 289 499 83 1 498 6598 14 138 97
 497 ?287 273 112 6 267 +271 271 287 273 25 81 1 289 907 34 287 0 0 497 500 501
 83 1 499 6599 81 1 500 908 34 279 0 0 289 285 502 83 1 501 66e2 14 279 70 500 ?
278 287 470 6 268 +124 124 278 287 25 81 1 285 909 34 278 0 0 500 277 503 83 1 5
02 6601 81 1 277 910 34 124 0 0 285 270 504 83 1 503 6602 81 1 270 911 34 266 0
 0 277 505 506 83 1 504 6603 81 1 505 912 34 271 0 0 270 282 507 83 1 506 6604 1
4 271 30 505 ?280 266 396 6 267 +138 138 280 266 25 81 1 282 913 34 280 0 0 505
 508 509 83 1 507 6605 81 1 508 914 34 144 0 0 282 510 511 83 1 509 6606 14 144
 3 508 ?0 280 139 6 7 +17 17 0 280 25 81 1 510 915 34 1 512 513 508 0 514 83 1 5
11 6607 81 1 512 825 515 1 0 510 0 0 516 81 1 513 916 517 1 510 518 0 0 519 83 1
 514 6608 80 1 517 34 520 9000 0 0 0 0 3 5 0 0 0 FFTFTFTTFFFFFFFFF2 81 1 518 100
7 521 1 513 14 0 0 522 83 1 519 6713 80 1 521 523 524 8040 0 0 0 0 3 5 0 0 0 TTT
FFFFFFFFFFFFFF2 81 1 14 1008 525 1 518 2 0 0 526 83 3 522 .776470588235294 .7568
62745098039 .737254901960784 80 1 525 13 527 8038 0 0 0 0 0 0 0 0 0 TTTTTTTTTTTT
TFTFT10 98 255 40 526 83 71 57 48 32 45 32 77 105 99 114 111 32 83 101 114 118 1
11 32 57 103 32 45 32 84 111 119 101 114 32 80 114 111 46 49 95 80 101 8225 97 7
9 255 14 527 SDL/TYSA_UNAME79 17 524 SDL/TYSA_COLOUR_279 18 520 BTI/importMaxCou
nt80 1 515 528 529 9000 0 0 0 0 3 5 0 0 0 TTTFFFFFFFFFFFFFF1 82 255 1 516 14 79
 23 529 ONSHAPE_ORIGINALBODY_ID81 1 301 901 34 299 0 0 307 298 530 83 1 494 6595
 81 1 307 900 34 295 0 0 304 301 531 83 1 530 6594 83 1 531 6593 81 1 220 861 34
 205 0 0 455 203 532 83 1 461 6553 81 1 203 862 34 201 0 0 220 210 533 83 1 532
 6554 81 1 210 863 34 206 0 0 203 442 534 83 1 533 6555 81 1 442 864 34 211 0 0
 210 427 535 83 1 534 6556 81 1 427 865 34 425 0 0 442 321 536 83 1 535 6557 83
 1 536 6558 83 1 456 6552 81 1 447 857 34 241 0 0 240 452 537 83 1 454 6551 81 1
 240 856 34 28 0 0 26 447 538 83 1 537 6550 81 1 26 855 34 11 0 0 108 240 539 83
 1 538 6549 83 1 539 6548 141 437 329 540 540 435 141 540 354 437 437 435 133 37
2 657 0 260 354 541 0 +541 -.00982053079228339 -.01015 .004270530792283385 -.009
75 -.01055 .0042 -.000301041820770732 .0001112071153349222 30 541 384 0 1 372 34
9 542 +-.00976902618846326 -.01044209712327172 .004219026188463255 .171087869746
036 -.970287525247814 -.171087869746036 133 349 661 0 131 541 214 0 +214 -.01005
 -.01055 .0042 -.01005 -.01055 .00375 75e-5 .0012 141 542 372 542 542 541 30 214
 401 0 1 349 215 543 +-.01005 -.01055 .00495 0 0 -1 141 543 349 544 544 214 141
 544 208 543 543 214 141 433 432 433 433 430 83 1 428 6559 81 1 77 831 34 66 0 0
 64 421 545 83 1 422 6525 81 1 64 830 34 62 0 0 60 77 546 83 1 545 6524 81 1 60
 829 34 44 0 0 35 64 547 83 1 546 6523 81 1 35 828 34 32 0 0 30 60 548 83 1 547
 6522 83 1 548 6521 81 1 401 850 34 83 0 0 398 81 549 81 1 81 851 34 79 0 0 401
 105 550 83 1 549 6543 81 1 105 852 34 84 0 0 81 110 551 83 1 550 6544 83 1 551
 6545 83 1 402 6542 17 106 0 139 128 117 84 140 149 0 145 -133 385 811 0 190 143
 552 0 +552 -.00900734330749303 -.01035 .004464734603858305 -.0090035153961027 -
.01015 .004429469207716615 4.58455823087544 4.62397471545035 38 143 789 0 137 34
7 385 0 +267 7 553 554 555 556 32 552 812 0 1 385 21 557 +-.0099 -.0096993077270
5735 .00435 0 .1736481776669305 .984807753012208 0 .984807753012208 -.1736481776
669305 .00518289343482927 9e-4 133 21 818 0 165 552 8 0 +8 -.0090035153961027 -.
01015 .004270530792283385 -.00900734330749303 -.01035 .004235265396141695 1.6592
10591729235 1.698627076304145 141 557 385 558 558 552 141 558 342 557 557 552 13
3 342 775 0 161 261 347 0 +552 -.0107964846038973 -.01015 .004429469207716615 -.
01079265669250696 -.01035 .004464734603858305 1.659210591729235 1.69862707630415
 38 261 745 0 146 251 342 0 +267 7 559 560 561 562 133 347 783 0 116 342 143 0 +
8 -.01079265669250696 -.01035 .004235265396141695 -.0107964846038973 -.01015 .00
4270530792283385 4.58455823087544 4.62397471545035 40 6 559 0 1 6 11994016081062
06e-20 .3417134703339285 ??-.00921626028344113 -.01055 .0042 -.00914709038084504
 -.0105383341929157 .004202056996540705 -.00908572497944578 -.0105048543436308 .
004207960397279685 -.0090387232925807 -.01045294994855534 .004217112542548835 -.
00901208679783605 -.0103888110414537 .004228421962384015 -.00900734330749269 -.0
1035 .00423526539614168 41 1 560 L?-.00921626028344113 -.01055 .0042 41 1 561 L?
-.00900734330749269 -.01035 .00423526539614168 204 24 562 4 0 .00118373971655887
 1.354835828109942 1.5707963267949 -1184577096253366e-20 .001252909619154958 1.3
76773184032286 1.227561507985598 -458421008883439e-19 .001314275020554224 1.3980
97089102006 .885563492541988 -98547204921775e-18 .001361276707419304 1.417712225
242372 .540715724202507 -.0001636755580500695 .001387913202163952 1.434716961132
034 .195294257565745 -.000203085322377074 .00139265669250731 1.44296557728568 37
29655473343785e-28 40 6 553 0 1 6 1186322729547156e-20 .338702804088894 ??-.0107
9265669250696 -.01035 .004235265396141695 -.01077945975491192 -.0104168046843317
6 .00422348592785629 -.01074465425593948 -.0104755629650949 .00421312525761771 -
.01069163474281336 -.0105203657276546 .004205225321768155 -.01062596714641266 -.
01054572103153696 .004200754497589635 -.01058373971655906 -.0105500000000009 .00
419999999999984 41 1 554 L?-.01079265669250696 -.01035 .004235265396141695 41 1
 555 L?-.01058373971655906 -.0105500000000009 .00419999999999984 204 24 556 4 -.
0002030853223771495 -.0003926566925069685 4.84021972989394 0 -.00013525006810805
2 -.00037945975491192 4.85526311753704 .340568953453916 -75585346152507e-18 -.00
03446542559394795 4.87304072369592 .67874262339909 -300914287633891e-19 -.000291
634742813362 4.89327075905949 1.019466410866194 -4344978448791275e-21 -.00022596
71464126605 4.91514567704941 1.363569057995784 9264660818357e-28 -.0001837397165
59059 4.92834947906981 1.570796326793795 83 1 322 6560 79 13 320 BTI/importTag81
 1 306 898 34 17 0 0 151 304 563 81 1 151 897 34 149 0 0 148 306 564 83 1 563 65
91 83 1 564 6590 83 1 308 6592 141 274 261 565 565 267 141 565 143 274 274 267 4
0 6 262 0 1 6 119940160810604e-19 .3417134703339185 ??-.01058373971655886 -.0105
5 .0045 -.01065290961915496 -.0105383341929157 .004497943003459295 -.01071427502
055422 -.0105048543436308 .004492039602720315 -.0107612767074193 -.0104529499485
5534 .004482887457451165 -.01078791320216394 -.0103888110414537 .004471578037615
99 -.0107926566925073 -.01035 .00446473460385832 41 1 263 L?-.01058373971655886
 -.01055 .0045 41 1 264 L?-.0107926566925073 -.01035 .00446473460385832 204 24 2
65 4 0 -.0001837397165588685 4.496428481699735 1.5707963267949 1184577096253366e
-20 -.0002529096191549575 4.51836583762208 1.227561507985604 458421008883422e-19
 -.000314275020554221 4.5396897426918 .885563492541994 98547204921775e-18 -.0003
612767074193025 4.55930487883217 .540715724202511 .0001636755580500675 -.0003879
132021639505 4.57630961472182 .195294257565756 .000203085322377074 -.00039265669
250731 4.58455823087547 3729655473343785e-28 141 207 172 566 566 179 141 566 184
 207 207 179 83 1 152 6589 83 1 119 6546 83 1 111 6547 83 1 36 6520 19 18 124 0
 1 0 10 6 0 S0 141 22 21 567 567 8 141 567 347 22 22 8 141 20 246 568 569 7 141
 568 143 570 20 7 141 569 251 20 570 7 141 570 261 569 568 7 74 4 CI16 index_map
_offset0 0 1 dCCZ20 16 6 0 0 512 510 513 518 14 2 0 0 0 0 0 0 0 0 0 0 0 0 0 0 80
 1 13 571 572 8017 0 0 0 0 0 0 0 0 0 TTTTTTTTTTTTTFTFT3 84 255 40 15 SG90 - Micr
o Servo 9g - Tower Pro.1_Pe‡a79 13 572 SDL/TYSA_NAME1 0 
