**ABCDEFGHIJKLMNOPQRSTUVWXYZabcdefghijklmnopqrstuvwxyz**************************
**PARASOLID !"#$%&'()*+,-./:;<=>?@[\]^_`{|}~0123456789**************************
**PART1;
MC=unknown;
MC_MODEL=unknown;
MC_ID=unknown;
OS=unknown;
OS_RELEASE=unknown;
FRU=Parasolid 37.0.209;
APPL=Onshape;
SITE=unknown;
USER=unknown;
FORMAT=text;
GUISE=transmit;
KEY=BTGapi::writeModels_.xmt;
FILE=BTGapi::writeModels_.xmt;
DATE=2025-03-16T16:43:44 (UTC);
**PART2;
SCH=SCH_3700209_36001;
USFLD_SIZE=0;
**PART3;
**END_OF_HEADER*****************************************************************
T51 : TRANSMIT FILE created by modeller version 370020923 SCH_3700209_36001_1300
6231 0 12 36 CCCI7 lattice222 0 CCCI4 mesh1006 0 I8 polyline1008 0 CCCCCCCDI5 ow
ner1040 0 CCCI16 boundary_lattice222 0 CCCI13 boundary_mesh1006 0 I17 boundary_p
olyline1008 0 CCCA16 index_map_offset0 0 1 dA9 index_map82 0 A17 node_id_index_m
ap82 0 A20 schema_embedding_map82 0 A5 child12 0 A14 lowest_node_id0 0 1 dA16 me
sh_offset_data206 0 Z1 1533 2 3 0 0 0 0 0 0 0 1e3 1e-8 0 4 5 1 0 1 2 6 0 7 8 9 0
 0 10 11 12 0 0 0 0 0 0 0 81 255 1 2 1533 13 1 14 0 0 0 15 70 11 CI9 list_type0
 0 1 uI10 notransmit0 0 1 lCCCDCCDI12 finger_index0 0 1 dI12 finger_block1012 0
 CZ3 0 4 T1 0 0 3 20 1 16 16 13 255 6 513 0 1 0 17 0 0 18 0 50 255 7 1236 0 17 1
9 0 0 +-.008 -.013 .062 0 0 -1 -1 0 0 30 255 8 1264 0 11 20 0 0 +-.008 -.008 .06
2 -1 0 0 29 255 9 1097 0 21 22 0 -.01 .018 .102 19 9 CCCCCCI5 frame230 0 CA5 own
er12 0 Z10 512 0 1 18 0 23 0 V0 16 255 11 1152 0 ?24 0 25 8 0 0 1 18 255 12 501
 0 26 0 27 28 ?1 17 255 26 0 29 30 31 12 32 33 0 34 -18 27 496 0 35 12 36 37 ?1
 29 28 503 0 12 37 38 -.008 .018 .102 29 37 498 0 27 39 28 -.008 .018 .112 29 38
 1124 0 40 28 41 -.01 -.008 .062 18 40 1064 0 24 42 0 38 ?1 29 41 1123 0 42 38 4
3 -.01 -.018 .052 18 42 1060 0 44 45 40 41 ?1 29 43 1122 0 45 41 46 -.01 -.018 .
062 18 45 1056 0 47 48 42 43 ?1 29 46 1121 0 48 43 49 -.01 .008 .122 18 48 1052
 0 50 51 45 46 ?1 29 49 1120 0 51 46 52 -.01 .008 .112 18 51 1048 0 53 54 48 49
 ?1 29 52 1119 0 54 49 55 -.01 -.008 .112 18 54 1044 0 56 57 51 52 ?1 29 55 1118
 0 57 52 58 -.01 -.008 .072 18 57 1040 0 59 60 54 55 ?1 29 58 1117 0 60 55 61 -.
01 .008 .072 18 60 1036 0 62 63 57 58 ?1 29 61 1116 0 63 58 64 -.01 .008 .062 18
 63 1032 0 65 66 60 61 ?1 29 64 1115 0 66 61 67 -.01 .008 .052 18 66 1028 0 68 6
9 63 64 ?1 29 67 1114 0 69 64 70 -.01 .018 .072 18 69 1024 0 71 72 66 67 ?1 29 7
0 1113 0 72 67 73 -.01 .018 .062 18 72 1020 0 74 75 69 70 ?1 29 73 1112 0 75 70
 76 -.01 -.008 .082 18 75 1016 0 77 78 72 73 ?1 29 76 1111 0 78 73 79 -.01 .008
 .082 18 78 1012 0 80 81 75 76 ?1 29 79 1110 0 81 76 82 -.01 -.008 .092 18 81 10
08 0 83 84 78 79 ?1 29 82 1109 0 84 79 85 -.01 .008 .092 18 84 1004 0 86 87 81 8
2 ?1 29 85 1108 0 87 82 88 -.01 -.018 .072 18 87 1000 0 89 90 84 85 ?1 29 88 110
7 0 90 85 91 -.01 -.018 .082 18 90 996 0 92 93 87 88 ?1 29 91 1106 0 93 88 94 -.
01 .018 .092 18 93 992 0 95 96 90 91 ?1 29 94 1105 0 96 91 97 -.01 .018 .082 18
 96 988 0 98 99 93 94 ?1 29 97 1104 0 99 94 100 -.01 -.018 .112 18 99 984 0 101
 102 96 97 ?1 29 100 1103 0 102 97 103 -.01 -.018 .122 18 102 980 0 104 105 99 1
00 ?1 29 103 1102 0 105 100 106 -.01 -.018 .092 18 105 976 0 107 108 102 103 ?1
 29 106 1101 0 108 103 109 -.01 -.018 .102 18 108 972 0 110 111 105 106 ?1 29 10
9 1100 0 111 106 112 -.01 -.008 .102 18 111 968 0 113 114 108 109 ?1 29 112 1099
 0 114 109 22 -.01 .008 .102 18 114 964 0 115 116 111 112 ?1 29 22 1098 0 116 11
2 9 -.01 .018 .112 18 116 960 0 117 21 114 22 ?1 17 117 0 118 119 120 116 35 121
 0 122 +18 21 956 0 32 123 116 9 ?1 17 32 0 124 122 34 21 26 33 0 31 +18 123 331
 0 125 126 21 127 ?1 17 125 0 128 129 130 123 24 11 0 131 -18 126 341 0 132 133
 123 134 ?1 29 127 333 0 123 0 134 -.008 -.008 .062 29 134 343 0 126 127 135 -.0
08 -.018 .052 29 135 348 0 133 134 136 -.008 -.018 .062 18 133 346 0 137 138 126
 135 ?1 29 136 358 0 138 135 139 -.008 .008 .122 18 138 356 0 140 141 133 136 ?1
 29 139 363 0 141 136 142 -.008 .008 .112 18 141 361 0 143 144 138 139 ?1 29 142
 368 0 144 139 145 -.008 -.008 .112 18 144 366 0 146 147 141 142 ?1 29 145 373 0
 147 142 148 -.008 -.008 .072 18 147 371 0 149 150 144 145 ?1 29 148 378 0 150 1
45 151 -.008 .008 .072 18 150 376 0 152 153 147 148 ?1 29 151 383 0 153 148 154
 -.008 .008 .062 18 153 381 0 155 156 150 151 ?1 29 154 388 0 156 151 157 -.008
 .008 .052 18 156 386 0 158 159 153 154 ?1 29 157 403 0 159 154 160 -.008 .018 .
072 18 159 401 0 161 162 156 157 ?1 29 160 408 0 162 157 163 -.008 .018 .062 18
 162 406 0 164 165 159 160 ?1 29 163 413 0 165 160 166 -.008 -.008 .082 18 165 4
11 0 167 168 162 163 ?1 29 166 418 0 168 163 169 -.008 .008 .082 18 168 416 0 17
0 171 165 166 ?1 29 169 423 0 171 166 172 -.008 -.008 .092 18 171 421 0 173 174
 168 169 ?1 29 172 428 0 174 169 175 -.008 .008 .092 18 174 426 0 176 177 171 17
2 ?1 29 175 433 0 177 172 178 -.008 -.018 .072 18 177 431 0 179 180 174 175 ?1 2
9 178 438 0 180 175 181 -.008 -.018 .082 18 180 436 0 182 183 177 178 ?1 29 181
 448 0 183 178 184 -.008 .018 .092 18 183 446 0 185 186 180 181 ?1 29 184 453 0
 186 181 187 -.008 .018 .082 18 186 451 0 188 189 183 184 ?1 29 187 463 0 189 18
4 190 -.008 -.018 .112 18 189 461 0 191 192 186 187 ?1 29 190 468 0 192 187 193
 -.008 -.018 .122 18 192 466 0 194 195 189 190 ?1 29 193 473 0 195 190 196 -.008
 -.018 .092 18 195 471 0 197 198 192 193 ?1 29 196 478 0 198 193 199 -.008 -.018
 .102 18 198 476 0 200 201 195 196 ?1 29 199 483 0 201 196 39 -.008 -.008 .102 1
8 201 481 0 202 36 198 199 ?1 29 39 488 0 36 199 37 -.008 .008 .102 18 36 486 0
 203 27 201 39 ?1 17 203 0 204 205 206 36 115 207 0 30 -15 255 204 1161 0 206 20
8 0 17 205 0 204 86 203 174 209 210 0 211 -17 206 0 204 203 86 114 212 213 0 214
 +17 115 0 29 31 30 114 203 207 0 206 +16 207 1127 0 ?115 33 215 216 0 0 1 17 30
 0 29 115 26 36 217 218 0 209 -15 29 1153 0 31 219 0 17 217 0 220 221 209 12 30
 218 0 0 +16 218 316 0 ?217 222 223 224 0 0 1 17 209 0 220 217 211 36 205 210 0
 0 +15 220 6 0 225 226 0 17 211 0 220 209 227 174 228 229 0 0 -16 210 281 0 ?209
 230 231 232 0 0 1 16 230 291 0 ?233 234 210 235 0 0 1 16 231 276 0 ?236 210 237
 238 0 0 1 30 232 283 0 210 238 235 0 +-.008 .008 .097 0 0 1 30 238 278 0 231 23
9 232 0 +-.008 -.013 .102 0 -1 0 30 235 293 0 230 232 240 0 +-.008 -.008 .107 0
 0 1 30 240 308 0 234 235 241 0 +-.008 .014 .112 0 1 0 16 234 306 0 ?120 223 230
 240 0 0 1 30 241 313 0 223 240 224 0 +-.008 .018 .107 0 0 1 16 223 311 0 ?221 2
18 234 241 0 0 1 30 224 318 0 218 241 242 0 +-.008 .014 .102 0 1 0 30 242 1096 0
 243 224 244 0 +-.01 -.013 .062 0 -1 0 16 243 952 0 ?245 246 0 242 0 0 1 30 244
 1095 0 246 242 247 0 +-.01 -.013 .052 0 -1 0 16 246 946 0 ?248 249 243 244 0 0
 1 30 247 1094 0 249 244 250 0 +-.01 -.018 .057 0 0 1 16 249 942 0 ?251 252 246
 247 0 0 1 30 250 1093 0 252 247 253 0 +-.01 1387778780781446e-32 .122 0 1 0 16
 252 936 0 ?254 255 249 250 0 0 1 30 253 1092 0 255 250 256 0 +-.01 .008 .117 0
 0 1 16 255 932 0 ?257 258 252 253 0 0 1 30 256 1091 0 258 253 259 0 +-.01 -.008
 .067 0 0 1 16 258 928 0 ?260 261 255 256 0 0 1 30 259 1090 0 261 256 262 0 +-.0
1 .008 .057 0 0 1 16 261 924 0 ?263 264 258 259 0 0 1 30 262 1089 0 264 259 265
 0 +-.01 .014 .062 0 1 0 16 264 918 0 ?266 267 261 262 0 0 1 30 265 1088 0 267 2
62 268 0 +-.01 .014 .072 0 1 0 16 267 912 0 ?269 270 264 265 0 0 1 30 268 1087 0
 270 265 271 0 +-.01 .018 .067 0 0 1 16 270 908 0 ?272 273 267 268 0 0 1 30 271
 1086 0 273 268 274 0 +-.01 .008 .077 0 0 1 16 273 904 0 ?275 276 270 271 0 0 1
 30 274 1085 0 276 271 277 0 +-.01 -.008 .087 0 0 1 16 276 900 0 ?278 279 273 27
4 0 0 1 30 277 1084 0 279 274 280 0 +-.01 -.013 .072 0 -1 0 16 279 896 0 ?281 28
2 276 277 0 0 1 30 280 1083 0 282 277 283 0 +-.01 -.018 .077 0 0 1 16 282 892 0
 ?284 285 279 280 0 0 1 30 283 1082 0 285 280 286 0 +-.01 -.013 .082 0 -1 0 16 2
85 888 0 ?287 288 282 283 0 0 1 30 286 1081 0 288 283 289 0 +-.01 .014 .092 0 1
 0 16 288 882 0 ?290 291 285 286 0 0 1 30 289 1080 0 291 286 292 0 +-.01 .018 .0
87 0 0 1 16 291 878 0 ?293 294 288 289 0 0 1 30 292 1079 0 294 289 295 0 +-.01 .
014 .082 0 1 0 16 294 872 0 ?296 297 291 292 0 0 1 30 295 1078 0 297 292 298 0 +
-.01 -.013 .112 0 1 0 16 297 868 0 ?299 300 294 295 0 0 1 30 298 1077 0 300 295
 301 0 +-.01 -.018 .117 0 0 1 16 300 864 0 ?302 303 297 298 0 0 1 30 301 1076 0
 303 298 304 0 +-.01 -.013 .092 0 -1 0 16 303 860 0 ?305 306 300 301 0 0 1 30 30
4 1075 0 306 301 307 0 +-.01 -.018 .097 0 0 1 16 306 856 0 ?308 309 303 304 0 0
 1 30 307 1074 0 309 304 310 0 +-.01 -.013 .102 0 -1 0 16 309 852 0 ?311 213 306
 307 0 0 1 30 310 1073 0 213 307 312 0 +-.01 .008 .097 0 0 1 16 213 848 0 ?206 3
13 309 310 0 0 1 30 312 1072 0 313 310 314 0 +-.01 -.008 .107 0 0 1 16 313 844 0
 ?315 316 213 312 0 0 1 30 314 1071 0 316 312 317 0 +-.01 .014 .112 0 1 0 16 316
 838 0 ?318 319 313 314 0 0 1 30 317 1070 0 319 314 320 0 +-.01 .018 .107 0 0 1
 16 319 834 0 ?122 321 316 317 0 0 1 30 320 1069 0 321 317 322 0 +-.01 .014 .102
 0 1 0 16 321 828 0 ?31 323 319 320 0 0 1 30 322 1237 0 33 320 324 0 +-.008 .018
 .102 -1 0 0 16 33 1125 0 ?32 121 207 322 0 0 1 30 324 1238 0 121 322 216 0 +-.0
08 .018 .112 -1 0 0 16 121 1126 0 ?117 325 33 324 0 0 1 30 216 1239 0 207 324 32
6 0 +-.008 .008 .102 -1 0 0 30 326 1240 0 327 216 328 0 +-.008 -.008 .102 -1 0 0
 16 327 1128 0 ?113 329 330 326 0 0 1 30 328 1241 0 329 326 331 0 +-.008 -.018 .
102 -1 0 0 16 329 1129 0 ?110 332 327 328 0 0 1 30 331 1242 0 332 328 333 0 +-.0
08 -.018 .092 -1 0 0 16 332 1130 0 ?107 334 329 331 0 0 1 30 333 1243 0 335 331
 336 0 +-.008 -.018 .122 -1 0 0 16 335 1131 0 ?104 337 338 333 0 0 1 30 336 1244
 0 337 333 339 0 +-.008 -.018 .112 -1 0 0 16 337 1132 0 ?101 330 335 336 0 0 1 3
0 339 1245 0 340 336 341 0 +-.008 .018 .082 -1 0 0 16 340 1133 0 ?98 342 343 339
 0 0 1 30 341 1246 0 342 339 344 0 +-.008 .018 .092 -1 0 0 16 342 1134 0 ?95 215
 340 341 0 0 1 30 344 1247 0 345 341 346 0 +-.008 -.018 .082 -1 0 0 16 345 1135
 0 ?92 347 348 344 0 0 1 30 346 1248 0 347 344 349 0 +-.008 -.018 .072 -1 0 0 16
 347 1136 0 ?89 25 345 346 0 0 1 30 349 1249 0 215 346 350 0 +-.008 .008 .092 -1
 0 0 16 215 1137 0 ?86 207 342 349 0 0 1 30 350 1250 0 334 349 351 0 +-.008 -.00
8 .092 -1 0 0 16 334 1138 0 ?83 348 332 350 0 0 1 30 351 1251 0 343 350 352 0 +-
.008 .008 .082 -1 0 0 16 343 1139 0 ?80 340 353 351 0 0 1 30 352 1252 0 348 351
 354 0 +-.008 -.008 .082 -1 0 0 16 348 1140 0 ?77 345 334 352 0 0 1 30 354 1253
 0 355 352 356 0 +-.008 .018 .062 -1 0 0 16 355 1141 0 ?74 357 358 354 0 0 1 30
 356 1254 0 357 354 359 0 +-.008 .018 .072 -1 0 0 16 357 1142 0 ?71 353 355 356
 0 0 1 30 359 1255 0 360 356 361 0 +-.008 .008 .052 -1 0 0 16 360 1143 0 ?68 358
 362 359 0 0 1 30 361 1256 0 358 359 363 0 +-.008 .008 .062 -1 0 0 16 358 1144 0
 ?65 355 360 361 0 0 1 30 363 1257 0 353 361 364 0 +-.008 .008 .072 -1 0 0 16 35
3 1145 0 ?62 343 357 363 0 0 1 30 364 1258 0 25 363 365 0 +-.008 -.008 .072 -1 0
 0 16 25 1146 0 ?59 11 347 364 0 0 1 30 365 1259 0 330 364 366 0 +-.008 -.008 .1
12 -1 0 0 16 330 1147 0 ?56 327 337 365 0 0 1 30 366 1260 0 325 365 367 0 +-.008
 .008 .112 -1 0 0 16 325 1148 0 ?53 338 121 366 0 0 1 30 367 1261 0 338 366 368
 0 +-.008 .008 .122 -1 0 0 16 338 1149 0 ?50 335 325 367 0 0 1 30 368 1262 0 222
 367 20 0 +-.008 -.018 .062 -1 0 0 16 222 1150 0 ?47 362 218 368 0 0 1 30 20 126
3 0 362 368 8 0 +-.008 -.018 .052 -1 0 0 16 362 1151 0 ?44 360 222 20 0 0 1 17 4
4 0 369 370 371 42 132 362 0 372 +15 369 1205 0 370 373 0 17 370 0 369 158 44 66
 248 246 0 374 -17 371 0 369 44 158 126 375 376 0 377 +17 132 0 378 379 372 126
 44 362 0 371 -17 372 0 378 132 47 42 251 249 0 248 -15 378 1203 0 372 380 0 17
 47 0 378 372 379 45 137 222 0 251 +17 251 0 381 382 248 45 372 249 0 245 +17 24
8 0 381 251 374 42 370 246 0 0 +15 381 827 0 382 383 0 17 374 0 381 248 384 66 2
63 261 0 0 -17 384 0 381 374 385 63 266 264 0 0 -17 263 0 386 155 68 63 374 261
 0 384 +15 386 1195 0 263 387 0 17 155 0 386 388 263 153 65 358 0 389 -17 68 0 3
86 263 388 66 158 360 0 370 +17 388 0 386 68 155 156 390 391 0 375 -17 158 0 369
 371 370 156 68 360 0 388 -17 390 0 220 392 375 153 388 391 0 0 +16 391 131 0 ?3
90 393 394 395 0 0 1 17 375 0 220 390 377 156 371 376 0 0 -17 377 0 220 375 225
 126 379 396 0 0 -16 376 81 0 ?371 396 323 397 0 0 1 16 396 86 0 ?379 398 376 39
9 0 0 1 16 323 71 0 ?225 376 321 400 0 0 1 30 397 83 0 376 400 399 0 +-.008 -.01
3 .052 0 -1 0 30 400 73 0 323 0 397 0 +-.008 -.013 .062 0 -1 0 30 399 88 0 396 3
97 401 0 +-.008 -.018 .057 0 0 1 30 401 98 0 398 399 402 0 +-.008 13877787807814
46e-32 .122 0 1 0 16 398 96 0 ?403 404 396 401 0 0 1 30 402 103 0 404 401 405 0
 +-.008 .008 .117 0 0 1 16 404 101 0 ?406 394 398 402 0 0 1 30 405 118 0 394 402
 395 0 +-.008 -.008 .067 0 0 1 16 394 116 0 ?129 391 404 405 0 0 1 30 395 133 0
 391 405 407 0 +-.008 .008 .057 0 0 1 30 407 143 0 393 395 408 0 +-.008 .014 .06
2 0 1 0 16 393 141 0 ?392 409 391 407 0 0 1 30 408 153 0 409 407 410 0 +-.008 .0
14 .072 0 1 0 16 409 151 0 ?411 412 393 408 0 0 1 30 410 158 0 412 408 413 0 +-.
008 .018 .067 0 0 1 16 412 156 0 ?414 415 409 410 0 0 1 30 413 163 0 415 410 416
 0 +-.008 .008 .077 0 0 1 16 415 161 0 ?417 418 412 413 0 0 1 30 416 178 0 418 4
13 419 0 +-.008 -.008 .087 0 0 1 16 418 176 0 ?420 421 415 416 0 0 1 30 419 203
 0 421 416 422 0 +-.008 -.013 .072 0 -1 0 16 421 201 0 ?423 424 418 419 0 0 1 30
 422 208 0 424 419 425 0 +-.008 -.018 .077 0 0 1 16 424 206 0 ?426 427 421 422 0
 0 1 30 425 213 0 427 422 428 0 +-.008 -.013 .082 0 -1 0 16 427 211 0 ?429 229 4
24 425 0 0 1 30 428 223 0 229 425 430 0 +-.008 .014 .092 0 1 0 16 229 221 0 ?228
 431 427 428 0 0 1 30 430 228 0 431 428 432 0 +-.008 .018 .087 0 0 1 16 431 226
 0 ?227 433 229 430 0 0 1 30 432 233 0 433 430 434 0 +-.008 .014 .082 0 1 0 16 4
33 231 0 ?435 436 431 432 0 0 1 30 434 248 0 436 432 437 0 +-.008 -.013 .112 0 1
 0 16 436 246 0 ?438 439 433 434 0 0 1 30 437 253 0 439 434 440 0 +-.008 -.018 .
117 0 0 1 16 439 251 0 ?441 442 436 437 0 0 1 30 440 268 0 442 437 239 0 +-.008
 -.013 .092 0 -1 0 16 442 266 0 ?443 237 439 440 0 0 1 30 239 273 0 237 440 238
 0 +-.008 -.018 .097 0 0 1 16 237 271 0 ?444 231 442 239 0 0 1 17 444 0 445 110
 197 198 446 237 0 236 +15 445 1165 0 447 448 0 17 110 0 445 447 444 108 200 329
 0 311 +17 197 0 445 444 447 195 107 332 0 443 -17 446 0 220 449 236 195 444 237
 0 0 -17 236 0 220 446 450 198 451 231 0 0 +17 450 0 220 236 438 201 233 230 0 0
 -17 451 0 452 113 200 201 236 231 0 450 -15 452 1163 0 311 453 0 17 113 0 452 3
11 451 111 202 327 0 454 +17 200 0 452 451 311 198 110 329 0 444 -17 311 0 452 2
00 113 108 455 309 0 308 +17 455 0 381 315 308 111 311 309 0 0 -17 308 0 381 455
 305 108 447 306 0 0 +17 305 0 381 308 278 105 456 303 0 0 +17 447 0 445 197 110
 105 308 306 0 305 -17 278 0 381 305 457 81 458 276 0 0 +17 456 0 459 173 107 81
 305 303 0 278 -15 459 1167 0 456 460 0 17 173 0 459 443 456 171 83 334 0 420 -1
7 107 0 459 456 443 105 197 332 0 447 +17 443 0 459 107 173 195 449 442 0 446 +1
7 449 0 220 461 446 171 443 442 0 0 -17 461 0 220 429 449 165 420 418 0 0 -17 42
9 0 220 462 461 180 463 427 0 0 +17 420 0 464 83 167 171 461 418 0 449 +15 464 1
185 0 458 465 0 17 83 0 464 458 420 81 173 334 0 456 +17 167 0 464 420 458 165 7
7 348 0 463 -17 458 0 464 167 83 75 278 276 0 457 -17 77 0 466 287 463 75 167 34
8 0 458 +17 463 0 466 77 182 165 429 427 0 461 -15 466 1179 0 287 467 0 17 182 0
 466 463 287 180 92 345 0 426 -17 287 0 466 182 77 90 457 285 0 284 +17 92 0 468
 469 426 90 182 345 0 287 +17 426 0 468 92 179 180 462 424 0 429 +15 468 1181 0
 469 470 0 17 179 0 468 426 469 177 89 347 0 423 -17 462 0 220 471 429 177 426 4
24 0 0 -17 471 0 220 131 462 147 423 421 0 0 -17 131 0 220 225 471 123 129 394 0
 472 -17 423 0 473 89 149 177 471 421 0 462 +15 473 1183 0 474 475 0 17 89 0 473
 474 423 87 179 347 0 469 +17 149 0 473 423 474 147 59 25 0 129 -17 474 0 473 14
9 89 57 281 279 0 260 -17 59 0 128 130 129 57 149 25 0 474 +17 129 0 128 59 125
 147 131 394 0 471 +15 128 1197 0 130 476 0 17 130 0 128 125 59 40 260 258 0 382
 -14 255 476 1198 0 ?475 17 128 6 477 +0 0 475 17 23 14 475 1184 0 ?470 476 473
 6 478 +0 0 470 476 23 14 17 1208 0 ?476 0 479 6 7 -0 0 476 0 23 50 477 1231 0 4
76 480 481 0 +-.008 -.008 .067 0 -1 0 0 0 -1 13 23 1265 0 0 0 0 0 0 10 17 50 480
 1230 0 387 482 477 0 +-.008 .008 .057 0 -1 0 0 0 -1 50 481 1232 0 483 477 484 0
 +-.008 .008 .117 0 -1 0 0 0 -1 14 483 1200 0 ?485 486 487 6 481 -0 0 485 486 23
 50 484 1233 0 486 481 488 0 +-.008 1387778780781446e-32 .122 0 0 1 1 0 0 14 486
 1202 0 ?483 489 490 6 484 +0 0 483 489 23 50 488 1234 0 380 484 19 0 +-.008 -.0
18 .057 0 -1 0 0 0 -1 14 380 1204 0 ?226 373 378 6 488 +0 0 226 373 23 50 19 123
5 0 373 488 7 0 +-.008 -.013 .052 0 0 -1 -1 0 0 14 373 1206 0 ?380 387 369 6 19
 +0 0 380 387 23 14 387 1196 0 ?373 491 386 6 480 -0 0 373 491 23 14 491 1194 0
 ?387 492 493 6 482 -0 0 387 492 23 14 492 1190 0 ?491 494 495 6 496 -0 0 491 49
4 23 15 493 1193 0 266 491 0 50 482 1229 0 491 497 480 0 +-.008 .014 .062 0 0 1
 1 0 0 50 497 1228 0 494 496 482 0 +-.008 .014 .072 0 0 1 1 0 0 14 494 1192 0 ?4
92 498 499 6 497 +0 0 492 498 23 50 496 1227 0 492 500 497 0 +-.008 .018 .067 0
 -1 0 0 0 -1 50 500 1226 0 498 501 496 0 +-.008 .008 .077 0 -1 0 0 0 -1 14 498 1
188 0 ?494 502 503 6 500 -0 0 494 502 23 50 501 1225 0 465 478 500 0 +-.008 -.00
8 .087 0 -1 0 0 0 -1 14 465 1186 0 ?460 467 464 6 501 +0 0 460 467 23 50 478 122
4 0 475 504 501 0 +-.008 -.013 .072 0 0 -1 -1 0 0 50 504 1223 0 470 505 478 0 +-
.008 -.018 .077 0 -1 0 0 0 -1 14 470 1182 0 ?467 475 468 6 504 +0 0 467 475 23 5
0 505 1222 0 467 506 504 0 +-.008 -.013 .082 0 0 -1 -1 0 0 14 467 1180 0 ?465 47
0 466 6 505 -0 0 465 470 23 50 506 1221 0 507 508 505 0 +-.008 .014 .092 0 0 1 1
 0 0 14 507 1178 0 ?509 208 510 6 506 +0 0 509 208 23 50 508 1220 0 509 511 506
 0 +-.008 .018 .087 0 -1 0 0 0 -1 14 509 1176 0 ?502 507 512 6 508 -0 0 502 507
 23 50 511 1219 0 502 513 508 0 +-.008 .014 .082 0 0 1 1 0 0 14 502 1174 0 ?498
 509 514 6 511 -0 0 498 509 23 50 513 1218 0 515 516 511 0 +-.008 -.013 .112 0 0
 1 1 0 0 14 515 1172 0 ?489 517 518 6 513 -0 0 489 517 23 50 516 1217 0 489 519
 513 0 +-.008 -.018 .117 0 -1 0 0 0 -1 14 489 1170 0 ?486 515 520 6 516 +0 0 486
 515 23 50 519 1216 0 460 521 516 0 +-.008 -.013 .092 0 0 -1 -1 0 0 14 460 1168
 0 ?448 465 459 6 519 +0 0 448 465 23 50 521 1215 0 448 522 519 0 +-.008 -.018 .
097 0 -1 0 0 0 -1 14 448 1166 0 ?453 460 445 6 521 +0 0 453 460 23 50 522 1214 0
 453 523 521 0 +-.008 -.013 .102 0 0 -1 -1 0 0 14 453 1164 0 ?517 448 452 6 522
 -0 0 517 448 23 50 523 1213 0 208 524 522 0 +-.008 .008 .097 0 -1 0 0 0 -1 14 2
08 1162 0 ?507 219 204 6 523 -0 0 507 219 23 50 524 1212 0 517 525 523 0 +-.008
 -.008 .107 0 -1 0 0 0 -1 14 517 1160 0 ?515 453 526 6 524 +0 0 515 453 23 50 52
5 1211 0 485 527 524 0 +-.008 .014 .112 0 0 1 1 0 0 14 485 1158 0 ?528 483 118 6
 525 +0 0 528 483 23 50 527 1210 0 528 529 525 0 +-.008 .018 .107 0 -1 0 0 0 -1
 14 528 1156 0 ?219 485 124 6 527 -0 0 219 485 23 50 529 1209 0 219 530 527 0 +-
.008 .014 .102 0 0 1 1 0 0 14 219 1154 0 ?208 528 29 6 529 -0 0 208 528 23 50 53
0 1068 0 383 531 529 0 +-.01 3469446951953615e-33 .061 -1 0 0 0 -1 0 14 383 772
 0 ?0 226 381 6 530 +0 0 0 226 23 50 531 3 0 226 0 530 0 +-.008 3469446951953615
e-33 .061 -1 0 0 0 -1 0 14 226 1 0 ?383 380 220 6 531 -0 0 383 380 23 15 124 115
5 0 122 528 0 17 122 0 124 35 32 116 532 319 0 318 +17 35 0 124 34 122 27 117 12
1 0 120 -17 532 0 381 214 318 21 122 319 0 0 -17 318 0 381 532 533 116 119 316 0
 0 +17 533 0 381 318 254 51 257 255 0 0 -17 119 0 118 143 117 51 318 316 0 533 -
15 118 1157 0 119 485 0 17 143 0 118 120 119 141 53 325 0 534 -17 120 0 118 117
 143 27 535 234 0 221 +17 53 0 487 257 534 51 143 325 0 119 +17 534 0 487 53 140
 141 406 404 0 535 -15 487 1199 0 257 483 0 17 140 0 487 534 257 138 50 338 0 40
3 -17 406 0 220 536 535 138 534 404 0 0 +17 535 0 220 406 221 141 120 234 0 0 -1
7 221 0 220 535 217 27 34 223 0 0 +17 34 0 124 32 35 12 221 223 0 217 -17 536 0
 220 537 406 192 403 398 0 0 -17 537 0 220 438 536 189 441 439 0 0 -17 403 0 490
 50 194 138 536 398 0 406 +15 490 1201 0 538 486 0 17 50 0 490 538 403 48 140 33
8 0 257 +17 194 0 490 403 538 192 104 335 0 441 -17 538 0 490 194 50 102 254 252
 0 302 -17 104 0 520 539 441 102 194 335 0 538 +17 441 0 520 104 191 192 537 439
 0 536 +15 520 1169 0 539 489 0 17 191 0 520 441 539 189 101 337 0 540 -17 539 0
 520 191 104 99 302 300 0 541 -17 101 0 518 299 540 99 191 337 0 539 +17 540 0 5
18 101 146 189 438 436 0 537 -15 518 1171 0 299 515 0 17 146 0 518 540 299 144 5
6 330 0 233 -17 438 0 220 450 537 144 540 436 0 0 +17 299 0 518 146 101 54 541 2
97 0 315 +17 56 0 526 454 233 54 146 330 0 299 +17 233 0 526 56 202 144 450 230
 0 438 +15 526 1159 0 454 517 0 17 202 0 526 233 454 201 113 327 0 451 -17 454 0
 526 202 56 111 315 313 0 455 -17 315 0 381 541 455 54 454 313 0 0 +17 541 0 381
 302 315 99 299 297 0 0 -17 302 0 381 254 541 102 539 300 0 0 +17 254 0 381 533
 302 48 538 252 0 0 +17 257 0 487 140 53 48 533 255 0 254 +17 214 0 381 212 532
 114 31 321 0 0 -17 212 0 381 290 214 84 206 213 0 0 -17 31 0 29 26 115 21 214 3
21 0 532 +17 290 0 381 542 212 93 543 288 0 0 +17 542 0 381 544 290 96 293 291 0
 0 -17 543 0 510 176 95 84 290 288 0 212 -15 510 1177 0 543 507 0 17 176 0 510 2
28 543 174 86 215 0 205 -17 95 0 510 543 228 93 185 342 0 293 +17 228 0 510 95 1
76 183 211 229 0 227 +17 185 0 512 545 293 183 95 342 0 228 -17 293 0 512 185 98
 93 542 291 0 290 +15 512 1175 0 293 509 0 17 98 0 512 293 545 96 188 340 0 296
 +17 545 0 512 98 185 186 227 431 0 435 -17 188 0 514 546 296 186 98 340 0 545 -
17 296 0 514 188 80 96 544 294 0 542 +15 514 1173 0 296 502 0 17 80 0 514 296 54
6 78 170 343 0 275 +17 544 0 381 547 542 78 296 294 0 0 -17 547 0 381 269 544 60
 275 273 0 0 -17 269 0 381 385 547 69 548 267 0 0 +17 275 0 503 170 62 78 547 27
3 0 544 +15 503 1187 0 275 498 0 17 170 0 503 549 275 168 80 343 0 546 -17 62 0
 503 275 549 60 152 353 0 548 +17 549 0 503 62 170 150 417 415 0 550 -17 152 0 4
99 411 548 150 62 353 0 549 -17 548 0 499 152 71 60 269 267 0 547 -15 499 1191 0
 548 494 0 17 71 0 499 548 411 69 161 357 0 272 +17 411 0 499 71 152 159 550 409
 0 414 +17 161 0 495 551 272 159 71 357 0 411 -17 272 0 495 161 74 69 385 270 0
 269 +15 495 1189 0 272 492 0 17 74 0 495 272 551 72 164 355 0 266 +17 385 0 381
 384 269 72 272 270 0 0 -17 551 0 495 74 161 162 414 412 0 392 -17 164 0 493 389
 266 162 74 355 0 551 -17 266 0 493 164 65 72 384 264 0 385 +17 65 0 493 266 389
 63 155 358 0 263 +17 389 0 493 65 164 153 392 393 0 390 -17 392 0 220 414 390 1
62 389 393 0 0 +17 414 0 220 550 392 159 551 412 0 0 +17 550 0 220 417 414 150 4
11 409 0 0 -17 417 0 220 435 550 168 549 415 0 0 +17 435 0 220 227 417 186 546 4
33 0 0 +17 227 0 220 211 435 183 545 431 0 0 +17 546 0 514 80 188 168 435 433 0
 417 -17 86 0 204 206 205 84 176 215 0 543 +15 479 1207 0 245 17 0 17 245 0 479
 137 24 45 382 243 0 0 +17 137 0 479 472 245 133 47 222 0 379 -17 24 0 479 245 4
72 40 125 11 0 130 +17 382 0 381 260 251 40 245 243 0 0 -17 260 0 381 281 382 57
 130 258 0 0 +17 281 0 381 284 260 87 474 279 0 0 +17 284 0 381 457 281 90 469 2
82 0 0 +17 457 0 381 278 284 75 287 285 0 0 -17 469 0 468 179 92 87 284 282 0 28
1 -17 472 0 479 24 137 123 225 323 0 0 -17 225 0 220 377 131 133 472 323 0 0 +17
 379 0 378 47 132 133 377 396 0 225 +19 18 1266 0 1 0 10 6 0 S0 74 4 CI16 index_
map_offset0 0 1 dCCZ20 16 3 0 0 552 14 2 0 0 0 0 0 0 0 0 0 0 0 0 0 0 0 0 0 81 1
 552 1531 553 1 0 14 0 0 554 81 1 14 1532 555 1 552 2 0 0 556 80 7 CCCCCDI12 leg
al_owners0 17 1 lCZ1 555 13 557 8038 0 0 0 0 0 0 0 0 0 TTTTTTTTTTTTTFTFT10 98 25
5 6 556 80 97 114 116 32 50 79 255 14 557 SDL/TYSA_UNAME80 1 553 558 559 8040 0
 0 0 0 3 5 0 0 0 TTTFFFFFFFFFFFFFF2 83 255 3 554 0 0 1 79 17 559 SDL/TYSA_COLOUR
_280 1 13 560 561 8017 0 0 0 0 0 0 0 0 0 TTTTTTTTTTTTTFTFT3 84 255 6 15 Part 279
 13 561 SDL/TYSA_NAME1 0 
