**ABCDEFGHIJKLMNOPQRSTUVWXYZabcdefghijklmnopqrstuvwxyz**************************
**PARASOLID !"#$%&'()*+,-./:;<=>?@[\]^_`{|}~0123456789**************************
**PART1;
MC=unknown;
MC_MODEL=unknown;
MC_ID=unknown;
OS=unknown;
OS_RELEASE=unknown;
FRU=Parasolid 37.0.209;
APPL=Onshape;
SITE=unknown;
USER=unknown;
FORMAT=text;
GUISE=transmit;
KEY=BTGapi::writeModels_.xmt;
FILE=BTGapi::writeModels_.xmt;
DATE=2025-03-16T16:43:44 (UTC);
**PART2;
SCH=SCH_3700209_36001;
USFLD_SIZE=0;
**PART3;
**END_OF_HEADER*****************************************************************
T51 : TRANSMIT FILE created by modeller version 370020923 SCH_3700209_36001_1300
6231 0 12 36 CCCI7 lattice222 0 CCCI4 mesh1006 0 I8 polyline1008 0 CCCCCCCDI5 ow
ner1040 0 CCCI16 boundary_lattice222 0 CCCI13 boundary_mesh1006 0 I17 boundary_p
olyline1008 0 CCCA16 index_map_offset0 0 1 dA9 index_map82 0 A17 node_id_index_m
ap82 0 A20 schema_embedding_map82 0 A5 child12 0 A14 lowest_node_id0 0 1 dA16 me
sh_offset_data206 0 Z1 6317 2 3 0 0 0 0 0 0 0 1e3 1e-8 0 4 5 1 0 1 2 6 0 7 8 9 0
 0 10 11 12 0 0 0 0 0 0 0 81 255 1 2 6317 13 1 14 0 0 0 15 70 11 CI9 list_type0
 0 1 uI10 notransmit0 0 1 lCCCDCCDI12 finger_index0 0 1 dI12 finger_block1012 0
 CZ3 0 4 T1 0 0 7 20 1 16 16 13 255 6 950 0 1 0 17 0 0 18 0 50 255 7 3559 0 17 1
9 0 0 +0 0 .0061 0 0 1 1 0 0 30 255 8 3545 0 1 20 0 21 +-.0085 .00615 .0061 -1 0
 0 29 255 9 3550 0 22 23 0 -.0085 -.00685 .0061 19 9 CCCCCCI5 frame230 0 CA5 own
er12 0 Z10 1 0 1 18 0 24 0 V0 16 255 11 943 25 ?26 0 27 28 0 0 1 18 255 12 938 2
9 30 0 22 23 5e-7 1 81 1 29 6254 31 12 0 0 0 32 33 17 255 30 0 34 35 36 12 26 11
 0 37 -18 22 936 32 38 12 39 9 5e-7 1 29 23 3552 0 12 40 9 -.0085 -.00685 .0062
 29 40 3535 0 41 42 23 .0085 -.00685 .0061 18 41 919 43 44 45 0 40 5e-7 1 29 42
 3540 0 46 47 40 .0085 -.00685 .0062 18 46 924 48 26 49 50 42 5e-7 1 29 47 3544
 0 49 51 42 -.0085 .00615 .0061 18 49 929 52 53 39 46 47 5e-7 1 29 51 3546 0 39
 54 47 -.0085 .00615 .0062 18 39 931 55 56 22 49 51 5e-7 1 29 54 3536 0 45 57 51
 .0085 .00615 .0061 18 45 920 58 59 50 41 54 5e-7 1 29 57 3538 0 50 0 54 .0085 .
00615 .0062 18 50 922 60 61 46 45 57 5e-7 1 81 1 60 6259 31 50 0 0 48 58 62 17 6
1 0 63 64 65 50 66 67 0 68 -15 255 63 927 0 69 70 0 17 64 0 63 69 61 45 71 72 0
 73 +17 65 0 63 61 69 39 74 75 0 0 -17 66 0 76 37 68 39 61 67 0 65 +16 67 932 77
 ?66 78 75 79 0 0 1 17 68 0 76 66 26 50 80 81 0 71 +15 76 946 0 68 82 0 17 26 0
 76 68 37 46 30 11 0 36 +17 80 0 83 84 71 46 68 81 0 0 -16 81 923 85 ?68 86 72 8
7 0 0 1 17 71 0 83 80 73 50 64 72 0 0 -15 83 917 0 73 88 0 17 73 0 83 71 84 45 8
9 90 0 0 +16 72 921 91 ?64 81 90 92 0 0 1 81 1 91 6272 31 72 0 0 85 93 94 16 90
 918 93 ?73 72 0 95 0 0 1 133 255 92 5328 0 72 0 96 0 +96 .0085 .00615 .0062 .00
85 .00615 .0061 0 1e-4 30 96 3539 0 1 92 97 98 +.0085 .00615 .0062 0 0 -1 133 97
 5333 0 75 96 99 0 +99 -.0085 .00615 .0062 -.0085 .00615 .0061 0 1e-4 141 255 98
 92 98 98 96 16 75 930 100 ?74 67 101 97 0 0 1 30 99 3547 0 1 97 102 103 +-.0085
 .00615 .0062 0 0 -1 133 102 5338 0 86 99 104 0 +104 .0085 -.00685 .0062 .0085 -
.00685 .0061 0 1e-4 141 103 97 103 103 99 16 86 925 105 ?84 101 81 102 0 0 1 30
 104 3542 0 1 102 106 107 +.0085 -.00685 .0062 0 0 -1 133 106 5340 0 108 104 109
 0 +109 -.0085 -.00685 .0062 -.0085 -.00685 .0061 0 1e-4 141 107 102 107 107 104
 16 108 937 110 ?35 111 78 106 0 0 1 30 109 3553 0 1 106 87 112 +-.0085 -.00685
 .0062 0 0 -1 133 87 5353 0 81 109 113 0 +113 .0085 -.00685 .0062 .0085 .00615 .
0062 -.013 0 141 112 106 112 112 109 30 113 3541 0 1 87 79 114 +.0085 .00615 .00
62 -1334402673828312e-31 1 0 133 79 5355 0 67 113 115 0 +115 .0085 .00615 .0062
 -.0085 .00615 .0062 -.017 0 141 114 87 114 114 113 30 115 3548 0 1 79 116 117 +
-.0085 .00615 .0062 -1 0 0 133 116 5357 0 111 115 118 0 +118 -.0085 .00615 .0062
 -.0085 -.00685 .0062 0 .013 141 117 79 117 117 115 16 111 939 119 ?37 27 108 11
6 0 0 1 30 118 3554 0 1 116 28 120 +-.0085 .00615 .0062 1334402673828312e-31 -1
 0 133 28 5359 0 11 118 121 0 +121 -.0085 -.00685 .0062 .0085 -.00685 .0062 0 .0
17 141 120 116 120 120 118 30 121 3557 0 1 28 95 122 +-.0085 -.00685 .0062 1 0 0
 133 95 5364 0 90 121 123 0 +123 .0085 -.00685 .0061 .0085 .00615 .0061 -.013 0
 141 122 28 122 122 121 30 123 3537 0 1 95 124 125 +.0085 .00615 .0061 -13344026
73828312e-31 1 0 133 124 5366 0 27 123 126 0 +126 -.0085 -.00685 .0061 .0085 -.0
0685 .0061 0 .017 141 125 95 125 125 123 16 27 942 127 ?44 11 111 124 0 0 1 30 1
26 3556 0 1 124 128 129 +-.0085 -.00685 .0061 1 0 0 133 128 5368 0 78 126 130 0
 +130 -.0085 .00615 .0061 -.0085 -.00685 .0061 0 .013 141 129 124 129 129 126 16
 78 935 131 ?132 108 67 128 0 0 1 30 130 3551 0 1 128 20 133 +-.0085 .00615 .006
1 1334402673828312e-31 -1 0 133 20 5370 0 101 130 8 0 +8 .0085 .00615 .0061 -.00
85 .00615 .0061 -.017 0 141 133 128 133 133 130 16 101 928 134 ?69 75 86 20 0 0
 1 81 1 134 6269 31 101 0 0 100 105 135 17 69 0 63 65 64 49 59 101 0 0 +17 59 0
 136 89 53 45 69 101 0 64 -15 136 948 0 89 17 0 17 89 0 136 38 59 41 73 90 0 0 -
17 53 0 136 59 38 49 132 78 0 74 -17 38 0 136 53 89 22 44 27 0 35 -17 132 0 137
 138 74 22 53 78 0 0 +17 74 0 137 132 56 49 65 75 0 69 +15 137 934 0 132 139 0 1
7 56 0 137 74 138 39 37 111 0 66 -17 138 0 137 56 132 12 35 108 0 0 -17 37 0 76
 26 66 12 56 111 0 138 +17 35 0 34 44 30 22 138 108 0 132 +15 34 941 0 44 140 0
 17 44 0 34 36 35 41 38 27 0 84 +17 36 0 34 30 44 46 84 86 0 80 -17 84 0 83 73 8
0 41 36 86 0 89 +14 255 140 940 141 ?139 17 34 6 142 -0 0 139 17 24 81 1 141 631
3 143 140 144 0 145 146 147 14 139 933 146 ?70 140 137 6 148 -0 0 70 140 24 14 1
7 947 145 ?140 0 136 6 7 -0 0 140 0 24 50 142 3555 0 140 148 19 0 +-.0085 -.0068
5 .0062 0 1 0 0 0 1 13 24 2 0 0 0 0 0 0 10 17 50 148 3549 0 139 149 142 0 +-.008
5 .00615 .0062 1 1334402673828314e-31 0 -1334402673828314e-31 1 0 50 19 3558 0 8
2 142 7 0 +0 0 .0062 0 0 1 1 0 0 14 82 3 150 ?0 88 76 6 19 +0 0 0 88 24 81 1 150
 6279 31 82 0 0 151 152 153 14 88 916 154 ?82 70 83 6 155 -0 0 82 70 24 81 1 154
 6311 143 88 151 0 0 145 156 14 70 926 157 ?88 139 63 6 149 -0 0 88 139 24 50 15
5 3534 0 88 0 149 0 +.0085 .00615 .0062 -1 -1334402673828314e-31 0 1334402673828
314e-31 -1 0 50 149 3543 0 70 155 148 0 +-.0085 .00615 .0062 0 -1 0 0 0 -1 81 1
 157 6315 143 70 158 0 146 0 159 80 7 CCCCCDI12 legal_owners0 17 1 lCZ1 143 0 16
0 8001 0 0 0 0 3 5 0 0 0 FFFFTFTFFFFFFFFFF2 81 1 158 6277 31 70 0 157 161 151 16
2 81 1 146 6314 143 139 161 0 141 157 163 83 255 3 159 .250980392156863 .2509803
92156863 .250980392156863 81 1 161 6276 31 139 0 146 144 158 164 83 3 163 .25098
0392156863 .250980392156863 .250980392156863 80 1 31 165 166 9000 0 0 0 0 3 5 0
 0 0 FFTFTFTTFFFFFFFFF2 81 1 144 6275 31 140 0 141 167 161 168 83 1 164 6658 81
 1 167 6274 31 17 0 145 93 144 169 83 1 168 6657 81 1 145 6312 143 17 167 0 154
 141 170 81 1 93 6273 31 90 0 0 91 167 171 83 1 169 6656 83 1 171 6655 83 3 170
 .250980392156863 .250980392156863 .250980392156863 79 255 13 166 BTI/importTag8
1 1 151 6278 31 88 0 154 158 150 172 83 1 162 6659 83 1 172 6660 79 15 160 SDL/T
YSA_COLOUR83 3 156 .250980392156863 .250980392156863 .250980392156863 81 1 152 6
280 31 1 173 174 150 0 175 83 1 153 6661 81 1 173 6252 176 1 0 152 0 0 177 81 1
 174 6281 178 1 152 179 0 0 180 83 1 175 6662 80 1 178 31 181 9000 0 0 0 0 3 5 0
 0 0 FFTFTFTTFFFFFFFFF2 81 1 179 6310 182 1 174 14 0 0 183 83 1 180 6713 80 1 18
2 143 184 8040 0 0 0 0 3 5 0 0 0 TTTFFFFFFFFFFFFFF2 81 1 14 6316 185 1 179 2 0 0
 186 83 3 183 1 1 1 80 1 185 13 187 8038 0 0 0 0 0 0 0 0 0 TTTTTTTTTTTTTFTFT10 9
8 255 40 186 83 71 57 48 32 45 32 77 105 99 114 111 32 83 101 114 118 111 32 57
 103 32 45 32 84 111 119 101 114 32 80 114 111 46 49 95 80 101 8225 97 79 14 187
 SDL/TYSA_UNAME79 17 184 SDL/TYSA_COLOUR_279 18 181 BTI/importMaxCount80 1 176 1
88 189 9000 0 0 0 0 3 5 0 0 0 TTTFFFFFFFFFFFFFF1 82 255 1 177 16 79 23 189 ONSHA
PE_ORIGINALBODY_ID83 3 147 .250980392156863 .250980392156863 .250980392156863 81
 1 100 6268 31 75 0 0 77 134 190 81 1 105 6270 31 86 0 0 134 85 191 83 1 135 665
1 81 1 85 6271 31 81 0 0 105 91 192 83 1 191 6652 83 1 192 6653 81 1 77 6267 31
 67 0 0 131 100 193 83 1 190 6650 81 1 131 6266 31 78 0 0 110 77 194 83 1 193 66
49 81 1 110 6265 31 108 0 0 119 131 195 83 1 194 6648 81 1 119 6264 31 111 0 0 1
27 110 196 83 1 195 6647 81 1 127 6263 31 27 0 0 25 119 197 83 1 196 6646 81 1 2
5 6262 31 11 0 0 43 127 198 83 1 197 6645 81 1 43 6261 31 41 0 0 58 25 199 83 1
 198 6644 81 1 58 6260 31 45 0 0 60 43 200 83 1 199 6643 83 1 200 6642 83 1 94 6
654 81 1 48 6258 31 46 0 0 52 60 201 83 1 62 6641 81 1 52 6257 31 49 0 0 55 48 2
02 83 1 201 6640 81 1 55 6256 31 39 0 0 32 52 203 83 1 202 6639 81 1 32 6255 31
 22 0 0 29 55 204 83 1 203 6638 83 1 204 6637 83 1 33 6636 19 18 949 0 1 0 10 6
 0 S0 141 21 20 21 21 8 74 4 CI16 index_map_offset0 0 1 dCCZ20 16 7 0 0 173 152
 174 179 157 14 2 0 0 0 0 0 0 0 0 0 0 0 0 0 80 1 13 205 206 8017 0 0 0 0 0 0 0 0
 0 TTTTTTTTTTTTTFTFT3 84 255 40 15 SG90 - Micro Servo 9g - Tower Pro.1_Pe‡a79 13
 206 SDL/TYSA_NAME1 0 
