**ABCDEFGHIJKLMNOPQRSTUVWXYZabcdefghijklmnopqrstuvwxyz**************************
**PARASOLID !"#$%&'()*+,-./:;<=>?@[\]^_`{|}~0123456789**************************
**PART1;
MC=unknown;
MC_MODEL=unknown;
MC_ID=unknown;
OS=unknown;
OS_RELEASE=unknown;
FRU=Parasolid 37.0.209;
APPL=Onshape;
SITE=unknown;
USER=unknown;
FORMAT=text;
GUISE=transmit;
KEY=BTGapi::writeModels_.xmt;
FILE=BTGapi::writeModels_.xmt;
DATE=2025-03-16T16:43:44 (UTC);
**PART2;
SCH=SCH_3700209_36001;
USFLD_SIZE=0;
**PART3;
**END_OF_HEADER*****************************************************************
T51 : TRANSMIT FILE created by modeller version 370020923 SCH_3700209_36001_1300
6231 0 12 36 CCCI7 lattice222 0 CCCI4 mesh1006 0 I8 polyline1008 0 CCCCCCCDI5 ow
ner1040 0 CCCI16 boundary_lattice222 0 CCCI13 boundary_mesh1006 0 I17 boundary_p
olyline1008 0 CCCA16 index_map_offset0 0 1 dA9 index_map82 0 A17 node_id_index_m
ap82 0 A20 schema_embedding_map82 0 A5 child12 0 A14 lowest_node_id0 0 1 dA16 me
sh_offset_data206 0 Z1 717 2 3 0 0 0 0 0 0 0 1e3 1e-8 0 4 5 1 0 1 2 6 0 7 8 9 0
 0 10 11 12 0 0 0 0 0 0 0 81 255 1 2 717 13 1 14 0 0 0 15 70 11 CI9 list_type0 0
 1 uI10 notransmit0 0 1 lCCCDCCDI12 finger_index0 0 1 dI12 finger_block1012 0 CZ
3 0 4 T1 0 0 3 20 1 16 16 13 255 6 577 0 1 0 17 0 0 18 0 50 255 7 562 0 17 19 0
 0 +.007 .0555 .002 0 -1 0 0 0 -1 30 255 8 576 0 11 20 0 0 +-.009 .0555 .002 0 0
 -1 29 255 9 493 0 21 22 0 -.015 .0295 0 19 9 CCCCCCI5 frame230 0 CA5 owner12 0
 Z10 244 0 1 18 0 23 0 V0 16 255 11 520 0 ?24 0 25 8 0 0 1 18 255 12 238 0 26 0
 27 28 ?1 17 255 26 0 29 30 31 12 32 33 0 34 +18 27 233 0 31 12 35 36 ?1 29 28 2
40 0 12 36 37 -.015 .0295 .002 29 36 235 0 27 38 28 -.015 .0455 .002 29 37 506 0
 39 28 40 -.009 .0555 0 18 39 474 0 41 42 0 37 ?1 29 40 505 0 42 37 43 -.009 .04
55 0 18 42 470 0 44 45 39 40 ?1 29 43 504 0 45 40 46 .009 .0455 0 18 45 466 0 47
 48 42 43 ?1 29 46 503 0 48 43 49 .009 -.0555 0 18 48 462 0 50 51 45 46 ?1 29 49
 502 0 51 46 52 .009 .0205 0 18 51 458 0 53 54 48 49 ?1 29 52 501 0 54 49 55 .00
9 .0305 0 18 54 454 0 56 57 51 52 ?1 29 55 500 0 57 52 58 -.009 .0295 0 18 57 45
0 0 59 60 54 55 ?1 29 58 499 0 60 55 61 -.009 -.0555 0 18 60 446 0 62 63 57 58 ?
1 29 61 498 0 63 58 64 .021 .0455 0 18 63 442 0 65 66 60 61 ?1 29 64 497 0 66 61
 67 .021 .0555 0 18 66 438 0 68 69 63 64 ?1 29 67 496 0 69 64 70 .021 .0205 0 18
 69 434 0 71 72 66 67 ?1 29 70 495 0 72 67 22 .021 .0305 0 18 72 430 0 73 74 69
 70 ?1 29 22 494 0 74 70 9 -.015 .0455 0 18 74 426 0 75 21 72 22 ?1 17 75 0 76 7
7 78 74 79 80 0 81 +18 21 422 0 82 83 74 9 ?1 17 82 0 84 85 86 21 34 87 0 88 +18
 83 153 0 89 90 21 91 ?1 17 89 0 92 24 93 83 94 95 0 96 -18 90 158 0 94 97 83 98
 ?1 29 91 155 0 83 0 98 -.009 .0555 .002 29 98 160 0 90 91 99 -.009 .0455 .002 2
9 99 165 0 97 98 100 .009 .0455 .002 18 97 163 0 101 102 90 99 ?1 29 100 180 0 1
02 99 103 .009 -.0555 .002 18 102 178 0 104 105 97 100 ?1 29 103 190 0 105 100 1
06 .009 .0205 .002 18 105 188 0 107 108 102 103 ?1 29 106 195 0 108 103 109 .009
 .0305 .002 18 108 193 0 110 111 105 106 ?1 29 109 200 0 111 106 112 -.009 .0295
 .002 18 111 198 0 113 114 108 109 ?1 29 112 205 0 114 109 115 -.009 -.0555 .002
 18 114 203 0 116 117 111 112 ?1 29 115 215 0 117 112 118 .021 .0455 .002 18 117
 213 0 119 120 114 115 ?1 29 118 220 0 120 115 121 .021 .0555 .002 18 120 218 0
 122 123 117 118 ?1 29 121 225 0 123 118 38 .021 .0205 .002 18 123 223 0 124 35
 120 121 ?1 29 38 230 0 35 121 36 .021 .0305 .002 18 35 228 0 125 27 123 38 ?1 1
7 125 0 126 127 128 35 73 129 0 130 -15 255 126 527 0 128 131 0 17 127 0 126 71
 125 123 130 132 0 0 +17 128 0 126 125 71 72 133 134 0 135 -17 73 0 136 137 138
 72 125 129 0 128 +16 129 509 0 ?73 139 140 141 0 0 1 17 130 0 29 142 124 35 127
 132 0 138 -15 29 6 0 96 143 0 17 142 0 29 144 130 108 138 145 0 146 -17 124 0 2
9 130 147 123 148 149 0 150 +16 132 123 0 ?127 151 149 152 0 0 1 17 138 0 136 73
 110 35 142 145 0 0 +15 136 531 0 137 153 0 17 110 0 136 138 137 108 56 140 0 14
2 -16 145 113 0 ?138 149 154 155 0 0 1 16 149 118 0 ?124 132 145 156 0 0 1 16 15
4 108 0 ?122 145 157 158 0 0 1 30 155 115 0 145 158 156 0 +.015 .0305 .002 1 0 0
 30 158 110 0 154 159 155 0 +.021 .0505 .002 0 1 0 30 156 120 0 149 155 152 0 +.
015 .0205 .002 1 0 0 30 152 125 0 132 156 160 0 +.021 .0255 .002 0 -1 0 30 160 1
30 0 151 152 161 0 +-.012 .0455 .002 -1 0 0 16 151 128 0 ?31 33 132 160 0 0 1 30
 161 135 0 33 160 162 0 +-.015 .0375 .002 216840434497101e-30 -1 0 16 33 133 0 ?
26 163 151 161 0 0 1 30 162 140 0 163 161 164 0 +-.012 .0295 .002 -1 0 0 16 163
 138 0 ?86 165 33 162 0 0 1 30 164 492 0 166 162 167 0 +.007 .0555 0 -1 0 0 16 1
66 412 0 ?168 169 0 164 0 0 1 30 167 491 0 169 164 170 0 +-.009 .0505 0 34694469
5195361e-30 -1 0 16 169 408 0 ?44 171 166 167 0 0 1 30 170 490 0 171 167 172 0 +
-1734723475976805e-33 -.0555 0 -1 0 0 16 171 400 0 ?173 174 169 170 0 0 1 30 172
 489 0 174 170 175 0 +.009 -.02775 0 3125627884642895e-31 -1 0 16 174 394 0 ?176
 177 171 172 0 0 1 30 175 488 0 177 172 178 0 +.009 .038 0 3469446951953615e-31
 -1 0 16 177 390 0 ?179 180 174 175 0 0 1 30 178 487 0 180 175 181 0 +-.009 -.01
3 0 3061276722312015e-31 -1 0 16 180 386 0 ?182 183 177 178 0 0 1 30 181 486 0 1
83 178 184 0 +.015 .0455 0 1 578241158658933e-30 0 16 183 382 0 ?65 185 180 181
 0 0 1 30 184 485 0 185 181 186 0 +.021 .0505 0 0 1 0 16 185 378 0 ?68 187 183 1
84 0 0 1 30 186 484 0 187 184 188 0 +.015 .0305 0 1 0 0 16 187 374 0 ?135 189 18
5 186 0 0 1 30 188 483 0 189 186 190 0 +.015 .0205 0 1 0 0 16 189 370 0 ?191 134
 187 188 0 0 1 30 190 482 0 134 188 192 0 +.021 .0255 0 0 -1 0 16 134 366 0 ?133
 80 189 190 0 0 1 30 192 481 0 80 190 193 0 +-.012 .0455 0 -1 0 0 16 80 362 0 ?7
5 194 134 192 0 0 1 30 193 480 0 194 192 195 0 +-.015 .0375 0 216840434497101e-3
0 -1 0 16 194 358 0 ?88 196 80 193 0 0 1 30 195 479 0 196 193 197 0 +-.012 .0295
 0 -1 0 0 16 196 354 0 ?198 199 194 195 0 0 1 30 197 563 0 87 195 200 0 +-.015 .
0295 .002 0 0 -1 16 87 507 0 ?82 201 202 197 0 0 1 30 200 564 0 201 197 141 0 +-
.015 .0455 .002 0 0 -1 16 201 508 0 ?81 25 87 200 0 0 1 30 141 565 0 129 200 203
 0 +.021 .0305 .002 0 0 -1 30 203 566 0 139 141 204 0 +.021 .0205 .002 0 0 -1 16
 139 510 0 ?71 205 129 203 0 0 1 30 204 567 0 165 203 206 0 +.021 .0555 .002 0 0
 -1 16 165 511 0 ?207 208 163 204 0 0 1 30 206 568 0 208 204 209 0 +.021 .0455 .
002 0 0 -1 16 208 512 0 ?210 211 165 206 0 0 1 30 209 569 0 212 206 213 0 +-.009
 -.0555 .002 0 0 -1 16 212 513 0 ?62 202 214 209 0 0 1 30 213 570 0 202 209 215
 0 +-.009 .0295 .002 0 0 -1 16 202 514 0 ?59 87 212 213 0 0 1 30 215 571 0 140 2
13 216 0 +.009 .0305 .002 0 0 -1 16 140 515 0 ?56 129 211 215 0 0 1 30 216 572 0
 205 215 217 0 +.009 .0205 .002 0 0 -1 16 205 516 0 ?53 214 139 216 0 0 1 30 217
 573 0 214 216 218 0 +.009 -.0555 .002 0 0 -1 16 214 517 0 ?50 212 205 217 0 0 1
 30 218 574 0 211 217 20 0 +.009 .0455 .002 0 0 -1 16 211 518 0 ?47 140 208 218
 0 0 1 30 20 575 0 25 218 8 0 +-.009 .0455 .002 0 0 -1 16 25 519 0 ?78 11 201 20
 0 0 1 17 78 0 76 75 219 42 93 25 0 79 +15 76 525 0 75 220 0 17 219 0 76 78 77 9
0 31 151 0 0 -17 93 0 92 89 44 90 78 25 0 219 -17 79 0 221 41 222 42 75 80 0 0 -
15 221 353 0 223 224 0 17 41 0 221 223 79 39 44 169 0 24 -17 222 0 221 79 198 74
 88 194 0 0 -17 198 0 221 222 225 21 85 196 0 0 +17 88 0 226 34 81 21 222 194 0
 198 +15 226 523 0 88 227 0 17 34 0 226 32 88 12 82 87 0 86 -17 81 0 226 88 32 7
4 77 201 0 222 +17 32 0 226 81 34 27 26 33 0 0 -17 77 0 76 219 75 27 81 201 0 32
 -17 86 0 84 82 113 12 30 163 0 0 +15 84 521 0 85 228 0 17 113 0 84 86 85 111 59
 202 0 229 -17 30 0 29 116 26 111 86 163 0 0 -17 116 0 29 230 30 114 229 231 0 2
32 +17 230 0 29 147 116 102 233 234 0 235 -17 229 0 236 59 232 111 116 231 0 30
 -16 231 88 0 ?116 157 237 238 0 0 1 17 232 0 236 229 182 114 62 212 0 233 -15 2
36 537 0 182 239 0 17 182 0 236 232 59 60 225 180 0 173 +17 62 0 240 241 233 60
 232 212 0 182 +17 233 0 240 62 104 114 230 234 0 0 +15 240 543 0 241 242 0 17 1
04 0 240 233 241 102 50 214 0 230 -16 234 53 0 ?233 243 95 244 0 0 1 16 243 63 0
 ?235 237 234 245 0 0 1 16 95 38 0 ?94 234 199 246 0 0 1 30 244 55 0 234 246 245
 0 +-1734723475976805e-33 -.0555 .002 -1 0 0 30 246 40 0 95 247 244 0 +-.009 .05
05 .002 346944695195361e-30 -1 0 30 245 65 0 243 244 248 0 +.009 -.02775 .002 31
25627884642895e-31 -1 0 30 248 80 0 237 245 238 0 +.009 .038 .002 34694469519536
15e-31 -1 0 16 237 78 0 ?146 231 243 248 0 0 1 30 238 90 0 231 248 159 0 +-.009
 -.013 .002 3061276722312015e-31 -1 0 30 159 105 0 157 238 158 0 +.015 .0455 .00
2 1 578241158658933e-30 0 16 157 103 0 ?119 154 231 159 0 0 1 17 119 0 29 122 14
4 117 249 157 0 250 +17 122 0 29 96 119 120 251 154 0 252 +17 144 0 29 119 142 9
7 146 237 0 0 -17 249 0 253 47 250 97 119 157 0 144 -17 250 0 253 249 65 117 210
 208 0 251 -15 253 535 0 65 254 0 17 65 0 253 250 47 63 255 183 0 210 +17 210 0
 256 68 251 63 250 208 0 257 +17 251 0 256 210 252 117 122 154 0 0 -15 256 533 0
 68 258 0 17 252 0 256 251 68 120 207 165 0 259 -17 68 0 256 252 210 66 257 185
 0 207 +17 207 0 260 168 259 66 252 165 0 223 +17 259 0 260 207 261 120 96 199 0
 0 -15 260 547 0 168 17 0 17 261 0 260 259 168 83 24 11 0 0 -17 96 0 29 94 122 8
3 259 199 0 261 +16 199 23 0 ?96 95 196 247 0 0 1 30 247 25 0 199 0 246 0 +.007
 .0555 .002 -1 0 0 17 94 0 29 31 96 90 89 95 0 93 +17 31 0 29 26 94 27 219 151 0
 77 +17 168 0 260 261 207 39 223 166 0 0 +17 24 0 92 44 89 39 261 11 0 168 +15 9
2 545 0 44 262 0 17 44 0 92 93 24 42 41 169 0 78 +14 255 262 546 0 ?220 17 92 6
 19 -0 0 220 17 23 14 220 526 0 ?227 262 76 6 263 -0 0 227 262 23 14 17 548 0 ?2
62 0 260 6 7 -0 0 262 0 23 50 19 561 0 262 264 7 0 +-.009 .0505 .002 1 346944695
195361e-30 0 -346944695195361e-30 1 0 13 23 245 0 0 0 0 0 0 10 17 50 264 560 0 2
42 265 19 0 +-1734723475976805e-33 -.0555 .002 0 -1 0 0 0 -1 14 242 544 0 ?266 2
39 240 6 264 +0 0 266 239 23 50 265 559 0 266 267 264 0 +.009 -.02775 .002 1 312
5627884642895e-31 0 -3125627884642895e-31 1 0 14 266 542 0 ?268 242 269 6 265 +0
 0 268 242 23 50 267 558 0 270 271 265 0 +.009 .038 .002 1 3469446951953615e-31
 0 -3469446951953615e-31 1 0 14 270 540 0 ?254 153 272 6 267 +0 0 254 153 23 50
 271 557 0 239 273 267 0 +-.009 -.013 .002 1 3061276722312015e-31 0 -30612767223
12015e-31 1 0 14 239 538 0 ?242 228 236 6 271 -0 0 242 228 23 50 273 556 0 254 2
74 271 0 +.015 .0455 .002 -578241158658933e-30 1 0 -1 -578241158658933e-30 0 14
 254 536 0 ?258 270 253 6 273 -0 0 258 270 23 50 274 555 0 258 275 273 0 +.021 .
0505 .002 -1 0 0 0 0 1 14 258 534 0 ?143 254 256 6 274 -0 0 143 254 23 50 275 55
4 0 153 276 274 0 +.015 .0305 .002 0 1 0 0 0 1 14 153 532 0 ?270 131 136 6 275 +
0 0 270 131 23 50 276 553 0 268 277 275 0 +.015 .0205 .002 0 1 0 0 0 1 14 268 53
0 0 ?131 266 278 6 276 -0 0 131 266 23 50 277 552 0 131 263 276 0 +.021 .0255 .0
02 1 0 0 0 0 -1 14 131 528 0 ?153 268 126 6 277 +0 0 153 268 23 50 263 551 0 220
 279 277 0 +-.012 .0455 .002 0 -1 0 0 0 -1 50 279 550 0 227 280 263 0 +-.015 .03
75 .002 1 216840434497101e-30 0 -216840434497101e-30 1 0 14 227 524 0 ?228 220 2
26 6 279 -0 0 228 220 23 50 280 549 0 228 281 279 0 +-.012 .0295 .002 0 -1 0 0 0
 -1 14 228 522 0 ?239 227 84 6 280 +0 0 239 227 23 50 281 478 0 224 282 280 0 +.
0085 0 0 0 0 1 1 0 0 14 224 326 0 ?0 143 221 6 281 -0 0 0 143 23 50 282 3 0 143
 0 281 0 +.0085 0 .002 0 0 1 1 0 0 14 143 1 0 ?224 258 29 6 282 +0 0 224 258 23
 15 278 529 0 191 268 0 17 191 0 278 150 53 69 283 189 0 133 +17 150 0 278 148 1
91 123 71 139 0 127 -17 53 0 278 191 148 51 107 205 0 283 +17 283 0 221 176 133
 51 191 189 0 284 -17 133 0 221 283 135 69 128 134 0 0 +17 135 0 221 133 179 72
 137 187 0 0 +17 179 0 221 135 255 54 285 177 0 0 +17 137 0 136 110 73 54 135 18
7 0 179 -17 255 0 221 179 257 45 65 183 0 285 -17 285 0 272 101 56 45 179 177 0
 0 -15 272 539 0 285 270 0 17 101 0 272 146 285 97 47 211 0 249 -17 56 0 272 285
 146 54 110 140 0 137 +17 146 0 272 56 101 108 144 237 0 0 +17 47 0 253 65 249 4
5 101 211 0 255 +17 257 0 221 255 223 63 68 185 0 0 -17 223 0 221 257 41 66 168
 166 0 0 -17 176 0 221 173 283 48 284 174 0 0 +17 284 0 269 107 50 51 176 174 0
 0 -15 269 541 0 284 266 0 17 107 0 269 235 284 105 53 205 0 148 -17 50 0 269 28
4 235 48 104 214 0 241 +17 235 0 269 50 107 102 147 243 0 0 +17 241 0 240 104 62
 48 173 171 0 176 -17 173 0 221 225 176 60 241 171 0 0 +17 225 0 221 198 173 57
 182 180 0 85 -17 85 0 84 113 82 57 198 196 0 0 -17 147 0 29 124 230 105 235 243
 0 0 -17 148 0 278 53 150 105 124 149 0 147 -17 71 0 126 128 127 69 150 139 0 19
1 +17 59 0 236 182 229 57 113 202 0 225 +19 18 578 0 1 0 10 6 0 S0 74 4 CI16 ind
ex_map_offset0 0 1 dCCZ20 16 3 0 0 286 14 2 0 0 0 0 0 0 0 0 0 0 0 0 0 0 0 0 0 81
 1 286 715 287 1 0 14 0 0 288 81 1 14 716 289 1 286 2 0 0 290 80 7 CCCCCDI12 leg
al_owners0 17 1 lCZ1 289 13 291 8038 0 0 0 0 0 0 0 0 0 TTTTTTTTTTTTTFTFT10 98 25
5 6 290 80 97 114 116 32 49 79 255 14 291 SDL/TYSA_UNAME80 1 287 292 293 8040 0
 0 0 0 3 5 0 0 0 TTTFFFFFFFFFFFFFF2 83 255 3 288 .615686274509804 .8117647058823
53 .929411764705882 79 17 293 SDL/TYSA_COLOUR_280 1 13 294 295 8017 0 0 0 0 0 0
 0 0 0 TTTTTTTTTTTTTFTFT3 84 255 6 15 Part 179 13 295 SDL/TYSA_NAME1 0 
