**ABCDEFGHIJKLMNOPQRSTUVWXYZabcdefghijklmnopqrstuvwxyz**************************
**PARASOLID !"#$%&'()*+,-./:;<=>?@[\]^_`{|}~0123456789**************************
**PART1;
MC=unknown;
MC_MODEL=unknown;
MC_ID=unknown;
OS=unknown;
OS_RELEASE=unknown;
FRU=Parasolid 37.0.209;
APPL=Onshape;
SITE=unknown;
USER=unknown;
FORMAT=text;
GUISE=transmit;
KEY=BTGapi::writeModels_.xmt;
FILE=BTGapi::writeModels_.xmt;
DATE=2025-03-16T16:43:44 (UTC);
**PART2;
SCH=SCH_3700209_36001;
USFLD_SIZE=0;
**PART3;
**END_OF_HEADER*****************************************************************
T51 : TRANSMIT FILE created by modeller version 370020923 SCH_3700209_36001_1300
6231 0 12 36 CCCI7 lattice222 0 CCCI4 mesh1006 0 I8 polyline1008 0 CCCCCCCDI5 ow
ner1040 0 CCCI16 boundary_lattice222 0 CCCI13 boundary_mesh1006 0 I17 boundary_p
olyline1008 0 CCCA16 index_map_offset0 0 1 dA9 index_map82 0 A17 node_id_index_m
ap82 0 A20 schema_embedding_map82 0 A5 child12 0 A14 lowest_node_id0 0 1 dA16 me
sh_offset_data206 0 Z1 158 2 3 0 0 0 0 0 0 0 1e3 1e-8 0 4 5 1 0 1 2 6 0 7 8 0 0
 0 9 10 0 0 0 0 0 0 0 0 81 255 1 2 158 11 1 12 0 0 0 13 70 11 CI9 list_type0 0 1
 uI10 notransmit0 0 1 lCCCDCCDI12 finger_index0 0 1 dI12 finger_block1012 0 CZ3
 0 4 T1 0 0 3 20 1 14 14 13 255 6 39 0 1 0 15 0 0 16 0 51 255 7 38 0 15 17 0 0 -
0 459242549680257e-33 .105 0 0 -1 .0075 -1 0 0 31 255 8 33 0 18 19 0 0 +0 459242
549680257e-33 0 0 0 1 1 0 0 .0075 19 9 CCCCCCI5 frame230 0 CA5 owner12 0 Z9 13 0
 1 16 0 20 0 V0 16 255 10 113 0 ?21 0 22 23 0 0 1 17 255 21 0 24 21 21 0 25 10 0
 0 +16 22 58 0 ?26 10 27 28 0 0 1 31 23 149 0 10 29 30 0 +0 -382702124733548e-33
 0 0 0 -1 -1 0 0 .00625 31 29 150 0 31 0 23 0 +0 -382702124733548e-33 -.003 0 0
 -1 -1 0 0 .00625 31 30 95 0 32 23 28 0 +0 850517202007837e-33 .108 0 0 1 1 0 0
 .00639 16 32 73 0 ?33 18 31 30 0 0 1 31 28 94 0 22 30 19 0 +0 850517202007837e-
33 .105 0 0 1 1 0 0 .00639 31 19 9 0 27 28 8 0 +0 459242549680257e-33 .105 0 0 1
 1 0 0 .0075 16 27 7 0 ?34 22 18 19 0 0 1 17 34 0 35 34 34 0 36 27 0 0 +16 18 28
 0 ?37 27 32 8 0 0 1 17 37 0 38 37 37 0 39 18 0 0 +15 255 38 36 0 37 15 0 17 39
 0 40 39 39 0 37 18 0 0 -15 40 27 0 39 41 0 14 255 41 23 0 ?42 43 44 6 17 -0 0 4
2 43 20 14 42 76 0 ?45 41 46 6 47 -0 0 45 41 20 14 43 1 0 ?41 15 48 6 49 +0 0 41
 15 20 15 44 115 0 25 41 40 50 255 17 32 0 41 49 7 0 +0 0 0 0 0 1 1 0 0 13 20 14
 0 0 0 0 0 0 9 15 14 15 35 0 ?43 0 50 6 7 -0 0 43 0 20 15 50 34 0 36 15 38 17 36
 0 50 36 36 0 34 27 0 0 -50 49 3 0 43 47 17 0 +0 0 .105 0 0 1 1 0 0 51 47 91 0 4
2 51 49 0 -0 850517202007837e-33 .108 0 0 -1 .00639 -1 0 0 50 51 93 0 45 52 47 0
 +0 3469446951953615e-33 .108 0 0 1 1 0 0 14 45 81 0 ?53 42 54 6 51 +0 0 53 42 2
0 51 52 146 0 53 55 51 0 -0 -382702124733548e-33 -.003 0 0 1 .00625 1 0 0 14 53
 131 0 ?56 45 57 6 52 -0 0 56 45 20 50 55 148 0 56 0 52 0 +0 3469446951953615e-3
3 -.003 0 0 -1 1 0 0 14 56 136 0 ?0 53 58 6 55 +0 0 0 53 20 15 58 139 0 59 56 0
 17 59 0 58 59 59 0 60 31 0 0 +17 60 0 57 60 60 0 59 31 0 0 -16 31 128 0 ?59 32
 0 29 0 0 1 15 57 134 0 60 53 24 15 24 135 0 21 53 0 15 54 84 0 33 45 0 17 33 0
 54 33 33 0 61 32 0 0 +17 61 0 46 61 61 0 33 32 0 0 -15 46 79 0 61 42 62 15 62 8
0 0 26 42 0 17 26 0 62 26 26 0 63 22 0 0 +17 63 0 48 63 63 0 26 22 0 0 -15 48 60
 0 63 43 35 15 35 6 0 34 43 0 17 25 0 44 25 25 0 21 10 0 0 -19 16 40 0 1 0 9 6 0
 S0 74 4 CI16 index_map_offset0 0 1 dCCZ20 14 3 0 0 64 12 2 0 0 0 0 0 0 0 0 0 0
 0 0 0 0 0 0 0 81 1 64 156 65 1 0 12 0 0 66 81 1 12 157 67 1 64 2 0 0 68 80 7 CC
CCCDI12 legal_owners0 17 1 lCZ1 67 11 69 8038 0 0 0 0 0 0 0 0 0 TTTTTTTTTTTTTFTF
T10 98 255 6 68 80 97 114 116 32 49 79 255 14 69 SDL/TYSA_UNAME80 1 65 70 71 804
0 0 0 0 0 3 5 0 0 0 TTTFFFFFFFFFFFFFF2 83 255 3 66 .615686274509804 .81176470588
2353 .929411764705882 79 17 71 SDL/TYSA_COLOUR_280 1 11 72 73 8017 0 0 0 0 0 0 0
 0 0 TTTTTTTTTTTTTFTFT3 84 255 6 13 Part 179 13 73 SDL/TYSA_NAME1 0 
