**ABCDEFGHIJKLMNOPQRSTUVWXYZabcdefghijklmnopqrstuvwxyz**************************
**PARASOLID !"#$%&'()*+,-./:;<=>?@[\]^_`{|}~0123456789**************************
**PART1;
MC=unknown;
MC_MODEL=unknown;
MC_ID=unknown;
OS=unknown;
OS_RELEASE=unknown;
FRU=Parasolid 37.0.209;
APPL=Onshape;
SITE=unknown;
USER=unknown;
FORMAT=text;
GUISE=transmit;
KEY=BTGapi::writeModels_.xmt;
FILE=BTGapi::writeModels_.xmt;
DATE=2025-03-16T16:43:44 (UTC);
**PART2;
SCH=SCH_3700209_36001;
USFLD_SIZE=0;
**PART3;
**END_OF_HEADER*****************************************************************
T51 : TRANSMIT FILE created by modeller version 370020923 SCH_3700209_36001_1300
6231 0 12 36 CCCI7 lattice222 0 CCCI4 mesh1006 0 I8 polyline1008 0 CCCCCCCDI5 ow
ner1040 0 CCCI16 boundary_lattice222 0 CCCI13 boundary_mesh1006 0 I17 boundary_p
olyline1008 0 CCCA16 index_map_offset0 0 1 dA9 index_map82 0 A17 node_id_index_m
ap82 0 A20 schema_embedding_map82 0 A5 child12 0 A14 lowest_node_id0 0 1 dA16 me
sh_offset_data206 0 Z1 316 2 3 0 0 0 0 0 0 0 1e3 1e-8 0 4 5 1 0 1 2 6 0 7 8 9 0
 0 10 11 12 0 0 0 0 0 0 0 81 255 1 2 316 13 1 14 0 0 0 15 70 11 CI9 list_type0 0
 1 uI10 notransmit0 0 1 lCCCDCCDI12 finger_index0 0 1 dI12 finger_block1012 0 CZ
3 0 4 T1 0 0 3 20 1 16 16 13 255 6 272 0 1 0 17 0 0 18 0 50 255 7 267 0 17 19 0
 0 +.029 .02 .002 0 1 0 0 0 1 30 255 8 271 0 11 20 0 0 +.021 .02 .002 0 0 -1 29
 255 9 248 0 21 22 0 .037 .02 0 19 9 CCCCCCI5 frame230 0 CA5 owner12 0 Z10 180 0
 1 18 0 23 0 V0 16 255 11 255 0 ?24 0 25 8 0 0 1 18 255 12 134 0 26 0 27 28 ?1 1
7 255 26 0 29 30 31 12 32 33 0 34 +18 27 129 0 31 12 35 36 ?1 29 28 136 0 12 36
 37 .037 .02 .002 29 36 131 0 27 38 28 .037 0 .002 29 37 251 0 39 28 40 .021 .02
 0 18 39 239 0 24 41 0 37 ?1 29 40 250 0 41 37 22 .021 0 0 18 41 235 0 42 43 39
 40 ?1 29 22 249 0 43 40 9 .037 0 0 18 43 231 0 44 21 41 22 ?1 17 44 0 45 46 42
 43 47 48 0 49 +18 21 227 0 50 51 43 9 ?1 17 50 0 52 53 54 21 34 55 0 56 +18 51
 119 0 57 35 21 58 ?1 17 57 0 52 54 53 51 24 11 0 30 -18 35 124 0 59 27 51 38 ?1
 29 58 121 0 51 0 38 .021 .02 .002 29 38 126 0 35 58 36 .021 0 .002 17 59 0 60 6
1 62 35 42 25 0 63 -15 255 60 260 0 62 64 0 17 61 0 60 24 59 51 65 66 0 0 +17 62
 0 60 59 24 41 67 68 0 0 -17 42 0 45 44 63 41 59 25 0 47 +16 25 254 0 ?42 11 69
 20 0 0 1 17 63 0 45 42 46 35 31 70 0 65 -15 45 258 0 44 71 0 17 46 0 45 63 44 2
7 49 69 0 32 -17 31 0 29 26 65 27 63 70 0 46 +16 70 49 0 ?31 33 66 72 0 0 1 17 6
5 0 29 31 30 35 61 66 0 0 -15 29 10 0 30 73 0 17 30 0 29 65 26 51 54 74 0 61 -16
 66 44 0 ?61 70 74 75 0 0 1 16 74 39 0 ?54 66 76 77 0 0 1 30 75 46 0 66 77 72 0
 +.021 .01 .002 -3469446951953615e-31 1 0 30 77 41 0 74 0 75 0 +.029 .02 .002 1
 0 0 30 72 51 0 70 75 78 0 +.029 0 .002 1 0 0 30 78 56 0 33 72 79 0 +.037 .01 .0
02 0 1 0 16 33 54 0 ?26 55 70 78 0 0 1 30 79 247 0 80 78 81 0 +.029 .02 0 1 0 0
 16 80 223 0 ?82 68 0 79 0 0 1 30 81 246 0 68 79 83 0 +.021 .01 0 -3469446951953
615e-31 1 0 16 68 219 0 ?67 48 80 81 0 0 1 30 83 245 0 48 81 84 0 +.029 0 0 1 0
 0 16 48 215 0 ?44 76 68 83 0 0 1 30 84 244 0 76 83 85 0 +.037 .01 0 0 1 0 16 76
 211 0 ?56 74 48 84 0 0 1 30 85 268 0 55 84 86 0 +.037 .02 .002 0 0 -1 16 55 252
 0 ?50 69 33 85 0 0 1 30 86 269 0 69 85 20 0 +.037 0 .002 0 0 -1 16 69 253 0 ?49
 25 55 86 0 0 1 30 20 270 0 25 86 8 0 +.021 0 .002 0 0 -1 17 49 0 87 56 32 43 46
 69 0 88 +15 87 256 0 56 89 0 17 56 0 87 34 49 21 88 76 0 82 +17 32 0 87 49 34 2
7 26 33 0 0 -17 88 0 90 47 82 43 56 76 0 0 -15 90 210 0 82 91 0 17 47 0 90 67 88
 41 44 48 0 62 -17 82 0 90 88 67 21 53 80 0 0 +17 67 0 90 82 47 39 62 68 0 0 +17
 53 0 52 57 50 39 82 80 0 67 -15 52 262 0 53 17 0 14 255 17 263 0 ?64 0 52 6 7 +
0 0 64 0 23 14 64 261 0 ?71 17 60 6 19 +0 0 71 17 23 13 23 184 0 0 0 0 0 0 10 17
 14 71 259 0 ?89 64 45 6 92 -0 0 89 64 23 50 19 266 0 64 92 7 0 +.021 .01 .002 -
1 -3469446951953615e-31 0 3469446951953615e-31 -1 0 50 92 265 0 71 93 19 0 +.029
 0 .002 0 1 0 0 0 1 50 93 264 0 89 94 92 0 +.037 .01 .002 -1 0 0 0 0 1 14 89 257
 0 ?73 71 87 6 93 -0 0 73 71 23 50 94 243 0 91 95 93 0 +.0185 .0175 0 0 0 1 1 0
 0 14 91 203 0 ?0 73 90 6 94 -0 0 0 73 23 50 95 3 0 73 0 94 0 +.0185 .0175 .002
 0 0 1 1 0 0 14 73 7 0 ?91 89 29 6 95 +0 0 91 89 23 17 34 0 87 32 56 12 50 55 0
 54 -17 54 0 52 50 57 12 30 74 0 0 +17 24 0 60 62 61 39 57 11 0 53 +19 18 273 0
 1 0 10 6 0 S0 74 4 CI16 index_map_offset0 0 1 dCCZ20 16 3 0 0 96 14 2 0 0 0 0 0
 0 0 0 0 0 0 0 0 0 0 0 0 81 1 96 314 97 1 0 14 0 0 98 81 1 14 315 99 1 96 2 0 0
 100 80 7 CCCCCDI12 legal_owners0 17 1 lCZ1 99 13 101 8038 0 0 0 0 0 0 0 0 0 TTT
TTTTTTTTTTFTFT10 98 255 6 100 80 97 114 116 32 50 79 255 14 101 SDL/TYSA_UNAME80
 1 97 102 103 8040 0 0 0 0 3 5 0 0 0 TTTFFFFFFFFFFFFFF2 83 255 3 98 .99215686274
5098 .992156862745098 .992156862745098 79 17 103 SDL/TYSA_COLOUR_280 1 13 104 10
5 8017 0 0 0 0 0 0 0 0 0 TTTTTTTTTTTTTFTFT3 84 255 6 15 Part 279 13 105 SDL/TYSA
_NAME1 0 
