**ABCDEFGHIJKLMNOPQRSTUVWXYZabcdefghijklmnopqrstuvwxyz**************************
**PARASOLID !"#$%&'()*+,-./:;<=>?@[\]^_`{|}~0123456789**************************
**PART1;
MC=unknown;
MC_MODEL=unknown;
MC_ID=unknown;
OS=unknown;
OS_RELEASE=unknown;
FRU=Parasolid 37.0.209;
APPL=Onshape;
SITE=unknown;
USER=unknown;
FORMAT=text;
GUISE=transmit;
KEY=BTGapi::writeModels_.xmt;
FILE=BTGapi::writeModels_.xmt;
DATE=2025-03-16T16:43:44 (UTC);
**PART2;
SCH=SCH_3700209_36001;
USFLD_SIZE=0;
**PART3;
**END_OF_HEADER*****************************************************************
T51 : TRANSMIT FILE created by modeller version 370020923 SCH_3700209_36001_1300
6231 0 12 36 CCCI7 lattice222 0 CCCI4 mesh1006 0 I8 polyline1008 0 CCCCCCCDI5 ow
ner1040 0 CCCI16 boundary_lattice222 0 CCCI13 boundary_mesh1006 0 I17 boundary_p
olyline1008 0 CCCA16 index_map_offset0 0 1 dA9 index_map82 0 A17 node_id_index_m
ap82 0 A20 schema_embedding_map82 0 A5 child12 0 A14 lowest_node_id0 0 1 dA16 me
sh_offset_data206 0 Z1 1041 2 3 0 0 0 0 0 0 0 1e3 1e-8 0 4 5 1 0 1 2 6 0 7 8 9 0
 0 10 11 12 0 0 0 0 0 0 0 81 255 1 2 1041 13 1 14 0 0 0 15 70 11 CI9 list_type0
 0 1 uI10 notransmit0 0 1 lCCCDCCDI12 finger_index0 0 1 dI12 finger_block1012 0
 CZ3 0 4 T1 0 0 7 20 1 16 16 13 255 6 125 0 1 0 17 0 0 18 0 54 255 7 453 0 17 19
 0 20 +-.0099 -.01035 -.00435 0 -1 0 7e-4 2e-4 0 0 1 38 12 CCCCCCCCCCCA17 inters
ection_data204 0 Z8 832 0 21 22 0 0 +7 23 24 25 26 27 29 255 9 834 0 28 29 0 -.0
0900734330749303 -.01035 -.004235265396141695 19 9 CCCCCCI5 frame230 0 CA5 owner
12 0 Z10 1 0 1 18 0 30 0 V0 16 255 11 117 31 ?32 0 33 34 0 0 1 18 255 12 94 35 3
6 0 37 38 5e-7 1 81 1 35 842 39 12 0 0 0 40 41 17 255 36 0 42 43 44 12 32 11 0 4
5 -18 37 92 40 46 12 47 48 5e-7 1 29 38 433 0 12 49 50 -.00997946920771662 -.010
15 -.003820530792283385 29 49 400 0 51 52 38 -.01005 -.01055 -.00375 29 50 746 0
 53 38 54 -.00900734330749303 -.01035 -.004464734603858305 18 53 42 55 56 57 58
 50 ?1 29 54 747 0 59 50 60 -.00921626028344104 -.01055000000000046 -.0045000000
0000008 18 59 49 61 62 63 64 54 ?1 29 60 754 0 65 54 66 -.01058373971655886 -.01
055 -.0045 18 65 78 67 68 69 70 60 ?1 29 66 755 0 71 60 72 -.01079265669250696 -
.01035 -.004464734603858305 18 71 24 73 74 75 76 66 ?1 29 72 765 0 76 66 77 -.01
079265669250696 -.01035 -.004235265396141695 18 76 16 78 79 71 80 72 ?1 29 77 76
6 0 63 72 29 -.01058373971655896 -.01055000000000046 -.00419999999999992 18 63 5
4 81 82 83 59 77 ?1 29 29 833 0 80 77 9 -.00921626028344113 -.01055 -.0042 18 80
 11 84 85 76 28 29 ?1 81 1 84 868 39 80 0 0 78 86 87 17 85 0 88 82 89 80 90 91 0
 92 +18 28 6 86 93 80 0 9 ?1 81 1 86 869 39 28 0 0 84 31 94 17 93 0 95 92 96 28
 97 98 0 99 +15 255 95 31 0 90 100 0 17 92 0 95 90 93 80 99 21 0 101 -17 96 0 95
 93 102 58 103 104 0 0 +17 97 0 105 106 107 58 93 98 0 96 -16 98 38 108 ?93 109
 104 110 0 0 1 17 99 0 111 79 101 28 92 21 0 107 +15 111 4 0 79 112 0 17 79 0 11
1 113 99 76 107 114 0 115 +17 101 0 111 99 113 80 82 116 0 0 +16 21 12 117 ?99 1
18 116 8 0 0 1 17 107 0 105 97 119 28 79 114 0 0 -15 105 14 0 119 120 0 17 119 0
 105 107 121 76 122 123 0 0 -16 114 5 124 ?79 116 0 125 0 0 1 81 1 124 912 39 11
4 0 0 126 127 128 16 116 10 126 ?101 21 114 129 0 0 1 133 255 125 586 0 114 130
 131 0 +132 -.00900734330749303 -.01035 -.004235265396141695 -.01079265669250696
 -.01035 -.004235265396141695 4.84021972989394 7.72615088446523 31 255 130 359 0
 133 129 125 134 +-.0099 -.01055 -.00435 0 1 0 0 0 1 7e-4 31 131 367 0 118 125 1
35 0 +-.0099 -.00955 -.00435 0 1 0 0 0 1 9e-4 31 132 371 0 1 136 137 138 +-.0099
 -.01035 -.00435 0 -1 0 0 0 1 9e-4 133 136 713 0 139 140 132 0 +132 -.0107926566
9250696 -.01035 -.004464734603858305 -.00900734330749303 -.01035 -.0044647346038
58305 1.69862707630415 4.58455823087544 38 137 745 0 141 132 142 0 +7 143 144 14
5 146 147 141 255 138 136 148 148 132 141 148 125 138 138 132 16 141 50 149 ?150
 151 152 137 0 0 1 38 142 753 0 153 137 154 0 +7 143 155 156 157 158 50 255 143
 439 0 159 23 160 161 +-.0104 -.01055 -.0045 0 -.1736481776669305 .9848077530122
08 0 .984807753012208 .1736481776669305 40 255 6 144 0 1 6 1186322729547156e-20
 .338702804088894 ??-.00900734330749303 -.01035 -.004464734603858305 -.009020540
24508809 -.01041680468433176 -.00447651407214371 -.00905534574406052 -.010475562
9650949 -.00448687474238229 -.00910836525718664 -.0105203657276546 -.00449477467
8231845 -.00917403285358734 -.01054572103153696 -.004499245502410365 -.009216260
28344094 -.0105500000000009 -.00450000000000016 41 3 CI8 term_use0 0 1 cCZ1 145
 L?-.00900734330749303 -.01035 -.004464734603858305 41 1 146 L?-.009216260283440
94 -.0105500000000009 -.00450000000000016 204 2 17 INTERSECTION_DATA17 Intersect
ion data7 uv_type0 0 1 u6 values0 1 1 fT24 147 4 4.58455823087544 0 .00020308532
23771495 -.00139265669250697 4.56951484323233 .340568953453961 .0001352500681080
45 -.001379459754911914 4.55173723707345 .678742623399082 755853461525099e-19 -.
00134465425593948 4.53150720170989 1.0194664108662 300914287633787e-19 -.0012916
34742813368 4.50963228371997 1.363569057995786 434497844878957e-20 -.00122596714
641266 4.49642848169957 1.570796326793795 -9264660818357e-28 -.00118373971655906
 14 255 159 100 162 ?163 164 165 6 143 +166 166 163 164 30 50 23 436 0 163 167 1
43 168 +-.0104 -.01055 -.0042 0 -.1736481776669305 -.984807753012208 0 -.9848077
53012208 .1736481776669305 50 160 442 0 164 143 169 0 +-.01005 -.01055 -.00495 .
984807753012208 -.1736481776669305 0 .1736481776669305 .984807753012208 0 141 16
1 137 170 170 143 141 170 142 161 161 143 14 164 104 171 ?159 172 173 6 160 +174
 174 159 172 30 50 169 446 0 175 160 176 0 +-.01005 -.01055 -.00495 0 -.17364817
76669305 .984807753012208 0 .984807753012208 .1736481776669305 14 175 110 177 ?1
72 178 179 6 169 +0 0 172 178 30 50 176 447 0 178 169 19 0 +-.00975 -.01055 -.00
495 -.984807753012208 -.1736481776669305 0 .1736481776669305 -.984807753012208 0
 14 178 112 180 ?175 174 181 6 176 +172 172 175 174 30 50 19 451 0 182 176 7 0 +
-.01005 -.01055 -.00375 0 -.1736481776669305 -.984807753012208 0 -.9848077530122
08 .1736481776669305 14 182 118 183 ?174 17 42 6 19 +0 0 174 17 30 81 1 183 1036
 184 182 185 0 186 187 188 14 174 115 189 ?178 182 190 6 160 +164 164 178 182 30
 14 17 122 191 ?182 0 192 6 7 +112 112 182 0 30 15 42 119 0 43 182 0 13 30 2 0 0
 0 0 0 0 10 17 17 43 0 42 193 36 37 194 195 0 196 -17 193 0 42 44 43 197 46 33 0
 198 +17 194 0 199 200 196 12 43 195 0 0 +16 195 93 201 ?194 202 203 204 0 0 1 1
7 196 0 199 194 103 37 205 203 0 0 +15 199 81 0 206 207 0 17 103 0 199 196 208 2
09 96 104 0 102 -17 205 0 181 210 46 209 196 203 0 103 -16 203 91 211 ?196 195 2
12 213 0 0 1 81 1 211 880 39 203 0 0 201 214 215 16 212 90 214 ?216 203 217 218
 0 0 1 133 213 667 0 203 219 220 0 +220 -.00982053079228339 -.01015 -.0042705307
92283385 -.00982053079228339 -.01015 -.003820530792283385 .000679469207716617 .0
0112946920771662 30 255 219 445 0 1 221 213 222 +-.00975 -.01055 -.00495 .171087
869746036 -.970287525247814 -.171087869746036 30 220 432 0 1 213 223 224 +-.0098
2053079228339 -.01015 -.00495 0 0 1 133 223 669 0 225 220 226 0 +226 -.009820530
79228339 -.01015 -.004270530792283385 -.00975 -.01055 -.0042 -.00030104182077073
2 .0001112071153349222 141 224 213 227 227 220 141 227 218 224 224 220 133 218 6
51 0 212 228 229 0 +220 -.00982053079228339 -.01015 -.00487946920771662 -.009820
53079228339 -.01015 -.004429469207716615 705307922833857e-19 .000520530792283388
 30 228 392 0 1 230 218 231 +-.00976902618846326 -.01044209712327172 -.004480973
811536745 -.171087869746036 .970287525247814 .171087869746036 133 229 656 0 217
 218 232 0 +232 -.00997946920771662 -.01015 -.00487946920771662 -.00982053079228
339 -.01015 -.00487946920771662 705307922833874e-19 .000229469207716616 16 217 8
8 233 ?234 212 235 229 0 0 1 30 232 429 0 1 229 236 237 +-.01005 -.01015 -.00487
946920771662 1 0 0 133 236 658 0 238 232 239 0 +239 -.00997946920771662 -.01015
 -.00487946920771662 -.01005 -.01055 -.00495 -.000412248936105654 0 141 237 229
 237 237 232 16 238 106 240 ?241 242 153 236 0 0 1 30 239 443 0 1 236 243 244 +-
.01005 -.01055 -.00495 -.171087869746036 -.970287525247814 -.171087869746036 133
 243 660 0 245 239 246 0 +246 -.00975 -.01055 -.00495 -.01005 -.01055 -.00495 -3
e-4 0 141 244 236 244 244 239 16 245 73 247 ?248 249 250 243 0 0 1 30 246 415 0
 1 243 221 251 +-.01005 -.01055 -.00495 -1 0 0 133 221 662 0 242 246 219 0 +219
 -.00982053079228339 -.01015 -.00487946920771662 -.00975 -.01055 -.00495 -.00041
2248936105654 0 141 251 243 251 251 246 16 242 109 252 ?253 33 238 221 0 0 1 81
 1 252 872 39 242 0 0 254 240 255 17 253 0 256 257 258 259 260 242 0 261 +16 33
 114 254 ?193 11 242 262 0 0 1 81 1 254 871 39 33 0 0 31 252 263 133 262 687 0 3
3 264 265 0 +265 -.00982053079228339 -.01015 -.003820530792283385 -.00975 -.0105
5 -.00375 -.000360922575181844 5132636092381e-17 30 264 434 0 1 204 262 266 +-.0
1005 -.01015 -.003820530792283385 -1 0 0 30 265 448 0 1 262 267 268 +-.009758781
31775228 -.01050019867227926 -.00375878131775227 .171087869746036 -.970287525247
814 .171087869746036 133 267 689 0 269 265 270 0 +270 -.01005 -.01055 -.00375 -.
00975 -.01055 -.00375 0 3e-4 141 268 262 268 268 265 16 269 58 271 ?272 273 274
 267 0 0 1 30 270 403 0 1 267 34 275 +-.01005 -.01055 -.00375 1 0 0 133 34 691 0
 11 270 140 0 +140 -.00997946920771662 -.01015 -.003820530792283385 -.01005 -.01
055 -.00375 -.00020694349241041 .000205305443695244 141 275 267 275 275 270 30 1
40 450 0 1 34 136 276 +-.01001487472899092 -.01035079468911704 -.003785125271009
08 -.171087869746036 -.970287525247814 .171087869746036 141 276 34 276 276 140 8
1 1 271 893 39 269 0 0 277 278 279 17 272 0 88 89 280 197 44 269 0 0 +16 273 60
 277 ?89 281 269 282 0 0 1 16 274 56 278 ?280 269 151 283 0 0 1 81 1 278 894 39
 274 0 0 271 284 285 17 280 0 88 272 286 51 287 274 0 0 +16 151 53 284 ?286 274
 141 288 0 0 1 133 283 676 0 274 282 289 0 +290 -.01005 -.01055 -.0042 -.01005 -
.01055 -.00375 75e-5 .0012 133 282 671 0 273 226 283 0 +291 -.00975 -.01055 -.00
375 -.00975 -.01055 -.0042 -.0012 -75e-5 133 289 678 0 292 283 293 0 +293 -.0100
5 -.01055 -.0042 -.00997946920771662 -.01015 -.004270530792283385 59880754411112
e-18 .000472129690516766 30 290 417 0 1 294 295 296 +-.01005 -.01055 -.00495 0 0
 1 133 294 642 0 249 297 290 0 +290 -.01005 -.01055 -.00495 -.01005 -.01055 -.00
45 0 45e-5 133 295 647 0 250 290 291 0 +291 -.00975 -.01055 -.0045 -.00975 -.010
55 -.00495 -45e-5 0 141 296 294 298 298 290 141 298 283 296 296 290 16 250 71 29
9 ?300 245 281 295 0 0 1 30 291 413 0 1 295 230 301 +-.00975 -.01055 -.00495 0 0
 -1 133 230 649 0 302 291 228 0 +228 -.00975 -.01055 -.0045 -.00982053079228339
 -.01015 -.004429469207716615 -.0001112071153349222 .000301041820770732 141 301
 295 303 303 291 141 303 282 301 301 291 16 302 46 304 ?305 152 306 230 0 0 1 81
 1 304 898 39 302 0 0 307 308 309 17 305 0 256 258 257 310 311 302 0 312 +16 152
 48 307 ?313 141 302 135 0 0 1 16 306 44 308 ?312 302 109 314 0 0 1 81 1 308 899
 39 306 0 0 304 315 316 17 312 0 317 311 318 310 319 306 0 0 +16 109 41 315 ?318
 306 98 320 0 0 1 133 314 611 0 306 321 322 0 +322 -.0090035153961027 -.01015 -.
004429469207716615 -.00982053079228339 -.01015 -.004429469207716615 .00900351539
61027 .00982053079228339 133 321 609 0 323 135 314 0 +324 -.0107964846038973 -.0
1015 -.004429469207716615 -.0107964846038973 -.01015 -.004270530792283385 4.6239
7471545035 4.80080324531903 30 322 390 0 1 314 325 326 +0 -.01015 -.004429469207
716615 -1 0 0 133 325 613 0 281 322 324 0 +324 -.0090035153961027 -.01015 -.0042
70530792283385 -.0090035153961027 -.01015 -.004429469207716615 1.48238206186056
 1.659210591729235 141 326 314 327 327 322 141 327 328 326 326 322 133 328 631 0
 329 330 331 0 +322 -.00997946920771662 -.01015 -.004429469207716615 -.010796484
6038973 -.01015 -.004429469207716615 .00997946920771662 .0107964846038973 16 329
 84 332 ?333 235 334 328 0 0 1 30 330 419 0 1 335 328 336 +-.0104 -.01055 -.0045
 -1 0 0 133 331 638 0 235 328 337 0 +337 -.00997946920771662 -.01015 -.004429469
207716615 -.00997946920771662 -.01015 -.00487946920771662 -.000520530792283388 -
705307922833857e-19 16 235 86 338 ?339 217 329 331 0 0 1 30 337 427 0 1 331 340
 341 +-.00997946920771662 -.01015 -.00495 0 0 -1 133 340 640 0 342 337 297 0 +29
7 -.00997946920771662 -.01015 -.004429469207716615 -.01005 -.01055 -.0045 -.0004
72129690516766 -59880754411112e-18 141 341 331 343 343 337 141 343 344 341 341 3
37 133 344 680 0 202 293 204 0 +337 -.00997946920771662 -.01015 -.00382053079228
3385 -.00997946920771662 -.01015 -.004270530792283385 -.00112946920771662 -.0006
79469207716617 16 202 95 345 ?200 292 195 344 0 0 1 30 293 437 0 1 289 344 346 +
-.010060244870711 -.01060810154900752 -.004189755129289015 .171087869746036 .970
287525247814 -.171087869746036 133 204 685 0 195 344 264 0 +264 -.00982053079228
339 -.01015 -.003820530792283385 -.00997946920771662 -.01015 -.00382053079228338
5 -.000229469207716616 -705307922833874e-19 141 346 289 346 346 293 81 1 345 878
 39 202 0 0 347 201 348 17 200 0 199 206 194 69 45 202 0 349 +16 292 98 347 ?350
 351 202 289 0 0 1 81 1 347 877 39 292 0 0 352 345 353 17 350 0 190 45 287 69 35
4 292 0 200 +16 351 99 352 ?113 342 292 154 0 0 1 81 1 352 876 39 351 0 0 355 34
7 356 17 113 0 111 101 79 63 115 351 0 357 +16 342 102 355 ?358 153 351 340 0 0
 1 38 154 764 0 351 142 359 0 +7 23 360 361 362 363 133 359 795 0 364 154 365 0
 +22 -.0107964846038973 -.01015 -.004429469207716615 -.01079265669250696 -.01035
 -.004464734603858305 1.659210591729235 1.69862707630415 40 6 360 0 1 6 11863227
29547156e-20 .338702804088894 ??-.01079265669250696 -.01035 -.004235265396141695
 -.01077945975491192 -.01041680468433176 -.00422348592785629 -.01074465425593948
 -.0104755629650949 -.00421312525761771 -.01069163474281336 -.0105203657276546 -
.004205225321768155 -.01062596714641266 -.01054572103153696 -.004200754497589635
 -.01058373971655906 -.0105500000000009 -.00419999999999984 41 1 361 L?-.0107926
5669250696 -.01035 -.004235265396141695 41 1 362 L?-.01058373971655906 -.0105500
000000009 -.00419999999999984 204 24 363 4 1.442965577285646 0 -.000203085322377
1495 .0003926566925069685 1.427922189642542 .340568953453916 -.00013525006810804
5 .000379459754911913 1.410144583483662 .67874262339909 -755853461525099e-19 .00
0344654255939478 1.389914548120094 1.019466410866194 -300914287633787e-19 .00029
1634742813367 1.368039630130174 1.363569057995784 -434497844878957e-20 .00022596
71464126605 1.354835828109776 1.570796326793795 9264660818357e-28 .0001837397165
59059 16 364 25 366 ?367 323 139 359 0 0 1 133 365 801 0 123 359 110 0 +368 -.01
079265669250696 -.01035 -.004235265396141695 -.0107964846038973 -.01015 -.004270
530792283385 4.58455823087544 4.62397471545035 32 255 22 821 0 1 320 8 369 +-.00
99 -.00969930772705735 -.00435 0 -.1736481776669305 .984807753012208 0 .98480775
3012208 .1736481776669305 .00518289343482927 9e-4 133 320 824 0 109 368 22 0 +22
 -.00900734330749303 -.01035 -.004464734603858305 -.0090035153961027 -.01015 -.0
04429469207716615 4.58455823087544 4.62397471545035 141 369 320 370 370 22 141 3
70 359 369 369 22 32 368 815 0 1 110 320 371 +-.0099 -.00969930772705735 -.00435
 0 -.1736481776669305 -.984807753012208 0 .984807753012208 -.1736481776669305 .0
0518289343482927 9e-4 133 110 818 0 98 365 368 0 +368 -.0090035153961027 -.01015
 -.004270530792283385 -.00900734330749303 -.01035 -.004235265396141695 1.6592105
91729235 1.698627076304145 141 371 110 372 372 368 141 372 365 371 371 368 16 12
3 29 373 ?122 91 323 365 0 0 1 81 1 373 905 39 123 0 0 374 375 376 17 122 0 377
 349 115 378 119 123 0 121 +16 91 32 374 ?85 225 123 379 0 0 1 16 323 27 375 ?12
1 123 364 321 0 0 1 81 1 375 906 39 323 0 0 373 366 380 17 121 0 105 119 381 378
 382 323 0 0 +17 381 0 105 121 383 75 367 364 0 0 -18 378 28 384 206 385 75 386
 5e-7 1 17 382 0 199 387 206 75 121 323 0 381 -17 387 0 199 339 382 388 333 329
 0 0 -17 206 0 199 382 200 378 349 334 0 122 -18 75 26 389 333 378 71 390 5e-7 1
 81 1 389 865 39 75 0 0 384 73 391 17 333 0 165 367 392 75 387 329 0 382 +29 390
 372 0 75 393 386 -.0107964846038973 -.01015 -.004429469207716615 29 393 391 0 6
4 394 390 -.00975 -.01055 -.0045 29 386 374 0 378 390 395 -.0107964846038973 -.0
1015 -.004270530792283385 29 395 389 0 310 386 396 -.00982053079228339 -.01015 -
.004429469207716615 18 310 45 397 216 64 57 395 5e-7 1 29 396 380 0 209 395 398
 -.00982053079228339 -.01015 -.004270530792283385 18 209 35 399 205 58 385 396 5
e-7 1 29 398 422 0 69 396 400 -.00997946920771662 -.01015 -.004270530792283385 1
8 69 83 401 350 388 65 398 5e-7 1 29 400 398 0 83 398 402 -.01005 -.01055 -.0042
 18 83 55 403 354 51 63 400 5e-7 1 29 402 416 0 70 400 404 -.01005 -.01055 -.004
5 18 70 76 405 358 65 406 402 5e-7 1 29 404 424 0 388 402 407 -.0099794692077166
2 -.01015 -.004429469207716615 18 388 85 408 392 409 69 404 5e-7 1 29 407 426 0
 409 404 410 -.00997946920771662 -.01015 -.00487946920771662 18 409 87 411 412 4
7 388 407 5e-7 1 29 410 414 0 406 407 413 -.01005 -.01055 -.00495 18 406 74 414
 241 70 259 410 5e-7 1 29 413 412 0 259 410 415 -.00975 -.01055 -.00495 18 259 7
2 416 253 406 197 413 5e-7 1 29 415 428 0 47 413 48 -.00982053079228339 -.01015
 -.00487946920771662 18 47 89 417 260 37 409 415 5e-7 1 29 48 431 0 37 415 52 -.
00982053079228339 -.01015 -.003820530792283385 29 52 402 0 197 48 49 -.00975 -.0
1055 -.00375 18 197 59 418 193 259 51 52 5e-7 1 81 1 418 852 39 197 0 0 416 419
 420 18 51 57 419 32 197 83 49 5e-7 1 81 1 419 853 39 51 0 0 418 403 421 17 32 0
 190 287 45 51 36 11 0 44 +15 190 116 0 287 174 0 17 287 0 190 350 32 83 280 274
 0 286 -17 45 0 190 32 350 12 200 202 0 194 -17 44 0 42 36 193 51 272 269 0 280
 -17 286 0 88 280 82 83 357 151 0 0 +15 88 52 0 286 422 0 17 82 0 88 286 85 63 1
01 116 0 113 -17 357 0 377 115 354 63 286 151 0 0 -15 377 97 0 122 163 0 17 115
 0 377 122 357 76 113 351 0 119 -17 354 0 377 357 349 83 350 292 0 287 -17 349 0
 377 354 122 69 206 334 0 0 +16 334 82 423 ?349 329 133 424 0 0 1 81 1 423 885 3
9 334 0 0 332 425 426 16 133 79 425 ?427 334 428 130 0 0 1 133 424 622 0 334 429
 288 0 +429 -.0107964846038973 -.01015 -.004270530792283385 -.00997946920771662
 -.01015 -.004270530792283385 -.0107964846038973 -.00997946920771662 30 429 383
 0 1 430 424 431 +0 -.01015 -.004270530792283385 1 0 0 133 288 624 0 151 424 432
 0 +432 -.01058373971655896 -.01055000000000046 -.00419999999999992 -.01005 -.01
055 -.0042 -.0001837397165589635 35e-5 30 432 399 0 1 288 335 433 +-.0104 -.0105
5 -.0042 1 0 0 133 335 629 0 428 432 330 0 +330 -.01005 -.01055 -.0045 -.0105837
3971655886 -.01055 -.0045 -35e-5 .0001837397165588685 141 433 288 434 434 432 14
1 434 379 433 433 432 133 379 577 0 91 0 129 0 +432 -.00975 -.01055 -.0042 -.009
21626028344113 -.01055 -.0042 65e-5 .00118373971655887 133 129 579 0 116 379 130
 0 +130 -.01058373971655896 -.01055000000000046 -.00419999999999992 -.0092162602
8344113 -.01055 -.0042 4.92834947906973 7.63802113528953 16 428 77 435 ?436 133
 249 335 0 0 1 81 1 435 887 39 428 0 0 425 437 438 17 436 0 439 62 440 65 441 42
8 0 0 +16 249 75 437 ?440 428 245 294 0 0 1 81 1 437 888 39 249 0 0 435 247 442
 17 440 0 439 436 248 70 443 249 0 0 +15 439 70 0 313 444 0 17 248 0 439 440 300
 406 261 245 0 0 +17 443 0 173 412 358 406 440 249 0 248 -15 173 105 0 445 164 0
 17 412 0 173 445 443 409 241 238 0 446 -17 358 0 173 443 445 70 392 342 0 441 +
17 445 0 173 358 412 388 339 235 0 387 -17 392 0 165 333 441 388 358 342 0 445 -
17 441 0 165 392 68 70 436 428 0 440 -15 165 101 0 441 159 0 17 68 0 165 441 367
 65 74 153 0 427 -17 367 0 165 68 333 71 381 364 0 383 +17 74 0 192 56 427 71 68
 153 0 367 +16 153 103 447 ?74 238 342 142 0 0 1 17 427 0 192 74 150 65 62 133 0
 436 +15 192 123 0 150 17 0 17 150 0 192 427 56 59 448 141 0 449 +17 62 0 439 31
3 436 59 427 133 0 150 -17 313 0 439 300 62 64 449 152 0 311 +17 300 0 439 248 3
13 259 257 250 0 0 +18 64 47 450 257 59 310 393 5e-7 1 17 449 0 317 448 311 59 3
13 152 0 0 -17 311 0 317 449 312 64 305 302 0 0 -15 317 40 0 318 166 0 17 318 0
 317 312 448 57 451 109 0 0 +14 166 39 452 ?100 422 317 6 143 +159 159 100 422 3
0 81 1 452 1038 184 166 453 0 187 180 454 14 100 30 455 ?120 166 95 6 23 +163 16
3 120 166 30 14 422 51 187 ?166 456 88 6 457 +444 444 166 456 30 81 1 187 1037 1
84 422 458 0 183 452 459 14 456 67 186 ?422 444 460 6 461 -0 0 422 444 30 50 457
 396 0 422 0 462 0 +-.0104 -.01055 -.00525 0 -1 0 0 0 1 14 444 69 463 ?456 207 4
39 6 457 +422 422 456 207 30 81 1 463 1029 184 444 464 0 465 466 467 14 207 80 4
66 ?444 163 199 6 167 +0 0 444 163 30 81 1 466 1030 184 207 468 0 463 189 469 14
 163 96 470 ?207 159 377 6 23 +100 100 207 159 30 50 167 421 0 207 461 23 0 +0 -
.01015 0 0 -1 0 0 0 1 50 461 410 0 456 462 167 0 +-.0099 -.00955 -.00435 0 -1 0
 0 0 1 51 255 462 406 0 120 457 461 0 +-.0099 -.01309558441227158 -.00435 0 1 0
 9e-4 0 0 -1 14 120 13 471 ?112 100 472 6 462 +0 0 112 100 30 81 1 471 1024 184
 120 473 0 191 177 474 14 112 3 465 ?0 120 111 6 7 +17 17 0 120 30 15 472 836 0
 475 120 105 17 475 0 472 475 475 0 476 118 0 0 -17 476 0 460 476 476 0 475 118
 0 0 +16 118 19 477 ?476 139 21 131 0 0 1 81 1 477 909 39 118 0 0 478 117 479 16
 139 23 478 ?56 364 118 136 0 0 1 81 1 478 908 39 139 0 0 366 477 480 17 56 0 19
2 150 74 53 383 139 0 448 +17 383 0 105 381 451 71 56 139 0 0 -17 448 0 317 318
 449 53 150 141 0 451 -17 451 0 105 383 106 53 318 109 0 0 -17 106 0 105 451 97
 57 208 281 0 319 +18 57 43 481 106 310 53 394 5e-7 1 17 208 0 199 103 319 58 10
6 281 0 97 -16 281 64 482 ?106 250 273 325 0 0 1 17 319 0 199 208 216 57 312 306
 0 318 -17 216 0 199 319 234 310 258 212 0 305 +17 234 0 199 216 339 47 446 217
 0 0 +17 258 0 256 253 305 47 216 212 0 234 -15 256 108 0 257 172 0 17 257 0 256
 305 253 64 300 250 0 313 -14 172 107 483 ?164 175 256 6 176 +178 178 164 175 30
 81 1 483 1026 184 172 484 0 177 465 485 80 7 CCCCCDI12 legal_owners0 17 1 lCZ1
 184 0 486 8001 0 0 0 0 3 5 0 0 0 FFFFTFTFFFFFFFFFF2 81 1 484 918 39 172 0 483 4
87 488 489 81 1 177 1025 184 175 487 0 471 483 490 81 1 465 1028 184 112 491 0 4
83 463 492 83 255 3 485 .776470588235294 .756862745098039 .737254901960784 81 1
 491 929 39 112 0 465 473 493 494 83 3 492 .776470588235294 .756862745098039 .73
7254901960784 80 1 39 495 496 9000 0 0 0 0 3 5 0 0 0 FFTFTFTTFFFFFFFFF2 81 1 473
 928 39 120 0 471 497 491 498 81 1 493 930 39 1 499 500 491 0 501 83 1 494 6340
 81 1 499 840 502 1 0 493 0 0 503 81 1 500 931 504 1 493 505 0 0 506 83 1 501 63
41 80 1 504 39 507 9000 0 0 0 0 3 5 0 0 0 FFTFTFTTFFFFFFFFF2 81 1 505 1027 508 1
 500 14 0 0 509 83 1 506 6713 80 1 508 184 510 8040 0 0 0 0 3 5 0 0 0 TTTFFFFFFF
FFFFFFF2 81 1 14 1040 511 1 505 2 0 0 512 83 3 509 1 1 1 80 1 511 13 513 8038 0
 0 0 0 0 0 0 0 0 TTTTTTTTTTTTTFTFT10 98 255 40 512 83 71 57 48 32 45 32 77 105 9
9 114 111 32 83 101 114 118 111 32 57 103 32 45 32 84 111 119 101 114 32 80 114
 111 46 49 95 80 101 8225 97 79 255 14 513 SDL/TYSA_UNAME79 17 510 SDL/TYSA_COLO
UR_279 18 507 BTI/importMaxCount80 1 502 514 515 9000 0 0 0 0 3 5 0 0 0 TTTFFFFF
FFFFFFFFF1 82 255 1 503 11 79 23 515 ONSHAPE_ORIGINALBODY_ID81 1 497 927 39 100
 0 455 453 473 516 83 1 498 6339 81 1 455 1034 184 100 497 0 171 186 517 81 1 45
3 926 39 166 0 452 458 497 518 83 1 516 6338 81 1 458 925 39 422 0 187 519 453 5
20 83 1 518 6337 81 1 519 924 39 456 0 186 464 458 521 83 1 520 6336 81 1 186 10
35 184 456 519 0 455 183 522 81 1 464 923 39 444 0 463 468 519 523 83 1 521 6335
 81 1 468 922 39 207 0 466 524 464 525 83 1 523 6334 81 1 524 921 39 163 0 470 5
26 468 527 83 1 525 6333 81 1 470 1032 184 163 524 0 189 171 528 81 1 526 920 39
 159 0 162 488 524 529 83 1 527 6332 81 1 162 1022 184 159 526 0 0 191 530 81 1
 488 919 39 164 0 171 484 526 531 83 1 529 6331 81 1 171 1033 184 164 488 0 470
 455 532 83 1 531 6330 83 3 532 .776470588235294 .756862745098039 .7372549019607
84 81 1 191 1023 184 17 127 0 162 471 533 83 3 530 .776470588235294 .75686274509
8039 .737254901960784 81 1 127 913 39 17 0 191 124 185 534 83 3 533 .77647058823
5294 .756862745098039 .737254901960784 81 1 185 914 39 182 0 183 127 535 536 83
 1 534 6324 81 1 535 915 39 174 0 189 185 537 538 83 1 536 6325 81 1 189 1031 18
4 174 535 0 466 470 539 81 1 537 916 39 178 0 180 535 487 540 83 1 538 6326 81 1
 180 1039 184 178 537 0 452 0 541 81 1 487 917 39 175 0 177 537 484 542 83 1 540
 6327 83 1 542 6328 83 3 541 .776470588235294 .756862745098039 .737254901960784
 83 3 539 .776470588235294 .756862745098039 .737254901960784 83 3 528 .776470588
235294 .756862745098039 .737254901960784 83 3 522 .776470588235294 .756862745098
039 .737254901960784 83 3 517 .776470588235294 .756862745098039 .737254901960784
 79 13 496 BTI/importTag83 3 490 .776470588235294 .756862745098039 .737254901960
784 83 1 489 6329 79 15 486 SDL/TYSA_COLOUR17 339 0 199 234 387 409 445 235 0 0
 +17 446 0 179 241 260 409 234 217 0 339 -15 179 111 0 446 175 0 17 241 0 179 26
1 446 406 412 238 0 443 +17 260 0 179 446 261 47 253 242 0 258 -17 261 0 179 260
 241 259 248 245 0 300 -81 1 482 891 39 281 0 0 299 277 543 81 1 299 890 39 250
 0 0 247 482 544 81 1 277 892 39 273 0 0 482 271 545 83 1 543 6302 83 1 545 6303
 81 1 247 889 39 245 0 0 437 299 546 83 1 544 6301 83 1 546 63e2 18 58 37 547 20
8 53 209 548 5e-7 1 81 1 547 861 39 58 0 0 55 399 549 29 548 382 0 58 550 394 -.
0090035153961027 -.01015 -.004270530792283385 29 550 378 0 385 0 548 -.00975 -.0
1055 -.0042 29 394 387 0 57 548 393 -.0090035153961027 -.01015 -.004429469207716
615 18 385 33 551 89 209 378 550 5e-7 1 81 1 551 863 39 385 0 0 399 384 552 17 8
9 0 88 85 272 385 198 273 0 210 +17 198 0 181 46 210 197 89 273 0 272 -17 210 0
 181 198 205 385 102 225 0 90 +15 181 113 0 205 178 0 17 102 0 95 96 90 209 210
 225 0 0 -16 225 34 553 ?210 104 91 223 0 0 1 17 90 0 95 102 92 385 85 91 0 0 -8
1 1 553 903 39 225 0 0 554 374 555 16 104 36 554 ?96 98 225 430 0 0 1 81 1 554 9
02 39 104 0 0 108 553 556 133 430 615 0 104 324 429 0 +429 -.00982053079228339 -
.01015 -.004270530792283385 -.0090035153961027 -.01015 -.004270530792283385 -.00
982053079228339 -.0090035153961027 31 324 407 0 1 325 430 557 +-.0099 -.01015 -.
00435 0 1 0 0 0 1 9e-4 141 557 325 558 558 324 141 558 321 557 557 324 81 1 108
 901 39 98 0 0 315 554 559 83 1 556 6313 81 1 315 900 39 109 0 0 308 108 560 83
 1 559 6312 83 1 560 6311 81 1 374 904 39 91 0 0 553 373 561 83 1 555 6314 83 1
 561 6315 17 46 0 181 205 198 37 193 33 0 43 -81 1 399 862 39 209 0 0 547 551 56
2 81 1 384 864 39 378 0 0 551 389 563 83 1 552 6274 83 1 563 6275 83 1 562 6273
 81 1 55 860 39 53 0 0 481 547 564 83 1 549 6272 81 1 481 859 39 57 0 0 397 55 5
65 83 1 564 6271 81 1 397 858 39 310 0 0 450 481 566 83 1 565 6270 81 1 450 857
 39 64 0 0 61 397 567 83 1 566 6269 81 1 61 856 39 59 0 0 81 450 568 83 1 567 62
68 81 1 81 855 39 63 0 0 403 61 569 83 1 568 6267 81 1 403 854 39 83 0 0 419 81
 570 83 1 569 6266 83 1 570 6265 81 1 366 907 39 364 0 0 375 478 571 83 1 480 63
19 83 1 571 6318 81 1 117 910 39 21 0 0 477 126 572 83 1 479 6320 81 1 126 911 3
9 116 0 0 117 124 573 83 1 572 6321 83 1 573 6322 15 460 68 0 476 456 0 83 3 474
 .776470588235294 .756862745098039 .737254901960784 83 3 469 .776470588235294 .7
56862745098039 .737254901960784 83 3 467 .776470588235294 .756862745098039 .7372
54901960784 83 3 459 .776470588235294 .756862745098039 .737254901960784 83 3 454
 .776470588235294 .756862745098039 .737254901960784 81 1 447 874 39 153 0 0 240
 355 574 81 1 240 873 39 238 0 0 252 447 575 81 1 355 875 39 342 0 0 447 352 576
 83 1 574 6285 83 1 576 6286 83 1 575 6284 83 1 442 6299 81 1 425 886 39 133 0 0
 423 435 577 83 1 438 6298 83 1 577 6297 141 431 430 578 578 429 141 578 424 431
 431 429 81 1 332 884 39 329 0 0 338 423 579 83 1 426 6296 81 1 338 883 39 235 0
 0 233 332 580 83 1 579 6295 81 1 233 882 39 217 0 0 214 338 581 83 1 580 6294 8
1 1 214 881 39 212 0 0 211 233 582 83 1 581 6293 83 1 582 6292 83 1 421 6264 81
 1 416 851 39 259 0 0 414 418 583 83 1 420 6263 81 1 414 850 39 406 0 0 405 416
 584 83 1 583 6262 81 1 405 849 39 70 0 0 67 414 585 83 1 584 6261 81 1 67 848 3
9 65 0 0 401 405 586 83 1 585 6260 81 1 401 847 39 69 0 0 408 67 587 83 1 586 62
59 81 1 408 846 39 388 0 0 411 401 588 83 1 587 6258 81 1 411 845 39 409 0 0 417
 408 589 83 1 588 6257 81 1 417 844 39 47 0 0 40 411 590 83 1 589 6256 81 1 40 8
43 39 37 0 0 35 417 591 83 1 590 6255 83 1 591 6254 81 1 73 866 39 71 0 0 389 78
 592 83 1 391 6276 81 1 78 867 39 76 0 0 73 84 593 83 1 592 6277 83 1 593 6278 8
3 1 380 6317 83 1 376 6316 83 1 356 6287 83 1 353 6288 81 1 201 879 39 195 0 0 3
45 211 594 83 1 348 6289 83 1 594 6290 30 297 440 0 1 340 294 595 +-.01006024487
0711 -.01060810154900752 -.00451024487071098 -.171087869746036 -.970287525247814
 -.171087869746036 141 595 340 595 595 297 141 336 335 596 596 330 141 596 135 3
36 336 330 133 135 604 0 152 131 321 0 +330 -.00921626028344104 -.01055000000000
046 -.00450000000000008 -.00975 -.01055 -.0045 -.001183739716558964 -65e-5 83 1
 316 6310 81 1 307 897 39 152 0 0 149 304 597 81 1 149 896 39 141 0 0 284 307 59
8 83 1 597 6308 81 1 284 895 39 151 0 0 278 149 599 83 1 598 6307 83 1 599 6306
 83 1 309 6309 30 226 381 0 1 223 282 600 +-.00976902618846326 -.010442097123271
72 -.004219026188463255 .171087869746036 -.970287525247814 .171087869746036 141
 600 223 600 600 226 83 1 285 6305 83 1 279 6304 141 266 204 266 266 264 81 1 31
 870 39 11 0 0 86 254 601 83 1 263 6282 83 1 601 6281 83 1 255 6283 141 231 230
 231 231 228 141 222 221 222 222 219 83 1 215 6291 83 3 188 .776470588235294 .75
6862745098039 .737254901960784 141 168 154 602 602 23 141 602 8 168 168 23 40 6
 155 0 1 6 119940160810604e-19 .3417134703339185 ??-.01058373971655886 -.01055 -
.0045 -.01065290961915496 -.0105383341929157 -.004497943003459295 -.010714275020
55422 -.0105048543436308 -.004492039602720315 -.0107612767074193 -.0104529499485
5534 -.004482887457451165 -.01078791320216394 -.0103888110414537 -.0044715780376
1599 -.0107926566925073 -.01035 -.00446473460385832 41 1 156 L?-.010583739716558
86 -.01055 -.0045 41 1 157 L?-.0107926566925073 -.01035 -.00446473460385832 204
 24 158 4 1.78675682547985 1.5707963267949 0 .0001837397165588685 1.764819469557
51 1.227561507985604 1184577096253366e-20 .0002529096191549575 1.74349556448779
 .885563492541994 458421008883422e-19 .000314275020554221 1.72388042834742 .5407
15724202511 98547204921775e-18 .0003612767074193025 1.706875692457765 .195294257
565756 .0001636755580500675 .0003879132021639505 1.698627076304115 3729655473343
785e-28 .000203085322377074 .00039265669250731 141 134 129 134 134 130 83 1 128
 6323 83 1 94 6280 83 1 87 6279 83 1 41 6253 19 18 124 0 1 0 10 6 0 S0 40 6 24 0
 1 6 1199401608106206e-20 .3417134703339285 ??-.00921626028344113 -.01055 -.0042
 -.00914709038084504 -.0105383341929157 -.004202056996540705 -.00908572497944578
 -.0105048543436308 -.004207960397279685 -.0090387232925807 -.01045294994855534
 -.004217112542548835 -.00901208679783605 -.0103888110414537 -.00422842196238401
5 -.00900734330749269 -.01035 -.00423526539614168 41 1 25 L?-.00921626028344113
 -.01055 -.0042 41 1 26 L?-.00900734330749269 -.01035 -.00423526539614168 204 24
 27 4 4.92834947906964 1.5707963267949 0 -.00118373971655887 4.9064121231473 1.2
27561507985598 -1184577096252372e-20 -.00125290961915496 4.88508821807758 .88556
3492541988 -458421008883355e-19 -.00131427502055422 4.86547308193721 .5407157242
02507 -985472049217885e-19 -.0013612767074193 4.84846834604755 .195294257565745
 -.000163675558050063 -.00138791320216395 4.84021972989391 3729655473343785e-28
 -.000203085322377074 -.00139265669250731 141 20 137 603 604 7 141 603 8 605 20
 7 141 604 142 20 605 7 141 605 154 604 603 7 74 4 CI16 index_map_offset0 0 1 dC
CZ20 16 7 0 0 499 493 500 180 505 14 2 0 0 0 0 0 0 0 0 0 0 0 0 0 80 1 13 606 607
 8017 0 0 0 0 0 0 0 0 0 TTTTTTTTTTTTTFTFT3 84 255 40 15 SG90 - Micro Servo 9g -
 Tower Pro.1_Pe‡a79 13 607 SDL/TYSA_NAME1 0 
